<svg width="24" height="24" viewBox="0 0 24 24" fill="none" xmlns="http://www.w3.org/2000/svg">
<path d="M3.69376 0.120296C4.22086 0.283426 4.55345 0.490473 4.96133 0.923393C5.35666 1.33749 5.51981 1.61983 5.67669 2.15942C5.82102 2.64253 5.77709 3.40799 5.58884 3.90365C4.98643 5.46593 3.16037 6.21257 1.67317 5.50358C-0.17171 4.63146 -0.573317 2.23471 0.882508 0.816732C1.62925 0.0951977 2.73366 -0.180866 3.69376 0.120296ZM19.62 7.69328C19.9024 7.74348 20.373 7.86896 20.6679 7.97563C22.4563 8.62187 23.4101 9.95828 23.8619 12.4554C24 13.1895 24 13.3275 24 18.6042V24H21.5213H19.0427L19.005 19.1061C18.9736 14.6514 18.9611 14.1808 18.8607 13.8358C18.685 13.2523 18.4465 12.8193 18.1516 12.5433C17.7437 12.1668 17.3923 12.0351 16.677 11.9974C15.2776 11.9284 14.4179 12.3613 13.9285 13.3966C13.5268 14.2561 13.5268 14.2436 13.4892 19.3571L13.4578 24H10.9792H8.50049L8.48166 15.9815L8.46911 7.96935H10.885H13.3009V9.07989V10.1967L13.4704 9.94573C14.3175 8.67834 15.7106 7.79995 17.1727 7.59917C17.6998 7.52388 18.9297 7.57407 19.62 7.69328ZM5.38176 15.9815L5.36293 24H2.88427H0.4056L0.386775 15.9815L0.374225 7.96935H2.88427H5.39431L5.38176 15.9815Z" fill="black"/>
</svg>
