<svg width="24" height="24" viewBox="0 0 24 24" fill="none" xmlns="http://www.w3.org/2000/svg">
<path d="M8.00097 11.824C8.00097 9.64736 9.79135 7.88235 12.0005 7.88235C14.2096 7.88235 16.001 9.64736 16.001 11.824C16.001 14.0007 14.2096 15.7657 12.0005 15.7657C9.79135 15.7657 8.00097 14.0007 8.00097 11.824ZM5.83836 11.824C5.83836 15.1773 8.59712 17.8955 12.0005 17.8955C15.4039 17.8955 18.1626 15.1773 18.1626 11.824C18.1626 8.47069 15.4039 5.7525 12.0005 5.7525C8.59712 5.7525 5.83836 8.47069 5.83836 11.824ZM16.9664 5.51182C16.9664 6.29499 17.6111 6.93108 18.4069 6.93108C19.2017 6.93108 19.8473 6.29499 19.8473 5.51182C19.8473 4.72865 19.2027 4.09351 18.4069 4.09351C17.6111 4.09351 16.9664 4.72865 16.9664 5.51182ZM7.15182 21.4484C5.98182 21.3959 5.34593 21.2039 4.9233 21.0416C4.36302 20.8267 3.96365 20.5707 3.54295 20.1572C3.12323 19.7436 2.86247 19.3501 2.64534 18.7981C2.48055 18.3817 2.28571 17.7551 2.2324 16.6023C2.17424 15.3559 2.16261 14.9815 2.16261 11.824C2.16261 8.66648 2.17521 8.29304 2.2324 7.04569C2.28571 5.8929 2.48152 5.26732 2.64534 4.84994C2.86344 4.2979 3.12323 3.90441 3.54295 3.4899C3.96268 3.07634 4.36205 2.81942 4.9233 2.60548C5.34593 2.44312 5.98182 2.25115 7.15182 2.19862C8.41682 2.14131 8.7968 2.12985 12.0005 2.12985C15.2051 2.12985 15.5842 2.14227 16.8501 2.19862C18.0201 2.25115 18.655 2.44407 19.0786 2.60548C19.6389 2.81942 20.0383 3.07634 20.459 3.4899C20.8787 3.90345 21.1385 4.2979 21.3566 4.84994C21.5214 5.26636 21.7162 5.8929 21.7695 7.04569C21.8277 8.29304 21.8393 8.66648 21.8393 11.824C21.8393 14.9806 21.8277 15.355 21.7695 16.6023C21.7162 17.7551 21.5204 18.3817 21.3566 18.7981C21.1385 19.3501 20.8787 19.7436 20.459 20.1572C20.0393 20.5707 19.6389 20.8267 19.0786 21.0416C18.656 21.2039 18.0201 21.3959 16.8501 21.4484C15.5851 21.5057 15.2051 21.5172 12.0005 21.5172C8.7968 21.5172 8.41682 21.5057 7.15182 21.4484ZM7.05295 0.0716317C5.77535 0.128937 4.90294 0.328551 4.14007 0.620808C3.35102 0.922616 2.68218 1.32757 2.0143 1.98468C1.34739 2.64178 0.936387 3.30079 0.630074 4.07919C0.333455 4.83084 0.130862 5.69042 0.0727008 6.94923C0.0135708 8.20995 0 8.613 0 11.824C0 15.035 0.0135708 15.4381 0.0727008 16.6988C0.130862 17.9576 0.333455 18.8172 0.630074 19.5688C0.936387 20.3463 1.34642 21.0062 2.0143 21.6633C2.68121 22.3204 3.35005 22.7244 4.14007 23.0272C4.90391 23.3195 5.77535 23.5191 7.05295 23.5764C8.33346 23.6337 8.74155 23.648 12.0005 23.648C15.2604 23.648 15.6685 23.6346 16.948 23.5764C18.2256 23.5191 19.098 23.3195 19.8609 23.0272C20.6499 22.7244 21.3188 22.3204 21.9867 21.6633C22.6536 21.0062 23.0636 20.3463 23.3709 19.5688C23.6675 18.8172 23.8711 17.9576 23.9283 16.6988C23.9864 15.4371 24 15.035 24 11.824C24 8.613 23.9864 8.20995 23.9283 6.94923C23.8701 5.69042 23.6675 4.83084 23.3709 4.07919C23.0636 3.30174 22.6536 2.64273 21.9867 1.98468C21.3198 1.32757 20.6499 0.922616 19.8619 0.620808C19.098 0.328551 18.2256 0.127982 16.949 0.0716317C15.6695 0.0143263 15.2604 0 12.0015 0C8.74155 0 8.33346 0.0133713 7.05295 0.0716317Z" fill="black"/>
</svg>
