<?xml version="1.0" encoding="utf-8"?>
<!-- Generator: Adobe Illustrator 24.2.0, SVG Export Plug-In . SVG Version: 6.00 Build 0)  -->
<svg width="116" height="125" version="1.1" id="Layer_1" xmlns="http://www.w3.org/2000/svg" xmlns:xlink="http://www.w3.org/1999/xlink" x="0px" y="0px"
	 viewBox="0 0 116 125" style="enable-background:new 0 0 116 125;" xml:space="preserve">
<path d="M23.9,55.5c0.7,0,1.3,0,2,0c0.4,0,0.6,0.1,0.8,0.4c1.8,2.3,3.6,4.5,5.4,6.8c0,0.1,0.1,0.1,0.2,0.2c0-2.5,0-4.9,0-7.4
	c1,0,1.9,0,2.9,0c0,0.1,0,0.2,0,0.3c0,4,0,8.1,0,12.1c0,0.2-0.1,0.3-0.3,0.3c-0.7,0-1.5,0-2.2,0c-0.2,0-0.3-0.1-0.4-0.2
	c-1.8-2.2-3.5-4.4-5.3-6.6c-0.1-0.1-0.1-0.2-0.2-0.3c0,2.4,0,4.7,0,7.1c-1,0-1.9,0-2.9,0C23.9,63.9,23.9,59.8,23.9,55.5z"/>
<path d="M86.5,64.2c0.9,1.3,1.8,2.6,2.7,4c-0.1,0-0.2,0-0.3,0c-1,0-2.1,0-3.1,0c-0.2,0-0.3,0-0.3-0.2c-0.7-1-1.3-2-2-3
	c-0.1-0.1-0.2-0.2-0.3-0.2c-0.5,0-0.9,0-1.4,0c0,1.1,0,2.2,0,3.3c-1.1,0-2.1,0-3.2,0c0-4.2,0-8.4,0-12.6c0.1,0,0.2,0,0.3,0
	c1.8,0,3.5,0,5.3,0c2.6,0,4.5,1.9,4.5,4.4c0,1.5-0.5,2.8-1.6,3.8C86.8,63.9,86.6,64,86.5,64.2z M81.6,60.1c0,0.6,0,1.2,0,1.9
	c0,0.1,0,0.2,0.2,0.2c0.6,0,1.1,0,1.7,0c1.2-0.1,2-0.9,2-2.1c0-1.2-0.9-2-2.1-2c-0.5,0-1,0-1.5,0c-0.2,0-0.2,0.1-0.2,0.3
	C81.6,58.9,81.6,59.5,81.6,60.1z"/>
<path d="M14.6,68.1c-0.1,0-0.1,0-0.2,0c-1.2,0-2.3,0-3.5,0c-0.1,0-0.2-0.1-0.3-0.2c-1-1.4-1.9-2.9-2.9-4.3c0-0.1-0.1-0.1-0.2-0.2
	c-0.2,0.2-0.3,0.4-0.5,0.6c-0.2,0.3-0.6,0.5-0.7,0.8c-0.1,0.3,0,0.7,0,1.1c0,0.6,0,1.3,0,1.9c0,0.1,0,0.2,0,0.3c-1.1,0-2.1,0-3.2,0
	c0-4.2,0-8.4,0-12.6c1,0,2.1,0,3.2,0c0,1.8,0,3.5,0,5.3c0,0,0,0,0.1,0c0-0.1,0.1-0.1,0.1-0.2c1.2-1.7,2.5-3.3,3.7-5
	c0.1-0.1,0.2-0.2,0.4-0.2c1.1,0,2.3,0,3.4,0c0.1,0,0.2,0,0.3,0c-0.1,0.1-0.1,0.2-0.2,0.2c-1.4,1.7-2.9,3.3-4.3,5
	c-0.1,0.2-0.1,0.3,0,0.4c1.5,2.2,3,4.5,4.5,6.7C14.5,67.9,14.5,68,14.6,68.1z"/>
<path d="M76.7,68.1c-0.7,0-1.4,0-2,0c-0.3,0-0.6,0-1,0c-0.1,0-0.2,0-0.3-0.2c-0.2-0.5-0.4-0.9-0.5-1.4c0-0.1-0.1-0.2-0.3-0.2
	c-1.5,0-2.9,0-4.4,0c-0.1,0-0.2,0-0.3,0.2c-0.2,0.5-0.3,0.9-0.5,1.4c0,0.1-0.1,0.2-0.2,0.2c-1,0-2,0-3.1,0c0-0.1,0.1-0.2,0.1-0.2
	c1.7-4.1,3.4-8.1,5.1-12.2c0.1-0.1,0.1-0.2,0.3-0.2c0.5,0,1.1,0,1.6,0c0.1,0,0.2,0,0.3,0.2c1.7,4.1,3.4,8.2,5.1,12.2
	C76.6,68,76.6,68.1,76.7,68.1z M68.8,64.1c1,0,2,0,3.1,0c-0.5-1.4-1-2.7-1.5-4c0,0,0,0-0.1,0C69.8,61.4,69.3,62.8,68.8,64.1z"/>
<path d="M112.8,68.1c-0.6,0-1.2,0-1.8,0c-0.4,0-0.8,0-1.1,0c-0.2,0-0.3-0.1-0.3-0.2c-0.2-0.4-0.3-0.9-0.5-1.3
	c-0.1-0.2-0.1-0.2-0.3-0.2c-1.5,0-2.9,0-4.4,0c-0.2,0-0.2,0.1-0.3,0.2c-0.2,0.5-0.3,0.9-0.5,1.4c0,0.1-0.1,0.2-0.2,0.2c-1,0-2,0-3,0
	c0,0-0.1,0-0.1,0c0.1-0.2,0.2-0.4,0.2-0.6c1.6-3.9,3.3-7.8,4.9-11.8c0.1-0.2,0.2-0.2,0.3-0.2c0.5,0,1.1,0,1.6,0c0.1,0,0.2,0,0.3,0.2
	c1.7,4.1,3.4,8.2,5.1,12.3C112.7,68,112.7,68.1,112.8,68.1z M106.5,60.1C106.5,60.1,106.4,60.1,106.5,60.1c-0.6,1.3-1.1,2.7-1.6,4
	c1,0,2,0,3.1,0C107.5,62.7,107,61.4,106.5,60.1z"/>
<path d="M61.1,64c0.8,0.5,1.6,1,2.3,1.5c-0.4,0.7-1,1.3-1.6,1.8c-0.9,0.7-2,0.9-3.1,1c-2.2,0.2-4.1-0.5-5.6-2.1
	c-1.3-1.4-1.8-3.1-1.7-5c0.3-3.9,3.5-6,6.7-5.9c1,0,2,0.2,3,0.6c1,0.5,1.8,1.3,2.4,2.2c-0.8,0.5-1.6,1-2.4,1.5
	c-0.2-0.3-0.4-0.6-0.7-0.8c-1-0.9-2.3-1.1-3.5-0.7c-1.3,0.4-1.9,1.5-2.1,2.8c-0.1,0.6-0.1,1.3,0.1,1.9c0.5,2.1,2.4,3.2,4.4,2.5
	c0.8-0.2,1.4-0.7,1.8-1.3C61,64.1,61.1,64,61.1,64z"/>
<path d="M97.2,68.1c-1.1,0-2.1,0-3.2,0c0-0.1,0-0.2,0-0.3c0-3.2,0-6.3,0-9.5c0-0.2-0.1-0.3-0.3-0.3c-1,0-1.9,0-2.9,0
	c-0.1,0-0.2,0-0.3,0c0-0.9,0-1.7,0-2.5c3.4,0,6.7,0,10.1,0c0,0.8,0,1.7,0,2.5c-0.1,0-0.2,0-0.3,0c-0.9,0-1.9,0-2.8,0
	c-0.4,0-0.3,0-0.3,0.3c0,3.1,0,6.2,0,9.4C97.2,67.9,97.2,68,97.2,68.1z"/>
<path d="M17,68.1c0-4.2,0-8.4,0-12.6c1.1,0,2.1,0,3.2,0c0,4.2,0,8.4,0,12.6C19.1,68.1,18,68.1,17,68.1z"/>
<path d="M42.7,60.8c0-0.1,0-0.2,0-0.3c0-0.9,0-1.9,0-2.8c0-0.2,0-0.2,0.2-0.2c0.6,0,1.2,0,1.8,0c0,0.1,0,0.2,0,0.3
	c0,0.9,0,1.9,0,2.8c0,0.2,0.1,0.2,0.2,0.2c0.9,0,1.9,0,2.8,0c0.2,0,0.2,0.1,0.2,0.2c0,0.6,0,1.2,0,1.8c-0.1,0-0.2,0-0.3,0
	c-0.9,0-1.9,0-2.8,0c-0.2,0-0.3,0-0.3,0.3c0,0.9,0,1.9,0,2.8c0,0.2,0,0.3-0.2,0.3c-0.5,0-1,0-1.6,0c-0.2,0-0.2-0.1-0.2-0.3
	c0-0.9,0-1.9,0-2.8c0-0.2-0.1-0.3-0.3-0.3c-0.9,0-1.9,0-2.8,0c-0.2,0-0.3-0.1-0.3-0.3c0-0.5,0-1,0-1.6c0-0.2,0.1-0.2,0.2-0.2
	c1,0,1.9,0,2.9,0C42.6,60.8,42.6,60.8,42.7,60.8z"/>
</svg>
