<svg width="116" height="116" viewBox="0 0 116 116" fill="none" xmlns="http://www.w3.org/2000/svg">
<path d="M40.5766 51.222C40.5766 52.1978 40.6832 52.989 40.8697 53.5692C41.0829 54.1495 41.3493 54.7824 41.7223 55.4681C41.8555 55.6791 41.9088 55.8901 41.9088 56.0747C41.9088 56.3385 41.749 56.6022 41.4026 56.8659L39.724 57.9736C39.4842 58.1319 39.2444 58.211 39.0312 58.211C38.7648 58.211 38.4983 58.0791 38.2319 57.8418C37.8588 57.4462 37.5391 57.0242 37.2727 56.6022C37.0062 56.1539 36.7398 55.6528 36.4467 55.0462C34.3684 57.4725 31.7572 58.6857 28.6131 58.6857C26.375 58.6857 24.5898 58.0528 23.2842 56.7868C21.9786 55.5209 21.3125 53.833 21.3125 51.7231C21.3125 49.4813 22.1118 47.6616 23.7371 46.2901C25.3625 44.9187 27.5207 44.233 30.2651 44.233C31.171 44.233 32.1036 44.3121 33.0894 44.444C34.0753 44.5758 35.0878 44.7868 36.1536 45.0242V43.0989C36.1536 41.0945 35.7273 39.6967 34.9013 38.8791C34.0486 38.0616 32.6098 37.6659 30.5582 37.6659C29.6256 37.6659 28.6664 37.7714 27.6806 38.0088C26.6947 38.2462 25.7355 38.5363 24.8029 38.9055C24.3766 39.0901 24.0569 39.1956 23.8704 39.2484C23.6838 39.3011 23.5506 39.3275 23.444 39.3275C23.071 39.3275 22.8845 39.0638 22.8845 38.5099V37.2176C22.8845 36.7956 22.9378 36.4791 23.071 36.2945C23.2042 36.1099 23.444 35.9253 23.8171 35.7407C24.7496 35.2659 25.8687 34.8703 27.1743 34.5539C28.4799 34.211 29.8654 34.0528 31.3309 34.0528C34.5016 34.0528 36.8197 34.7649 38.3118 36.189C39.7773 37.6132 40.5233 39.7758 40.5233 42.6769V51.222H40.5766ZM29.7588 55.2308C30.6381 55.2308 31.544 55.0725 32.5032 54.7561C33.4625 54.4396 34.3151 53.8594 35.0345 53.0681C35.4608 52.567 35.7806 52.0132 35.9404 51.3802C36.1003 50.7473 36.2069 49.9824 36.2069 49.0857V47.978C35.4342 47.7934 34.6082 47.6352 33.7555 47.5297C32.9029 47.4242 32.0769 47.3714 31.2509 47.3714C29.4657 47.3714 28.1602 47.7143 27.2809 48.4264C26.4016 49.1385 25.9753 50.1407 25.9753 51.4594C25.9753 52.6989 26.295 53.622 26.9611 54.255C27.6006 54.9143 28.5332 55.2308 29.7588 55.2308ZM51.1546 58.0791C50.675 58.0791 50.3552 58 50.1421 57.8154C49.9289 57.6572 49.7424 57.2879 49.5825 56.7868L43.321 36.4C43.1611 35.8725 43.0812 35.5297 43.0812 35.3451C43.0812 34.9231 43.2944 34.6857 43.7207 34.6857H46.3319C46.8381 34.6857 47.1845 34.7649 47.371 34.9495C47.5842 35.1077 47.744 35.4769 47.9039 35.978L52.3802 53.4374L56.5368 35.978C56.67 35.4506 56.8299 35.1077 57.043 34.9495C57.2562 34.7912 57.6292 34.6857 58.1088 34.6857H60.2404C60.7467 34.6857 61.093 34.7649 61.3062 34.9495C61.5194 35.1077 61.7059 35.4769 61.8125 35.978L66.0223 53.6484L70.6319 35.978C70.7917 35.4506 70.9782 35.1077 71.1648 34.9495C71.3779 34.7912 71.7243 34.6857 72.2039 34.6857H74.6819C75.1082 34.6857 75.348 34.8967 75.348 35.3451C75.348 35.4769 75.3213 35.6088 75.2947 35.767C75.268 35.9253 75.2148 36.1363 75.1082 36.4264L68.6868 56.8132C68.5269 57.3407 68.3404 57.6835 68.1273 57.8418C67.9141 58 67.5677 58.1055 67.1148 58.1055H64.8233C64.3171 58.1055 63.9707 58.0264 63.7575 57.8418C63.5444 57.6572 63.3578 57.3143 63.2513 56.7868L59.1213 39.7758L55.018 56.7605C54.8848 57.2879 54.725 57.6308 54.5118 57.8154C54.2986 58 53.9256 58.0791 53.446 58.0791H51.1546ZM85.393 58.7912C84.0075 58.7912 82.622 58.633 81.2898 58.3165C79.9575 58 78.9184 57.6572 78.2256 57.2616C77.7993 57.0242 77.5062 56.7605 77.3996 56.5231C77.293 56.2857 77.2398 56.022 77.2398 55.7846V54.4396C77.2398 53.8857 77.4529 53.622 77.8526 53.622C78.0125 53.622 78.1723 53.6484 78.3322 53.7011C78.4921 53.7539 78.7319 53.8594 78.9983 53.9649C79.9042 54.3605 80.8901 54.6769 81.9292 54.8879C82.995 55.0989 84.0342 55.2044 85.0999 55.2044C86.7786 55.2044 88.0842 54.9143 88.9901 54.3341C89.896 53.7539 90.3756 52.9099 90.3756 51.8286C90.3756 51.0901 90.1358 50.4835 89.6562 49.9824C89.1766 49.4813 88.2707 49.033 86.9651 48.611L83.1016 47.4242C81.1565 46.8176 79.7177 45.9209 78.8384 44.7341C77.9592 43.5736 77.5062 42.2813 77.5062 40.9099C77.5062 39.8022 77.746 38.8264 78.2256 37.9824C78.7052 37.1385 79.3447 36.4 80.144 35.8198C80.9434 35.2132 81.8493 34.7649 82.9151 34.4484C83.9809 34.1319 85.0999 34 86.2723 34C86.8585 34 87.4713 34.0264 88.0575 34.1055C88.6703 34.1846 89.2299 34.2901 89.7894 34.3956C90.3223 34.5275 90.8286 34.6594 91.3082 34.8176C91.7878 34.9758 92.1608 35.1341 92.4273 35.2923C92.8003 35.5033 93.0667 35.7143 93.2266 35.9517C93.3865 36.1627 93.4664 36.4528 93.4664 36.822V38.0616C93.4664 38.6154 93.2532 38.9055 92.8536 38.9055C92.6404 38.9055 92.294 38.8 91.8411 38.589C90.3223 37.9033 88.6171 37.5605 86.7253 37.5605C85.2065 37.5605 84.0075 37.7978 83.1815 38.2989C82.3555 38.8 81.9292 39.5648 81.9292 40.6462C81.9292 41.3846 82.1957 42.0176 82.7286 42.5187C83.2615 43.0198 84.2473 43.5209 85.6595 43.9692L89.443 45.1561C91.3615 45.7627 92.747 46.6066 93.573 47.6879C94.399 48.7692 94.7986 50.0088 94.7986 51.3802C94.7986 52.5143 94.5588 53.5429 94.1059 54.4396C93.6263 55.3363 92.9868 56.1275 92.1608 56.7605C91.3348 57.4198 90.349 57.8945 89.2032 58.2374C88.0042 58.6066 86.7519 58.7912 85.393 58.7912Z" fill="black"/>
<path fill-rule="evenodd" clip-rule="evenodd" d="M90.4289 71.6089C81.6628 78.0179 68.9266 81.4199 57.9756 81.4199C42.6282 81.4199 28.7996 75.8019 18.3549 66.4659C17.5289 65.7275 18.2749 64.7253 19.2608 65.3055C30.5582 71.7939 44.4934 75.7229 58.9082 75.7229C68.6335 75.7229 79.318 73.7189 89.15 69.6044C90.6154 68.9451 91.8677 70.5539 90.4289 71.6089Z" fill="black"/>
<path fill-rule="evenodd" clip-rule="evenodd" d="M94.0788 67.4945C92.9597 66.0703 86.6716 66.8088 83.8206 67.1517C82.968 67.2572 82.8347 66.5187 83.6074 65.9649C88.6166 62.4835 96.8499 63.4857 97.8091 64.6462C98.7683 65.833 97.5426 73.9829 92.8532 77.8859C92.1337 78.4919 91.441 78.1759 91.7607 77.3849C92.8265 74.7739 95.1979 68.8923 94.0788 67.4945Z" fill="black"/>
</svg>
