<?xml version="1.0" encoding="utf-8"?>
<!-- Generator: Adobe Illustrator 24.2.0, SVG Export Plug-In . SVG Version: 6.00 Build 0)  -->
<svg width="115" height="124" version="1.1" id="Layer_1" xmlns="http://www.w3.org/2000/svg" xmlns:xlink="http://www.w3.org/1999/xlink" x="0px" y="0px"
	 viewBox="0 0 115 124" style="enable-background:new 0 0 115 124;" xml:space="preserve">
<style type="text/css">
	.st0{fill:#010101;}
</style>
<path class="st0" d="M46.7,68.8c0-0.2-0.2-0.4-0.4-0.4h-0.5h0H35v-6.1h7.6l0,0h0.6c0.2,0,0.4-0.2,0.4-0.4v-1c0-0.2-0.2-0.4-0.4-0.4
	H35v-5.2h10.9c0.2,0,0.4-0.2,0.4-0.4v-1c0-0.2-0.2-0.4-0.4-0.4H33.3c-0.2,0-0.4,0.2-0.4,0.4v16.1c0,0.2,0.2,0.4,0.4,0.4h12.9
	c0.2,0,0.4-0.2,0.4-0.4L46.7,68.8L46.7,68.8z"/>
<path class="st0" d="M78.6,60.9l-0.3-0.1c-3-0.8-5.2-1.3-5.3-3c-0.1-0.8,0.3-1.5,1.1-2c0.7-0.5,1.7-0.8,3-0.8c0.2,0,0.5,0,0.7,0
	c1.3,0,2.5,0.3,4,0.9c0.1,0,0.1,0.1,0.2,0.1c0,0,0,0,0.1,0l0.5,0.3c0.2,0.1,0.5,0,0.6-0.2l0.3-0.4c0,0,0,0,0,0l0,0l0,0
	c0,0,0,0,0-0.1l0.2-0.3c0.1-0.2,0.1-0.4-0.1-0.6l0,0c0,0-0.1-0.1-0.4-0.3c-0.1,0-0.2-0.1-0.2-0.1c-0.2-0.1-0.3-0.2-0.5-0.2l0,0
	c0,0-0.1,0-0.1,0c-1.3-0.6-3-1-4.7-1c-0.3,0-0.5,0-0.8,0c-4,0.3-6.2,2.1-6,4.8c0.2,3,3.2,3.8,5.4,4.4l0.4,0.1
	c3.4,0.9,5.5,1.5,5.6,3.1c0.2,2.1-2.1,3-4.2,3.1c-0.2,0-0.5,0-0.7,0c-1.8,0-3.6-0.5-5.1-1.6c0,0,0,0,0,0L72,66.8l-0.1-0.1
	c-0.2-0.2-0.5-0.1-0.6,0.1l-0.6,0.8c-0.1,0.2-0.1,0.4,0,0.6l0,0c0,0,0.1,0.1,0.4,0.3c0.2,0.1,0.3,0.2,0.3,0.3
	c0.1,0.1,0.2,0.2,0.3,0.2h0l0,0c1.6,1.1,4,1.6,5.9,1.6c0.2,0,0.5,0,0.7,0c1.8-0.1,3.4-0.6,4.5-1.5c1.2-0.9,1.8-2.2,1.7-3.7
	C84.2,62.5,81.5,61.6,78.6,60.9"/>
<path class="st0" d="M59.3,53.1H58c-0.2,0-0.4,0.2-0.4,0.4v16.3c0,0.2,0.2,0.4,0.4,0.4h1.2c0.2,0,0.4-0.2,0.4-0.4V53.5
	C59.7,53.3,59.5,53.1,59.3,53.1"/>
<path class="st0" d="M21.9,69.8l-0.6-1.2c-2.1-4.2-2.8-5.6-3.1-6.1c2.1-0.5,3.5-2.2,3.5-4.4c0-2.8-2.1-4.8-5.3-4.8H7.9
	c-0.2,0-0.4,0.2-0.4,0.4v16.1c0,0.2,0.2,0.4,0.4,0.4h0.6h0.6c0.2,0,0.4-0.2,0.4-0.4v-7.1h6.5c0.2,0.4,0.9,1.9,3.5,7l0.2,0.3
	c0.1,0.1,0.2,0.2,0.4,0.2h0.4h0.9h0.2c0.2,0,0.3-0.2,0.3-0.3C22,69.9,22,69.9,21.9,69.8z M9.6,61v-5.8h7c1.8,0,3,1.2,3,2.9
	c0,1.7-1.2,2.9-3,2.9H9.6z"/>
<path class="st0" d="M108.1,65.3c-0.2-2.8-2.9-3.6-5.8-4.4l-0.4-0.1c-3-0.8-5.2-1.3-5.3-3c-0.1-0.8,0.3-1.5,1.1-2
	c0.7-0.5,1.8-0.8,3-0.8c0.2,0,0.5,0,0.7,0c1.3,0,2.5,0.3,4,1c0,0,0.1,0.1,0.2,0.1c0,0,0,0,0.1,0l0.5,0.3c0.2,0.1,0.5,0.1,0.6-0.2
	l0.3-0.4c0,0,0,0,0,0l0,0l0,0c0,0,0,0,0-0.1l0.2-0.3c0.1-0.2,0.1-0.4-0.1-0.6l0,0c0,0-0.1-0.1-0.4-0.3c-0.1,0-0.2-0.1-0.2-0.1
	c-0.2-0.1-0.3-0.2-0.5-0.2l0,0c0,0-0.1,0-0.1,0c-1.3-0.6-3-1-4.7-1c-0.3,0-0.5,0-0.8,0c-4,0.3-6.2,2.1-6,4.8c0.2,3,3.2,3.8,5.4,4.4
	l0.4,0.1c3.4,0.9,5.5,1.5,5.6,3.1c0.2,2.1-2.1,3-4.2,3.1c-0.2,0-0.5,0-0.7,0c-1.8,0-3.6-0.5-5.1-1.6c0,0,0,0,0,0l-0.3-0.2l-0.2-0.1
	c-0.2-0.2-0.5-0.1-0.6,0.1l-0.6,0.8c-0.1,0.2-0.1,0.4,0,0.6l0,0c0,0,0.1,0.1,0.4,0.3c0.2,0.1,0.3,0.2,0.3,0.3
	c0.1,0.1,0.2,0.2,0.3,0.2l0,0l0,0c1.6,1.1,4,1.6,5.9,1.6c0.2,0,0.5,0,0.7,0c1.8-0.1,3.4-0.6,4.5-1.5
	C107.6,68.1,108.2,66.8,108.1,65.3"/>
</svg>
