<svg width="116" height="124" viewBox="0 0 116 124" fill="none" xmlns="http://www.w3.org/2000/svg">
<g opacity="0.78">
<path opacity="0.78" d="M98.6178 59.8839C98.7657 59.4842 98.8729 59.0761 99.0512 58.6918C99.4187 57.8959 99.984 57.3546 100.919 57.2739C101.671 57.209 102.406 57.2434 103.109 57.5471C104.146 57.9952 104.548 58.856 104.699 59.9284C104.796 59.5638 104.871 59.2297 105.009 58.9153C105.447 57.9275 106.137 57.297 107.302 57.24C107.795 57.2157 108.272 57.222 108.744 57.3569C110.018 57.722 110.861 58.8125 110.866 60.1164C110.872 62.2178 110.866 64.3198 110.866 66.4212C110.866 67.2114 110.894 67.2464 111.697 67.361C111.922 67.3932 112.155 67.3841 112.385 67.3971C112.49 67.4028 112.614 67.4045 112.614 67.549C112.614 67.6934 112.481 67.685 112.38 67.685C110.583 67.685 108.788 67.685 106.994 67.685C106.894 67.685 106.757 67.7047 106.753 67.5546C106.75 67.392 106.895 67.4005 107.005 67.3977C107.387 67.3881 107.766 67.3949 108.133 67.2515C108.347 67.168 108.462 67.0398 108.482 66.822C108.492 66.7091 108.502 66.5962 108.502 66.4833C108.502 64.3633 108.502 62.243 108.502 60.1226C108.502 59.6252 108.444 59.1294 108.33 58.6449C108.158 57.9394 107.656 57.5076 107.068 57.5601C106.834 57.5781 106.606 57.6437 106.399 57.7527C106.192 57.8617 106.01 58.0117 105.865 58.1934C105.406 58.7482 105.22 59.4221 105.044 60.095C104.823 60.9306 104.721 61.7922 104.74 62.6553C104.768 63.9399 104.747 65.2257 104.748 66.5109C104.748 67.1589 104.814 67.2368 105.452 67.3367C105.734 67.3813 106.019 67.4073 106.303 67.4389C106.403 67.4502 106.505 67.462 106.503 67.5896C106.5 67.7172 106.394 67.7267 106.296 67.7313C106.219 67.7347 106.143 67.7341 106.066 67.7341H101.053C100.967 67.7341 100.881 67.7341 100.796 67.7296C100.711 67.7251 100.617 67.7104 100.611 67.5969C100.605 67.466 100.704 67.4457 100.803 67.4434C101.225 67.4366 101.64 67.4039 102.045 67.2696C102.27 67.1945 102.37 67.0573 102.374 66.8349C102.374 66.7604 102.379 66.6854 102.379 66.6092C102.379 64.348 102.385 62.0869 102.371 59.8263C102.368 59.2929 102.313 58.7538 102.068 58.2633C101.729 57.5888 101.083 57.3755 100.391 57.704C99.8361 57.967 99.5311 58.4451 99.3236 58.9762C98.9149 59.9901 98.6964 61.0685 98.6786 62.1591C98.6637 63.5476 98.6746 64.9362 98.6751 66.3247C98.6751 66.4376 98.6751 66.5505 98.6751 66.6633C98.6906 67.1883 98.7852 67.2955 99.3161 67.37C99.5984 67.4181 99.8844 67.4423 100.171 67.4423C100.281 67.4394 100.429 67.4259 100.426 67.5902C100.423 67.7544 100.273 67.7324 100.164 67.7324C99.1898 67.7354 98.2152 67.7354 97.2401 67.7324C96.3137 67.7324 95.3878 67.7358 94.4613 67.7284C94.3289 67.7284 94.1007 67.8114 94.1036 67.5777C94.1036 67.3717 94.3214 67.44 94.4475 67.4417C94.9248 67.4389 95.4003 67.384 95.8653 67.278C96.0947 67.2306 96.1973 67.1177 96.2151 66.9049C96.226 66.774 96.238 66.643 96.238 66.5098C96.238 63.9676 96.238 61.4252 96.238 58.8825C96.238 58.3486 96.0322 58.1143 95.5019 58.0285C95.1693 57.9721 94.8345 58.0054 94.5014 57.9851C94.3713 57.9772 94.1649 58.0511 94.1466 57.8536C94.1242 57.621 94.3638 57.6775 94.4905 57.6639C95.3723 57.5708 96.2558 57.4946 97.1387 57.4127C97.4999 57.3789 97.8599 57.3394 98.2205 57.3078C98.5897 57.275 98.6184 57.3004 98.6218 57.6571C98.619 58.4045 98.6178 59.1427 98.6178 59.8839Z" fill="black"/>
<path opacity="0.78" d="M9.37249 52.0105C10.9961 52.0105 12.6197 51.9817 14.2422 52.0195C15.6824 52.0528 17.0291 52.4304 18.2141 53.2782C19.6182 54.2835 20.2826 56.2184 19.6841 57.704C19.1727 58.9717 18.1688 59.745 16.8984 60.2101C16.1954 60.4575 15.4543 60.5835 14.7077 60.5826C13.5038 60.5962 12.2998 60.5866 11.0959 60.5877C10.7089 60.5877 10.7072 60.5877 10.7072 60.9546C10.7072 62.681 10.7072 64.4073 10.7072 66.1333C10.7072 67.0365 10.8218 67.1578 11.7282 67.2713C12.5257 67.3712 13.3261 67.3892 14.1281 67.3904C14.2525 67.3904 14.3769 67.3904 14.5002 67.3994C14.6005 67.4056 14.6986 67.4327 14.6871 67.5608C14.6768 67.6737 14.5816 67.6777 14.4939 67.6822C14.4366 67.685 14.3792 67.6822 14.3219 67.6822C11.0082 67.6822 7.6946 67.6809 4.38125 67.6782C4.24709 67.6782 4.01376 67.7646 4.00401 67.5524C3.99254 67.3034 4.24308 67.3954 4.38125 67.3937C5.13515 67.3836 5.88848 67.3633 6.63723 67.2656C6.67507 67.2605 6.71348 67.2583 6.75189 67.2515C7.4863 67.1245 7.60096 67.0048 7.60096 66.2756C7.60402 61.9881 7.60402 57.7008 7.60096 53.4137C7.60096 52.6342 7.5293 52.5591 6.75476 52.4197C6.00028 52.2842 5.23376 52.3068 4.47298 52.2645C4.35832 52.2583 4.24365 52.2605 4.12899 52.2532C4.05675 52.2487 4 52.2171 4 52.133C4 52.0489 4.05733 52.0201 4.12956 52.0139C4.22473 52.0071 4.32048 52.0054 4.41622 52.0054H9.37249V52.0105ZM10.7112 56.561C10.7112 57.7241 10.7112 58.8874 10.7112 60.0509C10.7112 60.2163 10.7215 60.3501 10.9474 60.3439C11.9874 60.3174 13.0285 60.4003 14.0668 60.2874C15.4341 60.1396 16.2454 59.4747 16.5441 58.1618C16.8135 56.9855 16.8215 55.7939 16.4942 54.6244C16.1261 53.3093 15.2507 52.5213 13.861 52.3317C13.1495 52.2351 12.4317 52.2521 11.7156 52.2673C10.8259 52.2854 10.7186 52.3949 10.7152 53.2703C10.7072 54.3659 10.7112 55.4637 10.7112 56.561Z" fill="black"/>
<path opacity="0.78" d="M64.3387 68.3194C64.032 68.1749 63.7453 68.0491 63.4684 67.9068C62.4984 67.409 62.0185 66.5296 62.1744 65.5531C62.3568 64.4101 62.9742 63.7892 64.1317 63.5821L64.3553 63.5403C64.3633 63.4432 64.2796 63.4353 64.2298 63.4037C62.4319 62.2749 62.5878 60.0792 63.6931 58.9238C65.1121 57.4404 66.8263 57.0047 68.8076 57.6414C69.1373 57.748 69.1413 57.7542 69.1367 57.4156C69.126 57.0496 69.1634 56.6839 69.2479 56.3273C69.3689 55.8464 69.6579 55.5292 70.1652 55.4304C70.6497 55.3356 71.1313 55.2481 71.5286 55.6647C71.8284 55.9791 71.8622 56.5751 71.5899 56.9149C71.3806 57.1757 70.7924 57.2621 70.4496 57.0843C70.1515 56.9285 69.9909 56.5057 70.0913 56.1529C70.1148 56.0733 70.1486 55.9966 70.1841 55.8916C69.8574 55.9221 69.6768 56.0976 69.5862 56.359C69.4194 56.8427 69.4927 57.3428 69.5122 57.8378C69.5168 57.9603 69.6343 57.9964 69.7244 58.0461C70.1796 58.3033 70.589 58.6322 70.9363 59.0197C71.7917 59.9533 71.9161 61.9983 70.535 63.0606C68.9676 64.2656 67.2345 64.4654 65.3661 63.9298C65.0723 63.8428 64.7629 63.8195 64.4591 63.8616C64.1554 63.9037 63.8645 64.0101 63.6066 64.1736C63.1863 64.4293 63.0396 64.8402 63.078 65.3155C63.098 65.5571 63.2855 65.6632 63.4793 65.7524C63.9574 65.9725 64.4751 66.012 64.9894 66.025C65.858 66.0464 66.7277 66.025 67.5962 66.0447C68.3691 66.0639 69.1413 66.1176 69.8895 66.3185C70.7798 66.5567 71.5578 66.9648 71.9236 67.8538C72.3994 69.0098 72.2377 70.9413 70.7328 71.9178C69.9875 72.3998 69.1849 72.6995 68.3054 72.7729C66.8658 72.892 65.4389 72.8175 64.0767 72.292C63.4512 72.051 62.8727 71.7241 62.4066 71.2308C61.6436 70.422 61.78 69.5014 62.7506 68.9561C63.1594 68.7264 63.6054 68.5864 64.0532 68.451C64.1432 68.4239 64.2447 68.4188 64.3387 68.3194ZM67.4827 68.2432C66.6635 68.2765 65.8058 68.2997 64.9699 68.5255C64.4063 68.6779 63.919 68.9522 63.7574 69.529C63.4546 70.6099 63.6232 71.828 65.0473 72.2282C66.1862 72.5536 67.3825 72.6364 68.5565 72.4709C69.4073 72.3507 70.1538 72.0239 70.6715 71.3155C71.5016 70.1787 70.9231 68.7061 69.5403 68.4261C68.8747 68.2895 68.2005 68.2607 67.4827 68.2432ZM69.3104 60.8355C69.2829 60.1616 69.2531 59.5057 69.0427 58.8747C68.8483 58.2893 68.498 57.8463 67.8617 57.6809C66.6715 57.3716 65.7009 57.87 65.3655 59.0355C64.9968 60.3151 65.0393 61.6111 65.4005 62.8929C65.5679 63.4861 66.0042 63.7791 66.597 63.8807C66.7188 63.9038 66.8419 63.9196 66.9656 63.9281C68.0188 63.9845 68.7589 63.6092 69.0754 62.5955C69.2565 62.0169 69.2755 61.4163 69.3104 60.8355Z" fill="black"/>
<path opacity="0.78" d="M34.4087 59.8286C34.5305 59.318 34.7441 58.8331 35.0394 58.3966C35.3541 57.9416 35.6975 57.4878 36.2754 57.3659C37.0947 57.1966 37.9231 57.1706 38.7332 57.4506C39.3032 57.6387 39.7983 57.9993 40.1478 58.4808C40.4974 58.9624 40.6835 59.5403 40.6796 60.1322C40.6823 62.2425 40.6823 64.3529 40.6796 66.4635C40.6796 67.2397 40.7467 67.3034 41.5201 67.3864C41.8328 67.4215 42.1472 67.4404 42.462 67.4429C42.5767 67.4429 42.7166 67.4321 42.7091 67.5992C42.7022 67.7443 42.5709 67.733 42.4683 67.7335C41.9626 67.7364 41.4564 67.7335 40.9502 67.7335H36.796C36.7106 67.7335 36.624 67.7335 36.5386 67.7296C36.4377 67.7251 36.3362 67.7059 36.3356 67.5811C36.335 67.4564 36.4417 67.44 36.5403 67.4412C36.9604 67.451 37.3802 67.4099 37.7901 67.3187C38.2757 67.2058 38.3061 67.1753 38.3061 66.6735C38.3061 64.3845 38.3044 62.0957 38.3009 59.8071C38.2995 59.3844 38.2391 58.9639 38.1215 58.5574C37.8526 57.6238 37.0058 57.2886 36.1453 57.7672C35.7497 57.9879 35.4762 58.3226 35.267 58.7087C34.6787 59.7953 34.3497 60.9484 34.3548 62.1857C34.3548 63.6673 34.3548 65.1495 34.3588 66.6317C34.3588 67.2131 34.4488 67.2995 35.0411 67.374C35.3146 67.4159 35.591 67.4377 35.8678 67.4395C35.9773 67.4395 36.1264 67.4214 36.1258 67.5851C36.1252 67.7488 35.9761 67.7296 35.8661 67.7296C34.7194 67.7326 33.5728 67.7326 32.4262 67.7296H30.2837C30.2172 67.7296 30.1502 67.733 30.0837 67.7296C29.9656 67.7206 29.8022 67.7522 29.8068 67.571C29.8113 67.4062 29.9661 67.4395 30.0733 67.4389C30.4074 67.4472 30.7415 67.4272 31.072 67.3791C31.1294 67.3689 31.1867 67.365 31.244 67.352C31.9807 67.1826 31.9704 67.3283 31.9893 66.4596C32.022 64.9215 31.9991 63.3828 31.9991 61.8447C31.9991 60.8598 31.9991 59.8748 31.9991 58.8899C31.9991 58.269 31.7818 58.05 31.1563 57.993C30.8043 57.9614 30.4529 57.9405 30.0997 57.9399C29.9885 57.9399 29.8457 57.9524 29.8515 57.7847C29.8561 57.6413 29.9851 57.6498 30.0882 57.6408C31.361 57.5279 32.6337 57.415 33.9065 57.3095C34.3468 57.2722 34.3617 57.2908 34.3651 57.7198C34.3651 58.3204 34.3651 58.9209 34.3651 59.5209C34.36 59.6107 34.333 59.7027 34.4087 59.8286Z" fill="black"/>
<path opacity="0.78" d="M89.2148 66.1972C89.0462 66.4399 88.9201 66.6515 88.7647 66.8395C88.5511 67.1059 88.286 67.3282 87.9849 67.4935C87.6837 67.6589 87.3524 67.764 87.0098 67.803C86.4107 67.8781 85.8059 67.9215 85.2148 67.794C82.7645 67.2656 82.6836 64.8622 83.6978 63.5827C84.3892 62.71 85.3404 62.2952 86.4279 62.1473C87.0586 62.0615 87.6978 62.018 88.3199 61.8617C88.7705 61.7488 89.0342 61.4841 89.052 61.0432C89.0875 60.1825 89.1466 59.3172 89.013 58.4604C88.9236 57.888 88.669 57.6848 88.0796 57.6041C87.2294 57.4878 86.4233 57.5748 85.6987 58.0709C85.5223 58.1845 85.375 58.3368 85.2681 58.5157C85.2074 58.6218 85.2045 58.6675 85.3616 58.685C85.9349 58.7522 86.2708 59.0615 86.4073 59.6084C86.5386 60.1362 86.35 60.612 85.8844 60.9337C85.4688 61.2205 84.9316 61.2233 84.4838 60.9337C83.9724 60.6024 83.7563 60.1435 83.8406 59.5379C83.9552 58.7206 84.4064 58.1556 85.1529 57.8186C86.6349 57.1492 88.1628 57.1356 89.7096 57.5635C90.0488 57.665 90.363 57.8345 90.6326 58.0613C91.1486 58.4762 91.3825 59.0101 91.3813 59.6621C91.3787 61.7448 91.3815 63.8276 91.3899 65.9104C91.3934 66.1634 91.4141 66.4159 91.4518 66.6662C91.5189 67.1398 91.8165 67.4451 92.227 67.4835C92.6489 67.5236 93.0204 67.2707 93.1701 66.8169C93.2977 66.4229 93.3648 66.0124 93.369 65.5988C93.3799 64.9706 93.3759 64.3418 93.3793 63.713C93.3784 63.6287 93.3831 63.5444 93.3937 63.4607C93.3958 63.4419 93.4018 63.4237 93.4112 63.4072C93.4206 63.3907 93.4333 63.3762 93.4484 63.3645C93.4636 63.3529 93.4809 63.3443 93.4995 63.3393C93.518 63.3343 93.5374 63.333 93.5565 63.3354C93.6557 63.3354 93.7233 63.3721 93.7325 63.4771C93.7382 63.542 93.7394 63.6081 93.7405 63.6735C93.7491 64.2171 93.7296 64.7601 93.7829 65.3042C93.8282 65.7727 93.7589 66.2395 93.6757 66.7029C93.5685 67.2972 93.2004 67.6478 92.6197 67.7945C91.9968 67.95 91.3458 67.9608 90.718 67.8261C90.03 67.6845 89.5966 67.2566 89.3598 66.6205C89.3123 66.4918 89.2704 66.3631 89.2148 66.1972ZM89.0256 61.8814C88.4941 62.3595 87.8968 62.3759 87.324 62.438C86.6148 62.5153 86.1115 62.8692 85.787 63.4681C85.306 64.3576 85.4109 65.324 85.4573 66.2773C85.4671 66.5307 85.5152 66.7813 85.6001 67.0207C85.7543 67.4389 86.0587 67.6562 86.507 67.6641C87.6198 67.685 88.8003 66.7018 88.9528 65.5599C89.1122 64.3684 88.9757 63.1667 89.0256 61.8814Z" fill="black"/>
<path opacity="0.78" d="M53.2566 58.6658C53.9296 58.6997 54.3097 58.9949 54.4691 59.5796C54.5448 59.8392 54.5311 60.116 54.4302 60.3671C54.3293 60.6182 54.1468 60.8293 53.9113 60.9676C53.4417 61.2549 52.8415 61.1934 52.3931 60.8231C51.9637 60.4681 51.829 60.0193 51.915 59.4871C52.0423 58.6968 52.4918 58.1403 53.2181 57.8203C54.789 57.1288 56.3966 57.1017 58.0139 57.6555C58.4066 57.7898 58.734 58.0427 59.0052 58.3548C59.2745 58.6522 59.4225 59.0372 59.4208 59.4357C59.4208 60.7768 59.4157 62.1185 59.4243 63.4602C59.4306 64.4073 59.4564 65.3539 59.4736 66.301C59.4789 66.498 59.5123 66.6933 59.5727 66.8812C59.6874 67.2425 59.9345 67.4592 60.318 67.4812C60.6924 67.5027 60.9882 67.3441 61.1591 67.0065C61.3139 66.6995 61.3603 66.3642 61.4016 66.0278C61.4951 65.2613 61.4417 64.4914 61.4589 63.7232C61.4589 63.6385 61.4589 63.5539 61.4698 63.4703C61.4824 63.3665 61.5558 63.3326 61.6539 63.3365C61.6924 63.334 61.7305 63.3464 61.7599 63.3711C61.7894 63.3957 61.8079 63.4307 61.8115 63.4686C61.8158 63.4871 61.8181 63.5061 61.8184 63.5251C61.7817 64.4795 61.9331 65.4368 61.8023 66.389C61.6648 67.405 61.2411 67.7883 60.1673 67.8933C59.787 67.9292 59.4038 67.9222 59.0252 67.8724C58.1567 67.7629 57.6309 67.278 57.3787 66.4754C57.3563 66.4037 57.3345 66.332 57.3116 66.2603C57.3116 66.2524 57.3001 66.2457 57.2927 66.2366C57.2124 66.2186 57.2015 66.2891 57.178 66.3332C56.6913 67.2312 55.9328 67.7443 54.9031 67.8289C54.1618 67.8904 53.4125 67.9305 52.7033 67.624C50.7093 66.7644 50.8383 64.514 51.9517 63.3636C52.6448 62.6479 53.5134 62.2698 54.5006 62.1467C55.1817 62.062 55.868 62.0214 56.529 61.8126C56.8598 61.7081 57.0553 61.4987 57.0943 61.1747C57.2113 60.2532 57.2049 59.3205 57.0754 58.4005C57.0181 57.9947 56.7887 57.7181 56.3473 57.6374C55.516 57.4839 54.7122 57.5301 53.9606 57.9478C53.6642 58.111 53.4159 58.3254 53.2566 58.6658ZM57.1063 63.8643C57.1063 63.2242 57.1063 62.6993 57.1063 62.1744C57.1063 62.0852 57.1276 61.9108 56.9493 62.0383C56.5164 62.3499 56.0033 62.3883 55.5062 62.4301C54.5889 62.5079 54.0156 62.9984 53.7439 63.8101C53.3924 64.8594 53.4435 65.9369 53.7072 66.9992C53.8144 67.4327 54.1687 67.6562 54.6245 67.6647C55.692 67.6839 56.7945 66.7723 57.0427 65.6558C57.1803 65.0253 57.0702 64.3841 57.1063 63.8643Z" fill="black"/>
<path opacity="0.78" d="M47.2678 62.2839C47.2678 63.4466 47.2678 64.6099 47.2678 65.7727C47.2654 66.0731 47.3028 66.3725 47.379 66.6634C47.5149 67.1573 47.8296 67.4564 48.239 67.4965C48.8696 67.5574 49.3059 67.3497 49.5536 66.8587C49.7915 66.3857 49.8368 65.8686 49.8764 65.355C49.9388 64.5411 49.9446 63.7249 49.9337 62.9093C49.9323 62.8339 49.935 62.7586 49.9417 62.6835C49.9409 62.6669 49.9434 62.6504 49.9493 62.6349C49.9551 62.6193 49.9641 62.6051 49.9756 62.5931C49.9872 62.581 50.0012 62.5714 50.0166 62.5649C50.0321 62.5583 50.0487 62.5549 50.0655 62.5548C50.0993 62.5517 50.1329 62.5617 50.1591 62.5829C50.1853 62.604 50.202 62.6345 50.2054 62.6677C50.2189 62.7222 50.2257 62.7781 50.2255 62.8342C50.1957 63.8553 50.3121 64.8786 50.1859 65.898C50.1601 66.1212 50.1207 66.3427 50.0678 66.5612C49.9044 67.2126 49.4722 67.619 48.8272 67.803C48.0333 68.0317 47.1875 68.0173 46.4021 67.7618C45.4395 67.4553 44.8415 66.5855 44.8358 65.4724C44.8249 63.3716 44.8306 61.2707 44.8295 59.1699C44.8295 58.9825 44.8203 58.7945 44.8295 58.6054C44.8421 58.3994 44.7578 58.3204 44.5468 58.3232C44.0699 58.3317 43.5923 58.3232 43.1136 58.3232C43.0104 58.3232 42.8871 58.33 42.863 58.1928C42.8361 58.0382 42.9639 58.0116 43.074 57.9789C44.9086 57.4382 45.9497 56.1603 46.4881 54.4173C46.6555 53.8754 46.7254 53.3177 46.7707 52.7573C46.7851 52.5817 46.7937 52.444 47.0327 52.4536C47.2718 52.4632 47.2552 52.6139 47.2552 52.7663C47.2552 54.2391 47.2552 55.7115 47.2552 57.1836C47.2552 57.5787 47.2552 57.5815 47.6708 57.5815C48.3771 57.5815 49.084 57.5939 49.7921 57.577C50.1206 57.5691 50.1063 57.7627 50.1126 57.9789C50.1189 58.1951 50.0902 58.3531 49.7926 58.3452C49.0863 58.3272 48.38 58.339 47.6714 58.3396C47.2563 58.3396 47.2557 58.3396 47.2557 58.764C47.2557 59.9362 47.2557 61.1085 47.2557 62.2811L47.2678 62.2839Z" fill="black"/>
<path opacity="0.78" d="M25.8591 62.6688C24.9137 62.6688 23.9671 62.6767 23.0235 62.6643C22.7574 62.6604 22.6686 62.7462 22.6869 63.003C22.7534 63.9281 22.7706 64.8572 23.0309 65.7597C23.3634 66.901 24.0978 67.5687 25.1052 67.5975C25.8757 67.6256 26.6331 67.3958 27.2539 66.9456C28.2102 66.2632 28.7159 65.3364 28.8019 64.1827C28.8076 64.0984 28.8185 64.0145 28.8345 63.9315C28.8512 63.8446 28.8409 63.7142 28.9825 63.7418C29.1086 63.7661 29.0771 63.8846 29.0719 63.9761C28.9779 65.6965 28.1512 66.9676 26.5195 67.5885C24.7996 68.2433 23.2207 67.9464 21.7742 66.7418C19.1811 64.5885 19.622 59.6982 22.5918 57.8965C24.1122 56.9731 26.0236 57.0278 27.3846 58.1082C27.9482 58.5558 28.3168 59.1439 28.5754 59.8015C28.8959 60.6165 28.9997 61.47 29.0438 62.3358C29.0576 62.5994 28.9515 62.6745 28.6952 62.6745C27.7498 62.6626 26.8062 62.6688 25.8591 62.6688ZM24.7359 62.3753C25.3373 62.3753 25.9399 62.3686 26.5407 62.3793C26.7741 62.3832 26.8595 62.3042 26.8595 62.07C26.8659 61.376 26.8171 60.6826 26.7133 59.9962C26.6061 59.3392 26.5 58.6771 26.0958 58.1121C25.9894 57.955 25.845 57.8263 25.6756 57.7376C25.5062 57.649 25.3171 57.6031 25.1252 57.6041C24.1334 57.5804 23.4907 58.0337 23.1244 59.0113C22.7546 59.9979 22.758 61.0342 22.6869 62.0621C22.6692 62.3166 22.7735 62.3855 23.0172 62.3798C23.5899 62.3669 24.1632 62.3759 24.7359 62.3753Z" fill="black"/>
<path opacity="0.78" d="M77.7557 59.9386C78.004 59.1383 78.348 58.4045 78.997 57.8429C80.0719 56.9093 81.4249 57.2688 82.0653 58.0935C82.5653 58.7369 82.5062 59.8122 81.969 60.2948C81.5574 60.6673 81.0735 60.7571 80.561 60.5527C80.0633 60.3546 79.873 59.9465 79.8415 59.4346C79.8139 58.983 79.9739 58.6088 80.2726 58.2809C80.3818 58.1479 80.5369 58.0591 80.7083 58.0314C80.7656 58.0235 80.8585 58.0557 80.8746 57.9654C80.8872 57.8959 80.8253 57.8451 80.7782 57.8C80.5289 57.5635 80.2239 57.5149 79.9017 57.5827C79.5112 57.6651 79.2171 57.9033 78.9666 58.1968C78.2465 59.0406 77.8928 60.0318 77.8154 61.1127C77.6852 62.9189 77.7707 64.7319 77.7626 66.542C77.7626 67.181 77.8274 67.238 78.4666 67.3384C78.9385 67.4091 79.4152 67.4429 79.8925 67.4395C80.0123 67.4395 80.2009 67.3892 80.1969 67.5913C80.1935 67.7697 80.0192 67.729 79.9051 67.729C77.6883 67.7321 75.473 67.7321 73.2593 67.729C73.2018 67.7291 73.1443 67.7256 73.0873 67.7183C73.0534 67.718 73.021 67.7046 72.9972 67.6809C72.9734 67.6572 72.96 67.6252 72.96 67.5919C72.9576 67.573 72.9595 67.5538 72.9654 67.5356C72.9714 67.5175 72.9813 67.5009 72.9945 67.4869C73.0076 67.4729 73.0237 67.462 73.0416 67.4547C73.0595 67.4475 73.0788 67.4442 73.0982 67.4451C73.2025 67.4378 73.308 67.4338 73.4123 67.4361C73.947 67.4437 74.4809 67.3934 75.0044 67.286C75.2842 67.2295 75.3948 67.0844 75.3862 66.8203C75.3862 66.7362 75.3908 66.651 75.3908 66.5669C75.3908 64.0156 75.3908 61.4639 75.3908 58.9119C75.3973 58.762 75.3847 58.6118 75.3536 58.4649C75.2859 58.2081 75.0096 58.028 74.7029 57.997C74.2278 57.9529 73.7508 57.9326 73.2736 57.936C73.1532 57.936 72.9669 57.9891 72.9651 57.787C72.9651 57.6086 73.1371 57.647 73.2518 57.6374C74.5727 57.5268 75.8936 57.4178 77.2145 57.3106L77.2719 57.3067C77.754 57.2733 77.7563 57.2745 77.7563 57.7396C77.7567 58.4745 77.7565 59.2075 77.7557 59.9386Z" fill="black"/>
</g>
</svg>
