<?xml version="1.0" encoding="utf-8"?>
<!-- Generator: Adobe Illustrator 24.2.0, SVG Export Plug-In . SVG Version: 6.00 Build 0)  -->
<svg width="115" height="123" version="1.1" id="Layer_1" xmlns="http://www.w3.org/2000/svg" xmlns:xlink="http://www.w3.org/1999/xlink" x="0px" y="0px"
	 viewBox="0 0 115 123" style="enable-background:new 0 0 115 123;" xml:space="preserve">
<path id="path1098" d="M17.7,62.3c-0.1,0-0.1-0.1-0.1-0.1c0-0.1,0-0.2,0.1-0.2c0,0,0.1,0,0.1,0C17.8,62.1,18,62.1,17.7,62.3"/>
<path id="path1530" d="M45.7,75.9c-0.4,0.7-2.5-0.7-1.9-1.4c0.2-0.3,0.9-0.2,0.9-0.2C45.6,74.3,45.9,75.2,45.7,75.9"/>
<path id="path1414" d="M44.4,72.9c-0.1,0-0.1-0.2-0.2-0.2c-0.2-0.8,1-1.1,1.4-0.8c0.3,0.4,0.2,1-0.3,1"/>
<path id="path1418" d="M43.3,71.8c-0.2,0-0.2-0.3-0.2-0.4c0-0.3,0.3-0.8,0.6-0.7C44.1,71,43.9,72,43.3,71.8"/>
<path id="path1322" d="M41.5,72.9c-0.2-0.6,0.4-1.1,0.9-1.1c0.2,0,0.5,0.3,0.6,0.5C43.3,72.9,41.8,73.5,41.5,72.9"/>
<path id="path1378" d="M40,69.5c-0.1,0-0.1-0.3-0.2-0.3c-0.4-0.6,0.9-1.1,1.3-0.8c0.3,0.4-0.2,1.1-0.7,1.1"/>
<path id="path1654" d="M41.1,72.8c-0.6,0.4-1.8-0.5-1.9-1.4c-0.2-0.1-0.5-1.6,0.5-1.8C40.5,69.8,41.1,71.8,41.1,72.8L41.1,72.8"/>
<path id="path1458" d="M36.8,71.8c-0.1,0-0.2,0-0.2,0c-0.1,0-0.2-0.1-0.3-0.2c-0.2,0-0.2,0-0.2-0.1c0-0.2-0.1-0.4,0-0.6
	c0-0.1,0-0.1,0-0.2c0.1-0.4,0.4-0.6,0.8-0.6c0.1,0,0.2,0,0.2,0c0,0,0.1,0,0.1,0c0.3-0.1,0.8,0.3,0.5,0.9c0,0,0,0.1,0,0.1
	C37.5,71.6,37.1,71.8,36.8,71.8"/>
<path id="path1718" d="M42.1,76.8c-0.2-0.1-0.3-0.4-0.3-0.6c0-0.6,0.6-1.4,1-1.3c0.3,0.2,0.3,0.9,0.3,1.1
	C43.1,76.6,42.5,77.1,42.1,76.8"/>
<path id="path1730" d="M39.6,77.9c-0.2,0-0.3-0.3-0.3-0.4c0-0.1,0.1-0.4,0.3-0.4c0.2,0,0.3,0.2,0.3,0.4
	C39.9,77.6,39.7,77.8,39.6,77.9"/>
<path id="path1790" d="M39.1,78.7c-0.2-0.3,0.1-0.9,0.5-0.8C39.8,78.2,39.3,78.8,39.1,78.7"/>
<path id="path1794" d="M40,80.4c-0.3,0.2-0.7-0.1-0.6-0.4c0,0,0.2-0.1,0.2-0.1C39.8,79.8,40.1,80.1,40,80.4"/>
<path id="path1406" d="M37.4,79.3c-0.4,0-0.1-0.3-0.3-0.5c-0.1-0.4,0.5-0.6,0.7-0.6c0.4,0,0.8,0.4,0.9,0.8c0,0.2-0.6,0.4-0.8,0.4"/>
<path id="path1538" d="M37.4,76.9c-0.4,0-0.4-0.3-0.4-0.7c0-0.4,0.6-0.5,1-0.5c0.4,0,1,0.2,1.1,0.6c0,0.4-0.5,0.5-0.9,0.5"/>
<path id="path1690" d="M36.4,77.5c-0.3-0.3-0.1-0.8,0.2-0.7C36.9,77,36.8,77.5,36.4,77.5"/>
<path id="path1646" d="M29.2,78.5c-1,0-0.9-0.6-0.9-1.2c0.5-0.1,1,0,1,0.6C29.3,77.9,29.5,78.3,29.2,78.5"/>
<path id="path1610" d="M27.2,79.6c-0.5,0-0.2-0.4-0.3-0.9c0.1-0.2,0.4-0.3,0.5-0.3c0.6,0,1.3,0.4,1.3,1c-0.2,0.1-0.1,0.6-0.4,0.6"/>
<path id="path1306" d="M31,81.2c-0.5-0.1-1.1-0.7-0.7-1.1c0.3-0.2,1,0.2,1,0.6C31.2,80.7,31.2,81.2,31,81.2"/>
<path id="path1742" d="M30.7,78.6c0-0.1-0.1-0.3-0.1-0.4c0,0,0-0.1,0-0.1c-0.3-0.5,0-0.9,0.3-0.7c0.2-0.2,0.5-0.4,0.9-0.4
	c0.1,0,0.2,0,0.2,0c0.3,0.2,0.7,0.8,0.6,1.1C32.4,78,32.2,78,32,78C31.5,78,31,78.2,30.7,78.6"/>
<path id="path1502" d="M25.7,77.7c0,0-1-0.6-1-0.6c0-0.5,0.3-0.8,0.7-0.8c0.1,0,0.4,0.1,0.6,0.3"/>
<path id="path1498" d="M24.6,77.1c-0.5,0-0.9-0.2-1.2-0.5c0,0-0.4,0.3-0.4,0.3c-3.4,0.3-0.5-1.3-0.4-1.7c0.1-0.5-0.1-0.3,0.3-0.5
	c0.2-0.7,0.9-1.2,1.7-1.2c0.5-0.3,1.3,0.1,1.4,0.6c0.3,0.3,0.5,0.7,0.5,1.2c0,0.5-0.2,1-0.5,1.3c-0.1,0-0.2-0.1-0.3-0.1
	C25.2,76.6,24.8,76.8,24.6,77.1"/>
<path id="path1514" d="M16.9,75.6L16.9,75.6c-1,0-1.7-0.2-1.9-1.1c-0.2-0.3-0.3-0.7-0.3-1.1c0-1.1,0.8-1.9,1.8-2.1
	c0.1-0.2,0.3-0.2,0.5-0.2c0.2,0,0.4,0.1,0.5,0.3c0.9,0.3,1.6,1.1,1.6,2.1C19,74.6,18.1,75.6,16.9,75.6"/>
<path id="path1366" d="M26,74.1c-0.3-0.4-0.8-0.6-1.4-0.6c0,0,0,0,0,0c-0.1-0.2-0.2-0.5-0.2-0.7c0-0.2,0-0.4,0.1-0.6
	c0.1-0.5,0.5-0.9,1-0.9c0.2,0,0.7,0.2,1,0.5c0.1,0.1,0.2,0.2,0.3,0.3c0,0.1-0.6,1-0.6,1.1c0,0.3,0.1,0.6,0.2,0.8
	C26.3,74,26.2,74.1,26,74.1 M26.7,72c0-0.1-0.3-0.2-0.3-0.2c0,0,0.1-0.1,0.3-0.1c0.1,0,0.1,0.1,0.2,0.2C26.8,71.9,26.7,72,26.7,72"
	/>
<path id="path1346" d="M23.9,72.1c-0.4,0-0.7-0.2-0.9-0.4c0-0.1,0-0.2,0-0.3c0-0.3-0.1-0.6-0.3-0.8c0,0,0,0,0-0.1
	c0.3-0.2,0.5-0.5,0.7-0.8c0.2-0.1,0.3-0.1,0.5-0.1c0.7,0,1.2,0.5,1.2,1.2c0.2,0.3,0,0.1,0,0.6c0,0-0.4,0.6-0.6,0.5
	C24.3,72.1,24.1,72.1,23.9,72.1"/>
<path id="path1574" d="M20.9,70.8c-0.3-0.1-0.6-0.4-0.8-0.6c-0.4,0-0.5-0.4-0.5-0.6c0-0.4-0.1-0.6,0.1-0.7c0.1-1,0.9-1.8,1.9-1.8
	c1.1,0,1.9,0.9,1.9,1.9c0,0.3-0.1,0.6-0.2,0.8c0.2,0.4-0.3,0.7-0.4,1.1c0,0-0.4,0.1-0.4,0.1c-0.2-0.2-0.6,0.2-0.9,0.2
	C21.3,71.2,21,71.2,20.9,70.8"/>
<path id="path1162" d="M19.6,65.7c0.1-0.6,0.1-1.1,0.7-1.1l0.6,0c0.2,0,0.2,0.1,0.3,0.2C21.4,65.3,19.9,66,19.6,65.7"/>
<path id="path1154" d="M18.5,63.2l-0.1,0c-0.2,0-0.2-0.1-0.4-0.3c0,0,0.1,0,0.1-0.1c0.1-1,2.2-1.2,2.4-0.6c0.2,0.6-1.4,0.8-1.3,0.9
	c-0.1,0-0.4,0.1-0.5,0.1"/>
<path id="path1142" d="M16.4,65c-0.2,0-0.3-0.5-0.3-0.6c0-0.3,0.2-0.6,0.4-0.6c0.2,0.1,0.3,0.4,0.3,0.6C16.8,64.6,16.7,64.9,16.4,65
	"/>
<path id="path1126" d="M19.4,61.2c-0.2,0-0.2-0.1-0.4-0.2c0-0.5,0-0.9,0.5-0.9l0.7,0c0.2,0,0.3,0.1,0.5,0.3c0,0.4-0.2,0.7-0.7,0.7"
	/>
<path id="path1134" d="M18.2,59.8c-0.1,0-0.1-0.3-0.1-0.3c0-0.2,0.1-0.4,0.3-0.4c0.1,0,0.2,0.2,0.2,0.3
	C18.5,59.6,18.3,59.8,18.2,59.8"/>
<path id="path814" d="M16.6,56c-0.3-0.1-0.4-0.6-0.4-0.9c0-0.2,0.1-0.5,0.4-0.6c0.3,0,0.5,0.5,0.5,0.8C17,55.5,16.8,55.9,16.6,56"/>
<path id="path1086" d="M20.9,52.3c-0.1,0-0.3-0.2-0.4-0.2c-0.1-0.8,1.1-1.2,1.5-0.9c-0.1,0.6-0.2,1.1-0.8,1.1"/>
<path id="path1050" d="M22.4,49.1c-0.2,0-0.1-0.2-0.2-0.3c0,0,0.1-0.1,0.2-0.4c0-0.1,0.7,0,0.7,0c0.4-0.1,0.3,0.1,0.4,0.2
	c0,0.2-0.3,0.5-0.6,0.5"/>
<path id="path1710" d="M22.1,47.2c0,0-0.1-0.1-0.1-0.1c0-0.3,0.3-0.5,0.6-0.5c0.1,0,0.4,0,0.4,0.2c0,0.3-0.2,0.4-0.5,0.4"/>
<path id="path1042" d="M22.8,50.9c-0.1-0.3,0.4-0.4,0.5-0.4c0.2,0,0.4,0,0.4,0.1c0,0,0,0.1,0,0.1c-0.2,0.1-0.5,0.4-0.8,0.4"/>
<path id="path1038" d="M23.7,50.7c0,0-0.1,0-0.2,0c0-0.1-0.3-0.3-0.3-0.4c0-0.5,0.4-1.1,0.8-1c0.7,0.2,0.3,0.7,0.3,0.9
	C24.4,50.5,24.1,50.6,23.7,50.7"/>
<path id="path830" d="M23.6,52.8c0,0-0.2,0.1-0.2,0.1c-1.1,0.1-1.5-1.3-0.9-1.7c0.1-0.2,0.2-0.3,0.3-0.4c0,0,0.1,0,0.1,0h0
	c0.2,0,0.4-0.1,0.6-0.2c0.1-0.1,0.2-0.2,0.2-0.2c0.3,0,1.3,0.7,0.8,1.2C24.6,52.4,24.2,52.8,23.6,52.8"/>
<path id="path998" d="M26.4,50.5c-0.5-0.1-0.7-0.4-0.7-0.8c0,0,0.1-0.3,0.2-0.4c0.4,0,0.6,0.5,0.6,0.9
	C26.6,50.3,26.6,50.5,26.4,50.5"/>
<path id="path1002" d="M26.5,48.9c-0.2,0-0.2-0.1-0.3-0.3c0.1-0.5,0.8-0.9,1.3-0.9c0.2,0,0.6,0.1,0.7,0.3c0,0.6-1,0.9-1.6,0.9"/>
<path id="path922" d="M26.1,48.5c-0.7,0-1.2-0.8-1.1-1.5c0.1,0,0.3-0.2,0.3-0.2c0.6,0,1,0.6,1,1.2C26.3,48.2,26.3,48.4,26.1,48.5"/>
<path id="path942" d="M27,46c-0.5,0-0.6-0.5-0.5-0.9c0.1-0.3,0.5-0.2,0.6-0.2c0.5,0,1.2,0.4,1.1,0.8c0,0.2-0.3,0.3-0.5,0.3"/>
<path id="path1014" d="M28.6,47.4c-0.3-0.1-0.4-0.4-0.4-0.7c0-0.2,0.1-0.6,0.3-0.6c0.3,0.1,0.4,0.5,0.4,0.7
	C28.9,47,28.8,47.4,28.6,47.4"/>
<path id="path1866" d="M38.8,52.9c-0.4,0-0.7-0.2-0.9-0.5c-0.4-0.4-0.3-1-0.1-1.3c0.2-0.3,0.8-0.4,0.8-0.5c0.1,0,0.9,0.1,0.9,0.1
	l0.4,0.3c0,0,0.3,0.6,0.3,0.8c0,0.2,0,0.7-0.2,1.1c-0.1,0.2-0.7-0.1-0.7-0.1C39.1,52.9,39,52.9,38.8,52.9"/>
<path id="path1854" d="M38.1,51c-0.4,0.1-0.9-0.1-0.8-0.6c0.1,0,0.2-0.2,0.3-0.2c0.4,0,0.9,0.2,0.9,0.6C38.3,50.8,38.2,50.9,38.1,51
	"/>
<path id="path782" d="M64.9,68.9c0-0.2,0.1-0.3,0.3-0.3h0.3c0.2,0,0.3,0.1,0.3,0.3v3.4h1.5l2.2-3.5c0.1-0.1,0.2-0.2,0.4-0.2h0.3
	c0.2,0,0.3,0.2,0.2,0.4l-2.4,3.7v0l2.5,4.2c0.1,0.2,0,0.4-0.2,0.4h-0.3c-0.2,0-0.3-0.1-0.4-0.2l-2.3-3.9h-1.5v3.8
	c0,0.2-0.1,0.3-0.3,0.3h-0.3c-0.2,0-0.3-0.1-0.3-0.3V68.9z M56.2,68.9c0-0.2,0.1-0.3,0.3-0.3h0.2c0.2,0,0.3,0.1,0.3,0.3v5.3
	c0,1.5,1,2.4,2.4,2.4c1.5,0,2.5-0.9,2.5-2.4v-5.3c0-0.2,0.1-0.3,0.3-0.3h0.2c0.2,0,0.3,0.1,0.3,0.3v5.3c0,1.9-1.3,3.2-3.3,3.2
	c-2,0-3.3-1.2-3.3-3.2C56.2,74.2,56.2,68.9,56.2,68.9z M107.5,57.1c0-0.3,0.1-0.4,0.4-0.4h0.4c0.3,0,0.4,0.1,0.4,0.4v3.4h4.5v-3.4
	c0-0.3,0.1-0.4,0.4-0.4h0.4c0.3,0,0.4,0.1,0.4,0.4V65c0,0.3-0.1,0.4-0.4,0.4h-0.4c-0.3,0-0.4-0.1-0.4-0.4v-3.4h-4.5V65
	c0,0.3-0.1,0.4-0.4,0.4h-0.4c-0.3,0-0.4-0.1-0.4-0.4C107.5,65,107.5,57.1,107.5,57.1z M102.9,56.6c1.5,0,2.4,0.6,2.9,0.9
	c0.2,0.1,0.2,0.3,0.1,0.6l-0.2,0.2c-0.1,0.2-0.3,0.2-0.6,0.1c-0.4-0.2-1.1-0.7-2.2-0.7c-2,0-3.2,1.5-3.2,3.3c0,1.8,1.2,3.4,3.2,3.4
	c1.1,0,2-0.6,2.4-0.8c0.2-0.2,0.4-0.2,0.6,0l0.2,0.2c0.1,0.2,0.1,0.4-0.1,0.6c-0.4,0.4-1.5,1.1-3.1,1.1c-2.7,0-4.4-2-4.4-4.5
	C98.5,58.5,100.3,56.6,102.9,56.6 M94.5,60.9c0.9,0,1.5-0.6,1.5-1.6c0-0.6-0.3-1.1-0.8-1.4c-0.2-0.1-0.5-0.1-1-0.1h-1.5v3.1H94.5z
	 M91.5,57.1c0-0.3,0.1-0.4,0.4-0.4h2.3c0.8,0,1.3,0.1,1.6,0.2c0.8,0.4,1.4,1.2,1.4,2.3c0,1.1-0.6,2.1-1.5,2.4v0c0,0,0.1,0.1,0.3,0.4
	l1.6,2.9c0.2,0.3,0,0.5-0.3,0.5h-0.5c-0.2,0-0.4-0.1-0.5-0.3L94.6,62h-1.9V65c0,0.3-0.1,0.4-0.4,0.4H92c-0.3,0-0.4-0.1-0.4-0.4
	C91.5,65,91.5,57.1,91.5,57.1z M88.1,61.9l-1-2.8c-0.1-0.4-0.3-1.2-0.3-1.2h0c0,0-0.2,0.8-0.3,1.2l-1,2.8
	C85.4,61.9,88.1,61.9,88.1,61.9z M86,57.1c0.1-0.2,0.2-0.3,0.5-0.3h0.6c0.2,0,0.4,0.1,0.5,0.3l2.9,7.9c0.1,0.3,0,0.5-0.3,0.5h-0.4
	c-0.2,0-0.4-0.1-0.5-0.3l-0.8-2.2h-3.3l-0.8,2.2c-0.1,0.2-0.2,0.3-0.4,0.3h-0.4c-0.3,0-0.4-0.2-0.3-0.5C83.2,64.9,86,57.1,86,57.1z
	 M77.1,57.1c0-0.3,0.1-0.4,0.4-0.4h4.2c0.3,0,0.4,0.1,0.4,0.4v0.2c0,0.3-0.1,0.4-0.4,0.4h-3.4v2.7H81c0.3,0,0.4,0.1,0.4,0.4v0.2
	c0,0.3-0.1,0.4-0.4,0.4h-2.7v2.8h3.6c0.3,0,0.4,0.1,0.4,0.4V65c0,0.3-0.1,0.4-0.4,0.4h-4.4c-0.3,0-0.4-0.1-0.4-0.4V57.1z M70.1,64.1
	l0.2-0.3c0.1-0.2,0.3-0.2,0.6-0.1c0.3,0.2,1,0.7,1.9,0.7c0.9,0,1.5-0.5,1.5-1.2c0-1.9-4.2-1.5-4.2-4.2c0-1.5,1.2-2.4,2.8-2.4
	c1,0,1.8,0.4,2.2,0.7c0.2,0.1,0.2,0.3,0.1,0.6L75,58.1c-0.1,0.3-0.3,0.2-0.6,0.1c-0.3-0.2-0.9-0.5-1.6-0.5c-0.9,0-1.6,0.5-1.6,1.2
	c0,1.9,4.2,1.4,4.2,4.2c0,1.4-1,2.5-2.8,2.5c-1.3,0-2.2-0.6-2.6-0.9C70,64.5,69.9,64.3,70.1,64.1 M63.7,57.1c0-0.3,0.1-0.4,0.4-0.4
	h4.2c0.3,0,0.4,0.1,0.4,0.4v0.2c0,0.3-0.1,0.4-0.4,0.4h-3.4v2.7h2.7c0.3,0,0.4,0.1,0.4,0.4v0.2c0,0.3-0.1,0.4-0.4,0.4h-2.7v2.8h3.6
	c0.3,0,0.4,0.1,0.4,0.4V65c0,0.3-0.1,0.4-0.4,0.4h-4.4c-0.3,0-0.4-0.1-0.4-0.4C63.7,65,63.7,57.1,63.7,57.1z M59.2,60.9
	c0.9,0,1.5-0.6,1.5-1.6c0-0.6-0.3-1.1-0.8-1.4c-0.2-0.1-0.5-0.1-1-0.1h-1.5v3.1C57.4,60.9,59.2,60.9,59.2,60.9z M56.2,57.1
	c0-0.3,0.1-0.4,0.4-0.4H59c0.8,0,1.3,0.1,1.6,0.2c0.8,0.4,1.4,1.2,1.4,2.3c0,1.1-0.6,2.1-1.5,2.4v0c0,0,0.1,0.1,0.3,0.4l1.6,2.9
	c0.2,0.3,0,0.5-0.3,0.5h-0.5c-0.2,0-0.4-0.1-0.5-0.3L59.3,62h-1.9V65c0,0.3-0.1,0.4-0.4,0.4h-0.4c-0.3,0-0.4-0.1-0.4-0.4
	C56.2,65,56.2,57.1,56.2,57.1z M99.4,48.9c0.9,0,1.5-0.6,1.5-1.6c0-0.6-0.3-1.1-0.8-1.4c-0.2-0.1-0.5-0.1-1-0.1h-1.5v3.1
	C97.6,48.9,99.4,48.9,99.4,48.9z M96.4,45.1c0-0.3,0.1-0.4,0.4-0.4h2.3c0.8,0,1.3,0.1,1.6,0.2c0.8,0.4,1.4,1.2,1.4,2.3
	c0,1.1-0.6,2.1-1.6,2.4v0c0,0,0.1,0.1,0.3,0.4l1.6,2.9c0.2,0.3,0,0.5-0.3,0.5h-0.5c-0.2,0-0.4-0.1-0.5-0.3L99.5,50h-1.9v3
	c0,0.3-0.1,0.4-0.4,0.4h-0.4c-0.3,0-0.4-0.1-0.4-0.4C96.4,53,96.4,45.1,96.4,45.1z M85.3,44.6c1.5,0,2.4,0.6,2.9,0.9
	c0.2,0.1,0.2,0.3,0.1,0.6l-0.2,0.2c-0.1,0.2-0.3,0.2-0.6,0.1c-0.4-0.2-1.1-0.7-2.2-0.7c-2,0-3.2,1.5-3.2,3.3c0,1.8,1.2,3.4,3.2,3.4
	c1.1,0,2-0.6,2.4-0.8c0.2-0.2,0.4-0.2,0.6,0l0.2,0.2c0.1,0.2,0.1,0.4-0.1,0.6c-0.4,0.4-1.5,1.1-3.1,1.1c-2.7,0-4.4-2-4.4-4.5
	C80.9,46.5,82.7,44.6,85.3,44.6 M72.5,45.1c0-0.3,0.1-0.4,0.4-0.4h0.5c0.2,0,0.4,0.1,0.5,0.3l3.7,5.4c0.3,0.5,0.7,1.3,0.7,1.3h0
	c0,0-0.1-0.8-0.1-1.3v-5.2c0-0.3,0.1-0.4,0.4-0.4H79c0.3,0,0.4,0.1,0.4,0.4V53c0,0.3-0.1,0.4-0.4,0.4h-0.5c-0.2,0-0.4-0.1-0.5-0.3
	l-3.7-5.4c-0.3-0.5-0.7-1.3-0.7-1.3h0c0,0,0.1,0.8,0.1,1.3V53c0,0.3-0.1,0.4-0.4,0.4h-0.4c-0.3,0-0.4-0.1-0.4-0.4
	C72.5,53,72.5,45.1,72.5,45.1z M69,49.9l-1-2.8c-0.1-0.4-0.3-1.2-0.3-1.2h0c0,0-0.2,0.8-0.3,1.2l-1,2.8H69z M67,45.1
	c0.1-0.2,0.2-0.3,0.5-0.3H68c0.2,0,0.4,0.1,0.5,0.3l2.9,7.9c0.1,0.3,0,0.5-0.3,0.5h-0.4c-0.2,0-0.4-0.1-0.5-0.3l-0.8-2.2h-3.3
	l-0.8,2.2c-0.1,0.2-0.2,0.3-0.4,0.3h-0.4c-0.3,0-0.4-0.2-0.3-0.5C64.1,53,67,45.1,67,45.1z M60.1,44.6c1.5,0,2.4,0.6,2.9,0.9
	c0.2,0.1,0.2,0.3,0.1,0.6l-0.2,0.2c-0.1,0.2-0.3,0.2-0.6,0.1c-0.4-0.2-1.1-0.7-2.2-0.7c-2,0-3.2,1.5-3.2,3.3c0,1.8,1.2,3.4,3.2,3.4
	c1.1,0,2-0.6,2.4-0.8c0.2-0.2,0.4-0.2,0.6,0l0.2,0.2c0.1,0.2,0.1,0.4-0.1,0.6c-0.4,0.4-1.5,1.1-3.1,1.1c-2.7,0-4.4-2-4.4-4.5
	C55.7,46.5,57.5,44.6,60.1,44.6 M89.9,45.1c0-0.3,0.1-0.4,0.4-0.4h4.2c0.3,0,0.4,0.1,0.4,0.4v0.2c0,0.3-0.1,0.4-0.4,0.4h-3.4v2.7
	h2.7c0.3,0,0.4,0.1,0.4,0.4v0.2c0,0.3-0.1,0.4-0.4,0.4h-2.7v2.8h3.6c0.3,0,0.4,0.1,0.4,0.4V53c0,0.3-0.1,0.4-0.4,0.4h-4.4
	c-0.3,0-0.4-0.1-0.4-0.4V45.1z"/>
<path id="path786" d="M32,50.4c-0.4,0-0.7-0.1-1.1-0.3c0.2-0.2,0.3-0.4,0.3-0.7c0-0.5-0.4-0.9-0.9-0.9c-0.1,0-0.3,0-0.4,0.1
	c0-0.1,0-0.2,0-0.3c0-0.2,0-0.3,0.1-0.5c0.4-0.2,0.7-0.6,0.7-1.1c0,0,0,0,0-0.1c0.4-0.3,0.8-0.5,1.4-0.5c1.2,0,2.1,0.9,2.1,2.1
	c0,0.1,0,0.3,0,0.4c-0.3,0.2-0.5,0.5-0.5,1c0,0,0,0.1,0,0.1C33.2,50.1,32.6,50.4,32,50.4"/>
<path id="path790" d="M19.3,58c-1.3,0-2.4-0.8-2.7-2c0.1-0.2,0.2-0.4,0.2-0.7c0-0.3-0.1-0.6-0.2-0.8c0.3-1.3,1.4-2.2,2.8-2.2
	c0.4,0,0.8,0.1,1.1,0.2c0.5-0.1,1,0.4,1.1,0.5c0.3,0.3,0.6,0.7,0.6,1.2c0,0-0.1,0.3-0.1,0.3c0.1,0.2,0.1,0.5,0.1,0.7
	C22.1,56.7,20.9,58,19.3,58"/>
<path id="path794" d="M27.1,42.9c-1,0-1.8-0.8-1.8-1.8c0-1,0.8-1.8,1.8-1.8c1,0,1.8,0.8,1.8,1.8C28.9,42.1,28.1,42.9,27.1,42.9"/>
<path id="path798" d="M13.6,48.2c-0.6,0-1-0.5-1-1c0-0.6,0.5-1,1-1c0.6,0,1,0.5,1,1C14.7,47.8,14.2,48.2,13.6,48.2"/>
<path id="path818" d="M25.5,49.1c-0.1,0.2-0.3,0.2-0.5,0.2c-0.1,0-0.4,0-0.4-0.2c-0.3-0.2-0.5-0.5-0.5-0.9c0-0.5,0.4-1,0.9-1
	c0.1,0.7,0.5,1.2,1.1,1.5C26,48.8,25.8,49,25.5,49.1"/>
<path id="path806" d="M25,51.8c-0.1,0-0.2,0-0.3,0c0,0,0,0,0,0c0-0.6-0.4-1-0.9-1.1c0.3-0.2,0.5-0.6,0.5-1c0-0.2,0-0.3-0.1-0.5
	c0.2-0.1,0.4-0.2,0.6-0.3c0.2,0.1,0.3,0.1,0.5,0.1c0.1,0,0.2,0,0.3-0.1c0.2,0.1,0.3,0.2,0.5,0.3c0,0,0,0,0,0.1
	c0,0.4,0.2,0.8,0.4,1.1C26.3,51.3,25.7,51.8,25,51.8"/>
<path id="path810" d="M15.4,56.7c-0.8,0-1.4-0.6-1.4-1.4c0-0.8,0.6-1.4,1.4-1.4c0.5,0,0.9,0.2,1.1,0.6c0,0.2-0.1,0.4-0.1,0.6
	c0,0.3,0,0.6,0.1,0.9C16.3,56.4,15.9,56.7,15.4,56.7"/>
<path id="path826" d="M35.8,49.3c0,0-0.1,0-0.1,0c-0.1-0.4-0.5-0.8-1-0.8c0-0.1,0-0.2,0-0.3c0-0.6,0.5-1.1,1.1-1.1
	c0.6,0,1.1,0.5,1.1,1.1C36.9,48.8,36.4,49.3,35.8,49.3"/>
<path id="path838" d="M37.7,43.5c0-0.1,0-0.2,0-0.3c0-0.6-0.3-1.2-0.7-1.5c0.2-0.1,0.4-0.2,0.6-0.2c0.5,0,1,0.4,1,1
	C38.6,43,38.2,43.4,37.7,43.5"/>
<path id="path842" d="M35.8,46.3c0-0.1,0-0.1,0-0.2c0-0.3-0.3-0.6-0.6-0.6c-0.2,0-0.4,0.1-0.5,0.3c-0.1-0.1-0.1-0.3-0.1-0.5
	c0-0.2,0.1-0.4,0.1-0.5c0.3,0.2,0.7,0.3,1.1,0.3c0.2,0,0.5,0,0.7-0.1c0,0.1,0,0.2,0,0.3C36.5,45.8,36.2,46.2,35.8,46.3"/>
<path id="path846" d="M38.7,45.4c-0.2-0.1-0.5-0.2-0.8-0.2c-0.1,0-0.2,0-0.3,0c-0.2-0.2-0.3-0.4-0.3-0.7c0-0.1,0-0.2,0-0.3
	c0.1-0.1,0.1-0.2,0.2-0.3c0.2-0.2,0.4-0.4,0.8-0.4c0.3,0,0.6,0.1,0.7,0.3c-0.1,0.2-0.2,0.3-0.2,0.5c0,0.2,0.1,0.5,0.2,0.6
	C39.1,45.2,38.9,45.3,38.7,45.4"/>
<path id="path854" d="M37.6,43.5c-0.5,0-1.4-0.4-1.4-1c0-0.3,0.6-0.7,0.8-0.9c0.6,0,1.1,0.6,1.1,1.2c0,0.1-0.4,0.5-0.4,0.6
	C37.7,43.5,37.6,43.5,37.6,43.5"/>
<path id="path858" d="M35.1,45.3c-0.4,0,0-0.3-0.4-0.5c0.2-0.3,0.5-0.8,0.9-0.8c0.4,0,0.8,0.6,0.9,1c-0.2,0.1-0.6,0.3-0.9,0.3"/>
<path id="path862" d="M37.5,44.2c0-0.1,0.1-0.2,0.2-0.3C37.6,44,37.5,44.1,37.5,44.2"/>
<path id="path866" d="M34.7,50.7c-0.6,0-1.1-0.4-1.1-1c0.3-0.3,0.5-0.7,0.5-1.1c0.2-0.1,0.4-0.2,0.6-0.2c0,0,0.1,0,0.1,0
	c0.1,0.4,0.5,0.8,1,0.8c0,0.1,0,0.2,0,0.3c0,0.2-0.1,0.5-0.2,0.6c0,0-0.1,0-0.1,0c-0.3,0-0.5,0.2-0.6,0.5
	C34.8,50.7,34.7,50.7,34.7,50.7"/>
<path id="path870" d="M33.5,49.7c-0.2-0.1-0.3-0.2-0.3-0.3c0-0.4,0.6-0.9,0.8-0.8C34.4,48.8,33.9,49.8,33.5,49.7"/>
<path id="path874" d="M35.7,49.3c-0.4,0.2-1.3-0.4-1-0.8C35.2,48.2,35.9,49,35.7,49.3"/>
<path id="path882" d="M36.7,41.5c-0.2,0-0.4,0.1-0.5-0.2C36.5,41.2,36.6,41.3,36.7,41.5"/>
<path id="path886" d="M30.7,46c-0.5,0-0.9-0.4-0.9-0.9c0-0.3,0.2-0.6,0.4-0.7c0,0,0.1,0,0.1,0c0.2,0,0.4,0,0.5-0.1
	c0.4,0.1,0.7,0.4,0.7,0.8C31.6,45.6,31.2,46,30.7,46"/>
<path id="path890" d="M23.5,44.9c-1.2,0.9-1.4-0.7-1.2-0.9c0.1-0.4,0.4-0.7,0.8-0.7c0.5,0,0.9,0.4,0.9,0.9
	C24,44.5,23.8,44.8,23.5,44.9"/>
<path id="path898" d="M34.8,50.7c-0.1-0.3,0.2-0.6,0.5-0.6c0,0,0.2,0.1,0.3,0.1C35.7,50.6,35.1,50.9,34.8,50.7"/>
<path id="path902" d="M5.6,44.1c-0.3,0-0.6-0.3-0.6-0.6c0-0.3,0.3-0.6,0.6-0.6c0.3,0,0.6,0.3,0.6,0.6C6.2,43.8,5.9,44.1,5.6,44.1"/>
<path id="path906" d="M35.2,46.7c-0.3,0-0.6-0.3-0.6-0.6c0-0.1,0-0.2,0.1-0.3c0.2,0.3,0.5,0.5,0.9,0.5c0.1,0,0.2,0,0.3,0
	C35.7,46.5,35.5,46.7,35.2,46.7"/>
<path id="path910" d="M34.9,46.3c-0.4,0-0.1-0.2-0.2-0.5c0-0.2,0.5-0.5,0.7-0.5c0.3,0,0.5,0.4,0.5,0.8c0,0.1,0,0.1-0.1,0.2
	c-0.1,0-0.4,0.2-0.5,0.2"/>
<path id="path914" d="M16.5,41.5c-0.3,0-0.6-0.3-0.6-0.6c0-0.3,0.3-0.6,0.6-0.6c0.3,0,0.6,0.3,0.6,0.6
	C17.1,41.2,16.8,41.5,16.5,41.5"/>
<path id="path918" d="M26.2,48.6C26.2,48.6,26.1,48.5,26.2,48.6c0-0.2,0-0.3,0-0.5c0-0.6-0.5-1-1-1c-0.1,0-0.1,0-0.2,0
	c0-0.1,0-0.1,0-0.2c0-0.9,0.6-1.6,1.5-1.8c0.1,0.5,0.6,0.8,1.1,0.8c0.2,0,0.4-0.1,0.6-0.2c0.1,0.1,0.2,0.3,0.3,0.5
	c-0.1,0.2-0.2,0.4-0.2,0.6c0,0.3,0.1,0.5,0.2,0.7c-0.1,0.2-0.2,0.4-0.3,0.5c-0.2-0.1-0.4-0.1-0.7-0.1C27,47.8,26.5,48.1,26.2,48.6"
	/>
<path id="path926" d="M18.7,49.9c-1,0-1.8-0.8-1.8-1.8c0-0.6,0.3-1.1,0.6-1.4c0.3-0.1,0.5-0.2,0.7-0.4c0.1,0,0.3,0,0.4,0
	c1,0,1.8,0.8,1.8,1.8S19.7,49.9,18.7,49.9"/>
<path id="path930" d="M22.2,48.8c-0.3-0.2-0.6-0.5-0.6-1c0-0.3,0.1-0.6,0.3-0.8c0,0,0.1,0,0.1,0c0.3,0,0.6-0.1,0.9-0.3
	c0.5,0.1,0.8,0.6,0.8,1.1c0,0.3-0.1,0.6-0.3,0.8c-0.2-0.1-0.3-0.1-0.5-0.1c0,0,0,0,0,0C22.7,48.5,22.4,48.6,22.2,48.8"/>
<path id="path934" d="M25.6,78.8c-0.6,0-1.1-0.5-1.1-1.1c0-0.2,0-0.4,0.1-0.5c0,0,0,0,0,0c0.5,0,1-0.2,1.3-0.5
	c0.4,0.1,0.8,0.6,0.8,1C26.7,78.3,26.2,78.8,25.6,78.8"/>
<path id="path938" d="M28.2,45.7c-0.3-0.4-0.8-0.6-1.4-0.6c-0.1,0-0.2,0-0.3,0c0-0.1,0-0.2,0-0.3c0-0.6,0.5-1.1,1.1-1.1
	c0.6,0,1.1,0.5,1.1,1.1C28.7,45.1,28.5,45.5,28.2,45.7"/>
<path id="path946" d="M13,52.6c-0.6,0-1.1-0.5-1.1-1.1c0-0.6,0.5-1.1,1.1-1.1c0.6,0,1.1,0.5,1.1,1.1C14.1,52.1,13.6,52.6,13,52.6"/>
<path id="path958" d="M37.7,45.5c-0.3,0-0.1-0.2,0-0.3c0-0.1,0.2-0.2,0.3-0.2c0.3,0,0.7,0.2,0.7,0.4c0,0.1-0.4,0.2-0.5,0.2"/>
<path id="path962" d="M7.1,49.2c-0.6,0-1.1-0.5-1.1-1.1c0-0.6,0.5-1.1,1.1-1.1c0.6,0,1.1,0.5,1.1,1.1C8.2,48.8,7.7,49.2,7.1,49.2"/>
<path id="path966" d="M22,54.4c-0.2-0.9-0.8-1.6-1.7-1.9c0-0.1,0.1-0.3,0.1-0.4c0.1,0,0.2,0.1,0.4,0.1c0,0,0,0,0,0
	c0.6,0,1-0.4,1.1-1h0c0.2,0,0.4,0,0.6,0.1c-0.1,0.1-0.1,0.3-0.1,0.5c0,0.6,0.5,1.1,1.1,1.1c0,0,0,0,0.1,0
	C23.6,53.7,22.9,54.4,22,54.4"/>
<path id="path978" d="M17.2,46.7c-0.9,0-1.6-0.7-1.6-1.6c0-0.9,0.7-1.6,1.6-1.6c0.3,0,0.6,0.1,0.8,0.2c0.1,0.1,0.1,0.1,0.2,0.1
	c0.4,0.3,0.6,0.8,0.6,1.3c0,0.5-0.2,0.9-0.5,1.2c-0.3,0.1-0.5,0.2-0.7,0.4C17.5,46.7,17.3,46.7,17.2,46.7"/>
<path id="path982" d="M17.6,46.6c0.2-0.2,0.5-0.3,0.7-0.4C18.1,46.5,17.9,46.6,17.6,46.6"/>
<path id="path986" d="M11.8,46.9c-0.8,0-1.4-0.6-1.4-1.4c0-0.8,0.6-1.4,1.4-1.4c0.8,0,1.4,0.6,1.4,1.4
	C13.2,46.3,12.5,46.9,11.8,46.9"/>
<path id="path990" d="M8.6,53.9c-0.7,0-1.2-0.6-1.2-1.2c0-0.7,0.5-1.2,1.2-1.2c0.7,0,1.2,0.5,1.2,1.2C9.8,53.3,9.3,53.9,8.6,53.9"/>
<path id="path994" d="M27.6,51.1c-0.5,0-0.9-0.2-1.2-0.5c0,0,0-0.1,0-0.2c0-0.4-0.2-0.8-0.4-1c0-0.3,0.1-0.6,0.2-0.8
	c0.2,0.1,0.4,0.1,0.6,0.1c0.6,0,1.1-0.3,1.5-0.7c0.6,0.3,1,0.8,1,1.5C29.2,50.4,28.5,51.1,27.6,51.1"/>
<path id="path1006" d="M29.5,47.9c-0.4,0-0.7-0.2-0.9-0.5c0.1-0.2,0.1-0.4,0.1-0.6c0-0.3-0.1-0.5-0.1-0.7c0.2-0.3,0.6-0.6,1-0.6
	c0.6,0,1.1,0.5,1.2,1.1c-0.3,0.3-0.6,0.7-0.7,1.1C29.8,47.9,29.7,47.9,29.5,47.9"/>
<path id="path1010" d="M29.9,47.7c0.1-0.4,0.3-1,0.8-1.1c0,0,0.2,0.2,0.2,0.3c0,0.5-0.4,1-0.8,0.9"/>
<path id="path1018" d="M30.3,44.4c-0.6,0-1.1-0.6-1.1-1.2c0-0.3,0.1-0.6,0.3-0.8c0.4,0.5,1,0.9,1.7,0.9c0.1,0,0.2,0,0.3,0
	c0,0.4-0.3,0.8-0.6,1c-0.1,0-0.1,0-0.2,0C30.6,44.3,30.4,44.3,30.3,44.4"/>
<path id="path1022" d="M30.4,44.5c0,0-0.1-0.1-0.1-0.1c0.1-0.1,0.1-0.2,0.3-0.2c0.1,0,0.3,0.1,0.3,0.1
	C30.8,44.4,30.7,44.6,30.4,44.5"/>
<path id="path1026" d="M16.6,63.1C16.6,63.1,16.6,63.1,16.6,63.1c-0.6,0-1.1-0.5-1.1-1.1c0-0.6,0.5-1.1,1.1-1.1c0,0,0,0,0,0
	c0.6,0,1.1,0.5,1.1,1.1c0,0.1,0,0.2,0,0.2c0,0,0,0,0,0C17.6,62.7,17.2,63.1,16.6,63.1"/>
<path id="path1030" d="M15.3,65.6C15.3,65.6,15.2,65.6,15.3,65.6c-0.8,0-1.4-0.6-1.4-1.4c0-0.8,0.6-1.4,1.4-1.4h0
	c0.6,0,1.1,0.4,1.3,0.9c-0.1,0.2-0.2,0.5-0.2,0.7c0,0.2,0,0.3,0.1,0.5C16.2,65.4,15.8,65.6,15.3,65.6"/>
<path id="path1034" d="M22.8,50.9c-0.6-0.1-1.1-0.6-1.1-1.2c0-0.4,0.2-0.7,0.4-0.9c0.2,0.1,0.3,0.1,0.5,0.1c0.3,0,0.6-0.1,0.8-0.3
	c0.3,0.1,0.5,0.4,0.6,0.6c-0.3,0.3-0.6,0.7-0.6,1.1c0,0.1,0,0.2,0,0.3c0,0,0,0,0,0C23.3,50.6,23,50.7,22.8,50.9"/>
<path id="path1054" d="M4.9,59.1L4.9,59.1c-0.6,0-1.1-0.5-1.1-1.1c0-0.6,0.5-1.1,1.1-1.1c0,0,0,0,0,0C5.5,56.9,6,57.4,6,58
	C6,58.6,5.5,59.1,4.9,59.1"/>
<path id="path1058" d="M1.6,54.5L1.6,54.5c-0.5,0-0.8-0.4-0.8-0.8c0-0.5,0.4-0.8,0.8-0.8h0c0.5,0,0.8,0.4,0.8,0.8
	C2.4,54.2,2,54.5,1.6,54.5"/>
<path id="path1062" d="M2,70.2C2,70.2,2,70.2,2,70.2c-0.5,0-0.8-0.4-0.8-0.8c0-0.5,0.4-0.8,0.8-0.8c0.5,0,0.8,0.4,0.8,0.8
	C2.8,69.8,2.4,70.2,2,70.2"/>
<path id="path1066" d="M12.2,65.8C12.2,65.8,12.2,65.8,12.2,65.8c-0.6,0-1.1-0.5-1.1-1.1c0-0.6,0.5-1.1,1.1-1.1
	c0.6,0,1.1,0.5,1.1,1.1C13.3,65.3,12.8,65.8,12.2,65.8"/>
<path id="path1070" d="M30.2,81.7L30.2,81.7c-0.5,0-0.9-0.4-0.9-0.9c0-0.5,0.4-0.8,0.9-0.8c0,0,0.1,0,0.1,0c0.1,0.5,0.3,0.9,0.7,1.1
	C30.8,81.5,30.5,81.7,30.2,81.7"/>
<path id="path1074" d="M20.4,62.2c-0.3-0.1-0.5-0.2-0.8-0.2h0c-0.1,0-0.1,0-0.2,0c0-0.2-0.2-0.4-0.3-0.5c0-0.1,0-0.2,0-0.3
	c0-0.1,0-0.2,0-0.3c0.2,0.1,0.3,0.1,0.5,0.1c0,0,0,0,0,0c0.5,0,0.9-0.2,1.2-0.6c0.2,0.2,0.4,0.5,0.4,0.8
	C21.1,61.7,20.8,62.1,20.4,62.2"/>
<path id="path1078" d="M13.7,60.4C13.6,60.4,13.6,60.4,13.7,60.4c-0.6,0-1.1-0.5-1.1-1.1c0-0.6,0.5-1.1,1.1-1.1h0
	c0.6,0,1.1,0.5,1.1,1.1C14.7,59.9,14.3,60.4,13.7,60.4"/>
<path id="path1082" d="M20.5,52.1c-0.4-0.2-0.7-0.6-0.7-1c0-0.6,0.5-1.1,1.1-1.1c0,0,0,0,0,0c0.6,0,1.1,0.5,1.1,1.1c0,0,0,0.1,0,0.1
	C21.3,51.2,20.8,51.6,20.5,52.1"/>
<path id="path1090" d="M15.6,52.2L15.6,52.2c-0.9,0-1.5-0.7-1.5-1.5c0-0.8,0.7-1.5,1.5-1.5c0,0,0,0,0,0c0.8,0,1.5,0.7,1.5,1.5
	C17.1,51.5,16.4,52.2,15.6,52.2"/>
<path id="path1094" d="M18,62.8c-0.2-0.1-0.3-0.3-0.3-0.6c0-0.1,0-0.2,0-0.3c0,0,0,0,0,0c0.1-0.3,0.4-0.6,0.8-0.6
	c0.2,0,0.4,0.1,0.5,0.2c0.1,0.2,0.2,0.3,0.3,0.5C18.8,62.1,18.3,62.4,18,62.8C18,62.8,18,62.8,18,62.8C18,62.8,18,62.8,18,62.8
	C18,62.8,18,62.8,18,62.8"/>
<path id="path1102" d="M19.4,62c-0.1-0.1-0.3-0.3-0.3-0.5C19.2,61.7,19.3,61.8,19.4,62C19.4,62,19.4,62,19.4,62"/>
<path id="path1106" d="M19.6,65.7C19.6,65.7,19.5,65.7,19.6,65.7c-0.1,0-0.3,0-0.4,0c-0.6,0-1.5-0.3-1.5-0.7c-0.3-1.1,0-1.7,0.4-2
	c0.4,0.3,0.8,0.2,0.8,0.2c0.3-0.1,0.6-0.4,0.6-0.8c0-0.1,0-0.1,0-0.2c0.2,0.2,0.4,0.2,0.7,0.2h0c0.1,0,0.2,0,0.3-0.1
	c0.6,0.3,1,0.9,1,1.6c0,0.3-0.1,0.6-0.2,0.9c-0.1-0.1-0.3-0.1-0.4-0.1h0C20.1,64.6,19.6,65.1,19.6,65.7
	C19.6,65.7,19.6,65.7,19.6,65.7"/>
<path id="path1122" d="M19.1,60.9c-0.5-0.2-0.8-0.6-0.9-1.2c0.1-0.2,0.1-0.4,0.1-0.6c0,0,0-0.1,0-0.1c0.2-0.5,0.7-0.8,1.3-0.8
	c0,0,0,0,0,0c0.8,0,1.4,0.6,1.4,1.4c0,0.3-0.1,0.5-0.2,0.7c-0.2-0.1-0.4-0.2-0.6-0.2h0C19.6,60.2,19.2,60.5,19.1,60.9"/>
<path id="path1130" d="M16.7,60.8C16.7,60.8,16.7,60.8,16.7,60.8c-0.9,0-1.6-0.7-1.6-1.6c0-0.9,0.7-1.6,1.6-1.6c0,0,0,0,0,0
	c0.9,0,1.6,0.7,1.6,1.5c-0.1,0.2-0.1,0.4-0.1,0.6c0,0,0,0.1,0,0.1C17.9,60.4,17.3,60.8,16.7,60.8"/>
<path id="path1138" d="M18,66.1C18,66.1,18,66.1,18,66.1c-0.7,0-1.4-0.5-1.6-1.2c0.1-0.2,0.2-0.4,0.2-0.7c0-0.2,0-0.4-0.1-0.5
	c0.3-0.5,0.8-0.9,1.4-0.9c0,0,0,0,0,0c-0.2,0.3-0.3,0.6-0.3,0.9c0,0.9,0.6,1.6,1.4,1.8C18.9,65.9,18.5,66.1,18,66.1"/>
<path id="path1146" d="M18,62.9C18,62.9,18,62.9,18,62.9C18,62.8,18,62.8,18,62.9C18,62.8,18,62.8,18,62.9C18,62.8,18,62.8,18,62.9
	C18,62.9,18,62.9,18,62.9"/>
<path id="path1158" d="M20.7,66.9C20.7,66.9,20.7,66.9,20.7,66.9c-0.6,0-1.2-0.5-1.2-1.2c0,0,0-0.1,0-0.1c0.7,0,1.3-0.4,1.6-0.9
	c0.4,0.2,0.7,0.6,0.7,1.1C21.9,66.4,21.3,66.9,20.7,66.9"/>
<path id="path1166" d="M34.2,42.1c-0.4-0.2-0.7-0.7-0.7-1.2c0-0.8,0.6-1.4,1.4-1.4c0.6,0,1.1,0.4,1.3,0.9c0,0.1-0.1,0.2-0.1,0.3
	c0,0.2,0,0.3,0.1,0.4c0,0,0,0.1,0,0.1c-0.1,0-0.2,0-0.3,0C35.1,41.2,34.5,41.6,34.2,42.1"/>
<path id="path1170" d="M34.6,42.6c-0.2,0-0.3-0.4-0.5-0.5c0.3-0.5-0.1-1.2,0.6-1.2c0.1,0,1.2,0.3,1.3,0.3c-0.2,0.6-0.1,1.5-0.7,1.5"
	/>
<path id="path1174" d="M36.1,41.1c-0.1-0.1-0.2-0.3-0.2-0.4c0-0.1,0.1-0.2,0.1-0.3c0.1,0.2,0.2,0.3,0.2,0.5
	C36.2,41,36.1,41,36.1,41.1"/>
<path id="path1182" d="M40.8,49.3c-0.1,0-0.2-0.3-0.2-0.5c0-0.1,0.1-0.3,0.1-0.3S41,48.8,41,49C41,49.1,41,49.3,40.8,49.3"/>
<path id="path1178" d="M39.5,51c-0.2-0.1-0.4-0.2-0.7-0.2c-0.1,0-0.3,0-0.4,0.1c-0.2-0.3-0.5-0.5-0.9-0.5c-0.1,0-0.2,0-0.2,0
	c-0.2-0.3-0.4-0.7-0.4-1.2c0-0.5,0.2-1,0.5-1.4c0.2,0.1,0.4,0.1,0.6,0.1c0.5,0,1-0.3,1.2-0.7c0.8,0.1,1.4,0.7,1.6,1.4
	c0,0.1,0,0.2,0,0.3c0,0.2,0,0.3,0.1,0.5c0,0.5-0.3,1-0.6,1.3C39.9,50.6,39.7,50.8,39.5,51"/>
<path id="path1186" d="M37.8,48.1c-0.2,0-0.4-0.3-0.4-0.3s0.3-1.1,0.8-1.1c0.1,0,0.8,0.3,0.9,0.5c0.1,0.5-0.5,0.8-1,0.8"/>
<path id="path1198" d="M31.2,43.5c-0.7,0-1.6-0.3-1.7-1c0.2-0.2,0.4-0.5,0.7-0.5c0.6,0,1.5,0.4,1.3,1.3c0,0,0,0,0,0
	c-0.1,0-0.4,0.4-0.5,0.4"/>
<path id="path1206" d="M41.4,47.8c0-0.1,0.1-0.2,0.2-0.2c0,0,0.2,0.1,0.2,0.1C41.8,47.9,41.5,48,41.4,47.8"/>
<path id="path1214" d="M43.6,48.4c-0.5-0.2-0.9-0.6-1-1.1c0.3-0.3,0.5-0.7,0.5-1.1c0.2,0.1,0.4,0.2,0.6,0.2c0.6,0,1.1-0.4,1.3-0.9
	c0.2,0.1,0.4,0.3,0.6,0.5c-0.8,0.2-1.4,0.9-1.4,1.7c0,0,0,0.1,0,0.1C43.9,48,43.7,48.2,43.6,48.4"/>
<path id="path1218" d="M43.4,46.5c-0.2,0-0.3-0.3-0.3-0.3c0,0,0,0,0-0.1c0-0.2,0-0.3-0.1-0.4c0-0.4,0.5-0.7,1-0.7
	c0.3,0,0.8,0.1,1,0.4c0.1,0.6-0.7,1.1-1.3,1.1"/>
<path id="path1226" d="M42.6,47.3c0-0.1-0.3-0.4-0.3-0.6c0-0.3,0.2-0.7,0.5-0.8c0.1,0.1,0.5,0,0.6,0.1C43.3,46.5,43,47.3,42.6,47.3"
	/>
<path id="path1230" d="M43,46.2c-0.1-0.1-0.4-0.2-0.4-0.2c0.1-0.1,0.2-0.3,0.4-0.3c0.2,0.1,0.2,0.4,0.2,0.6c0,0-0.3,0.1-0.3,0.1"/>
<path id="path1242" d="M42.3,44.9c-0.1,0.3-0.8-0.1-0.7-0.4C41.7,44.3,42.3,44.5,42.3,44.9C42.3,44.9,42.3,44.9,42.3,44.9"/>
<path id="path1246" d="M42.3,45c0,0-0.1,0-0.1,0c0,0,0.1-0.3,0.1-0.4c0,0,0.3,0.3,0.3,0.3C42.6,44.9,42.4,45,42.3,45"/>
<path id="path1238" d="M42.4,44.9c0,0-0.1-0.1-0.1-0.1c-0.2-0.8,0.6-1.5,1.1-1.1c0,0,0.2,0.2,0.2,0.3C43.6,44.6,43.1,45.2,42.4,44.9
	"/>
<path id="path1250" d="M39.8,45.4c-0.3,0-0.5-0.1-0.7-0.3c0.1-0.2,0.2-0.3,0.2-0.5c0-0.2-0.1-0.5-0.2-0.6c0,0,0-0.1,0.1-0.1
	c0.2,0.3,0.6,0.4,1,0.4c0.2,0,0.4,0,0.6-0.1c0,0.1,0.1,0.2,0.1,0.3c0,0.1,0,0.2,0,0.3c-0.3,0.1-0.6,0.4-0.7,0.7
	C40,45.3,39.9,45.4,39.8,45.4"/>
<path id="path1254" d="M39.2,45c-0.1-0.2-0.5-0.4-0.5-0.6c0-0.2,0.2-0.5,0.4-0.5c0.3,0,0.4,0.4,0.4,0.6C39.5,44.7,39.3,44.9,39.2,45
	"/>
<path id="path1258" d="M40,45.3c-0.1-0.3,0.3-0.8,0.7-0.7C40.9,45,40.3,45.6,40,45.3"/>
<path id="path1262" d="M33,45.9c-0.7,0-1.2-0.5-1.2-1.2c0-0.7,0.5-1.2,1.2-1.2c0.7,0,1.2,0.5,1.2,1.2C34.1,45.4,33.6,45.9,33,45.9"
	/>
<path id="path1266" d="M22.8,42.4c-0.7,0-1.2-0.5-1.2-1.2c0-0.7,0.5-1.2,1.2-1.2c0.7,0,1.2,0.5,1.2,1.2C24,41.9,23.5,42.4,22.8,42.4
	"/>
<path id="path1270" d="M18.6,43.8c-0.1,0-0.3,0-0.4-0.1c-0.1-0.1-0.1-0.1-0.2-0.1c-0.2-0.2-0.3-0.4-0.3-0.7c0-0.5,0.4-0.9,0.9-0.9
	c0.5,0,0.9,0.4,0.9,0.9C19.5,43.4,19.1,43.8,18.6,43.8"/>
<path id="path1274" d="M18.2,43.8c-0.1,0-0.2-0.1-0.2-0.1C18.1,43.7,18.2,43.7,18.2,43.8"/>
<path id="path1282" d="M41.3,43.5c0-0.1,0-0.1,0.1-0.2C41.4,43.4,41.4,43.4,41.3,43.5"/>
<path id="path1286" d="M39.5,44.3c-0.2-0.1-0.3-0.5-0.3-0.5c0-0.3,0.4-0.5,0.6-0.5c0.4,0,1,0.4,0.9,0.8c-0.1,0.4-0.5,0.3-0.7,0.3"/>
<path id="path1290" d="M45.7,75.9C45.7,75.9,45.7,75.9,45.7,75.9c-0.3-0.8-1-1.4-1.9-1.4c0,0,0,0-0.1,0c-0.1-0.2-0.1-0.4-0.1-0.7
	c0-0.5,0.2-0.9,0.4-1.2c0.1,0,0.2,0,0.3,0c0.5,0,1-0.4,1.1-0.8c0.1,0,0.2,0,0.2,0c0.5,0,1,0.2,1.3,0.5c-0.1,0-0.1,0-0.2,0
	c-0.6,0-1.1,0.5-1.1,1.1s0.5,1.1,1.1,1.1c0.4,0,0.7-0.2,0.9-0.5C47.7,75.1,46.8,75.9,45.7,75.9"/>
<path id="path1294" d="M32.1,75.8c-0.8,0-1.5-0.5-1.8-1.2c0.4-0.2,0.7-0.7,0.7-1.2c0-0.4-0.2-0.7-0.4-1c0.4-0.5,1-0.8,1.7-0.8
	c0.5,0,1,0.2,1.4,0.5c0.3,0,0.6,0.2,0.6,0.2c0,0.5,0.3,0.7,0.1,1c0,0.1,0,0.2,0,0.3c0,0.2,0,0.4-0.1,0.5
	C34.5,74.9,33.1,76.1,32.1,75.8"/>
<path id="path1298" d="M11.1,58.6c-0.8,0-1.5-0.7-1.5-1.5c0-0.8,0.7-1.5,1.5-1.5c0.8,0,1.5,0.7,1.5,1.5C12.6,58,11.9,58.6,11.1,58.6
	"/>
<path id="path1302" d="M32,81.5c-0.4,0-0.8-0.1-1.1-0.3c0-0.1,0-0.2,0-0.3c0-0.4-0.3-0.8-0.7-0.8c0-0.1,0-0.2,0-0.3
	c0-0.5,0.2-0.9,0.4-1.2c0.2-0.5,0.4-0.7,0.9-0.7c0.6,0,1.1-0.6,1.3,0.1c0.1,0.1,0.3,0.6,0.5,0.7c0.2,0.3,0.4,0.7,0.4,1.1
	C33.8,80.7,33,81.5,32,81.5"/>
<path id="path1310" d="M27.3,82.1c-1,0-1.8-0.8-1.8-1.8c0-0.8,0.6-1.5,1.4-1.7c0.1,0.5,0.6,0.9,1.1,0.9c0.3,0,0.5-0.1,0.7-0.2
	c0.2,0.3,0.4,0.7,0.4,1.1C29,81.4,28.3,82.1,27.3,82.1"/>
<path id="path1314" d="M41.5,72.9c-0.2,0-0.3,0-0.4,0v0c0-1-0.7-1.8-1.6-1.9c0.1-0.1,0.1-0.2,0.2-0.4c0.1-0.3,0.1-0.6-0.1-0.9
	c0.1-0.1,0.1-0.2,0.2-0.3c0.1,0,0.2,0,0.3,0c0.5,0,0.9-0.3,1.1-0.8c0.1,0,0.3,0,0.4,0c1.2,0,2.2,1,2.2,2.2c0,0,0,0,0,0.1
	c-0.2,0.2-0.4,0.5-0.4,0.8c0,0.1,0,0.2,0,0.3c-0.1,0.1-0.2,0.2-0.3,0.3c-0.1-0.1-0.3-0.1-0.5-0.1C42.1,72.1,41.7,72.4,41.5,72.9
	C41.5,72.9,41.5,72.9,41.5,72.9"/>
<path id="path1318" d="M42.6,74.3c-0.6,0-1.1-0.5-1.1-1.1c0-0.1,0-0.2,0.1-0.3c0.6,0,1.1-0.3,1.5-0.7c0.4,0.2,0.6,0.6,0.6,1
	C43.7,73.8,43.2,74.3,42.6,74.3"/>
<path id="path1326" d="M47.8,74c-0.5-0.2-0.7-0.7-0.8-0.7c0-0.1-0.1-0.2,0.1-1c0.5,0.1,0.9,0.5,0.9,1.1C48,73.6,47.9,73.9,47.8,74"
	/>
<path id="path1330" d="M46.9,74.5c-0.6,0-1.1-0.5-1.1-1.1s0.5-1.1,1.1-1.1c0.1,0,0.1,0,0.2,0c0.4,0.4,0.7,0.9,0.7,1.6
	c0,0.1,0,0.1,0,0.2C47.6,74.3,47.3,74.5,46.9,74.5"/>
<path id="path1334" d="M24.5,72.2c0-0.1,0-0.1,0-0.2c0.4-0.2,0.6-0.6,0.6-1.1c0,0,0,0,0,0c0.1-0.1,0.3-0.1,0.5-0.1
	c0.6,0,1,0.4,1.1,1c-0.4,0.2-0.6-0.3-0.9-0.3C25.2,71.4,24.7,71.7,24.5,72.2"/>
<path id="path1338" d="M11.8,74.3c-0.8,0-1.4-0.6-1.4-1.4c0-0.8,0.6-1.4,1.4-1.4c0,0,0.1,0,0.1,0c0.6-0.4,1.7,0.2,1.2,1.2
	c0,0.1,0,0.1,0,0.2C13.2,73.7,12.6,74.3,11.8,74.3"/>
<path id="path1342" d="M15.9,76.1c-0.6,0-1.1-0.5-1.1-1.1c0-0.2,0-0.4,0.1-0.5c0.4,0.7,1.1,1.1,1.9,1.1
	C16.7,75.9,16.3,76.1,15.9,76.1"/>
<path id="path1354" d="M19,70.8c-0.6,0-1.1-0.5-1.1-1.1c0-0.6,0.5-1.1,1.1-1.1c0.2,0,0.5,0.1,0.6,0.2c0,0.1,0,0.1,0,0.2
	c0,0.4,0.1,0.8,0.4,1.2C19.9,70.5,19.5,70.8,19,70.8"/>
<path id="path1358" d="M7.2,77.2c-0.6,0-1.1-0.5-1.1-1.1c0-0.6,0.5-1.1,1.1-1.1c0.6,0,1.1,0.5,1.1,1.1C8.3,76.7,7.8,77.2,7.2,77.2"
	/>
<path id="path1362" d="M8.9,71.5c-0.6,0-1.1-0.5-1.1-1.1c0-0.6,0.5-1.1,1.1-1.1c0.6,0,1.1,0.5,1.1,1.1C10,71,9.5,71.5,8.9,71.5"/>
<path id="path1374" d="M39.8,69.3c-0.5-0.1-0.8-0.6-0.8-1.1c0-0.6,0.5-1.1,1.1-1.1c0.6,0,1.1,0.5,1.1,1.1c0,0.1,0,0.2,0,0.3
	C40.6,68.6,40.1,68.9,39.8,69.3"/>
<path id="path1382" d="M36.1,74.8c-0.1,0-0.1,0-0.2,0c-0.4,0.2-0.8-0.2-0.7-0.4C35,74.2,35,74,35,73.7c0-0.1,0-0.2,0-0.3
	c-0.1-0.4,0.5-0.9,0.8-0.8c0.1,0,0.2,0,0.3,0c0.6,0,1.1,0.5,1.1,1.1C37.2,74.3,36.7,74.8,36.1,74.8"/>
<path id="path1386" d="M22.9,75.7c-0.3-0.3,0.1,1.4-0.4,1.4c-1.2-0.1-1.4-1.2-0.9-1.8c0.2-0.3,0.6-0.6,1-0.6c0.1,0,0.2,0,0.3,0
	c-0.1,0.2-0.1,0.4-0.1,0.6C22.8,75.5,22.8,75.6,22.9,75.7"/>
<path id="path1390" d="M19.2,81.3c-0.6,0-1.1-0.5-1.1-1.1c0-0.6,0.5-1.1,1.1-1.1c0.6,0,1.1,0.5,1.1,1.1
	C20.3,80.8,19.8,81.3,19.2,81.3"/>
<path id="path1394" d="M37.8,80.4c-0.5,0-1-0.4-1-1c0-0.3,0.1-0.5,0.3-0.7c0.3,0.2,0.6,0.3,1,0.3c0.2,0,0.4,0,0.6-0.1
	c0.1,0.1,0.1,0.3,0.1,0.5C38.8,80,38.4,80.4,37.8,80.4"/>
<path id="path1402" d="M38.7,79c-0.2-0.3-0.5-0.5-0.9-0.5c-0.3,0-0.6,0.1-0.7,0.3c-0.4-0.3-0.6-0.8-0.6-1.3c0,0,0,0,0,0
	c0.1-0.2,0.2-0.5,0.2-0.7c0.1-0.2,0.3-0.4,0.5-0.5c0.2,0.3,0.6,0.6,1.1,0.6c0.4,0,0.7-0.2,1-0.4c0.2,0.2,0.4,0.5,0.4,0.7
	c-0.1,0.1-0.1,0.2-0.1,0.4c0,0.1,0,0.3,0.1,0.4c0,0,0,0.1,0,0.1c-0.3,0.2-0.4,0.5-0.5,0.8C38.9,78.8,38.8,78.9,38.7,79"/>
<path id="path1410" d="M44.1,72.6c-0.4-0.1-0.7-0.4-0.8-0.8c0.2-0.3,0.3-0.7,0.4-1.1c0.2-0.2,0.4-0.3,0.7-0.3c0.6,0,1.1,0.5,1.1,1.1
	c0,0.1,0,0.2,0,0.3C44.9,71.9,44.4,72.2,44.1,72.6"/>
<path id="path1422" d="M19,68.1c-0.4,0-0.8-0.3-0.8-0.8c0-0.4,0.3-0.8,0.8-0.8c0.4,0,0.8,0.3,0.8,0.8C19.8,67.8,19.5,68.1,19,68.1"
	/>
<path id="path1426" d="M34.7,73.4c-0.1,0-0.3,0-0.4-0.1c-0.1-0.5-0.3-1-0.7-1.3c0.1-0.5,0.6-0.9,1.1-0.9c0.1,0,0.2,0,0.3,0
	c0,0.1,0,0.1,0,0.2c0,0.3,0.3,0.6,0.6,0.6c0.1,0,0.1,0,0.2,0c0,0.1,0,0.2,0,0.3c0,0.1,0,0.2,0,0.3c-0.4,0.1-0.7,0.4-0.8,0.8
	C34.9,73.4,34.8,73.4,34.7,73.4"/>
<path id="path1438" d="M37.8,71.3c-0.1,0-0.1-0.1-0.2-0.1c0.1-0.4-0.1-0.7-0.5-0.9c0-0.1,0-0.3,0-0.4c0.2-0.6,0.7-0.9,1.2-0.9
	c0.1,0,0.2,0,0.4,0c0.4,0.1,0.7,0.4,0.8,0.7c-0.2,0.3-0.3,0.7-0.3,1.1c0,0.1,0,0.1,0,0.2c-0.1,0-0.2,0-0.2,0
	C38.6,70.8,38.2,71,37.8,71.3"/>
<path id="path1446" d="M35.8,72c-0.6,0.4-1.3-0.3-0.8-0.8c0.1-0.3,0.3-0.4,0.6-0.4c0.1,0,0.2,0,0.3,0.1c0,0.3,0.1,0.5,0.3,0.7
	C36.2,71.8,36,72,35.8,72"/>
<path id="path1454" d="M39.4,81.2c-0.3,0-0.6-0.3-0.6-0.6c0-0.3,0.3-0.6,0.6-0.6c0.2,0.2,0.4,0.3,0.6,0.4c0,0.1,0,0.2,0,0.2
	C40,80.9,39.7,81.2,39.4,81.2"/>
<path id="path1470" d="M21.5,74.8c-0.7,0-1.3-0.6-1.3-1.3c0-0.6,0.3-1,0.8-1.2c0.2,0.2,0.5,0.3,0.8,0.3c0.2,0,0.4,0,0.5-0.1
	c0.3,0.2,0.5,0.6,0.5,1C22.8,74.2,22.2,74.8,21.5,74.8"/>
<path id="path1474" d="M11.7,77.8c-0.4,0-0.8-0.4-0.8-0.8s0.4-0.8,0.8-0.8c0.4,0,0.8,0.4,0.8,0.8S12.2,77.8,11.7,77.8"/>
<path id="path1478" d="M17.5,71.3c-0.2-0.1-0.4-0.1-0.6-0.1c-0.1,0-0.3,0-0.4,0c-0.1-0.1-0.1-0.2-0.1-0.3c0-0.3,0.3-0.6,0.6-0.6
	c0.3,0,0.6,0.3,0.6,0.6C17.6,71.1,17.6,71.2,17.5,71.3"/>
<path id="path1482" d="M18.6,52c-0.3,0-0.6-0.3-0.6-0.6c0-0.3,0.3-0.6,0.6-0.6c0.3,0,0.6,0.3,0.6,0.6C19.2,51.7,18.9,52,18.6,52"/>
<path id="path1490" d="M31,50.1c-0.8,0-1.1-0.8-1-1.5c0-0.1,0.3-0.2,0.4-0.2c0.5,0,1,0.6,1,1.1C31.4,49.7,31.2,50,31,50.1"/>
<path id="path1494" d="M31.1,83.1c-0.4,0-0.8-0.4-0.8-0.8c0-0.4,0.4-0.8,0.8-0.8c0.4,0,0.8,0.4,0.8,0.8
	C31.9,82.8,31.6,83.1,31.1,83.1"/>
<path id="path1526" d="M43.9,78.3c-0.9,0-1.6-0.6-1.8-1.4c0.5-0.2,0.8-0.7,0.8-1.3c0-0.2-0.1-0.4-0.1-0.6c0.3-0.2,0.7-0.4,1-0.4
	c0.3,0.8,1,1.3,1.9,1.4c0,0.2,0.1,0.3,0.1,0.5C45.8,77.4,44.9,78.3,43.9,78.3"/>
<path id="path1534" d="M39.2,76.4c-0.3-0.3-0.7-0.5-1.1-0.5c-0.4,0-0.7,0.1-1,0.3c-0.2-0.2-0.3-0.5-0.3-0.8c0-0.6,0.3-1,0.8-1.2
	c0.2-0.3,0.5-0.5,1.1-0.5c0.1,0,0.8,0.7,0.7,1.1c0.1,0.2,0.2,0.4,0.2,0.7C39.6,75.8,39.4,76.1,39.2,76.4"/>
<path id="path1542" d="M29.6,74.7C29.6,74.7,29.6,74.7,29.6,74.7c-1,0.2-0.7-0.4-1-0.6c0.2-0.3,0.8-0.6,0.8-1c0-0.4-0.1-0.7-0.4-1
	c0.2-0.1,0.3-0.1,0.5-0.1c0.4,0,0.7,0.1,0.9,0.4c0.4,0.1,0.8,0.7,0.8,1.1c0,0.3-0.6,1-1,1C30.1,74.7,29.9,74.7,29.6,74.7"/>
<path id="path1550" d="M27.5,74.7c-0.5-0.1-0.8-0.4-1.1-0.8c0.4-0.2,0.7-0.7,0.7-1.2c0-0.3-0.1-0.6-0.3-0.9c0.3-0.2,0.6-0.4,1-0.4
	c0.5,0,1,0.2,1.3,0.6c0.4,0.1,0.7,0.4,0.7,0.9c0,0.2-0.4,1.3-1.1,1.8C28.2,74.9,27.8,75,27.5,74.7"/>
<path id="path1554" d="M26.4,74c-0.1-0.2-0.2-0.5-0.2-0.8c0-0.1,0-0.3,0.1-0.4c0.2-0.2,0.4-0.4,0.4-0.7c0-0.1,0.1-0.1,0.2-0.1
	c0.3,0.1,0.7,0.6,0.7,0.9C27.5,73.3,27,74.1,26.4,74"/>
<path id="path1558" d="M26.3,72.7c0.1-0.3,0.2-0.5,0.4-0.7C26.6,72.3,26.5,72.5,26.3,72.7"/>
<path id="path1566" d="M15,69.9c-1.1,0-1.9-0.9-1.9-1.9c0-1.1,0.9-1.9,1.9-1.9c1.1,0,1.9,0.9,1.9,1.9C16.9,69.1,16.1,69.9,15,69.9"
	/>
<path id="path1570" d="M8.6,67.1c-0.7,0-1.3-0.6-1.3-1.3c0-0.7,0.6-1.3,1.3-1.3c0.7,0,1.3,0.6,1.3,1.3C9.9,66.5,9.3,67.1,8.6,67.1"
	/>
<path id="path1586" d="M28.5,76.4c-0.6,0-1.1-0.5-1.1-1.2c0-0.2,0-0.3,0.1-0.5c0.1,0,0.2,0,0.3,0c0.4,0,0.7-0.1,1-0.3
	c0.2,0.2,0.5,0.3,0.8,0.3c0.1,0.1,0.1,0.3,0.1,0.5c0,0.2-0.1,0.4-0.2,0.6C29.1,75.8,28.8,76,28.5,76.4"/>
<path id="path1602" d="M10.9,62.2c-0.8,0-1.5-0.7-1.5-1.5c0-0.8,0.6-1.5,1.5-1.6c0,0,0,0,0,0c0.8,0,1.5,0.7,1.5,1.5
	C12.4,61.5,11.8,62.2,10.9,62.2C10.9,62.2,10.9,62.2,10.9,62.2"/>
<path id="path1606" d="M28.7,79.3c-0.3-0.4-0.8-0.7-1.4-0.7c-0.1,0-0.3,0-0.4,0c0-0.1,0-0.2,0-0.3c0-0.6,0.5-1.2,1.2-1.2
	c0.1,0,0.2,0,0.2,0c0,0.6,0.4,1,0.9,1.2C29.1,78.8,29,79.1,28.7,79.3"/>
<path id="path1614" d="M22.3,72.5c-0.2,0.4-0.4,0.3-0.8,0.3c-0.2,0-0.5-0.2-0.6-0.5c-0.2-0.2-0.4-0.5-0.4-0.8c0-0.3,0.1-0.5,0.2-0.7
	c0.2,0.1,0.5,0.1,0.7,0.1c0.4,0,0.7-0.1,1-0.3c0,0,0,0,0,0c0,0.1,0.4,0.1,0.4,0.1c0,0.3,0.1,0.6-0.1,0.9
	C22.9,72.1,22.7,72.3,22.3,72.5"/>
<path id="path1630" d="M22.8,81.9c-0.6,0-1.2-0.5-1.2-1.2c0-0.6,0.5-1.2,1.2-1.2c0.6,0,1.2,0.5,1.2,1.2C24,81.4,23.5,81.9,22.8,81.9
	"/>
<path id="path1634" d="M35,82.4c-0.8,0-1.4-0.6-1.4-1.4c0-0.8,0.6-1.4,1.4-1.4c0.8,0,1.4,0.6,1.4,1.4C36.4,81.8,35.7,82.4,35,82.4"
	/>
<path id="path1638" d="M29.6,78.5c-0.2,0-0.3,0-0.4-0.1c0,0,0,0,0-0.1c0-0.6-0.4-1-0.9-1.1c0,0,0-0.1,0-0.1c0-0.3,0.1-0.6,0.3-0.8
	c0,0,0.3-0.6,0.3-0.6c0.4,0,0.5-0.2,0.7,0c0,0,0,0,0.1,0c0.8,0,1.4,0.6,1.4,1.4c0,0.1,0,0.1,0,0.2c-0.2,0.2-0.3,0.5-0.3,0.7
	C30.4,78.4,30,78.5,29.6,78.5"/>
<path id="path1650" d="M39.4,74.8c-0.2-0.4-0.7-0.7-1.2-0.7c-0.2,0-0.4,0-0.6,0.1c-0.3-0.4-0.5-0.8-0.5-1.4c0-0.6,0.3-1.2,0.7-1.5
	c0-0.2,0.2-0.5,0.3-0.5c0.3-0.1,0.9-0.4,1.2,0l0,0.2c0.2,0.9,0.8,1.6,1.7,1.8C41.1,73.8,40.3,74.6,39.4,74.8"/>
<path id="path1670" d="M34.3,78.8c-0.3,0-0.7-0.1-0.9-0.2c-0.7-0.3-1.1-0.8-1.3-1.7c0-0.1,0-0.3,0-0.5c0-0.3,0-0.5,0.1-0.8
	c0,0,0.1,0,0.1,0c1,0,1.8-0.7,2-1.6c0,0,0,0,0.1,0c0.3,0,0.6,0.1,0.8,0.2c0.2,0.2,0.4,0.4,0.7,0.4c0.5,0.4,0.8,1,0.8,1.7
	c0,0.1,0,0.1,0,0.2c-0.1,0.2-0.2,0.5-0.2,0.7c-0.1,0.1-0.1,0.3-0.2,0.4c-0.3,1.1-0.9,1.3-1.6,1C34.5,78.8,34.4,78.8,34.3,78.8"/>
<path id="path1694" d="M13.4,72.8C13.4,72.8,13.4,72.8,13.4,72.8c-0.1,0-0.2,0-0.3,0c-0.1-0.6-0.6-1.1-1.2-1.2c0-0.1,0-0.2,0-0.4
	c0-0.8,0.7-1.5,1.5-1.5c0,0,0,0,0.1,0c0.9,0,1.5,0.7,1.5,1.6C14.9,72.1,14.3,72.8,13.4,72.8"/>
<path id="path1702" d="M21.9,47c-0.8-0.1-1.4-0.7-1.4-1.5c0-0.9,0.7-1.5,1.5-1.5c0.1,0,0.2,0,0.2,0c0,0.1,0,0.1,0,0.2
	c0,0.5,0.4,0.9,0.9,0.9c0.1,0,0.2,0,0.4-0.1c0.1,0.2,0.1,0.4,0.1,0.6c0,0.5-0.3,1-0.6,1.3c-0.1,0-0.2,0-0.3,0
	C22.4,46.7,22.1,46.8,21.9,47"/>
<path id="path1722" d="M41.9,79.4c-0.1,0-0.2,0-0.2,0c-0.3,0-0.7,0-0.7-0.1c0-0.4-0.5-1.1,0.2-1.2c0.1-0.1,0.1-0.2,0.1-0.3
	c0.2-0.1,0.4-0.2,0.6-0.2c0.5,0,1,0.4,1,1S42.4,79.4,41.9,79.4"/>
<path id="path1726" d="M40.6,78.6c-0.2-0.1-0.3-0.1-0.6-0.1c-0.3,0-0.4-0.3-0.4-0.5c0,0,0,0,0-0.1c0-0.1,0-0.3,0-0.4
	c0-0.1,0-0.3-0.1-0.4c0.1-0.3,0.5-0.5,0.8-0.5c0,0,0.1,0,0.1,0c0.4-0.2,0.6,0.1,0.6,0.3c0.1,0.2,0.2,0.4,0.2,0.6c0,0.1,0,0.1,0,0.2
	c0.1,0.1,0.1,0.3,0,0.4"/>
<path id="path1762" d="M21.7,78.8c-0.8,0-1.6-0.6-1.7-1.4c-0.2-1,0.5-1.9,1.4-2.1c0.1,0,0.2,0,0.3,0c-0.1,0.2-0.1,0.3-0.1,0.5
	c0,0.6,0.5,1.1,1.1,1.1c0.3,0,0.6-0.1,0.7-0.3c0,0,0,0,0.1,0.1c0,0,0,0,0,0c0.2,1-0.5,1.9-1.4,2.1C21.9,78.8,21.8,78.8,21.7,78.8"/>
<path id="path1778" d="M5.2,64.1c-0.4,0-0.7-0.3-0.7-0.6c-0.1-0.4,0.2-0.8,0.6-0.9c0,0,0.1,0,0.1,0c0.4,0,0.7,0.3,0.7,0.6
	C6,63.6,5.7,64,5.3,64.1C5.3,64.1,5.2,64.1,5.2,64.1"/>
<path id="path1782" d="M8.5,58.4c-0.3,0-0.5-0.2-0.6-0.5c-0.1-0.3,0.2-0.7,0.5-0.7c0,0,0.1,0,0.1,0c0.3,0,0.5,0.2,0.6,0.5
	c0.1,0.3-0.2,0.7-0.5,0.7C8.6,58.4,8.5,58.4,8.5,58.4"/>
<path id="path1786" d="M40.4,80.4c-0.1,0-0.3,0-0.4-0.1c-0.1-0.2-0.3-0.4-0.6-0.4c0,0,0,0,0,0c-0.2-0.2-0.4-0.6-0.4-0.9
	c0-0.1,0-0.2,0-0.3c0.2-0.2,0.4-0.5,0.5-0.8c0,0,0,0,0,0c0.2,0.3,0.5,0.5,0.8,0.5c0.2,0,0.4-0.1,0.5-0.2c0,0.1,0,0.1,0,0.2
	c0,0.4,0.3,0.8,0.7,0.9C41.5,80,41,80.4,40.4,80.4"/>
<path id="path1814" d="M45.8,49.6c-0.7,0-1.7-0.4-1.6-1c0-0.5,0.7-0.7,1.2-0.9c0.5,0.2,0.8,0.9,0.8,1.4c0,0.1,0,0.3-0.2,0.4
	c-0.1,0-0.5,0.1-0.5,0.1"/>
<path id="path1222" d="M45.4,47.9c-0.3,0-0.5,0-0.8,0c-0.2,0-0.3,0.1-0.5,0c-0.2-0.1-0.2-0.3-0.2-0.3c0-0.8,1.2-1.6,1.6-1.5
	c0.6,0.2,0.4,0.8,0.4,1.1C45.9,47.5,45.8,47.9,45.4,47.9"/>
<path id="path1818" d="M44.1,48.5c-0.2,0-0.4,0-0.6-0.1c-0.1-0.5,0-1.1,0.5-0.8c0.3,0.1,0.4,0.5,0.2,0.9
	C44.3,48.5,44.2,48.5,44.1,48.5"/>
<path id="path1822" d="M44.3,48.5c-0.1-0.2-0.2-0.4-0.2-0.7c0.2-0.1,0.4-0.2,0.6-0.2c0.2,0,0.5,0.1,0.7,0.2
	C45.2,48.2,44.8,48.5,44.3,48.5"/>
<path id="path1830" d="M41.3,50.2c-0.3,0-0.3-0.5-0.3-0.5c0-0.5,0.4-0.9,0.9-0.9c0.2,0,0.9,0.1,0.9,0.3c0.2,0.5-0.6,1.1-1.1,1.1"/>
<path id="path1834" d="M44.1,50.2c-0.3,0.1-0.9-0.7-0.7-0.9C43.8,49.3,44.3,49.9,44.1,50.2"/>
<path id="path1842" d="M39.5,51C39.5,51,39.5,51,39.5,51c-0.1-0.4,0.3-0.6,0.7-0.4C40.3,50.8,39.9,51.1,39.5,51"/>
<path id="path1846" d="M41.2,52.2c-0.5-0.2-0.8-0.7-0.8-1.3c0-0.1,0.1-0.2,0.2-0.3c0.4-0.2,1.1,0.3,1.1,0.8
	C41.7,51.6,41.5,52.2,41.2,52.2"/>
<path id="path1850" d="M37.5,52.5c-0.6,0-1.1-0.5-1.1-1.1c0-0.5,0.4-1,0.9-1.1c0.2,0.3,0.5,0.5,0.8,0.6c-0.2,0.2-0.4,0.5-0.4,0.8
	c0,0.2,0.1,0.4,0.2,0.6C37.8,52.5,37.6,52.5,37.5,52.5"/>
<path id="path1858" d="M40.3,54.1c-0.6,0-1.1-0.5-1.1-1.1c0-0.1,0-0.1,0-0.2c0.1-0.1,0.3-0.2,0.4-0.3c0.2,0.2,0.4,0.2,0.7,0.2
	c0.4,0,0.7-0.2,0.9-0.5c0.1,0.2,0.2,0.4,0.2,0.7C41.4,53.6,40.9,54.1,40.3,54.1"/>
<path id="path1862" d="M40,52.9c-0.3,0-0.3-0.1-0.4-0.3c0.1-0.2,0.2-0.4,0.3-0.6c0.1-0.2,0.3-0.3,0.5-0.3c0.4,0,0.8,0.5,0.8,0.6
	c0,0.3-0.5,0.6-0.8,0.6"/>
<path id="path878" d="M36.8,41.5C36.7,41.5,36.7,41.5,36.8,41.5c-0.2-0.1-0.3-0.1-0.5-0.2c-0.1,0-0.1-0.1-0.1-0.2c0-0.1,0-0.1,0-0.2
	c0-0.2,0-0.3-0.1-0.5c0.1-0.3,0.4-0.5,0.7-0.5c0.4,0,0.8,0.3,0.8,0.8C37.5,41.1,37.2,41.5,36.8,41.5"/>
<path id="path850" d="M36.5,45c-0.1-0.4-0.5-0.7-0.9-0.7c-0.4,0-0.7,0.2-0.8,0.5c-0.5-0.4-0.9-0.9-0.9-1.6c0-0.4,0.1-0.8,0.3-1.1
	c0.2,0.1,0.4,0.1,0.6,0.1c0.6,0,1.2-0.4,1.3-1c0.1,0,0.1,0,0.2,0c0.1,0.1,0.3,0.2,0.5,0.2c0.1,0.1,0.2,0.1,0.3,0.2
	c-0.3,0.2-0.4,0.5-0.4,0.8c0,0.5,0.4,1,1,1c0,0,0.1,0,0.1,0c0,0.2-0.1,0.3-0.1,0.5c-0.1,0.1-0.1,0.2-0.2,0.3
	C37.2,44.6,36.9,44.9,36.5,45"/>
<path id="path1194" d="M31.5,43.3C31.5,43.3,31.5,43.2,31.5,43.3c0-0.7-0.5-1.2-1.2-1.2c-0.3,0-0.6,0.1-0.8,0.4
	c-0.2-0.3-0.4-0.7-0.4-1.2c0-1.1,0.9-2,2-2c1.1,0,2,0.9,2,2C33.2,42.3,32.5,43.1,31.5,43.3"/>
<path id="path1486" d="M30.3,50.3c-0.5,0-0.9-0.4-0.9-0.9c0-0.4,0.2-0.7,0.5-0.8c0.1,0.6,0.5,1.2,1,1.5
	C30.8,50.2,30.6,50.3,30.3,50.3"/>
<path id="path894" d="M35.4,51.5c-0.3,0-0.6-0.3-0.6-0.6c0,0,0-0.1,0-0.1c0.3,0,0.6-0.2,0.7-0.5c0.3,0.1,0.5,0.3,0.5,0.6
	C36.1,51.2,35.8,51.5,35.4,51.5"/>
<path id="path954" d="M37.4,47.8c-0.5-0.2-0.8-0.7-0.8-1.2c0-0.7,0.5-1.2,1.1-1.3c0.2,0.2,0.4,0.3,0.7,0.3c0.1,0,0.2,0,0.3-0.1
	c0.4,0.2,0.6,0.7,0.6,1.1c0,0.2-0.1,0.5-0.2,0.7c-0.1,0-0.2,0-0.3,0C38.3,47.2,37.8,47.4,37.4,47.8"/>
<path id="path1278" d="M40.7,44.1c-0.1-0.3-0.5-0.6-0.9-0.6c-0.3,0-0.5,0.1-0.7,0.3c-0.2-0.2-0.4-0.6-0.4-0.9c0-0.7,0.6-1.3,1.3-1.3
	c0.7,0,1.3,0.6,1.3,1.3c0,0.2,0,0.3-0.1,0.4c0,0.1-0.1,0.1-0.1,0.2C41.2,43.8,41,44,40.7,44.1"/>
<path id="path1234" d="M42.3,44.8c-0.2-0.2-0.5-0.2-0.8-0.3c-0.2-0.2-0.3-0.5-0.3-0.7c0-0.1,0-0.2,0.1-0.3c0-0.1,0.1-0.1,0.1-0.2
	c0.2-0.3,0.6-0.6,1-0.6c0.6,0,1,0.4,1.1,1C42.9,43.8,42.4,44.2,42.3,44.8"/>
<path id="path1202" d="M41.4,47.8c-0.9,0-1.6-0.7-1.6-1.6c0-0.3,0.1-0.6,0.2-0.8c0.3-0.1,0.6-0.3,0.7-0.7c0.2-0.1,0.4-0.1,0.7-0.1
	c0.1,0,0.1,0,0.2,0c0.2,0.2,0.5,0.3,0.7,0.4c0,0,0,0.1,0,0.1c0,0.4,0.2,0.8,0.4,1c-0.2,0.3-0.2,0.5-0.2,0.9c0,0.2,0,0.3,0.1,0.4
	c-0.2,0.2-0.4,0.3-0.7,0.4c0,0,0,0-0.1,0C41.7,47.7,41.6,47.8,41.4,47.8C41.4,47.8,41.4,47.8,41.4,47.8"/>
<path id="path1210" d="M42.7,46c-0.4,0.1-0.6-0.6-0.6-1c0,0,0.2-0.1,0.2-0.2c0,0,0,0,0.1,0c0,0,0,0,0.1,0c0.5,0,0.8,0.3,0.5,0.8
	C42.9,45.8,42.8,45.9,42.7,46"/>
<path id="path950" d="M43,45.7c-0.1-0.3-0.3-0.6-0.5-0.8c0.6,0,1-0.5,1-1.1c0,0,0-0.1,0-0.1c0.1,0,0.1,0,0.2,0
	c0.8,0,1.4,0.6,1.4,1.4c0,0.2,0,0.3-0.1,0.4c-0.2-0.1-0.5-0.2-0.8-0.2C43.7,45.3,43.3,45.4,43,45.7"/>
<path id="path1190" d="M46.1,49.5c0-0.1,0.1-0.3,0.1-0.4c0-0.5-0.3-1-0.7-1.2c0.2-0.3,0.3-0.6,0.3-1c0-0.3-0.1-0.6-0.3-0.9
	c0.1,0,0.3,0,0.4,0c1,0,1.8,0.8,1.8,1.8C47.7,48.6,47,49.4,46.1,49.5"/>
<path id="path1810" d="M44.8,50.4c-0.2,0-0.5-0.1-0.7-0.2c-0.1-0.4-0.4-0.7-0.7-0.9c0-0.1,0-0.2,0-0.3c0-0.2,0.1-0.4,0.2-0.6
	c0.2,0.1,0.4,0.1,0.6,0.1c0.1,0,0.1,0,0.2,0c0.3,0.6,0.9,1,1.6,1c0.1,0,0.1,0,0.2,0C45.9,50,45.4,50.4,44.8,50.4"/>
<path id="path802" d="M41,49.6c-0.1-0.1-0.2-0.2-0.2-0.3c0-0.1,0-0.1,0-0.2c0-0.2,0-0.4-0.1-0.6c0.1-0.3,0.3-0.6,0.7-0.8
	c0.2,0,0.3,0,0.5-0.1c0.6,0,1,0.5,1,1.1c0,0.1,0,0.2,0,0.2c-0.2,0-0.3-0.1-0.5-0.1C41.9,49,41.4,49.3,41,49.6"/>
<path id="path1826" d="M42.4,52.6c-0.4,0-0.8-0.2-1.1-0.4c0.1-0.2,0.1-0.3,0.1-0.5c0-0.5-0.3-0.9-0.8-1.1c0-0.4,0.2-0.7,0.5-1
	c0.2,0.2,0.5,0.3,0.8,0.3c0.5,0,1-0.4,1.1-0.9c0.2,0.1,0.4,0.2,0.6,0.3c0.1,0.4,0.3,0.7,0.7,0.9c0.1,0.2,0.1,0.4,0.1,0.6
	C44.2,51.8,43.4,52.6,42.4,52.6"/>
<path id="path1838" d="M41.2,52.3c-0.2-0.3-0.5-0.4-0.9-0.4c-0.2,0-0.3,0-0.4,0.1c0-0.1,0-0.1,0-0.2c0-0.3-0.1-0.6-0.4-0.8
	c0.2-0.1,0.5-0.2,0.7-0.4c0,0,0.1,0,0.1,0c0.1,0,0.2,0,0.3,0c0,0.1,0,0.1,0,0.2C40.6,51.4,40.8,51.9,41.2,52.3
	C41.2,52.3,41.2,52.3,41.2,52.3"/>
<path id="path1398" d="M35.5,79.6c-0.5,0-0.9-0.3-1-0.8c0.7-0.1,1.3-0.4,1.6-1c0.2,0.2,0.3,0.4,0.3,0.7
	C36.5,79.1,36.1,79.6,35.5,79.6"/>
<path id="path1714" d="M41.5,76.9c-0.1,0-0.2,0-0.4,0c-0.1-0.2-0.4-0.3-0.6-0.3c-0.3-0.3-0.5-0.6-0.5-1c0-0.8,0.6-1.4,1.4-1.4
	c0.6,0,1,0.3,1.3,0.8c-0.5,0.3-0.7,0.9-0.7,1.5c0,0.1,0,0.3,0,0.4C41.9,76.9,41.7,76.9,41.5,76.9"/>
</svg>
