<svg width="116" height="116" viewBox="0 0 116 116" fill="none" xmlns="http://www.w3.org/2000/svg">
<path d="M97.3923 72.1888V77H106.065C107.842 77 110.891 75.6993 111 72.0541V70.1935C111 67.0828 108.455 65.2476 106.065 65.2476H101.743V63.0166H110.311V58.1801H102.088C99.9669 58.1801 97.1277 59.9354 97.1277 63.2018V64.8772C97.1277 68.1478 99.9375 69.8231 102.088 69.8231C108.056 69.8484 100.656 69.8231 106.17 69.8231V72.1635L97.3923 72.1888ZM50.9277 71.0186C50.9277 71.0186 55.5687 70.6187 55.5687 64.612C55.5687 58.6053 49.9449 58.0454 49.9449 58.0454H39.8145V77H44.9049V72.4287L49.3107 77H56.8413L50.9277 71.0186ZM48.9663 67.1376H44.9091V62.8062H48.9915C48.9915 62.8062 50.1339 63.2313 50.1339 64.9571C50.1339 66.6872 48.9663 67.1376 48.9663 67.1376ZM68.1393 58.1801H62.9691C59.2815 58.1801 58.0341 61.5307 58.0341 63.1261V77H63.2043V73.6789H68.0595V77H73.0743V63.1261C73.0743 59.0851 69.4119 58.1801 68.1393 58.1801ZM68.0595 68.3078H63.1791V63.7112C63.1791 63.7112 63.1791 62.6757 64.7961 62.6757H66.5727C68.0049 62.6757 68.0301 63.7112 68.0301 63.7112V68.3078H68.0595ZM75.4347 58.1801H80.8191V77H75.4347V58.1801ZM88.3749 72.134V58.1801H83.0157V77H95.6115V72.134H88.3749Z" fill="black"/>
<path d="M7.85547 77H28.8093C28.8093 77 24.8025 58.6852 38.0661 51.2684C40.9557 49.8582 50.1579 44.5966 65.2233 55.7597C65.7021 55.3598 66.1515 55.0441 66.1515 55.0441C66.1515 55.0441 52.3587 41.2502 37.0035 42.7908C29.2839 43.4811 19.7919 50.5275 14.2227 59.8302C8.65347 69.1328 7.85547 77 7.85547 77Z" fill="#CC0000"/>
<path d="M7.85547 77H28.8093C28.8093 77 24.8025 58.6852 38.0661 51.2684C40.9557 49.8582 50.1579 44.5966 65.2233 55.7597C65.7021 55.3598 66.1515 55.0441 66.1515 55.0441C66.1515 55.0441 52.3587 41.2502 37.0035 42.7908C29.2839 43.4811 19.7919 50.5275 14.2227 59.8302C8.65347 69.1328 7.85547 77 7.85547 77Z" fill="#CC0000"/>
<path d="M7.85547 77H28.8093C28.8093 77 24.8025 58.6852 38.0661 51.2684C40.9557 49.8582 50.1579 44.5966 65.2233 55.7597C65.7021 55.3598 66.1515 55.0441 66.1515 55.0441C66.1515 55.0441 52.3587 41.2502 37.0035 42.7908C29.2587 43.4811 19.7625 50.5275 14.1933 59.8301C8.62407 69.1328 7.85547 77 7.85547 77ZM51.5103 44.2809L51.6153 42.5003C51.3759 42.3656 50.7123 42.0499 49.0407 41.5701L48.9357 43.3254C49.8135 43.6158 50.6619 43.9357 51.5103 44.2809Z" fill="black"/>
<path d="M48.9912 49.913L48.8862 51.5883C49.7598 51.6135 50.6376 51.723 51.5112 51.9082L51.6162 50.2581C50.7174 50.0729 49.8396 49.9677 48.9912 49.913ZM39.18 41.6206H39.4446L38.9154 40C38.0922 40 37.2438 40.0547 36.3702 40.16L36.87 41.7258C37.6428 41.6501 38.4114 41.6206 39.18 41.6206ZM40.4526 51.4031L41.0616 53.2383C41.8302 52.8679 42.5988 52.548 43.3674 52.3081L42.7836 50.5528C41.8848 50.818 41.1162 51.1126 40.4526 51.4031ZM28.4112 44.4114L27.2184 42.5761C26.5548 42.9213 25.866 43.2917 25.1478 43.721L26.3658 45.5816C27.0588 45.1564 27.7224 44.7565 28.4112 44.4114ZM33.8502 56.3743L35.1228 58.2895C35.5722 57.6245 36.1056 57.0141 36.6894 56.4038L35.4966 54.598C34.8834 55.1494 34.3248 55.7639 33.8502 56.3743ZM30.003 64.9319L32.1492 66.6324C32.2542 65.5969 32.439 64.5572 32.7078 63.5217L30.7968 62.0064C30.4524 62.9914 30.213 63.9763 30.003 64.9319ZM18.3858 52.3081L16.5042 50.658C15.8154 51.3231 15.1518 51.9882 14.5428 52.6532L16.584 54.4085C17.1384 53.6887 17.7516 52.9732 18.3858 52.3081ZM10.3764 64.1868L7.3272 63.0713C6.8232 64.2163 6.2646 65.5422 6 66.262L9.0492 67.3775C9.3936 66.4725 9.9522 65.1718 10.3764 64.1868ZM29.604 71.6836C29.6586 73.0937 29.7888 74.2345 29.9232 75.0342L33.1068 76.179C32.8674 75.1437 32.628 73.9735 32.4684 72.7233L29.604 71.6836Z" fill="black"/>
</svg>
