<svg width="116" height="116" viewBox="0 0 116 116" fill="none" xmlns="http://www.w3.org/2000/svg">
<path fill-rule="evenodd" clip-rule="evenodd" d="M42.7898 53.0549L42.8645 54.6911C43.9096 53.4268 45.2534 52.7574 46.9705 52.7574C49.9566 52.7574 51.4497 54.468 51.4497 57.8148V67.186H48.2396V58.0379C48.2396 57.1454 48.0156 56.4761 47.6423 56.0298C47.2691 55.5836 46.5972 55.3605 45.7013 55.3605C44.4322 55.3605 43.4617 55.9555 42.8645 57.0711V67.186H39.6544V53.0549H42.7898ZM60.9308 67.409C58.9151 67.409 57.2727 66.74 56.0036 65.475C54.7345 64.2109 54.1372 62.5003 54.1372 60.4178V60.046C54.1372 58.6329 54.4359 57.3685 54.9584 56.2529C55.481 55.1374 56.3022 54.2449 57.2727 53.6499C58.2432 53.0549 59.363 52.7574 60.5575 52.7574C62.4985 52.7574 63.9916 53.3524 65.0367 54.6167C66.0819 55.8811 66.6045 57.5917 66.6045 59.8229V61.0872H57.422C57.4967 62.2772 57.9446 63.1696 58.6165 63.839C59.2884 64.5083 60.1842 64.8802 61.2294 64.8802C62.7225 64.8802 63.8423 64.2852 64.8128 63.0953L66.5298 64.7315C65.9326 65.55 65.186 66.219 64.2902 66.665C63.1704 67.186 62.1252 67.409 60.9308 67.409ZM60.5575 55.3605C59.6616 55.3605 58.9898 55.658 58.4672 56.2529C57.9446 56.8479 57.5713 57.7404 57.422 58.7816H63.469V58.5585C63.3943 57.5173 63.0957 56.6992 62.6478 56.1786C62.1252 55.5836 61.4533 55.3605 60.5575 55.3605ZM73.0994 49.6338V53.0549H75.563V55.4348H73.0994V63.3184C73.0994 63.839 73.174 64.2109 73.398 64.5083C73.6219 64.7315 73.9952 64.8802 74.5178 64.8802C74.8911 64.8802 75.2643 64.8058 75.6376 64.7315V67.186C74.8911 67.409 74.2192 67.483 73.5473 67.483C71.0837 67.483 69.8892 66.145 69.8892 63.4671V55.3605H67.575V53.0549H69.8892V49.6338H73.0994ZM81.386 67.186H78.1758V47.1051H81.386V67.186ZM88.2541 67.186H85.044V53.0549H88.2541V67.186ZM84.8947 49.3363C84.8947 48.8157 85.044 48.4438 85.3426 48.1463C85.6413 47.8488 86.0892 47.6257 86.6864 47.6257C87.2836 47.6257 87.7316 47.7744 88.0302 48.1463C88.3288 48.4438 88.4781 48.89 88.4781 49.3363C88.4781 49.7825 88.3288 50.2287 88.0302 50.5262C87.7316 50.8237 87.2836 50.9725 86.6864 50.9725C86.0892 50.9725 85.6413 50.8237 85.3426 50.5262C85.044 50.2287 84.8947 49.8569 84.8947 49.3363ZM92.8827 67.186V55.3605H90.7177V53.0549H92.8827V51.7906C92.8827 50.2287 93.3306 49.0388 94.2265 48.1463C95.1223 47.3282 96.3168 46.882 97.8845 46.882C98.4071 46.882 99.0043 46.9563 99.6762 47.1051L99.6016 49.5594C99.2283 49.485 98.7804 49.485 98.4071 49.485C96.914 49.485 96.0928 50.2287 96.0928 51.7906V53.0549H99.0043V55.4348H96.0928V67.186H92.8827ZM106.171 62.649L109.082 53.0549H112.442L106.843 69.343C105.947 71.723 104.529 72.912 102.438 72.912C101.99 72.912 101.468 72.838 100.871 72.689V70.235L101.468 70.309C102.289 70.309 102.886 70.161 103.259 69.863C103.633 69.566 104.006 69.045 104.23 68.376L104.678 67.186L99.7509 53.0549H103.185L106.171 62.649Z" fill="black"/>
<path d="M23.7538 53.873C23.6791 53.873 23.6791 53.7986 23.6791 53.7986L24.2764 50.3031L26.9639 52.9805L24.127 54.1705C23.9777 54.0961 23.9031 53.9474 23.7538 53.873ZM27.6358 53.6499L30.5473 56.5504C31.1445 57.1454 31.4431 57.4429 31.5925 57.8148C31.5925 57.8891 31.5925 57.8891 31.6671 57.9635L24.7243 55.063C24.7243 55.063 24.6496 55.063 24.6496 54.9886C24.6496 54.9142 24.6496 54.9142 24.7243 54.9142L27.6358 53.6499ZM31.5178 58.9304C31.3685 59.2279 31.0699 59.5254 30.622 59.9716L27.3372 63.244L23.0819 62.3515C23.0819 62.3515 23.0072 62.3515 23.0072 62.2772C23.0072 61.9053 22.7833 61.6078 22.4847 61.3847V61.3103L23.3059 56.4761C23.3059 56.4761 23.3059 56.4017 23.3805 56.4017C23.7538 56.3273 24.0524 56.1786 24.2764 55.8811H24.351L31.5178 58.9304ZM26.516 63.9877L21.1409 69.343L22.0367 63.6902C22.0367 63.6902 22.0367 63.6902 22.1114 63.6902C22.3354 63.6159 22.4847 63.4671 22.634 63.3184L22.7086 63.244L26.516 63.9877ZM20.0211 70.458L19.4238 71.053L12.705 61.459C12.705 61.459 12.705 61.4591 12.705 61.3847L12.7796 61.3103C12.7796 61.3103 12.7796 61.3103 12.8543 61.2359H12.9289L20.3197 62.7234H20.3943C20.469 63.0953 20.7676 63.4671 21.1409 63.6159C21.1409 63.6159 21.1409 63.6159 21.1409 63.6902C21.0662 64.2852 20.245 69.119 20.0211 70.458ZM18.752 71.648C18.304 72.094 18.0801 72.318 17.7815 72.392C17.4828 72.466 17.1842 72.466 16.8856 72.392C16.5123 72.318 16.2137 72.02 15.6165 71.351L8.89767 64.6571L10.6147 61.9797H10.6894C11.0626 62.1284 11.5105 62.054 11.8838 61.9053H11.9584C12.0331 61.9797 18.752 71.648 18.752 71.648ZM8.30044 64.1365L6.7327 62.5746L9.79352 61.3103C9.79352 61.3103 9.86817 61.3103 9.86817 61.3847C9.86817 61.4591 9.94282 61.459 9.94282 61.5334L8.30044 64.1365ZM6.06081 61.9053L4.11981 59.9716C3.82119 59.6741 3.52258 59.3766 3.37327 59.2279L9.27094 60.4178C9.27094 60.4178 9.34559 60.4178 9.34559 60.4922L9.27094 60.5666C9.27094 60.4922 6.06081 61.9053 6.06081 61.9053ZM3 58.1866C3 58.0379 3 57.9635 3.07465 57.8148C3.14931 57.4429 3.44792 57.1454 4.11981 56.5504L6.58339 54.0961C7.7032 55.7323 8.89767 57.4429 10.0175 59.0791C10.0175 59.0791 10.0921 59.1535 10.0175 59.1535C9.94282 59.3022 9.79352 59.3766 9.71886 59.5254C9.71886 59.5254 9.71886 59.5254 9.64421 59.5997L3 58.1866ZM7.25528 53.4268L10.6147 50.08C10.9133 50.2287 12.1078 50.675 13.0783 51.1212C13.8248 51.4187 14.5713 51.7162 14.7953 51.8649C14.7953 51.8649 14.8699 51.8649 14.8699 51.9393C14.8699 51.9393 14.8699 51.9393 14.8699 52.0137C14.7953 52.5343 14.9446 52.9805 15.2432 53.3524V53.4268L11.8091 58.7073H11.7345C11.5852 58.7073 11.4359 58.6329 11.3612 58.6329C11.2119 58.6329 11.1372 58.6329 10.988 58.7073C10.988 58.7073 10.988 58.7073 10.9133 58.7073C10.9133 58.7073 10.9133 58.7073 10.9133 58.6329C10.8387 58.6329 7.25528 53.4268 7.25528 53.4268ZM11.2866 49.4106L15.6165 45.097C16.2137 44.502 16.5123 44.2045 16.8856 44.0558C17.1842 43.9814 17.4828 43.9814 17.7815 44.0558C18.1547 44.1302 18.4533 44.4276 19.0506 45.097L20.0211 46.0638L16.9603 50.8237H16.8856C16.363 50.675 15.8405 50.7493 15.4672 51.1212H15.3925C14.87 50.8981 11.7345 49.5594 11.2866 49.4106ZM20.6183 46.6588L23.4552 49.485L22.7833 53.7243C22.634 53.7986 22.4847 53.873 22.41 53.9474L18.0801 52.0881C18.0801 52.0881 18.0054 52.0881 18.0054 52.0137C18.0054 51.7906 17.9308 51.5674 17.7815 51.3443C17.7815 51.3443 17.7068 51.27 17.7815 51.27C17.5575 51.3443 20.6183 46.6588 20.6183 46.6588ZM17.7068 53.0549L21.8128 54.7655C21.8128 54.7655 21.8874 54.7655 21.8874 54.8399C21.8874 54.8399 21.8874 54.8399 21.8874 54.9142C21.8874 54.9886 21.8874 55.063 21.8874 55.1374V55.2861C21.8874 55.2861 21.8874 55.3605 21.8128 55.3605C21.1409 55.658 12.7796 59.2279 12.7796 59.2279C12.7796 59.2279 12.7796 59.2279 12.705 59.2279V59.1535L16.0644 54.0218L16.1391 53.9474C16.2137 53.9474 16.2884 53.9474 16.363 53.9474C16.8856 53.9474 17.3335 53.7243 17.6321 53.278C17.6321 53.0549 17.6321 53.0549 17.7068 53.0549C17.6321 53.0549 17.6321 53.0549 17.7068 53.0549ZM13.0036 59.8972L22.186 56.0298C22.2607 56.1042 22.2607 56.1042 22.3354 56.1786C22.3354 56.1786 22.3354 56.1786 22.41 56.2529L21.5888 61.0872C21.5888 61.0872 21.5888 61.1616 21.5142 61.1616C21.0662 61.1616 20.693 61.4591 20.469 61.7565C20.469 61.7565 20.469 61.7565 20.469 61.8309C20.469 61.8309 20.469 61.8309 20.3943 61.8309L13.0783 60.3435C13.1529 60.2691 13.0036 59.8972 13.0036 59.8972Z" fill="black"/>
</svg>
