<?xml version="1.0" encoding="utf-8"?>
<!-- Generator: Adobe Illustrator 24.2.0, SVG Export Plug-In . SVG Version: 6.00 Build 0)  -->
<svg width="116" height="124" version="1.1" id="Layer_1" xmlns="http://www.w3.org/2000/svg" xmlns:xlink="http://www.w3.org/1999/xlink" x="0px" y="0px"
	 viewBox="0 0 116 124" style="enable-background:new 0 0 116 124;" xml:space="preserve">
<path d="M31.7,73.8c-0.4-0.1-0.8-0.1-1.2-0.2c-1.3-0.3-2.3-1-2.9-2.3c-0.7-1.6-0.7-3.3,0.3-4.8c0.6-0.9,1.5-1.3,2.5-1.6
	c1-0.3,2.1-0.4,3.1-0.6c0.8-0.1,1.5-0.2,2.3-0.3c0.2,0,0.3-0.1,0.5-0.1c1.2-0.4,1.5-1.1,1.1-2.3c-0.2-0.6-0.6-0.9-1.1-1.1
	c-0.8-0.2-1.6-0.2-2.4-0.1c-1.1,0.2-1.7,0.9-1.8,2c0,0.1,0,0.1,0,0.2c-1.4,0-2.8,0-4.3,0c0-0.5,0.1-1.1,0.3-1.6
	c0.6-1.5,1.7-2.5,3.2-3c1-0.4,2.1-0.6,3.2-0.6c1.4,0,2.8,0,4.2,0.4c0.8,0.2,1.5,0.6,2.1,1.1c0.8,0.8,1.2,1.7,1.2,2.8
	c0,2.8,0,5.5,0,8.3c0,0.9,0,1.7,0.3,2.6c0.1,0.2,0.2,0.5,0.2,0.7c-1.4,0-2.8,0-4.3,0c-0.1-0.5-0.2-0.9-0.3-1.4c0,0-0.1,0.1-0.1,0.1
	c-1,1-2.3,1.5-3.7,1.7c-0.2,0-0.4,0.1-0.6,0.1C32.8,73.8,32.2,73.8,31.7,73.8z M37.5,65.9c-0.5,0.3-1,0.5-1.6,0.6
	c-0.5,0.1-0.9,0.1-1.4,0.2c-0.7,0.1-1.4,0.2-2,0.6c-0.8,0.4-1.1,1.2-1,2.2c0.1,0.7,0.6,1.3,1.5,1.5c0.7,0.2,1.4,0.2,2.1,0
	c1-0.2,1.8-0.8,2.2-1.8c0.1-0.3,0.2-0.7,0.2-1C37.5,67.3,37.5,66.6,37.5,65.9z"/>
<path d="M10.2,57.9c1.4,0,2.8,0,4.3,0c0,0.1,0,0.2,0,0.3c0,2.9,0,5.8,0,8.7c0,0.6,0.1,1.2,0.2,1.8c0.3,1.2,1.1,1.8,2.3,1.8
	c0.4,0,0.8,0,1.2-0.1c1.1-0.2,1.7-0.9,2-1.9c0.2-0.8,0.3-1.5,0.3-2.3c0-2.6,0-5.3,0-7.9c0-0.1,0-0.2,0-0.3c1.4,0,2.8,0,4.3,0
	c0,5.2,0,10.3,0,15.5c-1.3,0-2.7,0-4.1,0c0-0.7,0-1.4,0-2.1c0,0,0,0-0.1,0c0,0.1-0.1,0.1-0.1,0.2c-0.9,1.4-2.3,2.1-3.9,2.4
	c0,0-0.1,0-0.1,0c-0.5,0-1,0-1.5,0c-0.2,0-0.4-0.1-0.5-0.1c-0.9-0.1-1.8-0.4-2.5-1c-0.9-0.8-1.3-1.8-1.5-2.9
	c-0.1-0.4-0.1-0.9-0.2-1.3C10.2,65,10.2,61.4,10.2,57.9z"/>
<path d="M49.3,52c0,7.1,0,14.3,0,21.4c-1.4,0-2.8,0-4.3,0c0-7.1,0-14.3,0-21.4C46.5,52,47.9,52,49.3,52z"/>
<path d="M58.8,58.2c0,1.5,0,3.1,0,4.6c-1.6,0-3.1,0-4.7,0c0-1.5,0-3.1,0-4.6C55.6,58.2,57.2,58.2,58.8,58.2z"/>
<path d="M58.8,68.8c0,1.5,0,3.1,0,4.6c-1.6,0-3.1,0-4.7,0c0-1.5,0-3.1,0-4.6C55.6,68.8,57.2,68.8,58.8,68.8z"/>
<path d="M81.2,69.4c0-0.7,0-1.5,0-2.2c0.4,0,0.8,0,1.2,0c0,2.1,0,4.1,0,6.2c-0.4,0-0.8,0-1.2,0c0-0.2,0-0.3,0-0.5
	c-0.4,0.6-1,0.7-1.7,0.7c-0.6-0.1-1.1-0.4-1.4-1c-0.5-0.9-0.5-1.9,0-2.8C78.8,68.6,80.2,68.5,81.2,69.4
	C81.1,69.4,81.1,69.4,81.2,69.4z M81.3,71.1c-0.1-0.3-0.1-0.6-0.2-0.9c-0.1-0.4-0.4-0.5-0.8-0.5c-0.4,0-0.7,0.1-0.9,0.4
	c-0.3,0.5-0.3,1.5,0,2c0.2,0.3,0.5,0.5,0.9,0.4c0.4,0,0.7-0.2,0.8-0.6C81.2,71.7,81.2,71.4,81.3,71.1z"/>
<path d="M78.9,58.8c0.4,0,0.8,0,1.2,0c0,0.8,0,1.5,0,2.3c0.1-0.1,0.1-0.1,0.1-0.1c0.5-0.6,1.4-0.8,2.2-0.4c0.4,0.2,0.6,0.6,0.7,1.1
	c0,0.4,0,0.8,0.1,1.1c0,0.7,0,1.5,0,2.2c0,0,0,0,0,0.1c-0.4,0-0.8,0-1.2,0c0-0.1,0-0.2,0-0.3c0-0.8,0-1.7,0-2.5
	c0-0.5-0.3-0.8-0.7-0.8c-0.5,0-0.9,0.2-0.9,0.7c0,0.2,0,0.4-0.1,0.6c0,0.8,0,1.5,0,2.3c-0.4,0-0.8,0-1.2,0
	C78.9,62.9,78.9,60.9,78.9,58.8z"/>
<path d="M91.5,61.9c-0.3,0-0.7,0-1.1,0c0-0.6,0.3-1,0.8-1.2c0.6-0.3,1.2-0.3,1.8-0.3c0.3,0,0.5,0.1,0.8,0.2c0.5,0.2,0.7,0.5,0.7,1
	c0,0.7,0,1.4,0,2.1c0,0.4,0.1,0.8,0.1,1.2c-0.3,0-0.7,0-1.1,0c-0.1,0-0.1-0.2-0.2-0.3c-0.3,0.2-0.6,0.4-1,0.5c-0.4,0-0.7,0-1.1-0.1
	c-0.6-0.1-0.9-0.6-0.9-1.2c0-0.7,0.2-1.1,0.8-1.3c0.5-0.1,1-0.2,1.6-0.3c0.1,0,0.2,0,0.3-0.1c0.2-0.1,0.3-0.2,0.3-0.4
	c0-0.2-0.1-0.4-0.3-0.5c-0.3-0.1-0.7-0.2-1,0C91.8,61.4,91.7,61.7,91.5,61.9z M93.2,62.8c-0.2,0-0.3,0.1-0.4,0.1
	c-0.1,0-0.3,0-0.4,0.1c-0.2,0-0.4,0.1-0.6,0.2c-0.4,0.2-0.4,0.8,0,1c0.6,0.3,1.4,0,1.5-0.7C93.2,63.3,93.2,63.1,93.2,62.8z"/>
<path d="M84.8,63.1c0,0.6,0.3,0.9,0.7,1.1c0.5,0.2,1,0,1.3-0.4c0,0,0.1-0.1,0.2-0.1c0.3,0,0.6,0,1,0c-0.2,0.7-0.6,1.2-1.3,1.4
	c-0.5,0.1-1,0.2-1.5,0c-1-0.3-1.6-1.1-1.6-2.3c0-1.9,1.7-2.8,3.1-2.3c0.9,0.3,1.2,1,1.4,1.9c0.1,0.7,0.1,0.7-0.6,0.7
	c-0.8,0-1.6,0-2.3,0C85,63,84.9,63.1,84.8,63.1z M86.8,62.2c0-0.6-0.4-1-1-0.9c-0.5,0-0.9,0.4-0.9,0.9
	C85.5,62.2,86.2,62.2,86.8,62.2z"/>
<path d="M87,54.5c-1.1,0-2.2,0-3.3,0c0,0.6,0.2,0.9,0.7,1.1c0.5,0.2,1,0,1.4-0.4c0,0,0.1-0.1,0.1-0.1c0.3,0,0.6,0,1,0
	c-0.2,0.6-0.5,1-1,1.3c-1.6,0.8-3.4-0.2-3.4-2c0-1,0.3-1.7,1.2-2.2c1.5-0.8,3,0.1,3.3,1.7C87,54,87,54.2,87,54.5z M85.7,53.7
	c-0.1-0.7-0.5-1-1-0.9c-0.6,0.1-0.9,0.4-0.9,0.9c0.6,0,1.2,0,1.8,0C85.6,53.7,85.7,53.7,85.7,53.7z"/>
<path d="M100.7,58c0-0.4,0-0.7,0-1c0.1,0,0.3,0,0.4,0c0.6,0.1,0.9-0.3,0.7-0.9c-0.5-1.3-1-2.6-1.5-3.9c0-0.1-0.1-0.2-0.1-0.3
	c0.5,0,0.9,0,1.3,0c0.3,1,0.7,2,1,3c0,0,0,0,0,0c0.2-0.7,0.4-1.3,0.6-2c0.1-0.3,0.2-0.6,0.3-0.9c0-0.1,0.1-0.1,0.2-0.1
	c0.4,0,0.7,0,1.1,0c0,0.1-0.1,0.2-0.1,0.2c-0.6,1.6-1.2,3.2-1.8,4.8c-0.3,0.8-0.8,1.1-1.6,1.1C101.2,58,101,58,100.7,58z"/>
<path d="M74.3,73.4c-0.4,0-0.8,0-1.2,0c0-1.5,0-3,0-4.5c0.4,0,0.8,0,1.2,0c0,0.2,0,0.4,0,0.5c0,0,0.1,0,0.1,0c0.5-0.7,1.2-0.7,2-0.5
	c0.6,0.1,0.9,0.6,0.9,1.3c0,0.7,0,1.4,0,2.1c0,0.4,0,0.7,0,1.1c-0.4,0-0.8,0-1.2,0c0-0.1,0-0.2,0-0.3c0-0.7,0-1.5,0-2.2
	c0-0.1,0-0.2,0-0.3c0-0.5-0.3-0.8-0.7-0.8c-0.5,0-0.9,0.2-1,0.7c0,0.2,0,0.3-0.1,0.5c0,0.7,0,1.4,0,2.2
	C74.3,73.2,74.3,73.3,74.3,73.4z"/>
<path d="M85.4,68.8c1.5,0,2.4,1,2.3,2.6c0,1-0.6,1.8-1.5,2.1c-1,0.3-2.1,0-2.7-0.7c-0.7-0.9-0.7-3.2,1-3.7
	C84.8,68.8,85.1,68.8,85.4,68.8z M84.3,71.2c0.1,0.3,0.1,0.6,0.2,0.9c0.2,0.4,0.5,0.6,0.9,0.6c0.4,0,0.7-0.2,0.9-0.6
	c0.2-0.6,0.2-1.1,0-1.7c-0.2-0.4-0.5-0.6-0.9-0.6c-0.4,0-0.8,0.2-0.9,0.6C84.4,70.6,84.3,70.9,84.3,71.2z"/>
<path d="M67.7,71c0-0.8,0.3-1.6,1.3-2c0.9-0.4,1.9-0.3,2.7,0.4c0.6,0.5,0.8,1.3,0.7,2.1c-0.1,0.9-0.5,1.6-1.4,1.9
	c-1,0.3-1.9,0.2-2.6-0.5C67.9,72.4,67.7,71.8,67.7,71z M71.1,71.1c-0.1-0.3-0.1-0.6-0.2-0.8c-0.2-0.4-0.5-0.6-0.9-0.6
	c-0.4,0-0.8,0.2-0.9,0.6c-0.2,0.5-0.2,1.1,0,1.6c0.2,0.4,0.5,0.6,0.9,0.6c0.4,0,0.8-0.2,0.9-0.6C71,71.7,71.1,71.4,71.1,71.1z"/>
<path d="M75.2,56.4c-0.4,0-0.8,0-1.2,0c0-0.1,0-0.2,0-0.2c0-0.8,0-1.6,0-2.3c0-0.1,0-0.2,0-0.3c-0.1-0.5-0.3-0.7-0.7-0.7
	c-0.5,0-0.8,0.2-0.9,0.7c0,0.2-0.1,0.4-0.1,0.6c0,0.7,0,1.4,0,2.1c0,0.1,0,0.2,0,0.3c-0.4,0-0.8,0-1.2,0c0-1.5,0-3,0-4.5
	c0.4,0,0.8,0,1.2,0c0,0.2,0,0.4,0,0.5c0,0,0.1,0,0.1,0.1c0-0.1,0-0.1,0.1-0.1c0.5-0.6,1.6-0.8,2.3-0.3c0.4,0.3,0.6,0.7,0.6,1.1
	C75.2,54.2,75.2,55.3,75.2,56.4C75.2,56.4,75.2,56.4,75.2,56.4z"/>
<path d="M70.1,63c0,0.7-0.3,1.5-1.3,1.9c-1,0.4-1.9,0.3-2.7-0.4c-0.7-0.6-0.8-1.4-0.6-2.3c0.1-0.9,0.8-1.6,1.7-1.8
	c1-0.2,2,0.1,2.5,0.8C69.9,61.6,70.1,62.2,70.1,63z M68.9,62.7c-0.1-0.2-0.1-0.5-0.2-0.8c-0.2-0.4-0.5-0.6-0.9-0.6
	c-0.4,0-0.7,0.2-0.9,0.6c-0.2,0.5-0.2,1-0.1,1.5c0.1,0.5,0.5,0.8,1,0.8c0.5,0,0.8-0.2,1-0.8C68.8,63.2,68.8,63,68.9,62.7z"/>
<path d="M70,52c0,1.5,0,3,0,4.5c-0.4,0-0.8,0-1.2,0c0-0.2,0-0.4,0-0.5c0,0-0.1,0-0.1-0.1c0,0.1,0,0.1-0.1,0.2
	c-0.5,0.6-1.5,0.7-2.2,0.3c-0.4-0.2-0.6-0.6-0.6-1c0-0.3,0-0.5-0.1-0.8c0-0.9,0-1.7,0-2.6c0.4,0,0.8,0,1.2,0c0,0.1,0,0.2,0,0.3
	c0,0.7,0,1.5,0,2.2c0,0.2,0,0.4,0,0.5c0.1,0.4,0.3,0.6,0.6,0.6c0.4,0.1,0.8-0.1,0.9-0.4c0.1-0.3,0.1-0.6,0.1-0.9c0-0.8,0-1.5,0-2.3
	C69.2,52,69.6,52,70,52z"/>
<path d="M89.6,73.4c-0.1,0-0.1,0-0.2,0c-0.3,0-0.7,0-1.1,0c0-1.5,0-3,0-4.5c0.4,0,0.8,0,1.2,0c0,0.2,0,0.4,0,0.6c0,0,0.1,0,0.1,0
	c0.5-0.7,1.2-0.8,2-0.6c0.5,0.1,0.8,0.5,0.9,1.1c0,0.2,0.1,0.4,0.1,0.6c0,0.9,0,1.8,0,2.7c0,0.1,0,0.1,0,0.2c-0.4,0-0.8,0-1.2,0
	c0-0.1,0-0.2,0-0.2c0-0.7,0-1.5,0-2.2c0-0.1,0-0.3,0-0.4c-0.1-0.5-0.3-0.8-0.7-0.8c-0.5,0-0.8,0.2-0.9,0.7c0,0.2,0,0.3,0,0.5
	C89.6,71.8,89.6,72.6,89.6,73.4z"/>
<path d="M101.5,63.5c0,0,0.1,0,0.1,0c0.3,0,0.7,0,1,0c0.2,0.7,0.8,0.9,1.4,0.7c0.2-0.1,0.4-0.2,0.4-0.5c0-0.2-0.2-0.4-0.3-0.4
	c-0.4-0.1-0.8-0.2-1.2-0.3c-0.2-0.1-0.4-0.1-0.6-0.2c-0.4-0.2-0.7-0.5-0.7-0.9c0-0.5,0.1-0.9,0.6-1.2c0.6-0.3,1.2-0.4,1.8-0.3
	c0.3,0,0.7,0.2,1,0.3c0.4,0.2,0.6,0.6,0.6,1.1c-0.4,0-0.7,0-1.1,0c0,0-0.1-0.1-0.1-0.1c-0.1-0.2-0.2-0.4-0.4-0.4c-0.2,0-0.5,0-0.7,0
	c-0.2,0-0.3,0.1-0.4,0.3c0,0.2,0.1,0.3,0.3,0.4c0.4,0.1,0.7,0.2,1.1,0.3c0.2,0.1,0.5,0.1,0.7,0.2c0.9,0.4,1.1,1.4,0.4,2.1
	c-0.3,0.3-0.7,0.5-1.1,0.5c-0.6,0.1-1.2,0.1-1.8-0.2C101.8,64.6,101.4,64.1,101.5,63.5z"/>
<path d="M90.6,55c0.4,0,0.8,0,1.2,0c0.2,0.7,0.9,1,1.5,0.6c0.1-0.1,0.2-0.3,0.2-0.4c0-0.1-0.1-0.3-0.3-0.4c-0.4-0.1-0.8-0.2-1.2-0.4
	c-0.2-0.1-0.5-0.1-0.7-0.2c-0.8-0.4-0.9-1.5-0.2-2c0.3-0.3,0.7-0.3,1.2-0.4c0.5,0,1,0,1.4,0.2c0.6,0.2,0.9,0.6,0.9,1.3
	c-0.4,0-0.8,0-1.1,0c-0.3-0.5-0.7-0.7-1.2-0.5c-0.1,0-0.3,0.2-0.3,0.3c-0.1,0.2,0.1,0.3,0.2,0.4c0.3,0.1,0.6,0.2,1,0.3
	c0.3,0.1,0.6,0.1,0.8,0.2c0.9,0.4,1.1,1.5,0.3,2.2c-0.3,0.3-0.7,0.4-1.2,0.5c-0.6,0.1-1.1,0-1.6-0.2C91,56.1,90.6,55.6,90.6,55z"/>
<path d="M80.9,56.4c-0.4,0-0.9,0-1.3,0c-0.1,0-0.1-0.1-0.1-0.1c-0.5-1.4-1-2.9-1.5-4.4c0.4,0,0.8,0,1.2,0c0.1,0,0.1,0.1,0.2,0.2
	c0.3,0.9,0.5,1.8,0.8,2.6c0,0.1,0,0.1,0.1,0.2c0-0.1,0.1-0.2,0.1-0.3c0.3-0.8,0.5-1.7,0.8-2.5c0-0.1,0.1-0.2,0.3-0.2
	c0.3,0,0.7,0,1,0C81.9,53.5,81.4,54.9,80.9,56.4z"/>
<path d="M71,61.3c-0.2,0-0.3,0-0.4,0c-0.1,0-0.2,0-0.3,0c0-0.3,0-0.5,0-0.8c0.2,0,0.5,0,0.7,0c0-0.6,0-1.1,0.5-1.4
	c0.5-0.3,1.1-0.3,1.6-0.2c0,0.3,0,0.6,0,0.8c-0.3,0.1-0.6,0.1-0.8,0.2c-0.1,0.1-0.1,0.4-0.2,0.6c0.3,0,0.6,0,0.9,0
	c0,0.3,0,0.5,0,0.8c-0.3,0-0.5,0-0.8,0c0,1.2,0,2.4,0,3.7c-0.4,0-0.8,0-1.3,0C71,63.8,71,62.6,71,61.3z"/>
<path d="M100,55.5c0,0.3,0,0.6,0,0.8c0,0-0.1,0.1-0.1,0.1c-0.4,0-0.9,0-1.3-0.1c-0.5-0.1-0.7-0.4-0.7-1c0-0.8,0-1.6,0-2.3
	c0-0.1,0-0.2,0-0.3c-0.2,0-0.5,0-0.7,0c0-0.3,0-0.6,0-0.8c0.2,0,0.5,0,0.7,0c0-0.5,0-0.9,0-1.3c0.4,0,0.8,0,1.2,0c0,0.4,0,0.9,0,1.3
	c0.3,0,0.6,0,0.9,0c0,0.3,0,0.6,0,0.8c-0.3,0-0.6,0-0.9,0c0,0.2,0,0.4,0,0.6c0,0.5,0,1.1,0,1.6c0,0.5,0.1,0.6,0.6,0.6
	C99.8,55.5,99.9,55.5,100,55.5z"/>
<path d="M76,59.1c0.4,0,0.8,0,1.3,0c0,0.4,0,0.9,0,1.3c0.3,0,0.6,0,0.9,0c0,0.3,0,0.6,0,0.8c-0.3,0-0.6,0-0.9,0c0,0.3,0,0.7,0,1
	c0,0.4,0,0.8,0,1.3c0,0.4,0.1,0.5,0.5,0.5c0.1,0,0.2,0,0.4,0c0,0.3,0,0.6,0,1c-0.5,0.1-1,0.1-1.5-0.1c-0.4-0.1-0.6-0.4-0.6-0.8
	c0-0.8,0-1.7,0-2.5c0-0.1,0-0.2,0-0.3c-0.3,0-0.5,0-0.7,0c0-0.3,0-0.5,0-0.8c0.2,0,0.5,0,0.7,0C76,60,76,59.6,76,59.1z"/>
<path d="M99,60.5c0-0.5,0-0.9,0-1.3c0.4,0,0.8,0,1.2,0c0,0.4,0,0.9,0,1.3c0.3,0,0.6,0,0.9,0c0,0.3,0,0.6,0,0.8c-0.3,0-0.6,0-0.8,0
	c0,0,0,0,0,0.1c0,0.8,0,1.5,0,2.3c0,0.3,0.1,0.4,0.4,0.4c0.2,0,0.3,0,0.5,0c0,0.3,0,0.6,0,0.9c-0.4,0-0.9,0-1.3,0
	c-0.6-0.1-0.8-0.4-0.8-1c0-0.8,0-1.6,0-2.4c0-0.1,0-0.2,0-0.3c-0.3,0-0.5,0-0.7,0c0-0.3,0-0.5,0-0.8C98.6,60.5,98.8,60.5,99,60.5z"
	/>
<path d="M65.8,67.2c0.4,0,0.8,0,1.2,0c0,2.1,0,4.1,0,6.2c-0.4,0-0.8,0-1.2,0C65.8,71.3,65.8,69.3,65.8,67.2z"/>
<path d="M98,61.6c-0.1,0-0.3,0-0.4,0c-0.8,0-1.2,0.4-1.3,1.1c0,0.7,0,1.4,0,2c0,0.1,0,0.2,0,0.3c-0.4,0-0.8,0-1.2,0c0-1.5,0-3,0-4.5
	c0.4,0,0.8,0,1.2,0c0,0.2,0,0.5,0,0.7c0.1-0.2,0.3-0.3,0.4-0.4c0.3-0.3,0.7-0.4,1.1-0.4c0.2,0,0.2,0,0.2,0.2
	C98,60.9,98,61.2,98,61.6z"/>
<path d="M87.6,56.4c0-1.5,0-3,0-4.5c0.4,0,0.8,0,1.2,0c0,0.2,0,0.5,0,0.7c0.2-0.2,0.5-0.4,0.7-0.6c0.3-0.2,0.6-0.2,1-0.1
	c0,0.4,0,0.8,0,1.1c-0.2,0-0.4,0-0.7,0c-0.6,0.1-1,0.6-1,1.3c0,0.6,0,1.2,0,1.9c0,0.1,0,0.2,0,0.3C88.4,56.4,88,56.4,87.6,56.4z"/>
<path d="M96.6,56.4c-0.4,0-0.8,0-1.2,0c0-1.5,0-3,0-4.5c0.4,0,0.8,0,1.2,0C96.6,53.4,96.6,54.9,96.6,56.4z"/>
<path d="M77.5,56.4c-0.4,0-0.8,0-1.2,0c0-1.5,0-3,0-4.5c0.4,0,0.8,0,1.2,0C77.5,53.4,77.5,54.9,77.5,56.4z"/>
<path d="M76.2,50.2c0.4,0,0.8,0,1.2,0c0,0.3,0,0.7,0,1c-0.4,0-0.8,0-1.2,0C76.2,50.9,76.2,50.6,76.2,50.2z"/>
<path d="M96.6,50.3c0,0.3,0,0.6,0,1c-0.4,0-0.8,0-1.2,0c0-0.3,0-0.6,0-1C95.8,50.3,96.2,50.3,96.6,50.3z"/>
</svg>
