<svg width="116" height="116" viewBox="0 0 116 116" fill="none" xmlns="http://www.w3.org/2000/svg">
<path d="M68.2548 55.8546H71.2644V66.5637H68.2548V65.1728C67.1787 66.7773 65.7833 66.8864 64.926 66.8864C61.5972 66.8864 59.4449 64.3137 59.4449 61.2091C59.4449 57.9955 61.5927 55.5319 64.7117 55.5319C65.5735 55.5319 67.1832 55.641 68.1499 57.2455V55.8546H68.2548ZM62.6688 61.2091C62.6688 62.9228 63.8499 64.2091 65.6784 64.2091C67.3975 64.2091 68.688 62.9228 68.688 61.2091C68.688 59.4955 67.507 58.2091 65.6784 58.2091C63.9547 58.2091 62.6688 59.4955 62.6688 61.2091ZM77.1742 58.4228V66.5637H74.1646V58.4228H72.9835V55.85H74.1646V52.2091H77.1742V55.85H79.2171V58.4228H77.1742ZM86.3033 58.4228C85.5509 57.7819 84.9079 57.6728 84.5842 57.6728C83.8318 57.6728 83.4031 57.9955 83.4031 58.5319C83.4031 58.8546 83.5126 59.1728 84.3699 59.4955L85.1223 59.7091C85.9841 60.0319 87.27 60.35 87.8081 61.2091C88.1319 61.6364 88.3462 62.2819 88.3462 63.0319C88.3462 63.9955 88.0224 64.9591 87.1651 65.7091C86.3033 66.4591 85.2317 66.8864 83.9412 66.8864C81.684 66.8864 80.503 65.8137 79.7506 65.0637L81.3603 63.241C82.0032 63.8819 82.8651 64.5273 83.7223 64.5273C84.5796 64.5273 85.2271 64.1 85.2271 63.35C85.2271 62.7091 84.6891 62.3864 84.2604 62.2773L83.6175 62.0637C82.8651 61.741 82.0078 61.4228 81.3603 60.7773C80.8222 60.241 80.4984 59.6 80.4984 58.741C80.4984 57.6682 81.0365 56.8137 81.5746 56.2773C82.4364 55.6364 83.508 55.5273 84.3699 55.5273C85.1223 55.5273 86.4127 55.6364 87.8081 56.7046L86.3033 58.4228ZM92.8606 57.2455C93.9367 55.7455 95.4415 55.5319 96.2988 55.5319C99.4133 55.5319 101.566 57.9955 101.566 61.2091C101.566 64.4228 99.4178 66.8864 96.1939 66.8864C95.551 66.8864 93.9367 66.7773 92.7557 65.1728V66.5637H89.8555V48.5682H92.8651L92.8606 57.2455ZM92.5368 61.2091C92.5368 62.9228 93.7179 64.2091 95.5464 64.2091C97.2655 64.2091 98.556 62.9228 98.556 61.2091C98.556 59.4955 97.375 58.2091 95.5464 58.2091C93.7179 58.2091 92.5368 59.4955 92.5368 61.2091ZM106.504 64.9591L101.347 55.8546H104.895L108.223 61.9591L111.233 55.8546H114.671L106.076 72.241H102.637L106.504 64.9591ZM58.6925 57.6728H51.1731V60.6728H55.1494C54.5064 62.7091 53.0016 64.1 50.2064 64.1C47.0919 64.1 44.8347 61.5273 44.8347 58.4228C44.8347 55.3182 46.9824 52.641 50.1015 52.641C51.8206 52.641 53.5397 53.5 54.6159 54.891L57.0874 53.2864C55.4777 51.0364 52.8968 49.75 50.1015 49.75C45.3728 49.75 41.5059 53.6046 41.5059 58.4273C41.5059 63.25 45.1584 67.1046 50.1015 67.1046C55.0445 67.1046 58.6971 63.25 58.6971 58.4273C58.7974 58.1046 58.6925 57.8864 58.6925 57.6728Z" fill="black"/>
<path d="M16.0435 43C7.76704 43 1 49.75 1 57.9955C1 66.241 7.76704 72.991 16.0435 72.991C24.3199 72.991 31.0869 66.241 31.0869 57.9955C31.0869 49.75 24.3153 43 16.0435 43ZM7.66217 66.35C5.40497 64.1 4.22393 61.1 4.22393 58.2091L15.934 69.7773C12.9244 69.6682 9.91937 68.6 7.66217 66.35ZM18.6199 69.4546L4.54768 55.4228C5.72872 50.1773 10.4574 46.2137 16.0435 46.2137C20.0198 46.2137 23.458 48.141 25.6058 51.0319L23.9961 52.4228C22.1675 49.9591 19.2674 48.3546 16.0435 48.3546C11.8528 48.3546 8.30512 51.0319 6.90976 54.7819L19.2674 67.1C22.3819 66.0273 24.7485 63.35 25.5009 60.1364H20.339V57.9955H27.8584C27.863 63.5637 23.8867 68.2773 18.6199 69.4546Z" fill="black"/>
</svg>
