<svg width="116" height="116" viewBox="0 0 116 116" fill="none" xmlns="http://www.w3.org/2000/svg">
<path d="M40.7904 60.2326C39.7554 59.6557 39.2954 59.1942 39.2954 58.6172C39.2954 57.8096 39.9854 57.348 41.1354 57.348C42.4004 57.348 43.5504 57.9249 43.5504 57.9249L44.4704 55.1557C44.4704 55.1557 43.6654 54.4634 41.2504 54.4634C37.8004 54.4634 35.5004 56.4249 35.5004 59.1942C35.5004 60.8096 36.6504 61.9634 38.0304 62.7711C39.1804 63.4634 39.6404 63.9249 39.6404 64.6172C39.6404 65.3096 39.0654 66.0019 37.9154 66.0019C36.3054 66.0019 34.6954 65.1942 34.6954 65.1942L33.7754 67.9634C33.7754 67.9634 35.1554 68.8865 37.5704 68.8865C41.0204 68.8865 43.5504 67.1557 43.5504 64.0403C43.5504 62.3096 42.2854 61.0403 40.7904 60.2326ZM54.7054 54.348C52.9804 54.348 51.6004 55.1557 50.5654 56.4249L52.0604 48.5788H48.1504L44.3554 68.5403H48.2654L49.5304 61.7326C49.9904 59.1942 51.3704 57.5788 52.6354 57.5788C53.5554 57.5788 53.9004 58.1557 53.9004 59.0788C53.9004 59.6557 53.9004 60.2326 53.7854 60.8096L52.2904 68.6557H56.2004L57.6954 60.5788C57.8104 59.7711 57.9254 58.7326 57.9254 58.0403C57.9254 55.7326 56.7754 54.348 54.7054 54.348ZM64.7104 65.7711C63.3304 65.7711 62.8704 64.6172 62.8704 63.2326C62.8704 61.0403 64.0204 57.348 66.0904 57.348C67.4704 57.348 67.9304 58.5019 67.9304 59.6557C67.9304 62.1942 66.7804 65.7711 64.7104 65.7711ZM66.6654 54.348C61.9504 54.348 58.8454 58.6172 58.8454 63.348C58.8454 66.348 60.6854 68.7711 64.2504 68.7711C68.8504 68.7711 71.9554 64.6172 71.9554 59.7711C71.9554 57.0019 70.3454 54.348 66.6654 54.348ZM78.1654 65.8865C77.1304 65.8865 76.5554 65.3096 76.5554 65.3096L77.2454 61.6172C77.7054 59.1942 78.9704 57.5788 80.3504 57.5788C81.5004 57.5788 81.9604 58.7326 81.9604 59.7711C81.8454 62.3096 80.3504 65.8865 78.1654 65.8865ZM81.9604 54.348C79.3154 54.348 77.8204 56.6557 77.8204 56.6557L78.0504 54.5788H74.6004C74.4854 55.9634 74.1404 58.1557 73.7954 59.7711L71.0354 74.0788H74.9454L75.9804 68.3096H76.0954C76.0954 68.3096 76.9004 68.7711 78.3954 68.7711C82.9954 68.7711 85.9854 64.0403 85.9854 59.3096C85.9854 56.7711 84.8354 54.348 81.9604 54.348ZM91.5054 48.8096C90.2404 48.8096 89.3204 49.848 89.3204 51.1172C89.3204 52.2711 90.0104 53.0788 91.1604 53.0788C92.4254 53.0788 93.4604 52.2711 93.4604 50.7711C93.4604 49.6172 92.6554 48.8096 91.5054 48.8096ZM86.1004 68.5403H90.0104L92.6554 54.6942H88.7454L86.1004 68.5403ZM102.545 54.6942H99.7854L99.9004 54.0019C100.13 52.6172 100.935 51.4634 102.2 51.4634C102.89 51.4634 103.465 51.6942 103.465 51.6942L104.27 48.5788C104.27 48.5788 103.58 48.2326 102.2 48.2326C100.82 48.2326 99.4404 48.5788 98.4054 49.5019C97.0254 50.6557 96.4504 52.2711 96.1054 53.8865L95.9904 54.5788H94.1504L93.5754 57.5788H95.4154L93.3454 68.5403H97.2554L99.3254 57.5788H101.97L102.545 54.6942ZM111.86 54.6942C111.86 54.6942 109.445 60.8096 108.295 64.1557C108.18 63.1172 107.375 54.6942 107.375 54.6942H103.235L105.535 67.3865C105.535 67.6172 105.535 67.848 105.42 68.0788C104.96 69.0019 104.155 69.8096 103.35 70.3865C102.66 70.9634 101.74 71.3096 101.165 71.5403L102.2 74.8865C103.005 74.7711 104.615 74.0788 105.995 72.8096C107.72 71.1942 109.445 68.5403 111.055 65.0788L115.77 54.8096L111.86 54.6942Z" fill="black"/>
<path d="M25.725 48.1172C25.725 48.0019 25.61 47.8865 25.495 47.8865C25.265 47.8865 22.85 47.6557 22.85 47.6557C22.85 47.6557 21.125 45.9249 20.895 45.8095C20.665 45.5788 20.32 45.6942 20.205 45.6942C20.205 45.6942 19.86 45.8095 19.285 46.0403C18.71 44.4249 17.675 42.9249 15.95 42.9249H15.835C15.375 42.2326 14.685 42.0019 14.11 42.0019C9.97 41.8865 8.015 47.0788 7.325 49.7326C6.405 49.9634 5.485 50.3095 4.45 50.6557C3.53 50.8865 3.53 51.0019 3.415 51.8095C3.3 52.3865 1 70.6172 1 70.6172L19.285 74.0788L29.175 71.8865C29.175 71.8865 25.725 48.348 25.725 48.1172ZM15.72 46.9634C15.72 47.0788 15.72 47.0788 15.72 47.1942L12.385 48.1172C13.075 45.6942 14.225 44.6557 15.26 44.1942C15.49 44.8865 15.72 45.6942 15.72 46.9634ZM13.995 43.0403C14.225 43.0403 14.34 43.1557 14.57 43.2711C13.19 43.848 11.81 45.348 11.12 48.5788L8.59 49.2711C9.395 46.9634 11.005 43.0403 13.995 43.0403ZM14.685 57.1172C14.685 57.1172 13.65 56.5403 12.27 56.5403C10.315 56.5403 10.2 57.6942 10.2 58.0403C10.2 59.6557 14.57 60.348 14.57 64.2711C14.57 67.3865 12.615 69.348 9.97 69.348C6.865 69.348 5.255 67.3865 5.255 67.3865L6.06 64.6172C6.06 64.6172 7.67 66.0019 9.05 66.0019C9.97 66.0019 10.315 65.3095 10.315 64.7326C10.315 62.5403 6.75 62.4249 6.75 58.848C6.75 55.848 8.935 52.9634 13.19 52.9634C15.145 52.848 15.95 53.4249 15.95 53.4249L14.685 57.1172ZM16.755 46.7326C16.755 46.6172 16.755 46.5019 16.755 46.3865C16.755 45.348 16.64 44.5403 16.41 43.848C17.215 44.0788 17.905 45.1172 18.25 46.2711L16.755 46.7326Z" fill="#212121"/>
<path d="M25.3802 47.8865C25.2652 47.8865 22.8502 47.6557 22.8502 47.6557C22.8502 47.6557 21.1252 45.9249 20.8952 45.8096C20.7802 45.6942 20.7802 45.6942 20.6652 45.6942L19.2852 74.0788L29.1752 71.8865C29.1752 71.8865 25.7252 48.348 25.7252 48.1173C25.7252 48.0019 25.4952 47.8865 25.3802 47.8865Z" fill="black"/>
</svg>
