<?xml version="1.0" encoding="utf-8"?>
<!-- Generator: Adobe Illustrator 24.2.0, SVG Export Plug-In . SVG Version: 6.00 Build 0)  -->
<svg width="116" height="123" version="1.1" id="Layer_1" xmlns="http://www.w3.org/2000/svg" xmlns:xlink="http://www.w3.org/1999/xlink" x="0px" y="0px"
	 viewBox="0 0 116 123" style="enable-background:new 0 0 116 123;" xml:space="preserve">
<path d="M69.1,34.2c-1.4,0-2.7,0.1-4.1,0.3c-3.9,0.7-6.7,3.3-7.1,7.2c-0.4-3.9-3.3-6.5-7-7.2c-1.3-0.2-2.7-0.3-4.1-0.3h-22v48.6h22
	c1.4,0,2.9,0.1,4.3,0.4c3.1,0.6,5.7,2.7,6.8,5.6c1.2-2.9,3.8-5.1,6.9-5.6c1.4-0.3,2.8-0.4,4.3-0.4h22V34.2H69.1z M86.6,78.4H69.1
	c-1.5,0-3,0-4.4,0.3c-3.9,0.7-6.1,2.7-6.7,6.8c-0.5-4.1-2.8-6.1-6.6-6.7c-1.5-0.2-3-0.3-4.5-0.3H29.4V38.7h17.5
	c1.4,0,2.8,0.1,4.2,0.4c3.2,0.6,5.9,2.9,6.9,6c1-3.2,3.7-5.5,7-6.1c1.4-0.3,2.8-0.4,4.2-0.4h17.5V78.4z"/>
<path d="M56.2,56.4L56.2,56.4c-0.6-4.8-3.9-8.6-8.6-9.3c-2.2-0.3-4.4-0.5-6.6-0.4h-6.5c0.4,1.4,0.6,2.9,0.7,4.4v15.5
	c-0.1,1.5-0.3,3-0.7,4.4H41l4.6-0.1c3.3,0,6.5-1.6,8.5-4.3C56.3,63.7,56.7,60.1,56.2,56.4z M49.8,63.1L49.8,63.1
	c-2.1,3.4-5.4,3.1-8.8,3V51.7c3.1,0,6.1-0.4,8.2,2.3C51.1,56.2,51.3,60.5,49.8,63.1z"/>
<path d="M83.2,71.2c-0.3-0.2-0.5-0.3-0.7-0.5c-1.2-1.3-2.3-2.8-3.2-4.3l-5.8-8.6l7.7-9.4c0.5-0.6,1.1-1.1,1.7-1.7h-7.7
	c0,2.1-0.5,2.8-1.5,4.3c-1,1.4-5.2,6.5-5.9,7.3v-7.1c0.1-1.5,0.3-3,0.7-4.4h-7.3c0.4,1.4,0.6,2.9,0.7,4.4v15.5
	c-0.1,1.5-0.3,3-0.7,4.4h7.3c-0.4-1.4-0.6-2.9-0.7-4.4v-7.7l6.3,9.5c0.6,0.9,1.5,2,2.6,2.4c1,0.3,2.1,0.3,3.1,0.3L83.2,71.2z"/>
</svg>
