<svg width="116" height="116" viewBox="0 0 116 116" fill="none" xmlns="http://www.w3.org/2000/svg">
<path d="M22.6695 45.9083H35.169C38.8378 45.9391 41.4962 46.9968 43.1445 49.0798C44.7927 51.1627 45.3366 54.0078 44.7769 57.6149C44.5595 59.2631 44.0773 60.8797 43.331 62.4655C42.6156 64.0512 41.6212 65.4812 40.3461 66.7563C38.7911 68.3729 37.1279 69.399 35.3556 69.8346C33.5833 70.27 31.7485 70.488 29.8521 70.488H24.2553L22.483 79.349H16L22.6695 45.9083ZM28.1264 51.2252L25.328 65.2172C25.5146 65.248 25.7011 65.2639 25.8877 65.2639C26.105 65.2639 26.3233 65.2639 26.5406 65.2639C29.5256 65.2947 32.0134 64.9999 34.003 64.3777C35.9927 63.7247 37.3303 61.4552 38.0141 57.5683C38.5738 54.3035 38.0141 52.422 36.335 51.9248C34.6868 51.4276 32.6197 51.1944 30.1319 51.2252C29.7588 51.256 29.4015 51.2719 29.0592 51.2719C28.7486 51.2719 28.4221 51.2719 28.0798 51.2719L28.1264 51.2252Z" fill="black"/>
<path d="M52.1615 37H58.5978L56.7788 45.9082H62.5622C65.7337 45.9707 68.0965 46.6237 69.6515 47.8671C71.2372 49.1106 71.7036 51.4742 71.0507 54.9564L67.9258 70.488H61.3962L64.3812 55.656C64.6918 54.101 64.5985 52.9975 64.1013 52.3446C63.6041 51.6916 62.5314 51.3651 60.8832 51.3651L55.7061 51.3185L51.8816 70.488H45.4453L52.1615 37Z" fill="black"/>
<path d="M77.9625 45.9083H90.462C94.1307 45.9391 96.7892 46.9968 98.4374 49.0798C100.086 51.1627 100.629 54.0078 100.07 57.6149C99.8525 59.2631 99.3702 60.8797 98.624 62.4655C97.9086 64.0512 96.9142 65.4812 95.639 66.7563C94.0841 68.3729 92.4209 69.399 90.6486 69.8346C88.8763 70.27 87.0414 70.488 85.145 70.488H79.5482L77.7759 79.349H71.293L77.9625 45.9083ZM83.4194 51.2252L80.621 65.2172C80.8075 65.248 80.9941 65.2639 81.1806 65.2639C81.398 65.2639 81.6162 65.2639 81.8336 65.2639C84.8186 65.2947 87.3063 64.9999 89.296 64.3777C91.2857 63.7247 92.6233 61.4552 93.307 57.5683C93.8667 54.3035 93.3071 52.422 91.628 51.9248C89.9798 51.4276 87.9126 51.1944 85.4249 51.2252C85.0518 51.256 84.6945 51.2719 84.3522 51.2719C84.0415 51.2719 83.715 51.2719 83.3727 51.2719L83.4194 51.2252Z" fill="black"/>
</svg>
