<svg width="116" height="116" viewBox="0 0 116 116" fill="none" xmlns="http://www.w3.org/2000/svg">
<path d="M33.9082 58.5C33.9082 67.839 39.3356 75.9086 47.205 79.7322L35.9498 48.8992C34.6012 51.9198 33.906 55.1912 33.9082 58.5ZM73.4246 57.3098C73.4246 54.3948 72.3774 52.3752 71.4798 50.8044C70.283 48.8618 69.1632 47.2162 69.1632 45.2714C69.1632 43.1022 70.8066 41.0848 73.1232 41.0848C73.2288 41.0848 73.3278 41.098 73.429 41.1046C69.2314 37.259 63.639 34.9116 57.4988 34.9116C49.2576 34.9116 42.0064 39.14 37.7868 45.5442C38.3412 45.5618 38.8626 45.5728 39.3048 45.5728C41.7732 45.5728 45.5924 45.2736 45.5924 45.2736C46.864 45.1988 47.0136 47.0666 45.7442 47.2162C45.7442 47.2162 44.466 47.3658 43.0426 47.4406L51.6336 72.9936L56.797 57.51L53.1208 47.4406C51.8514 47.3658 50.648 47.2162 50.648 47.2162C49.3764 47.1414 49.526 45.1988 50.7976 45.2736C50.7976 45.2736 54.6938 45.5728 57.0126 45.5728C59.4788 45.5728 63.3002 45.2736 63.3002 45.2736C64.5718 45.1988 64.7214 47.0666 63.452 47.2162C63.452 47.2162 62.1716 47.3658 60.7526 47.4406L69.2776 72.8L71.6294 64.9372C72.648 61.6724 73.4246 59.3294 73.4246 57.3098Z" fill="black"/>
<path d="M57.9133 60.5636L50.8359 81.1314C53.0007 81.7694 55.2447 82.0928 57.4997 82.0928C60.2475 82.0928 62.8809 81.6176 65.3339 80.7552C65.2679 80.6518 65.2129 80.544 65.1667 80.4296L57.9133 60.5636ZM78.1995 47.181C78.3007 47.9334 78.3579 48.7386 78.3579 49.6076C78.3579 52.0012 77.9113 54.6918 76.5649 58.0578L69.3577 78.8918C76.3713 74.802 81.0881 67.2032 81.0881 58.5C81.0969 54.5422 80.1025 50.6504 78.1995 47.181Z" fill="black"/>
<path d="M57.5 31C42.3376 31 30 43.3354 30 58.5C30 73.6646 42.3376 86 57.5 86C72.6624 86 85.0022 73.6646 85.0022 58.4978C85.0022 43.3354 72.6624 31 57.5 31ZM57.5 84.739C43.0328 84.739 31.2606 72.9672 31.2606 58.5C31.2606 44.0328 43.0328 32.2606 57.5 32.2606C71.9672 32.2606 83.7372 44.0306 83.7372 58.4978C83.7394 72.9672 71.9672 84.739 57.5 84.739Z" fill="black"/>
</svg>
