<svg width="116" height="116" viewBox="0 0 116 116" fill="none" xmlns="http://www.w3.org/2000/svg">
<path d="M6 48.5673H9.62752V56.5453H17.2736V48.5673H20.9053V68.1576H17.2736V60.0068H9.62752V68.1536H6V48.5673ZM32.391 61.7747C32.391 63.4148 31.0432 64.7499 29.3875 64.7499C27.7318 64.7499 26.384 63.4148 26.384 61.7747V53.3434H22.9437V61.7788C22.9437 65.298 25.8349 68.1576 29.3875 68.1576C32.9401 68.1576 35.8272 65.2939 35.8272 61.7788V53.3434H32.391V61.7747ZM45.4284 53.4423C43.7228 53.4423 42.5331 53.9326 41.3808 55.0494V48.5673H37.9321V60.5796C37.9321 65.0755 41.2144 68.1576 44.9001 68.1576C48.9977 68.1576 52.592 65.0219 52.592 60.8021C52.592 56.6277 49.2806 53.4423 45.4284 53.4423ZM45.5158 64.9931C43.1779 64.9931 41.3891 63.0604 41.3891 60.798C41.3891 58.5357 43.1779 56.5988 45.5158 56.5988C47.496 56.5988 49.2848 58.5315 49.2848 60.798C49.2848 63.0604 47.496 64.9931 45.5158 64.9931ZM58.3868 54.2994C58.3868 52.581 59.5433 52.037 60.808 52.037C61.8272 52.037 63.175 52.7994 64.0528 53.7266L66.3075 51.1098C65.1801 49.6098 62.8963 48.5755 61.0284 48.5755C57.2886 48.5755 54.5888 50.7266 54.5888 54.2994C54.5888 60.9216 62.8131 58.8241 62.8131 62.5288C62.8131 63.6703 61.6857 64.6799 60.392 64.6799C58.3536 64.6799 57.6963 63.6991 56.7603 62.6648L54.256 65.228C55.8534 67.1646 57.8336 68.1456 60.2006 68.1456C63.7491 68.1456 66.6112 65.9656 66.6112 62.5576C66.6153 55.2019 58.3868 57.489 58.3868 54.2994ZM75.6966 53.2486C72.0108 53.2486 68.7286 56.3269 68.7286 60.8227V72.8676H72.1772V66.3571C73.3254 67.4736 74.5193 67.9646 76.2249 67.9646C80.0771 67.9646 83.3884 64.7747 83.3884 60.6085C83.3884 56.3804 79.7942 53.2486 75.6966 53.2486ZM76.3081 64.8035C73.9702 64.8035 72.1814 62.8667 72.1814 60.6043C72.1814 58.342 73.9702 56.4052 76.3081 56.4052C78.2883 56.4052 80.0771 58.3379 80.0771 60.6043C80.0771 62.8667 78.2883 64.8035 76.3081 64.8035ZM108.781 64.9931C106.747 64.9931 106.168 64.1195 106.168 62.7843V56.8749H109.33V53.8791H106.168V49.9271L102.674 51.4807V63.526C102.674 66.6043 104.821 68.1576 107.762 68.1576C108.203 68.1576 108.806 68.1286 109.139 68.0506L109.991 64.9436C109.609 64.9684 109.168 64.9931 108.781 64.9931Z" fill="black"/>
<path d="M99.6812 57.048C99.0198 55.9189 98.088 55.0164 96.9273 54.3365C96.0579 53.8338 95.1552 53.5164 94.1401 53.3805V49.7994C95.1552 49.3708 95.7875 48.4272 95.7875 47.3228C95.7875 45.8186 94.5686 44.603 93.0544 44.603C91.536 44.603 90.2963 45.8228 90.2963 47.3228C90.2963 48.4272 90.8911 49.3708 91.9062 49.7994V53.3846C91.095 53.5 90.2505 53.7513 89.4809 54.1387C87.9084 52.956 82.7542 49.0783 79.7423 46.8118C79.8131 46.5563 79.8671 46.2925 79.8671 46.0164C79.8671 44.3516 78.5068 43 76.8262 43C75.1455 43 73.7852 44.3516 73.7852 46.0164C73.7852 47.6813 75.1455 49.0329 76.8303 49.0329C77.4044 49.0329 77.9327 48.8681 78.3903 48.592L79.0268 49.07L87.767 55.309C87.3052 55.7294 86.8726 56.2074 86.5315 56.7431C85.8326 57.8351 85.4083 59.0384 85.4083 60.353V60.625C85.4083 61.548 85.583 62.4175 85.8867 63.2335C86.1529 63.9464 86.5398 64.5975 87.0182 65.1827L84.1187 68.0636C83.2617 67.7456 82.2924 67.9556 81.6476 68.5986C81.2067 69.0356 80.9571 69.6286 80.9612 70.2476C80.9612 70.8696 81.2067 71.4546 81.6518 71.8956C82.0928 72.3326 82.6918 72.5796 83.3158 72.5796C83.9398 72.5796 84.5388 72.3366 84.9798 71.8956C85.4208 71.4586 85.6704 70.8656 85.6704 70.2476C85.6704 70.0086 85.6329 69.7736 85.5622 69.5466L88.5616 66.5755C88.9734 66.8557 89.4185 67.0946 89.8928 67.2966C90.8329 67.7006 91.8729 67.9436 93.0128 67.9436H93.2208C94.4771 67.9436 95.6627 67.6506 96.7776 67.0536C97.9507 66.423 98.87 65.5577 99.5648 64.4533C100.264 63.3447 100.646 62.125 100.646 60.7774V60.7115C100.642 59.3887 100.334 58.1689 99.6812 57.048ZM96.0204 63.2788C95.2051 64.173 94.2691 64.7252 93.2124 64.7252H93.0377C92.4345 64.7252 91.8438 64.5604 91.2656 64.2596C90.6124 63.9299 90.1174 63.456 89.7139 62.8585C89.2937 62.2733 89.0691 61.6305 89.0691 60.9505V60.7445C89.0691 60.0769 89.198 59.4423 89.5267 58.8447C89.8761 58.1895 90.3462 57.6827 90.9744 57.2788C91.59 56.8791 92.2473 56.6813 92.9795 56.6813H93.046C93.7075 56.6813 94.3356 56.809 94.9305 57.1099C95.5337 57.4313 96.0288 57.8681 96.4115 58.445C96.7817 59.0219 97.0022 59.6401 97.0771 60.32C97.0896 60.4601 97.0937 60.6044 97.0937 60.7403C97.0812 61.6593 96.7276 62.5082 96.0204 63.2788Z" fill="black"/>
</svg>
