<?xml version="1.0" encoding="utf-8"?>
<!-- Generator: Adobe Illustrator 24.2.0, SVG Export Plug-In . SVG Version: 6.00 Build 0)  -->
<svg version="1.1" id="Layer_1" xmlns="http://www.w3.org/2000/svg" xmlns:xlink="http://www.w3.org/1999/xlink" width="116" height="123" x="0px" y="0px"
	 viewBox="0 0 116 123" style="enable-background:new 0 0 116 123;" xml:space="preserve">
<path d="M61.3,52c0,1.3-1,2.3-2.3,2.3s-2.3-1-2.3-2.3c0-1.3,1-2.3,2.3-2.3C60.3,49.7,61.3,50.8,61.3,52z"/>
<path d="M52.1,56.2c-0.3,0-0.5,0.3-0.5,0.5c0,0.2,0,0.6,0,0.6s-1.1-1.4-3.5-1.4c-3.9,0-7,3-7,7.2c0,4.1,3,7.2,7,7.2
	c2.4,0,3.5-1.5,3.5-1.5v0.6c0,0.3,0.2,0.5,0.5,0.5H55V56.2C55,56.2,52.3,56.2,52.1,56.2z M51.6,65.5c-0.5,0.8-1.6,1.5-2.9,1.5
	c-2.3,0-4.1-1.4-4.1-3.9s1.8-3.9,4.1-3.9c1.3,0,2.4,0.7,2.9,1.5V65.5z"/>
<rect x="57.2" y="56.2" width="3.5" height="13.6"/>
<path d="M109,55.9c-2.4,0-3.5,1.4-3.5,1.4v-7.6H102v20.1c0,0,2.7,0,2.9,0c0.3,0,0.5-0.3,0.5-0.5v-0.6c0,0,1.1,1.5,3.5,1.5
	c3.9,0,7-3,7-7.2C116,58.9,112.9,55.9,109,55.9z M108.4,66.9c-1.3,0-2.4-0.7-2.9-1.5v-4.8c0.5-0.7,1.7-1.5,2.9-1.5
	c2.3,0,4.1,1.4,4.1,3.9C112.5,65.5,110.8,66.9,108.4,66.9z"/>
<path d="M100.2,61.8v8.1h-3.5v-7.7c0-2.2-0.7-3.1-2.7-3.1c-1,0-2.1,0.5-2.8,1.3v9.5h-3.5V56.2h2.7c0.3,0,0.5,0.3,0.5,0.5v0.6
	c1-1,2.3-1.4,3.7-1.4c1.5,0,2.8,0.4,3.8,1.3C99.8,58.2,100.2,59.5,100.2,61.8z"/>
<path d="M79.4,55.9c-2.4,0-3.5,1.4-3.5,1.4v-7.6h-3.5v20.1c0,0,2.7,0,2.9,0c0.3,0,0.5-0.3,0.5-0.5v-0.6c0,0,1.1,1.5,3.5,1.5
	c3.9,0,7-3,7-7.2C86.4,58.9,83.3,55.9,79.4,55.9z M78.8,66.9c-1.3,0-2.4-0.7-2.9-1.5v-4.8c0.5-0.7,1.7-1.5,2.9-1.5
	c2.3,0,4.1,1.4,4.1,3.9C82.9,65.5,81.1,66.9,78.8,66.9z"/>
<path d="M69.4,55.9c1,0,1.6,0.2,1.6,0.2v3.2c0,0-2.9-1-4.7,1.1v9.5h-3.5V56.2c0,0,2.7,0,2.9,0c0.3,0,0.5,0.3,0.5,0.5v0.6
	C66.9,56.6,68.3,55.9,69.4,55.9z"/>
<path d="M33.4,68.6c-0.2-0.4-0.4-0.9-0.5-1.3c-0.3-0.7-0.6-1.3-0.8-1.8l0,0c-2.5-5.4-5.2-10.9-8-16.3l-0.1-0.2
	c-0.3-0.5-0.6-1.1-0.9-1.7c-0.4-0.7-0.7-1.3-1.3-2c-1.2-1.4-2.8-2.2-4.6-2.2c-1.8,0-3.4,0.8-4.6,2.2c-0.5,0.7-0.9,1.3-1.3,2
	c-0.3,0.6-0.6,1.2-0.9,1.7L10.2,49c-2.8,5.4-5.5,10.9-8,16.3l0,0.1c-0.3,0.6-0.5,1.2-0.8,1.8c-0.2,0.4-0.4,0.8-0.5,1.3
	c-0.5,1.3-0.6,2.6-0.4,3.9c0.4,2.7,2.2,5,4.7,6C6,78.9,7,79.1,8,79.1c0.3,0,0.7,0,0.9-0.1c1.2-0.1,2.4-0.5,3.6-1.2
	c1.5-0.8,2.9-2,4.5-3.8c1.6,1.7,3,2.9,4.5,3.8c1.2,0.7,2.4,1.1,3.6,1.2c0.3,0,0.7,0.1,0.9,0.1c1,0,2-0.2,2.9-0.6
	c2.5-1,4.3-3.3,4.7-6C34,71.2,33.8,69.9,33.4,68.6z M17.1,70.5c-2-2.5-3.2-4.8-3.7-6.7c-0.2-0.8-0.2-1.6-0.1-2.2
	c0.1-0.6,0.3-1.1,0.6-1.5c0.7-1,1.8-1.6,3.2-1.6c1.3,0,2.5,0.6,3.2,1.6c0.3,0.4,0.5,0.9,0.6,1.5c0.1,0.7,0.1,1.4-0.1,2.2
	C20.3,65.7,19,68,17.1,70.5z M31.5,72.2c-0.3,1.9-1.5,3.5-3.3,4.2c-0.9,0.4-1.8,0.5-2.7,0.4c-0.9-0.1-1.8-0.4-2.7-0.9
	c-1.3-0.7-2.6-1.8-4.1-3.5c2.4-2.9,3.8-5.6,4.4-8c0.3-1.1,0.3-2.1,0.2-3.1c-0.1-0.9-0.5-1.7-1-2.5c-1.1-1.6-3-2.6-5.1-2.6
	c-2.1,0-4,1-5.1,2.6c-0.5,0.7-0.8,1.6-1,2.5c-0.1,0.9-0.1,2,0.2,3.1c0.5,2.4,2,5.1,4.4,8c-1.5,1.7-2.8,2.8-4.1,3.5
	c-0.9,0.5-1.8,0.8-2.7,0.9c-1,0.1-1.9,0-2.7-0.4c-1.8-0.7-3-2.3-3.3-4.2c-0.1-0.9,0-1.8,0.3-2.8c0.1-0.4,0.3-0.7,0.5-1.2
	c0.3-0.6,0.5-1.2,0.8-1.8l0-0.1c2.5-5.4,5.2-10.9,8-16.2l0.1-0.2c0.3-0.5,0.6-1.1,0.9-1.7c0.3-0.6,0.6-1.1,1-1.6
	c0.8-0.9,1.8-1.3,2.9-1.3c1.1,0,2.1,0.5,2.9,1.3c0.4,0.5,0.7,1,1,1.6c0.3,0.5,0.6,1.1,0.9,1.7l0.1,0.2c2.7,5.4,5.4,10.9,7.9,16.3v0
	c0.3,0.6,0.5,1.2,0.8,1.8c0.2,0.4,0.4,0.8,0.5,1.2C31.5,70.3,31.6,71.2,31.5,72.2z"/>
</svg>
