<svg width="116" height="116" viewBox="0 0 116 116" fill="none" xmlns="http://www.w3.org/2000/svg">
<path d="M57.0485 82.0012C56.7858 82.0012 56.5278 81.9312 56.3003 81.7982L53.9182 80.3702C53.561 80.1692 53.7396 80.0972 53.8539 80.0552C54.2301 79.9362 54.59 79.7692 54.9253 79.5592C54.9537 79.5462 54.9852 79.5402 55.0165 79.5422C55.0479 79.5452 55.078 79.5562 55.1039 79.5742L56.9342 80.6732C56.9682 80.6922 57.0062 80.7022 57.0449 80.7022C57.0836 80.7022 57.1216 80.6922 57.1556 80.6732L64.2876 76.5032C64.3208 76.4832 64.3483 76.4542 64.3674 76.4202C64.3865 76.3862 64.3965 76.3472 64.3965 76.3082V67.9692C64.3964 67.9292 64.3862 67.8902 64.3668 67.8552C64.3475 67.8202 64.3195 67.7912 64.2858 67.7702L57.1556 63.6109C57.1219 63.5914 57.0837 63.5811 57.0449 63.5811C57.0061 63.5811 56.9679 63.5914 56.9342 63.6109L49.8058 67.7792C49.7714 67.7992 49.7427 67.8282 49.7227 67.8622C49.7026 67.8972 49.6919 67.9362 49.6915 67.9762V76.3152C49.6918 76.3542 49.7024 76.3932 49.7221 76.4272C49.7419 76.4612 49.7701 76.4892 49.804 76.5092L51.7682 77.6512C52.8289 78.1942 53.4771 77.5562 53.4771 76.9282V68.6822C53.4771 68.6542 53.4825 68.6272 53.4929 68.6022C53.5034 68.5762 53.5186 68.5532 53.5379 68.5342C53.5572 68.5152 53.58 68.4992 53.6051 68.4892C53.6302 68.4792 53.6571 68.4732 53.6843 68.4742H54.5896C54.6167 68.4732 54.6436 68.4792 54.6687 68.4892C54.6939 68.4992 54.7167 68.5152 54.736 68.5342C54.7552 68.5532 54.7705 68.5762 54.7809 68.6022C54.7914 68.6272 54.7967 68.6542 54.7967 68.6822V76.9142C54.7967 78.3482 54.0253 79.1692 52.6843 79.1692C52.2718 79.1692 51.9468 79.1692 51.0397 78.7172L49.1701 77.6322C48.9425 77.4972 48.7536 77.3052 48.6223 77.0732C48.491 76.8422 48.4219 76.5802 48.4219 76.3132V67.9692C48.4219 67.7022 48.491 67.4412 48.6223 67.2102C48.7536 66.9787 48.9425 66.7866 49.1701 66.6527L56.3128 62.477C56.5428 62.3497 56.8007 62.283 57.0628 62.283C57.3248 62.283 57.5827 62.3497 57.8127 62.477L64.9554 66.6527C65.1831 66.7867 65.3722 66.9787 65.5038 67.2092C65.6353 67.4402 65.7049 67.7022 65.7054 67.9692V76.3082C65.7048 76.5752 65.6353 76.8372 65.5037 77.0682C65.3722 77.2992 65.1831 77.4922 64.9554 77.6262L57.8127 81.7982C57.5804 81.9342 57.3165 82.0042 57.0485 82.0012Z" fill="black"/>
<path d="M59.2515 76.2552C56.1301 76.2552 55.4766 74.8092 55.4766 73.5862C55.4763 73.5592 55.4815 73.5322 55.4917 73.5062C55.502 73.4812 55.5171 73.4582 55.5362 73.4382C55.5553 73.4192 55.578 73.4042 55.6031 73.3932C55.6281 73.3832 55.6549 73.3782 55.6819 73.3782H56.6087C56.6585 73.3782 56.7066 73.3962 56.7441 73.4302C56.7815 73.4632 56.8058 73.5092 56.8123 73.5592C56.9515 74.5102 57.3676 74.9892 59.2551 74.9892C60.7586 74.9892 61.3979 74.6462 61.3979 73.8372C61.3979 73.3732 61.2193 73.0272 58.8818 72.7962C56.9283 72.6002 55.7212 72.1632 55.7212 70.5822C55.7212 69.1252 56.9355 68.2552 58.9693 68.2552C61.255 68.2552 62.3853 69.0582 62.53 70.7872C62.5322 70.8162 62.5285 70.8452 62.5191 70.8722C62.5097 70.9002 62.4948 70.9252 62.4754 70.9462C62.4559 70.9682 62.4324 70.9852 62.4061 70.9962C62.3799 71.0082 62.3515 71.0142 62.3228 71.0142H61.3943C61.3477 71.0142 61.3025 70.9982 61.2661 70.9692C61.2298 70.9392 61.2044 70.8982 61.1943 70.8522C60.9711 69.8502 60.4318 69.5302 58.9658 69.5302C57.3247 69.5302 57.1337 70.1102 57.1337 70.5422C57.1337 71.0692 57.3587 71.2222 59.5747 71.5192C61.7907 71.8162 62.8085 72.2282 62.8085 73.7892C62.8085 75.3492 61.5121 76.2552 59.2515 76.2552Z" fill="black"/>
<path d="M69.539 67.5112C69.5386 67.7872 69.4577 68.0562 69.3064 68.2852C69.1551 68.5132 68.9402 68.6922 68.689 68.7972C68.4377 68.9022 68.1613 68.9292 67.8947 68.8752C67.6281 68.8212 67.3833 68.6892 67.1912 68.4942C66.999 68.2992 66.8683 68.0512 66.8154 67.7812C66.7624 67.5112 66.7898 67.2312 66.8939 66.9766C66.998 66.7222 67.1742 66.5049 67.4003 66.3519C67.6264 66.199 67.8922 66.1174 68.164 66.1174C68.5287 66.1183 68.8782 66.2656 69.1359 66.5269C69.3936 66.7883 69.5385 67.1422 69.539 67.5112ZM67.0123 67.5112C67.0112 67.7432 67.0781 67.9702 67.2044 68.1632C67.3308 68.3562 67.5109 68.5062 67.7219 68.5952C67.9329 68.6842 68.1653 68.7082 68.3895 68.6632C68.6138 68.6182 68.8198 68.5072 68.9815 68.3432C69.1431 68.1792 69.2531 67.9712 69.2974 67.7432C69.3418 67.5162 69.3185 67.2812 69.2305 67.0672C69.1425 66.8538 68.9939 66.6714 68.8033 66.5435C68.6128 66.4155 68.3891 66.3478 68.1605 66.3489C67.8573 66.3503 67.5669 66.4725 67.352 66.6891C67.1371 66.9057 67.0151 67.1992 67.0123 67.5062V67.5112ZM67.648 66.7359H68.1837C68.3622 66.7359 68.7194 66.7359 68.7194 67.1482C68.7261 67.2372 68.7002 67.3252 68.6464 67.3962C68.5927 67.4672 68.515 67.5152 68.4283 67.5312C68.639 67.5462 68.6533 67.6852 68.6837 67.8842C68.691 68.0242 68.7175 68.1632 68.7622 68.2962H68.4355C68.4355 68.2242 68.3765 67.8262 68.3765 67.8032C68.3569 67.7162 68.3265 67.6712 68.2176 67.6712H67.948V68.2962H67.6498L67.648 66.7359ZM67.939 67.4212H68.1801C68.2103 67.4252 68.241 67.4212 68.2699 67.4122C68.2987 67.4022 68.3251 67.3862 68.3473 67.3652C68.3694 67.3432 68.3866 67.3182 68.3979 67.2892C68.4091 67.2602 68.414 67.2292 68.4122 67.1992C68.4122 66.9854 68.2658 66.9854 68.1872 66.9854H67.939V67.4212Z" fill="black"/>
<path fill-rule="evenodd" clip-rule="evenodd" d="M34.955 49.3765C34.9555 49.2137 34.9135 49.0537 34.8332 48.9127C34.7529 48.7717 34.6372 48.6547 34.4978 48.5736L26.9337 44.1628C26.8071 44.088 26.6641 44.0464 26.5177 44.0416H26.4391C26.2921 44.0465 26.1485 44.0881 26.0212 44.1628L18.4571 48.5736C18.3182 48.6552 18.2029 48.7723 18.1227 48.9132C18.0425 49.0541 18.0002 49.2139 18 49.3765L18.0179 61.2472C18.0179 61.3281 18.0389 61.4075 18.0788 61.4775C18.1187 61.5475 18.1761 61.6057 18.2452 61.6462C18.3143 61.6866 18.3927 61.708 18.4725 61.7081C18.5523 61.7083 18.6308 61.6871 18.7 61.6469L23.1945 59.0409C23.3331 58.9589 23.4481 58.8416 23.5283 58.7008C23.6084 58.56 23.6509 58.4005 23.6517 58.238V52.6914C23.6516 52.529 23.6938 52.3694 23.7741 52.2287C23.8543 52.0881 23.9698 51.9714 24.1088 51.8903L26.023 50.7745C26.1625 50.6927 26.3208 50.6497 26.482 50.6497C26.6414 50.6495 26.798 50.6926 26.9355 50.7745L28.8498 51.8903C28.9886 51.9715 29.104 52.0883 29.1842 52.2289C29.2645 52.3695 29.3068 52.529 29.3069 52.6914V58.238C29.3078 58.4005 29.3504 58.5599 29.4305 58.7007C29.5107 58.8415 29.6256 58.9587 29.764 59.0409L34.2586 61.6469C34.3277 61.6886 34.4067 61.7106 34.4871 61.7106C34.5676 61.7106 34.6466 61.6886 34.7157 61.6469C34.7849 61.6064 34.8423 61.5481 34.8822 61.4779C34.922 61.4078 34.9428 61.3282 34.9425 61.2472L34.955 49.3765Z" fill="black"/>
<path fill-rule="evenodd" clip-rule="evenodd" d="M71.3507 33.0589C71.2812 33.0195 71.2027 32.9992 71.123 33C71.0434 33.0007 70.9653 33.0226 70.8965 33.0633C70.8278 33.1041 70.7708 33.1623 70.7311 33.2323C70.6914 33.3022 70.6705 33.3815 70.6703 33.4622V45.2171C70.6702 45.2738 70.6554 45.3295 70.6274 45.3785C70.5994 45.4276 70.5592 45.4684 70.5107 45.4968C70.4623 45.5251 70.4073 45.5401 70.3513 45.5403C70.2954 45.5404 70.2403 45.5256 70.1918 45.4974L68.2972 44.3924C68.1582 44.3112 68.0005 44.2684 67.84 44.2684C67.6796 44.2684 67.5219 44.3112 67.3829 44.3924L59.8224 48.8159C59.6835 48.8971 59.5681 49.0139 59.4879 49.1545C59.4077 49.2951 59.3654 49.4546 59.3652 49.6171V58.4658C59.3654 58.6282 59.4077 58.7877 59.4879 58.9284C59.5681 59.069 59.6835 59.1858 59.8224 59.267L67.3829 63.694C67.5217 63.7758 67.6794 63.8189 67.84 63.8189C68.0006 63.8189 68.1584 63.7758 68.2972 63.694L75.8649 59.2688C76.0035 59.1873 76.1186 59.0704 76.1988 58.9299C76.279 58.7893 76.3215 58.63 76.322 58.4676V36.4117C76.3221 36.2468 76.2785 36.0849 76.196 35.9427C76.1134 35.8006 75.9947 35.6834 75.8524 35.6034L71.3507 33.0589ZM70.6471 55.556C70.6473 55.5967 70.6369 55.6368 70.6168 55.672C70.5967 55.7073 70.5677 55.7366 70.5328 55.7568L67.9365 57.274C67.9015 57.2937 67.8622 57.304 67.8222 57.304C67.7822 57.304 67.7429 57.2937 67.7079 57.274L65.1097 55.7568C65.0758 55.7359 65.0479 55.7063 65.0288 55.6711C65.0097 55.6359 65 55.5962 65.0008 55.556V52.5178C65.0008 52.4771 65.0113 52.4372 65.0314 52.4019C65.0514 52.3667 65.0803 52.3374 65.1151 52.3171L67.7133 50.798C67.7479 50.7775 67.7874 50.7667 67.8275 50.7667C67.8677 50.7667 67.9071 50.7775 67.9418 50.798L70.5364 52.3189C70.5706 52.3397 70.5989 52.3691 70.6187 52.4043C70.6384 52.4395 70.6488 52.4792 70.6489 52.5196L70.6471 55.556Z" fill="black"/>
<path fill-rule="evenodd" clip-rule="evenodd" d="M96.547 52.44C96.685 52.359 96.8 52.2425 96.88 52.1022C96.96 51.9619 97.002 51.8027 97.002 51.6407V49.4959C97.002 49.3339 96.96 49.1747 96.88 49.0344C96.8 48.8941 96.685 48.7776 96.547 48.6966L89.0291 44.2749C88.8898 44.1936 88.7318 44.1509 88.5711 44.1509C88.4103 44.1509 88.2524 44.1936 88.113 44.2749L80.5489 48.6984C80.4097 48.7791 80.294 48.8958 80.2137 49.0365C80.1335 49.1772 80.0914 49.337 80.0918 49.4995V58.3446C80.0918 58.5077 80.1344 58.668 80.2153 58.809C80.2962 58.95 80.4126 59.0668 80.5525 59.1476L88.0702 63.4879C88.2065 63.5655 88.3602 63.6063 88.5166 63.6063C88.673 63.6063 88.8267 63.5655 88.963 63.4879L93.5093 60.9289C93.5799 60.8886 93.6387 60.83 93.6796 60.7592C93.7204 60.6883 93.742 60.6077 93.742 60.5256C93.742 60.4436 93.7204 60.363 93.6796 60.2921C93.6387 60.2212 93.5799 60.1627 93.5093 60.1223L85.897 55.6971C85.8276 55.6567 85.7699 55.5985 85.7298 55.5283C85.6896 55.4581 85.6685 55.3785 85.6685 55.2974V52.5269C85.6685 52.4455 85.6897 52.3657 85.7298 52.2952C85.7699 52.2248 85.8276 52.1662 85.897 52.1254L88.2666 50.7419C88.336 50.702 88.4145 50.681 88.4943 50.681C88.5741 50.681 88.6526 50.702 88.722 50.7419L91.1005 52.12C91.1702 52.1605 91.228 52.219 91.2682 52.2895C91.3083 52.36 91.3293 52.44 91.329 52.5214V54.7024C91.3291 54.7838 91.3503 54.8638 91.3906 54.9343C91.4309 55.0047 91.4889 55.0632 91.5586 55.1037C91.6283 55.1443 91.7074 55.1654 91.7878 55.1652C91.8682 55.1649 91.9471 55.1431 92.0165 55.1021L96.547 52.44Z" fill="black"/>
<path fill-rule="evenodd" clip-rule="evenodd" d="M88.4588 52.0259C88.486 52.01 88.5168 52.0017 88.5481 52.0017C88.5795 52.0017 88.6103 52.01 88.6374 52.0259L90.0892 52.8741C90.1156 52.8899 90.1375 52.9124 90.1528 52.9393C90.1681 52.9662 90.1763 52.9967 90.1767 53.0278V54.7259C90.1763 54.757 90.1681 54.7875 90.1528 54.8144C90.1375 54.8413 90.1156 54.8638 90.0892 54.8796L88.6338 55.7368C88.6067 55.7527 88.5759 55.7611 88.5445 55.7611C88.5132 55.7611 88.4824 55.7527 88.4553 55.7368L87.0035 54.8887C86.9771 54.8728 86.9552 54.8504 86.9399 54.8234C86.9245 54.7965 86.9163 54.766 86.916 54.735V53.0242C86.9163 52.9931 86.9245 52.9626 86.9399 52.9357C86.9552 52.9088 86.9771 52.8863 87.0035 52.8704L88.4588 52.0259Z" fill="black"/>
<path fill-rule="evenodd" clip-rule="evenodd" d="M46.7014 44.3201C46.8393 44.2393 46.9957 44.1967 47.155 44.1967C47.3143 44.1967 47.4707 44.2393 47.6086 44.3201L55.1084 48.7056C55.2463 48.7862 55.3608 48.9022 55.4404 49.0419C55.5201 49.1816 55.562 49.34 55.562 49.5013V58.2814C55.5617 58.4423 55.5196 58.6004 55.44 58.7397C55.3604 58.8791 55.246 58.9948 55.1084 59.0753L47.6086 63.4662C47.4704 63.5461 47.3141 63.5882 47.155 63.5882C46.9959 63.5882 46.8396 63.5461 46.7014 63.4662L39.2016 59.0753C39.064 58.9948 38.9496 58.8791 38.87 58.7397C38.7904 58.6004 38.7483 58.4423 38.748 58.2814V49.5013C38.748 49.34 38.7899 49.1816 38.8696 49.0419C38.9492 48.9022 39.0637 48.7862 39.2016 48.7056L46.7014 44.3201Z" fill="black"/>
<path fill-rule="evenodd" clip-rule="evenodd" d="M47.6125 44.3201C47.4746 44.2393 47.3182 44.1967 47.1589 44.1967C46.9996 44.1967 46.8432 44.2393 46.7053 44.3201L39.2055 48.7056C39.0676 48.7862 38.9531 48.9022 38.8735 49.0419C38.7938 49.1816 38.7519 49.34 38.752 49.5013V58.2814C38.7522 58.4423 38.7943 58.6004 38.8739 58.7397C38.9535 58.8791 39.0679 58.9948 39.2055 59.0753L46.7053 63.4662C46.8435 63.5461 46.9998 63.5882 47.1589 63.5882C47.318 63.5882 47.4743 63.5461 47.6125 63.4662L55.1123 59.0753C55.2499 58.9948 55.3643 58.8791 55.4439 58.7397C55.5235 58.6004 55.5656 58.4423 55.5659 58.2814V49.5013C55.5659 49.34 55.524 49.1816 55.4443 49.0419C55.3647 48.9022 55.2502 48.7862 55.1123 48.7056L47.6125 44.3201Z" fill="black"/>
<path d="M46.6929 44.3206L39.1806 48.706C39.0407 48.7859 38.9239 48.9013 38.8415 49.0408C38.7592 49.1803 38.7142 49.3392 38.7109 49.5018V58.2818C38.7129 58.4925 38.7874 58.6959 38.9216 58.8569L47.3661 44.2247C47.1379 44.1673 46.8966 44.2016 46.6929 44.3206Z" fill="black"/>
<path d="M47.4141 63.5439C47.476 63.5242 47.5359 63.4981 47.5926 63.4662L55.08 59.0753C55.2132 58.9928 55.3223 58.8756 55.3958 58.736C55.4692 58.5964 55.5045 58.4394 55.4978 58.2814V49.5013C55.5017 49.288 55.4343 49.0797 55.3067 48.91L47.4141 63.5439Z" fill="black"/>
<path opacity="0.66" d="M55.0758 48.7056L47.6045 44.3201C47.5302 44.2769 47.4502 44.2447 47.367 44.2243L38.9297 58.8564C39.0015 58.9439 39.0879 59.018 39.185 59.0753L46.7009 63.4662C46.8082 63.5285 46.9271 63.5676 47.05 63.581C47.173 63.5944 47.2973 63.5818 47.4152 63.5439L55.3061 48.9099C55.2428 48.8277 55.1646 48.7583 55.0758 48.7056Z" fill="black"/>
<path d="M39.2663 48.6568L39.1806 48.7056C39.0407 48.7854 38.9239 48.9008 38.8415 49.0404C38.7592 49.1799 38.7142 49.3388 38.7109 49.5013V58.2814C38.7136 58.4433 38.758 58.6018 38.8397 58.7411C38.9215 58.8803 39.0377 58.9955 39.177 59.0753L46.6929 63.4662C46.8904 63.5822 47.1243 63.6171 47.3465 63.5638L39.2663 48.6568Z" fill="black"/>
<path d="M55.4963 49.5013C55.5029 49.3426 55.4673 49.185 55.3932 49.045C55.319 48.905 55.2091 48.7878 55.0749 48.7056L47.6036 44.3201C47.5384 44.282 47.4689 44.2523 47.3965 44.2315L55.4963 58.247V49.5013Z" fill="black"/>
<path d="M47.5904 63.4662L55.0778 59.0753C55.2111 58.9928 55.3201 58.8756 55.3936 58.736C55.4671 58.5964 55.5023 58.4394 55.4956 58.2814V58.247L47.3958 44.2315C47.2785 44.1987 47.156 44.1896 47.0353 44.2048C46.9146 44.22 46.798 44.2592 46.6922 44.3201L39.2656 48.6604L47.3458 63.5675C47.4315 63.545 47.5138 63.511 47.5904 63.4662Z" fill="black"/>
</svg>
