<svg width="116" height="124" viewBox="0 0 116 124" fill="none" xmlns="http://www.w3.org/2000/svg">
<path d="M108.358 54.1854H106.742L100.174 69.6784H101.947L103.762 65.2413H111.307L113.112 69.6784H114.885L108.358 54.1854ZM104.371 63.7623L107.54 56.0001L110.698 63.7623H104.371Z" fill="black"/>
<path d="M64.5685 63.542C64.5685 66.7518 62.155 68.4616 59.7311 68.4616C57.3071 68.4616 54.8831 66.7518 54.8831 63.542V54.1854H53.3301V63.5315C53.3301 67.7588 56.5411 69.9721 59.7206 69.9721C62.9106 69.9721 66.111 67.7588 66.111 63.5315V54.1854H64.558V63.542H64.5685Z" fill="black"/>
<path d="M84.938 64.4127C84.3084 65.9127 83.9202 66.8882 83.9202 66.8882C83.9202 66.8882 83.5214 65.9127 82.8918 64.4127L78.6315 54.1854H76.1446V69.6784H77.6976V60.1329V55.8952L83.4165 69.6784H84.4134L90.1322 55.8952V60.1329V69.6784H91.6853V54.1854H89.1983L84.938 64.4127Z" fill="black"/>
<path d="M41.6926 60.9301H32.6683V54.1854H31.1153V69.6784H32.6683V62.3777H41.6926V69.6784H43.2456V54.1854H41.6926V60.9301Z" fill="black"/>
<path d="M9.96135 53C5.02946 53 1 57.0175 1 61.9581C1 66.8986 5.01897 70.9161 9.96135 70.9161C14.9038 70.9161 18.9227 66.8986 18.9227 61.9581C18.9227 57.0175 14.8933 53 9.96135 53ZM2.31168 61.9581C2.31168 61.2238 2.41661 60.521 2.60549 59.8497H9.28977C9.13237 62.9965 7.79971 65.9861 5.58561 68.2098C3.61285 66.8252 2.31168 64.549 2.31168 61.9581ZM9.96135 69.6049C8.81757 69.6049 7.72626 69.3427 6.73988 68.8917C8.21945 67.3287 9.31076 65.4511 9.96135 63.4266C10.6119 65.4511 11.7033 67.3287 13.1828 68.8917C12.1965 69.3427 11.1052 69.6049 9.96135 69.6049ZM17.611 61.9581C17.611 64.549 16.3099 66.8252 14.3371 68.2203C12.1125 65.9861 10.7903 62.9965 10.6329 59.8602H17.3172C17.5061 60.5315 17.611 61.2238 17.611 61.9581ZM10.6119 58.5385V56.063C10.3811 56.0315 10.1607 56.021 9.96135 56.021C9.75148 56.021 9.54161 56.042 9.31076 56.063V58.5385H3.11967C4.37887 56.0315 6.96024 54.3112 9.95085 54.3112C12.9415 54.3112 15.5334 56.0315 16.7821 58.5385H10.6119Z" fill="black"/>
</svg>
