<?xml version="1.0" encoding="utf-8"?>
<!-- Generator: Adobe Illustrator 24.2.0, SVG Export Plug-In . SVG Version: 6.00 Build 0)  -->
<svg width="116" height="124" version="1.1" id="Layer_1" xmlns="http://www.w3.org/2000/svg" xmlns:xlink="http://www.w3.org/1999/xlink" x="0px" y="0px"
	 viewBox="0 0 116 124" style="enable-background:new 0 0 116 124;" xml:space="preserve">
<path d="M7.5,68.2c-1.2,0-2.4,0-3.6,0c0-0.1,0-0.2,0-0.3c0-3.6,0-7.2,0-10.8c0-1.2,0.6-2.2,1.7-2.7c1.2-0.6,2.3-0.5,3.4,0.3
	c0.5,0.4,0.8,0.8,1,1.4c0.6,1.6,1.2,3.2,1.9,4.9c0,0,0,0.1,0,0.1c0.1,0.2,0.1,0.2,0.3,0.2c0.2,0,0.3-0.1,0.3-0.2
	c0.2-0.5,0.4-1,0.6-1.6c0.5-1.2,0.9-2.3,1.4-3.5c1-2.5,4.1-2.4,5.4-0.8c0.5,0.6,0.7,1.3,0.7,2.1c0,2.8,0,5.7,0,8.5
	c0,0.8,0,1.6,0,2.4c-0.4,0.1-3.2,0.1-3.7,0c0-0.1,0-0.3,0-0.4c0-2.2,0-4.4,0-6.6c0-0.2,0.1-0.5,0.1-0.7c0.3-0.8,0.6-1.5,0.9-2.2
	c0-0.1,0.1-0.2,0.1-0.3c-0.4-0.1-0.4-0.1-0.6,0.2c-0.6,1.4-1.2,2.9-1.8,4.3c-0.2,0.4-0.3,0.8-0.5,1.3c-0.9,1.9-3.2,2.4-4.8,1.2
	c-0.5-0.3-0.8-0.8-1-1.3c-0.4-1-0.8-2-1.2-3c-0.3-0.8-0.7-1.7-1-2.5c-0.1-0.3-0.1-0.3-0.6-0.2c0,0.1,0,0.2,0.1,0.3
	c0.3,0.7,0.6,1.5,0.9,2.2c0.1,0.2,0.1,0.5,0.1,0.7c0,2.3,0,4.6,0,6.9C7.5,67.9,7.5,68,7.5,68.2z"/>
<path d="M74.8,68.2c0-4.7,0-9.3,0-13.9c0.1,0,0.2,0,0.3,0c2.5,0,5.1,0,7.6,0c0.9,0,1.7,0.2,2.4,0.6c1.4,0.7,2,2.4,1.5,3.9
	c-0.3,0.7-0.8,1.2-1.5,1.4c-0.4,0.1-0.7,0.1-1.1,0.2c-0.2,0-0.3,0.1-0.3,0.3c0,0.2,0.1,0.2,0.3,0.2c0.3,0,0.7,0.1,1,0.2
	c1.4,0.3,2.3,1.4,2.3,2.9c0.1,2-1,3.3-2.8,3.9c-0.7,0.2-1.5,0.4-2.3,0.4c-2.3,0-4.6,0-6.9,0C75.1,68.2,75,68.2,74.8,68.2z
	 M78.4,65.1c0.1,0,0.2,0.1,0.3,0.1c1,0,2.1,0,3.1,0c0.4,0,0.8-0.1,1.1-0.4c0.8-0.5,0.8-1.5,0-2c-0.4-0.3-0.8-0.4-1.3-0.4
	c-0.9,0-1.9,0-2.8,0c-0.1,0-0.3,0-0.4,0C78.4,63.4,78.4,64.2,78.4,65.1z M78.4,59.6c0.1,0,0.2,0,0.3,0c1,0,1.9,0,2.9,0
	c0.2,0,0.5-0.1,0.7-0.2c0.4-0.2,0.7-0.5,0.7-1c0-0.4-0.2-0.8-0.6-1c-0.3-0.1-0.6-0.2-0.9-0.2c-0.8,0-1.7,0-2.5,0c-0.1,0-0.3,0-0.4,0
	C78.4,58.1,78.4,58.8,78.4,59.6z"/>
<path d="M100.7,68.2c0-4.6,0-9.2,0-13.9c3.6,0,7.1,0,10.7,0c0.1,0.3,0.1,2.9,0,3.4c-0.2,0-0.3,0-0.5,0c-1.9,0-3.8,0-5.6,0
	c-0.7,0-1.1,0.5-1.1,1.2c0.1,0.5,0.4,0.8,0.8,0.9c0.2,0,0.4,0,0.5,0c1.3,0,2.6,0,3.9,0c0.2,0,0.3,0,0.5,0c0.1,1,0,2,0,3
	c-0.2,0-0.4,0-0.5,0c-1.3,0-2.7,0-4,0c-0.1,0-0.3,0-0.4,0c-0.6,0.1-0.9,0.5-0.9,1c0,0.6,0.4,1,1,1c0.1,0,0.3,0,0.4,0
	c1.8,0,3.6,0,5.4,0c0.2,0,0.3,0,0.5,0c0,1.1,0,2.2,0,3.3C111.1,68.2,101.3,68.3,100.7,68.2z"/>
<path d="M33.4,64.8c0,1.1,0,2.2,0,3.4c-0.9,0.1-1.8,0-2.7,0c-0.9,0-1.8,0-2.7,0c-0.9,0-1.8,0-2.7,0c-0.9,0-1.8,0-2.7,0
	c0-4.7,0-9.3,0-13.9c0.3-0.1,10.2-0.1,10.7,0c0.1,0.3,0.1,2.8,0,3.3c-0.2,0-0.3,0-0.5,0c-1.8,0-3.6,0-5.4,0c-0.1,0-0.2,0-0.3,0
	c-0.6,0-1,0.4-1,1c0,0.6,0.4,1,0.9,1.1c0.1,0,0.3,0,0.5,0c1.3,0,2.6,0,3.9,0c0.2,0,0.3,0,0.5,0c0.1,0.4,0.2,2.3,0.1,3
	c-0.1,0-0.3,0-0.5,0c-1.3,0-2.7,0-4,0c-0.1,0-0.2,0-0.3,0c-0.7,0-1.1,0.4-1.1,1.1c0,0.6,0.4,1,1.1,1c1.9,0,3.8,0,5.6,0
	C33,64.8,33.2,64.8,33.4,64.8z"/>
<path d="M63.7,65.5c-0.2,0.9-0.5,1.8-0.7,2.7c-1.3,0-2.5,0-3.8,0c0.1-0.5,0.3-1,0.4-1.5c0.9-3.2,1.7-6.4,2.6-9.5
	c0.6-2.1,2.6-3.5,4.9-3.1c1.7,0.3,2.9,1.3,3.4,3c0.6,2,1.1,4.1,1.7,6.2c0.4,1.5,0.8,3,1.2,4.6c0,0.1,0.1,0.3,0.1,0.5
	c-0.1,0-0.3,0-0.4,0c-1,0-2,0-3,0c-0.4,0-0.4,0-0.5-0.4c-0.2-0.7-0.3-1.4-0.5-2.1c-0.1-0.2-0.1-0.3-0.4-0.3c-1.6,0-3.3,0-4.9,0
	C63.9,65.4,63.8,65.4,63.7,65.5z M65.7,57.7c-0.4,1.5-0.8,3-1.2,4.5c0.4,0.1,3.3,0.1,3.7,0c-0.4-1.5-0.8-3-1.2-4.4
	C66.6,57.7,66.2,57.7,65.7,57.7z"/>
<path d="M48.9,68.2c-1.3,0-2.5,0-3.8,0c-0.2-0.9-0.5-1.8-0.7-2.8c-0.2,0-0.3,0-0.4,0c-1.5,0-3,0-4.5,0c-0.5,0-0.5,0-0.6,0.5
	c-0.2,0.6-0.3,1.3-0.5,1.9c-0.1,0.4-0.1,0.4-0.5,0.4c-1,0-2,0-2.9,0c-0.1,0-0.2,0-0.4,0c0-0.1,0-0.2,0.1-0.3
	c0.8-2.9,1.6-5.9,2.4-8.8c0.2-0.7,0.3-1.3,0.5-2c0.5-1.6,1.5-2.6,3.1-3c1.6-0.4,3.1,0,4.3,1.3c0.4,0.4,0.7,1,0.9,1.6
	c0.4,1.5,0.8,2.9,1.2,4.4c0.6,2.2,1.2,4.3,1.7,6.5C48.8,67.9,48.8,68,48.9,68.2z M43.6,62.2c0-0.1,0-0.2-0.1-0.3
	c-0.2-0.7-0.4-1.4-0.6-2.1c-0.2-0.6-0.3-1.2-0.4-1.8c-0.1-0.2-0.2-0.4-0.4-0.3c-0.2,0-0.4,0-0.6,0c-0.5,0-0.5,0-0.6,0.4
	c-0.3,1.3-0.7,2.6-1,3.9c0,0.1,0,0.1,0,0.2C41.1,62.2,42.3,62.2,43.6,62.2z"/>
<path d="M55.8,68.2c-1.2,0-2.4,0-3.7,0c0-0.2,0-0.4,0-0.6c0-2.7,0-5.4,0-8c0-0.8-0.4-1.4-1.2-1.8c-0.2-0.1-0.5-0.1-0.7-0.1
	c-0.7,0-1.3,0-2,0c-0.1,0-0.3,0-0.4,0c-0.1-0.3-0.1-2.7,0-3.3c0.3-0.1,11.7-0.1,12.3,0c0.1,0.3,0.1,2.7,0,3.3c-0.1,0-0.3,0-0.4,0
	c-0.6,0-1.2,0-1.9,0c-1.3-0.1-2.1,1-2.1,2c0,2.6,0,5.3,0,7.9C55.8,67.8,55.8,68,55.8,68.2z"/>
<path d="M88.8,68.1c0-4.6,0-9.2,0-13.8c0.3-0.1,3.2-0.1,3.7,0c0,0.2,0,0.3,0,0.5c0,2.7,0,5.3,0,8c0,0.4,0.1,0.8,0.3,1.2
	c0.4,0.5,0.9,0.8,1.5,0.8c1.4,0,2.8,0,4.2,0c0.2,0,0.3,0,0.5,0c0,1.1,0,2.2,0,3.3C98.8,68.2,89.2,68.2,88.8,68.1z"/>
</svg>
