<svg width="116" height="116" viewBox="0 0 116 116" fill="none" xmlns="http://www.w3.org/2000/svg">
<path fill-rule="evenodd" clip-rule="evenodd" d="M26.6973 48.2947H10.7344V56.1263H18.5762C18.8555 56.1263 19.0918 56.3579 19.0918 56.6316V64.211H27.1914V48.7789C27.2129 48.5053 26.9766 48.2947 26.6973 48.2947Z" fill="black"/>
<path opacity="0.405" fill-rule="evenodd" clip-rule="evenodd" d="M10.7344 48.2947V56.1263H3.25781C3.10742 56.1263 3 56.0211 3 55.8737C3 55.8105 3.02148 55.7474 3.08594 55.7053L10.7344 48.2947ZM19.5215 71.642C19.4141 71.747 19.2637 71.747 19.1562 71.642C19.1133 71.6 19.0918 71.537 19.0918 71.474V64.211H27.1914L19.5215 71.642Z" fill="black"/>
<path opacity="0.405" fill-rule="evenodd" clip-rule="evenodd" d="M10.7344 56.1263H18.834C18.9629 56.1263 19.0918 56.2316 19.0918 56.3789V64.211H11.25C10.9707 64.211 10.7344 64 10.7344 63.726V56.1263Z" fill="black"/>
<path fill-rule="evenodd" clip-rule="evenodd" d="M108.94 47.7895C109.391 48.2316 109.928 48.4421 110.551 48.4421C111.196 48.4421 111.733 48.2316 112.184 47.7895C112.635 47.3474 112.872 46.8421 112.872 46.2316C112.872 45.6421 112.635 45.1158 112.184 44.6737C111.755 44.2316 111.174 44 110.551 44C109.928 44 109.391 44.2316 108.94 44.6737C108.489 45.1158 108.253 45.6421 108.253 46.2526C108.253 46.8421 108.489 47.3474 108.94 47.7895ZM59.7838 53.5158C59.7838 53.5579 59.7408 53.6 59.6979 53.6H56.5182V59.432C56.5182 59.916 56.6471 60.274 56.9049 60.505C57.1627 60.737 57.528 60.863 58.0006 60.884C58.4518 60.905 58.9889 60.905 59.6119 60.884H59.6979C59.7408 60.884 59.7838 60.926 59.7838 60.968V64.084C59.7838 64.126 59.7408 64.168 59.6979 64.168H59.6334C57.1412 64.421 55.3795 64.189 54.3483 63.453C53.2955 62.716 52.7799 61.368 52.7799 59.453V53.6H50.3522C50.3092 53.6 50.2662 53.5579 50.2662 53.5158V50.2105C50.2662 50.1684 50.3092 50.1263 50.3522 50.1263H52.7799V47.8105C52.7799 47.7474 52.8229 47.6842 52.8873 47.6632L56.3893 46.1684C56.4322 46.1474 56.4752 46.1684 56.4967 46.2105C56.4967 46.2316 56.4967 46.2316 56.4967 46.2526V50.1474H59.6764C59.7194 50.1474 59.7623 50.1895 59.7623 50.2316L59.7838 53.5158ZM66.5514 52.5474C66.8951 51.6421 67.4752 50.9684 68.2701 50.5263C69.0651 50.0842 69.9459 49.8526 70.8483 49.8526C70.8912 49.8526 70.9342 49.8947 70.9342 49.9368V53.7263C70.9342 53.8105 70.8697 53.8526 70.8053 53.8526C70.8053 53.8526 70.8053 53.8526 70.7838 53.8526C69.7096 53.7684 68.7428 53.9789 67.8834 54.5474C66.9811 55.1158 66.5299 56.0842 66.5299 57.4316V64.042C66.5299 64.084 66.4869 64.126 66.444 64.126H62.8776C62.8346 64.126 62.7916 64.084 62.7916 64.042V50.2105C62.7916 50.1684 62.8346 50.1263 62.8776 50.1263H66.444C66.4869 50.1263 66.5299 50.1684 66.5299 50.2105L66.5514 52.5474ZM84.1901 50.1263C84.1471 50.1263 84.1041 50.1684 84.1041 50.2105V51.7895C82.9869 50.4211 81.4186 49.7474 79.399 49.7474C77.4654 49.7474 75.8112 50.4632 74.4362 51.8947C73.0612 53.3263 72.3737 55.0737 72.3737 57.1368C72.3737 59.2 73.0612 60.968 74.4362 62.379C75.8112 63.811 77.4654 64.526 79.399 64.526C81.4186 64.526 82.9869 63.853 84.1041 62.484V64.063C84.1041 64.105 84.1471 64.147 84.1901 64.147H87.7565C87.7994 64.147 87.8424 64.105 87.8424 64.063V50.2105C87.8424 50.1684 87.7994 50.1263 87.7565 50.1263H84.1901ZM77.2076 60C77.9596 60.737 78.9049 61.095 80.0651 61.095C81.2252 61.095 82.1705 60.716 82.944 59.979C83.6959 59.242 84.0826 58.2947 84.0826 57.1368C84.0826 55.9789 83.6959 55.0316 82.944 54.2947C82.192 53.5579 81.2252 53.1789 80.0651 53.1789C78.9049 53.1789 77.9596 53.5579 77.2076 54.2947C76.4557 55.0316 76.0905 55.9789 76.0905 57.1368C76.0905 58.2947 76.4557 59.242 77.2076 60ZM104.407 51.8947C103.032 50.4632 101.356 49.7474 99.422 49.7474C97.4029 49.7474 95.8346 50.4211 94.7389 51.7895V50.2105C94.7389 50.1684 94.6959 50.1263 94.6529 50.1263H91.0865C91.0436 50.1263 91.0006 50.1684 91.0006 50.2105V69.642C91.0006 69.684 91.0436 69.726 91.0865 69.726H94.6529C94.6959 69.726 94.7389 69.684 94.7389 69.642V62.484C95.8346 63.853 97.4029 64.526 99.422 64.526C101.378 64.526 103.032 63.811 104.407 62.379C105.782 60.947 106.469 59.2 106.469 57.1368C106.469 55.0737 105.782 53.3053 104.407 51.8947ZM95.8561 60C96.608 60.737 97.5533 61.095 98.7135 61.095C99.874 61.095 100.819 60.716 101.592 59.979C102.344 59.242 102.731 58.2947 102.731 57.1368C102.731 55.9789 102.344 55.0316 101.592 54.2947C100.84 53.5579 99.874 53.1789 98.7135 53.1789C97.5533 53.1789 96.608 53.5579 95.8561 54.2947C95.1041 55.0316 94.7389 55.9789 94.7389 57.1368C94.7389 58.2947 95.1041 59.242 95.8561 60ZM108.768 64.147C108.725 64.147 108.682 64.105 108.682 64.063V50.2105C108.682 50.1684 108.725 50.1263 108.768 50.1263H112.335C112.378 50.1263 112.421 50.1684 112.421 50.2105V64.042C112.421 64.084 112.378 64.126 112.335 64.126L108.768 64.147ZM42.2955 55.0316C41.7799 54.8 41.5221 54.4842 41.5221 54.1263C41.5221 53.7684 41.6725 53.4947 41.9948 53.2842C42.317 53.0737 42.7037 52.9684 43.1979 52.9684C44.1217 52.9684 44.8092 53.3263 45.2819 54.0211C45.3248 54.0632 45.3678 54.0842 45.4323 54.0632L48.569 52.7158C48.6119 52.6947 48.6334 52.6526 48.6119 52.6105C48.569 52.5474 48.5475 52.4842 48.5045 52.4421C47.9674 51.6211 47.2584 51.0105 46.399 50.5474C45.4323 50.0421 44.358 49.7684 43.1979 49.7684C41.6295 49.7684 40.3405 50.1684 39.2877 50.9684C38.235 51.7684 37.7194 52.8421 37.7194 54.2316C37.7194 55.1368 37.9772 55.9158 38.4928 56.5053C38.9869 57.0947 39.6315 57.5579 40.3619 57.8316C41.0709 58.1053 41.8229 58.3368 42.5533 58.5263C43.2838 58.7158 43.9069 58.9263 44.4225 59.158C44.9381 59.389 45.1959 59.684 45.1959 60.063C45.1959 60.863 44.5299 61.263 43.1979 61.263C41.9303 61.263 41.0494 60.8 40.5768 59.895C40.5338 59.811 40.4479 59.789 40.3619 59.811L37.2252 61.158C37.1823 61.179 37.1608 61.221 37.1823 61.263L37.2252 61.326C38.3209 63.453 40.319 64.505 43.2194 64.505C44.8737 64.505 46.2487 64.126 47.3658 63.347C48.483 62.568 49.0201 61.474 49.0201 60.021C49.0201 59.074 48.7623 58.2737 48.2467 57.6421C47.7741 57.0316 47.1295 56.5684 46.3776 56.2737C45.6686 56 44.9166 55.7895 44.1862 55.6C43.4127 55.4526 42.7897 55.2632 42.2955 55.0316Z" fill="black"/>
</svg>
