<svg width="116" height="116" viewBox="0 0 116 116" fill="none" xmlns="http://www.w3.org/2000/svg">
<path d="M38.675 54.585C38.675 52.6383 36.85 50.57 33.565 50.57C29.915 50.57 25.9 53.2467 25.2917 58.6C24.6833 63.9533 27.9683 66.3867 31.375 66.3867C34.7817 66.3867 36.485 65.0483 38.31 63.345C36.7283 61.3983 34.7817 62.25 34.4167 62.4933C33.8083 62.8583 33.0783 62.98 32.3483 62.98C31.01 62.98 29.6717 62.3717 29.6717 59.9383C37.945 59.0867 38.675 56.5317 38.675 54.585ZM34.5383 54.8283C34.5383 55.4367 34.295 56.41 30.0367 57.0183C30.8883 53.855 32.5917 53.6117 33.4433 53.6117C34.0517 53.6117 34.5383 54.0983 34.5383 54.7067V54.8283ZM20.425 55.4367L18.4783 61.52L17.14 50.935C14.0983 50.935 12.395 53.125 11.5433 55.4367L9.23167 61.6417L8.86667 55.5583C8.745 52.76 6.06834 51.0567 4 51.0567L6.555 66.3867C9.71834 66.3867 11.5433 64.1967 12.395 61.885L14.3417 56.6533C14.3417 56.8967 15.68 66.3867 15.68 66.3867C18.8433 66.3867 20.6683 64.3183 21.52 62.1283L26.0217 51.0567C22.8583 50.935 21.2767 53.125 20.425 55.4367ZM50.4767 50.57C48.53 50.57 46.9483 51.665 45.7317 53.2467L46.8267 44C44.15 44 42.0817 46.3117 41.595 49.7183L39.6483 66.265C41.1083 66.265 42.8117 65.7783 43.6633 64.6833C44.3933 65.6567 45.61 66.5083 47.3133 66.5083C51.6933 66.5083 54.735 61.2767 54.735 56.5317C54.735 51.9083 52.545 50.57 50.4767 50.57ZM49.99 58.4783C49.5033 61.155 48.0433 62.98 46.5833 62.98C45.1233 62.98 44.515 62.3717 44.515 62.3717C44.7583 59.9383 45.0017 58.6 45.4883 57.2617C45.975 55.9233 47.3133 53.9767 48.6517 53.9767C49.8683 53.9767 50.4767 55.68 49.99 58.4783ZM65.8067 50.935H62.765V50.8133C63.0083 48.745 63.495 47.7717 65.0767 47.5283C66.1717 47.4067 66.6583 46.92 66.78 46.19L67.145 44C60.94 44 58.9933 46.6767 58.5067 50.8133V50.935H58.385C57.4117 50.935 56.3167 52.03 56.0733 53.49L55.9517 53.9767H58.02L56.3167 68.455L55.83 71.01C55.9517 71.01 55.9517 71.01 56.0733 71.01C58.9933 70.8883 60.8183 68.5767 61.305 65.2917L62.6433 53.9767H63.6167C64.59 53.9767 65.685 53.0033 65.9283 51.4217L65.8067 50.935ZM81.8667 50.57C78.3383 50.57 74.9317 53.2467 73.8367 57.3833C72.7417 61.52 74.3233 66.3867 79.6767 66.3867C85.03 66.3867 87.95 61.2767 87.95 57.0183C87.95 52.8817 85.1517 50.57 81.8667 50.57ZM83.3267 58.3567C83.0833 60.1817 82.3533 63.1017 80.0417 63.1017C77.73 63.1017 78.095 59.8167 78.3383 58.235C78.5817 56.5317 79.555 54.0983 81.5017 54.0983C83.4483 53.9767 83.57 56.1667 83.3267 58.3567ZM105.713 55.4367L103.766 61.52C103.766 61.0333 102.428 50.935 102.428 50.935C99.3867 50.935 97.6833 53.125 96.8317 55.4367L94.52 61.6417C94.52 61.155 94.155 55.5583 94.155 55.5583C93.9117 52.76 91.3567 51.0567 89.2883 51.0567L91.7217 66.265C94.885 66.265 96.71 64.075 97.5617 61.7633L99.5083 56.5317C99.5083 56.775 100.846 66.265 100.846 66.265C104.01 66.265 105.835 64.1967 106.686 62.0067L111.188 50.935C108.146 50.935 106.443 53.0033 105.713 55.4367ZM68.7267 44L66.1717 65.17L65.685 67.725C65.8067 67.725 65.8067 67.725 65.9283 67.725C68.7267 67.725 70.6733 65.17 71.0383 62.1283L72.4983 50.0833C72.985 46.3117 70.795 44 68.7267 44Z" fill="black"/>
</svg>
