<svg width="116" height="116" viewBox="0 0 116 116" fill="none" xmlns="http://www.w3.org/2000/svg">
<path d="M77.5785 47.9851C76.9234 47.7561 76.2627 47.547 75.5992 47.3519C75.7107 46.8969 75.8111 46.4418 75.9058 45.9839C77.4057 38.6067 76.4244 32.6625 73.079 30.7065C69.8703 28.8297 64.6209 30.7856 59.3214 35.4636C58.8001 35.9243 58.2871 36.402 57.7909 36.8881C57.4564 36.5631 57.1163 36.2465 56.7706 35.9328C51.2118 30.9326 45.6446 28.8269 42.3021 30.7885C39.0961 32.6709 38.1455 38.2562 39.4948 45.249C39.6286 45.9415 39.7819 46.6312 39.9492 47.3152C39.1602 47.5413 38.3992 47.7844 37.6716 48.0416C31.1594 50.3424 27 53.9519 27 57.6942C27 61.5609 31.4632 65.4361 38.2486 67.7877C38.7978 67.9771 39.3526 68.1524 39.9129 68.3163C39.7317 69.054 39.57 69.7974 39.4306 70.5436C38.1427 77.4149 39.1491 82.8676 42.3467 84.7386C45.6502 86.6686 51.1923 84.6846 56.5894 79.9026C57.0159 79.5235 57.4452 79.1221 57.8718 78.7038C58.4126 79.2324 58.9673 79.7436 59.5333 80.2416C64.7603 84.8036 69.9233 86.6436 73.1181 84.7696C76.4188 82.8336 77.4893 76.974 76.0982 69.8426C75.9923 69.2971 75.8668 68.7431 75.7302 68.175C76.1205 68.0591 76.5024 67.9375 76.8732 67.8132C83.9263 65.4446 88.5121 61.6146 88.5121 57.697C88.5149 53.9378 84.2218 50.3057 77.5785 47.9851ZM61.0442 37.4732C65.5855 33.4652 69.8285 31.8823 71.7632 33.0158C73.8234 34.2199 74.6235 39.0787 73.3299 45.4469C73.2463 45.8624 73.1515 46.275 73.054 46.6877C70.5031 46.0913 67.7321 45.6475 64.83 45.3705C63.1406 42.9312 61.3871 40.7124 59.6308 38.7904C60.0908 38.3381 60.562 37.9 61.0442 37.4732ZM45.1651 60.8882C45.7226 61.9764 46.3025 63.0533 46.9102 64.1161C47.5291 65.1986 48.1731 66.2671 48.8422 67.3185C46.8266 67.0896 44.9281 66.7815 43.1718 66.3943C43.7127 64.6164 44.3817 62.7678 45.1651 60.8882ZM45.1623 54.6218C44.3985 52.7817 43.7433 50.9727 43.2081 49.2259C44.9644 48.8274 46.835 48.5023 48.7836 48.2564C48.1313 49.2881 47.5012 50.3368 46.8991 51.3995C46.2941 52.4595 45.7143 53.5336 45.1623 54.6218ZM46.559 57.7564C47.3674 56.0463 48.24 54.3702 49.1767 52.728C50.1106 51.0858 51.1058 49.4803 52.1596 47.9144C53.9884 47.7731 55.8646 47.6996 57.7602 47.6996C59.6643 47.6996 61.5432 47.7731 63.372 47.9144C64.4147 49.4775 65.4043 51.0773 66.3354 52.711C67.2721 54.3504 68.1558 56.0181 68.9866 57.714C68.1642 59.4269 67.2833 61.1115 66.3438 62.7622C65.4127 64.4044 64.4286 66.0127 63.3915 67.5899C61.5656 67.7227 59.681 67.7906 57.7575 67.7906C55.8423 67.7906 53.98 67.7312 52.1875 67.6125C51.1253 66.0409 50.1217 64.427 49.1823 62.7763C48.2456 61.1397 47.3702 59.4636 46.559 57.7564ZM68.6186 64.0991C69.2375 63.0109 69.8313 61.9086 70.4028 60.7949C71.2252 62.6943 71.9193 64.5344 72.4685 66.2812C70.6844 66.6939 68.758 67.0274 66.7313 67.2733C67.3808 66.2275 68.0109 65.1676 68.6186 64.0991ZM70.3777 54.6246C69.809 53.5307 69.218 52.4482 68.6075 51.3797C68.0053 50.3254 67.3836 49.2853 66.7369 48.2621C68.6995 48.5136 70.5812 48.8472 72.3459 49.257C71.8162 50.9784 71.1555 52.7789 70.3777 54.6246ZM57.7881 40.6926C59.0008 42.0239 60.2135 43.5107 61.4066 45.1246C58.9841 45.0087 56.5587 45.0087 54.1361 45.1218C55.3321 43.5248 56.5559 42.0409 57.7881 40.6926ZM43.6179 33.0949C45.6753 31.888 50.2277 33.6094 55.0227 37.9283C55.3293 38.2053 55.636 38.4936 55.9454 38.7932C54.1584 40.7379 52.3938 42.9539 50.7044 45.3677C47.8107 45.6391 45.0424 46.0772 42.4972 46.6623C42.3411 46.0263 42.1989 45.3847 42.0735 44.7402C40.9193 38.7452 41.686 34.2284 43.6179 33.0949ZM40.6182 65.747C40.1081 65.6 39.6007 65.4389 39.0989 65.2637C36.0993 64.2235 33.6237 62.8724 31.9232 61.3998C30.3983 60.0741 29.6261 58.7598 29.6261 57.6914C29.6261 55.4217 32.9658 52.5245 38.5358 50.5544C39.2355 50.3085 39.9408 50.0824 40.6517 49.8789C41.4211 52.4171 42.4303 55.0712 43.6485 57.7564C42.4191 60.4812 41.396 63.1777 40.6182 65.747ZM54.8582 77.8898C52.4718 80.0036 50.0799 81.5046 47.9724 82.2596C46.0795 82.9376 44.5713 82.9576 43.6597 82.4236C41.7194 81.2896 40.9137 76.909 42.0121 71.0326C42.1431 70.3373 42.2937 69.6476 42.461 68.9608C44.9811 69.5261 47.7689 69.9331 50.7518 70.1762C52.4523 72.6042 54.2365 74.8371 56.0318 76.7902C55.6499 77.1718 55.2596 77.5364 54.8582 77.8898ZM57.8606 74.8795C56.6145 73.5171 55.3739 72.0106 54.1584 70.3882C55.3349 70.4362 56.5364 70.4588 57.7575 70.4588C59.012 70.4588 60.2497 70.4306 61.4708 70.374C60.2748 72.0247 59.0649 73.5341 57.8606 74.8795ZM73.8178 78.5851C73.4526 80.5866 72.7139 81.9236 71.805 82.4576C69.8675 83.5966 65.7193 82.1156 61.2505 78.2148C60.7376 77.7682 60.2218 77.2905 59.7033 76.7846C61.4373 74.8625 63.1685 72.6268 64.8607 70.1451C67.8352 69.8765 70.6453 69.4413 73.1906 68.842C73.316 69.3565 73.4275 69.8596 73.5223 70.3514C74.1384 73.5086 74.2248 76.3578 73.8178 78.5851ZM76.048 65.2778C75.7107 65.3908 75.365 65.5011 75.0138 65.6057C74.236 63.107 73.185 60.4501 71.8998 57.7055C73.1264 55.026 74.1356 52.4029 74.8939 49.9184C75.5239 50.1022 76.1344 50.2972 76.7227 50.5035C82.4153 52.4906 85.8861 55.4273 85.8861 57.6914C85.8861 60.1024 82.1365 63.2342 76.048 65.2778Z" fill="black"/>
<path d="M57.7547 52.1982C60.8035 52.1982 63.275 54.6829 63.275 57.7478C63.275 60.8127 60.8035 63.2973 57.7547 63.2973C54.7059 63.2973 52.2343 60.8127 52.2343 57.7478C52.2343 54.6829 54.7059 52.1982 57.7547 52.1982Z" fill="black"/>
</svg>
