<svg width="116" height="116" viewBox="0 0 116 116" fill="none" xmlns="http://www.w3.org/2000/svg">
<path fill-rule="evenodd" clip-rule="evenodd" d="M38.9113 51.5691C39.0679 51.7375 39.1775 51.9671 39.1619 52.212V64.6865C39.1619 64.9467 39.0679 65.2069 38.8799 65.4059C38.692 65.5895 38.4257 65.6967 38.1594 65.6967C38.0028 65.6967 37.8462 65.6661 37.6895 65.6202C37.5642 65.5742 37.4546 65.4977 37.3606 65.4059L29.0904 54.8906V64.7783C29.106 65.2528 28.7301 65.6661 28.2289 65.6814C28.1976 65.6814 28.1819 65.6814 28.1506 65.6814C27.9156 65.6814 27.6807 65.5895 27.524 65.4212C27.3517 65.2528 27.2578 65.0232 27.2578 64.7936V52.2885C27.2578 52.0283 27.3674 51.7681 27.571 51.5844C27.7433 51.4008 27.9939 51.3089 28.2445 51.3089C28.4012 51.3089 28.5735 51.3395 28.7144 51.4008C28.8711 51.4467 28.9964 51.5538 29.0904 51.661L37.3136 62.2069V52.212C37.2979 51.7375 37.6739 51.3242 38.1751 51.3089C38.2064 51.3089 38.2221 51.3089 38.2534 51.3089C38.4883 51.3089 38.7233 51.3855 38.8799 51.5691H38.9113ZM55.9373 51.5997C56.1096 51.7987 56.2192 52.0589 56.2035 52.3038V60.2018C56.2192 61.212 55.9686 62.2222 55.4674 63.11C54.9975 63.9671 54.2926 64.6712 53.4311 65.1457C52.554 65.6508 51.5515 65.911 50.5178 65.8957C49.4996 65.8957 48.4815 65.6508 47.5731 65.161C46.7116 64.6865 46.0067 63.9824 45.5368 63.1406C45.0356 62.2375 44.785 61.2426 44.8007 60.2171V52.3191C44.8007 52.0589 44.8946 51.7987 45.1139 51.6151C45.5212 51.2324 46.1634 51.2324 46.5706 51.6151C46.7586 51.7987 46.8682 52.0436 46.8682 52.3191V60.1865C46.8525 60.86 47.0248 61.5181 47.3694 62.1151C48.0116 63.2171 49.2177 63.9059 50.5178 63.9059C52.601 63.9212 54.277 62.2834 54.2926 60.2477C54.2926 60.2324 54.2926 60.2018 54.2926 60.1865V52.3191C54.2926 52.0589 54.3709 51.7987 54.5432 51.5997C54.7312 51.4008 54.9818 51.2936 55.2481 51.3089C55.5144 51.3089 55.765 51.4161 55.9373 51.5997ZM72.2114 64.1202C72.3367 64.2885 72.3994 64.4875 72.3837 64.7018C72.3994 64.962 72.2898 65.2222 72.0861 65.4059C71.8982 65.5742 71.6632 65.6661 71.4126 65.6661C71.0837 65.6814 70.7704 65.513 70.5824 65.2528L66.51 59.9263L62.5002 65.2528C62.3279 65.5283 62.0146 65.6814 61.6857 65.6814C61.4351 65.6814 61.2158 65.5895 61.0435 65.4212C60.8869 65.2681 60.7772 65.0538 60.7772 64.8395C60.7772 64.5946 60.8712 64.3497 61.0278 64.1661L65.3509 58.4263L61.0122 52.7324C60.6989 52.3497 60.7302 51.7834 61.0905 51.4467C61.3881 51.1406 61.858 51.064 62.2496 51.263C62.4062 51.3242 62.5315 51.4314 62.6255 51.5691L66.6666 56.8651L70.6451 51.6151C70.8174 51.3548 71.115 51.1865 71.4439 51.1559C71.6945 51.1559 71.9452 51.2783 72.1175 51.462C72.2898 51.6151 72.3994 51.8446 72.4151 52.0742C72.4151 52.3038 72.3367 52.5028 72.1958 52.6865L67.8101 58.3804L72.1958 64.1202H72.2114ZM87.3265 51.5691C87.5145 51.7375 87.6398 51.9977 87.6241 52.2579C87.6241 52.5181 87.5145 52.763 87.3109 52.9314C87.1229 53.0997 86.8566 53.1916 86.5903 53.1763H82.8625V64.7171C82.8625 64.9773 82.7685 65.2222 82.5649 65.4059C82.1263 65.7885 81.4684 65.7885 81.0299 65.4059C80.8263 65.2222 80.7166 64.9773 80.7166 64.7171V53.1763H76.9887C76.7225 53.1763 76.4719 53.0997 76.2682 52.9161C76.0646 52.7324 75.9706 52.4875 75.9706 52.2273C75.9706 51.9824 76.0646 51.7375 76.2526 51.5691C76.4562 51.3855 76.7225 51.2936 76.9731 51.3089H86.5903C86.8566 51.3089 87.1229 51.3855 87.3265 51.5691Z" fill="black"/>
<path fill-rule="evenodd" clip-rule="evenodd" d="M91.901 65.3293C91.2275 64.962 90.6479 64.411 90.2564 63.7528C90.1467 63.5998 90.0841 63.4008 90.0684 63.2018C90.0684 62.9416 90.178 62.6967 90.3817 62.5283C90.554 62.3447 90.7889 62.2528 91.0395 62.2222C91.4154 62.2681 91.76 62.4518 91.9793 62.7426C92.4492 63.5079 93.295 63.9671 94.1878 63.9365C95.6759 63.9824 96.9133 62.8344 96.9603 61.3804C96.9603 61.3498 96.9603 61.3344 96.9603 61.3038V52.3038C96.9603 52.0283 97.0699 51.7834 97.2735 51.5998C97.4771 51.4161 97.7434 51.3089 98.0097 51.3089C98.2916 51.3089 98.5579 51.4008 98.7615 51.5844C98.9495 51.7681 99.0591 52.0283 99.0435 52.2885V61.3191C99.0748 62.9722 98.1663 64.5028 96.694 65.2987C95.2216 66.1095 93.4204 66.1255 91.901 65.3293ZM106.39 65.3906C105.56 65.0844 104.792 64.6253 104.134 64.013C103.868 63.814 103.711 63.5079 103.696 63.1865C103.696 62.9263 103.805 62.6814 104.009 62.513C104.181 62.3293 104.432 62.2222 104.683 62.2222C104.918 62.2222 105.121 62.2987 105.293 62.4518C105.795 62.911 106.39 63.2936 107.016 63.5691C107.674 63.814 108.363 63.9365 109.053 63.9365C109.836 63.9518 110.619 63.7528 111.292 63.3242C111.841 63.0181 112.201 62.4518 112.201 61.8242C112.217 61.1661 111.872 60.5385 111.292 60.1712C110.447 59.6967 109.523 59.36 108.567 59.2069C107.126 58.9008 106.014 58.4416 105.231 57.7834C104.448 57.1253 104.072 56.2069 104.072 55.0436C104.056 54.2783 104.275 53.5283 104.73 52.9008C105.184 52.2885 105.795 51.7987 106.515 51.4926C108.144 50.8651 109.945 50.8344 111.59 51.4161C112.295 51.6457 112.937 52.013 113.47 52.5028C113.752 52.7171 113.94 53.0385 113.94 53.3753C113.94 53.6202 113.846 53.8651 113.658 54.0334C113.485 54.2324 113.235 54.3396 112.968 54.3396C112.812 54.3396 112.624 54.2783 112.499 54.1712C111.574 53.36 110.384 52.9161 109.147 52.9161C108.363 52.8702 107.58 53.0691 106.907 53.4671C106.045 54.0181 105.826 55.1508 106.39 55.9926C106.531 56.1916 106.703 56.36 106.907 56.4977C107.674 56.9416 108.504 57.2477 109.382 57.4161C110.306 57.5844 111.198 57.8753 112.06 58.2273C112.718 58.5181 113.282 58.962 113.673 59.5436C114.081 60.2171 114.269 60.9671 114.237 61.7477C114.253 62.513 114.018 63.2477 113.564 63.86C113.094 64.5028 112.436 64.9926 111.684 65.2987C109.977 65.9416 108.097 65.9722 106.374 65.3906H106.39Z" fill="black"/>
<path fill-rule="evenodd" clip-rule="evenodd" d="M6.98867 65.1916L6.94168 65.1457C6.8477 64.962 6.8477 64.763 6.8477 64.5793H2.21136L9.15021 52.5487L12.0323 57.6457L12.9564 56.9722L10.0744 51.86C10.0274 51.7681 9.68276 51.2324 9.10322 51.2324C8.85261 51.2324 8.46102 51.3242 8.17908 51.86L1.17759 64.0436C1.1306 64.1355 0.832986 64.7171 1.1306 65.1916C1.22458 65.4365 1.52218 65.6661 2.16437 65.6661H8.02245C7.38026 65.6661 7.09832 65.4212 6.98867 65.1916Z" fill="black"/>
<path fill-rule="evenodd" clip-rule="evenodd" d="M20.2858 64.0896L14.6626 54.2018C14.5687 54.11 14.271 53.5742 13.6915 53.5742C13.4409 53.5742 13.112 53.6661 12.7674 54.2018L12.0312 55.3498V57.6457L13.6915 54.8293L19.2676 64.5793H17.1688C17.2001 64.7783 17.1688 64.9773 17.0748 65.1457V65.1916C16.7772 65.6661 16.1506 65.6661 16.041 65.6661H19.3616C19.4556 65.6661 20.0978 65.6661 20.3954 65.1916C20.4894 64.9467 20.5834 64.564 20.2858 64.0896Z" fill="black"/>
<path d="M17.217 65.1916V65.1457L17.2639 65.0538C17.3109 64.9161 17.3579 64.7171 17.3109 64.5793L17.123 64.0589L12.7059 56.4977L12.0637 55.3498H12.0324L11.3902 56.4977L6.94178 64.0436L6.80081 64.564C6.76949 64.7783 6.80081 64.9926 6.89479 65.1916C7.03576 65.4365 7.33337 65.6661 7.92857 65.6661H16.1362C16.2772 65.6661 16.9193 65.6661 17.217 65.1916ZM12.0324 57.6457L16.0892 64.564H8.02255L12.0324 57.6457Z" fill="black"/>
</svg>
