<svg width="116" height="116" viewBox="0 0 116 116" fill="none" xmlns="http://www.w3.org/2000/svg">
<path d="M34.4722 45.3394H51.6356V46.7056H36.0455V56.9877H50.7059V58.3539H36.0455V69.6427H51.8144V71.0089H34.4722V45.3394ZM53.1732 45.3394H54.9968L63.0779 56.6282L71.3378 45.3394L82.5726 31L64.1148 57.8146L73.6262 71.0089H71.7311L63.0779 59.001L54.3889 71.0089H52.5295L62.1124 57.8146L53.1732 45.3394ZM74.3056 46.7056V45.3394H93.8648V46.7056H84.854V71.0089H83.2807V46.7056H74.3056ZM13 45.3394H14.9666L42.0855 85.979L30.8786 71.0089L14.6448 47.2808L14.5733 71.0089H13V45.3394ZM93.7063 69.2304C93.3848 69.2304 93.1438 68.981 93.1438 68.6587C93.1438 68.3363 93.3848 68.0869 93.7063 68.0869C94.0316 68.0869 94.2688 68.3363 94.2688 68.6587C94.2688 68.981 94.0316 69.2304 93.7063 69.2304ZM95.2523 67.7262H96.0941C96.1056 68.1829 96.4385 68.4898 96.9283 68.4898C97.4755 68.4898 97.7855 68.1598 97.7855 67.542V63.6281H98.6427V67.5459C98.6427 68.6587 97.9998 69.2995 96.936 69.2995C95.9372 69.2995 95.2523 68.6779 95.2523 67.7262ZM99.7639 67.6763H100.613C100.686 68.202 101.199 68.5359 101.937 68.5359C102.626 68.5359 103.131 68.179 103.131 67.6879C103.131 67.2658 102.81 67.0125 102.079 66.8398L101.367 66.6672C100.368 66.4331 99.9131 65.9496 99.9131 65.1361C99.9131 64.1499 100.717 63.4938 101.922 63.4938C103.043 63.4938 103.862 64.1499 103.912 65.0824H103.078C102.997 64.572 102.554 64.2535 101.911 64.2535C101.233 64.2535 100.782 64.5797 100.782 65.0785C100.782 65.4738 101.073 65.7002 101.792 65.869L102.4 66.0187C103.533 66.2834 104 66.7439 104 67.5766C104 68.6357 103.181 69.2995 101.872 69.2995C100.648 69.2995 99.8251 68.6664 99.7639 67.6763Z" fill="black"/>
</svg>
