<?xml version="1.0" encoding="utf-8"?>
<!-- Generator: Adobe Illustrator 24.2.0, SVG Export Plug-In . SVG Version: 6.00 Build 0)  -->
<svg width="115" height="124" version="1.1" id="Layer_1" xmlns="http://www.w3.org/2000/svg" xmlns:xlink="http://www.w3.org/1999/xlink" x="0px" y="0px"
	 viewBox="0 0 115 124" style="enable-background:new 0 0 115 124;" xml:space="preserve">
<style type="text/css">
	.st0{fill-rule:evenodd;clip-rule:evenodd;}
</style>
<g id="g16">
	<path id="path22" class="st0" d="M10.2,61.2c0,0-0.1,0.1-0.1,0.1c0,0.1,0,0.1-0.1,0.2c0,0.1-0.2,0.1-0.2,0.2c0,0.1-0.1,0.2-0.1,0.2
		c0,0.1-0.1,0.1-0.1,0.2c0,0-0.1,0.2-0.1,0.2c0,0.1-0.1,0.1-0.1,0.2c0,0-0.1,0.1-0.1,0.1c-0.1,0-0.1,0.1-0.1,0.2
		c0,0.1-0.1,0.1-0.1,0.2c0,0-0.1,0.3-0.1,0.3c-0.1,0,0,0.5,0,0.6c0,0.2,0.1,0.4,0.2,0.5c0,0,0,0.1,0.1,0.1c0,0,0.1,0.1,0.1,0.1
		c0,0.1,0.4,0.1,0.4,0.2c0.2,0,0.2,0.1,0.4,0.1c0,0,0.4,0.1,0.5,0.1c0,0.1,0.2,0,0.2,0.1c0.1,0,0.3,0,0.4,0c0.1,0,0.3,0.1,0.4,0.1
		c0,0.1,0.3,0.1,0.4,0.1c0.2,0,0.3,0,0.5,0c0.2,0,0.5,0.1,0.7,0.1c0,0.1,0.6,0,0.6,0c0-0.1,0.6-0.1,0.7-0.1c0.1,0,0.2,0,0.4-0.1
		c0.1,0,0.2-0.1,0.3-0.1c0.2,0,0.2-0.1,0.4-0.1c0,0,0.3-0.1,0.3-0.1c0-0.1,0.1-0.1,0.2-0.1c0-0.1,0.1-0.1,0.2-0.2
		c0.1-0.1,0.2-0.3,0.2-0.4c0.1,0,0-0.3,0-0.4c-0.1,0-0.1-0.1-0.2-0.1c-0.1,0-0.3,0-0.4,0c0,0-0.3,0.1-0.3,0.1c-0.1,0-0.2,0-0.3,0
		c0,0-0.2,0-0.2,0c0,0.1-0.5,0-0.5,0.1c0,0-0.2,0-0.2,0c-0.1,0-0.3,0-0.3,0c-0.1,0-0.4,0-0.4,0c0,0-1,0.2-1.1,0.2
		c-0.1,0-0.1,0-0.3,0c-0.1,0-0.1,0-0.2,0c0-0.1,0,0-0.1-0.1c-0.1,0-0.1,0-0.1-0.1c-0.1-0.1-0.1-0.1-0.1-0.2c0,0-0.1-0.2-0.1-0.2
		c0-0.1-0.2-0.4-0.2-0.4c0-0.1,0-0.1,0-0.2c0-0.1,0-0.2,0-0.2c0,0,0-0.2,0-0.2c0-0.1,0-0.3,0-0.3c0.1,0,0.1-0.3,0.1-0.3
		c0,0,0-0.1,0.1-0.1c0-0.1,0.1-0.1,0.1-0.2c0.1-0.1,0.2-0.1,0.3-0.2c0,0,0.3,0,0.3,0c0.1,0,0.5,0,0.5-0.1c0.1,0,0.2,0,0.3,0
		c0.1,0,0.1,0,0.2,0c0-0.1,0.5-0.1,0.6-0.1c0,0,0.1,0,0.2,0c0,0,0.2,0,0.3,0c0.2,0,0.3-0.1,0.5-0.1c0.2,0,0.3-0.1,0.4-0.1
		c0.1,0,0.3,0,0.4,0c0.1,0,0.1,0,0.2,0c0,0,0.5-0.1,0.5-0.1c0,0,0.2-0.1,0.3-0.1c0.1,0,0.3-0.1,0.4-0.1c0,0,0.1-0.1,0.1-0.1
		c0.1,0,0.2,0,0.2,0c0.1,0,0.2,0,0.3,0c0.1,0,0.2-0.1,0.2,0c0,0,0.3,0,0.3,0c0.1,0,0.1,0,0.2,0c0,0,0.3,0.1,0.4,0.1c0,0,0.1,0,0.1,0
		c0.1,0,0.1,0.1,0.2,0.1c0.1,0,0.1,0.1,0.1,0.2c0,0.1,0.1,0.2,0.1,0.3c0.1,0,0.1,0.1,0.1,0.2c0,0.1,0.1,0.2,0.1,0.4
		c0,0,0.1,0.3,0.1,0.3c0,0,0.1,0.3,0.1,0.3c0,0.1,0,0.2,0.1,0.3c0,0.1,0,0.3-0.1,0.4c0,0.1-0.1,0.2-0.1,0.2c0,0,0,0.1-0.1,0.1
		c0,0-0.1,0.1-0.1,0.2c0,0-0.1,0.1-0.1,0.2c0,0,0,0.2-0.1,0.2c0,0-0.1,0.2-0.1,0.2c0,0.1-0.1,0.2-0.1,0.4c0,0-0.1,0.3-0.1,0.3
		c0,0.2-0.1,0.3-0.1,0.5c0,0.1,0,0.2,0,0.2c0,0,0,0.1,0,0.1c-0.1,0,0,0.3,0,0.3c0,0.1-0.1,0.1-0.1,0.3c0,0.1-0.1,0.4-0.1,0.4
		c0,0,0,0.2,0,0.2c0,0.1,0,0.2,0,0.4c0,0.1,0,0.2,0,0.3c0,0,0,0.2,0,0.2c0,0.1,0,0.1,0,0.2c0,0.1,0,0.2,0,0.3c0.1,0,0,0.5,0,0.6
		c0,0.2-0.1,0.3-0.1,0.6c0,0.2-0.1,0.3-0.2,0.5c-0.1,0-0.9,0.5-1.1,0.4c0,0,0,0-0.1,0c0,0-0.1,0-0.1-0.1c-0.1,0-0.1-0.1-0.2-0.1
		c0,0-0.4-0.1-0.4-0.1c0,0-0.1,0-0.1-0.1c0,0-0.1,0-0.1,0c-0.1-0.1-0.3-0.1-0.2-0.3c0-0.1,0-0.1,0-0.2c0,0,0-0.2-0.1-0.2
		c0-0.3,0-0.5,0-0.7c0-0.2,0-0.5,0-0.7c0,0,0.1-0.5,0.1-0.6c0-0.1,0-0.3-0.1-0.3c-0.1-0.1-0.1-0.1-0.2,0c0,0-0.3,0.1-0.3,0.1
		c0,0-0.2,0.1-0.2,0.1c-0.1,0-0.2,0.1-0.2,0.1c0,0.1-0.4,0-0.4,0.1c-0.2,0-0.3,0.1-0.4,0.1c-0.2,0-0.2,0.1-0.4,0.1
		c-0.1,0-0.3,0.1-0.4,0c-0.1,0-0.2-0.1-0.4,0c-0.2,0-0.3,0-0.4,0c-0.1,0-0.3,0-0.4,0c0,0.1-1.1-0.1-1.2-0.1c0,0-0.4-0.1-0.4-0.1
		c-0.2,0-0.3-0.1-0.5-0.1c-0.1,0-0.2-0.1-0.3-0.1c0,0-0.1,0-0.1,0c-0.1,0-0.3-0.1-0.3-0.1c-0.1,0-0.2-0.2-0.4-0.2
		c0,0-0.2-0.1-0.3-0.1c-0.1-0.1-0.2-0.2-0.2-0.2c-0.1,0-0.2-0.1-0.2-0.2c0,0-0.1-0.1-0.1-0.1c-0.1-0.1-0.1-0.1-0.1-0.2
		c0,0-0.1-0.1-0.1-0.2c0,0-0.1-0.1-0.1-0.2c0-0.1-0.1-0.3-0.1-0.4c0-0.1,0-0.1-0.1-0.2c0,0-0.1-0.1-0.1-0.1c0,0,0-0.3,0-0.3
		c0-0.2-0.1-2,0-2c0-0.1,0-0.4,0.1-0.4c0,0,0.1-0.4,0.1-0.5c0-0.1,0.1-0.4,0.1-0.4c0-0.1,0.1-0.2,0.2-0.4C7.9,61,7.9,60.8,8,60.7
		c0-0.1,0.1-0.1,0.1-0.2c0.1-0.1,0.1-0.2,0.2-0.2c0-0.1,0.1-0.1,0.1-0.1c0.1-0.1,0.1-0.1,0.2-0.2c0.1,0,0.1-0.1,0.1-0.1
		c0-0.1,0-0.1,0.1-0.1c0,0,0-0.1,0-0.1c0.1-0.1,0.3-0.4,0.3-0.4c0-0.1,0.1-0.2,0.2-0.3c0,0,0.1-0.2,0.2-0.2c0,0,0,0,0,0
		c0.1,0,0,0,0.1-0.1c0-0.1,0.1-0.2,0.2-0.2c0.1-0.1,0.1-0.1,0.2-0.1c0.1-0.1,0.6-0.7,0.7-0.7c0,0,0.1-0.1,0.1-0.1
		c0,0,0.2-0.1,0.2-0.1c0,0,0.6-0.5,0.8-0.7c0,0,0.1-0.1,0.2-0.1c0.1,0,0.1-0.1,0.1-0.1c0,0,0.1,0,0.1-0.1c0,0,0.1-0.1,0.1-0.1
		c0.1,0,0-0.1,0.1-0.1c0.1-0.1,0.2-0.1,0.3-0.2c0,0,0.1-0.2,0.2-0.2c0.1-0.1,0.1-0.1,0.2-0.2c0.1-0.1,0.3-0.1,0.3-0.2
		c0,0,0.1-0.1,0.2-0.1c0-0.1,0.1-0.1,0.2-0.1c0,0,0.2,0,0.2-0.1c0,0,0.1,0,0.1-0.1c0.1,0,0.2,0,0.3,0c0,0,0.2,0,0.3,0
		c0.1,0,0.3,0,0.4,0c0.1,0,0.1,0,0.2,0c0.2,0,0.3,0.1,0.5,0.1c0,0,0.2,0,0.2,0c0.1,0,0.2,0,0.3,0.1c0.2,0.1,0.4,0.3,0.6,0.5
		c0.1,0.1,0.3,0.3,0.3,0.4c0.1,0,0.1,0.3,0.2,0.3c0,0.2,0.1,0.4,0.1,0.5c0.1,0,0.1,0.3,0.1,0.4c0,0,0,0.3,0.1,0.3c0,0.1,0,0.2,0,0.3
		c0,0.1-0.1,0.2-0.1,0.3c0,0-0.1,0.1-0.1,0.1c-0.1,0.1-0.1,0.1-0.2,0.2c-0.1,0.1-0.5,0.1-0.5,0.2c-0.1,0-0.3,0.1-0.4,0.1
		c-0.1,0-0.2,0-0.2,0c-0.1,0-0.1-0.1-0.1-0.1c0-0.1-0.1-0.1-0.1-0.2c-0.1,0-0.1-0.1-0.1-0.2c-0.1,0-0.1-0.3-0.2-0.3
		c0,0-0.1-0.3-0.1-0.3c0-0.1-0.2-0.2-0.2-0.3c-0.1-0.1-0.2-0.1-0.2-0.1c-0.1,0-0.2-0.1-0.2,0c-0.1,0-0.1,0.1-0.2,0.1
		c-0.1,0-0.1,0.1-0.2,0.1c0,0-0.2,0.1-0.2,0.1c-0.1,0-0.1,0-0.2,0.1c0,0-0.2,0.1-0.2,0.1c-0.1,0.1-0.2,0.1-0.2,0.1
		c-0.1,0-0.1,0.1-0.2,0.1c-0.1,0-0.1,0.1-0.2,0.1c0,0-0.1,0.1-0.1,0.1c-0.1,0.1-0.2,0.1-0.2,0.2c-0.2,0.1-0.4,0.2-0.5,0.4
		c-0.1,0-0.2,0.1-0.3,0.2c-0.1,0.1-0.2,0.1-0.2,0.2c-0.1,0.1-0.1,0.2-0.2,0.2c-0.1,0.1-0.3,0.2-0.3,0.3c-0.1,0.1-0.2,0.1-0.2,0.2
		c-0.1,0-0.2,0.2-0.2,0.2c0,0,0,0,0,0c-0.1,0,0,0.1-0.1,0.1c0,0.1-0.1,0.1-0.1,0.2c-0.1,0.1-0.2,0.2-0.2,0.3c0,0-0.1,0.1-0.1,0.1
		c-0.1,0-0.1,0.1-0.1,0.2C10.4,61.1,10.3,61.2,10.2,61.2"/>
	<path id="path24" class="st0" d="M33.3,60c0,0.1-0.1,0.1-0.2,0.2c0,0.1-0.1,0.2-0.1,0.3C33,60.7,33,60.9,33.2,61
		c0,0,0.1,0.1,0.2,0.1c0.1,0,0.2,0,0.3,0c0,0,0.6,0,0.6,0c0,0,0.2,0,0.2,0c0.1,0,0.2,0,0.3,0c0,0,0.4,0,0.4-0.1
		c0.1,0,0.6-0.1,0.6-0.1c0.1-0.1,0.3-0.1,0.5-0.1c0.2,0,0.3,0,0.5,0c0.1,0,0.3,0.1,0.3,0.2c0.1,0,0.1,0.1,0.1,0.2
		c0,0.1,0.1,0.1,0.1,0.2c0,0,0.1,0.3,0.2,0.3c0,0.1,0.1,0.2,0.1,0.4c0,0.1,0,0.1,0.1,0.3c0,0,0.1,0.3,0.1,0.4c0,0,0.1,0.4,0.1,0.5
		c0,0.1-0.1,0.2-0.2,0.2c-0.1,0.1-0.2,0.1-0.3,0.1c0,0-0.1,0.1-0.1,0.1c-0.1,0-0.2,0-0.3,0c-0.1,0-0.2,0.1-0.4,0.1
		c-0.2,0-0.4,0-0.6,0c-0.1,0-0.2,0-0.3,0c-0.1,0-0.2,0-0.3,0c-0.1,0-0.6,0-0.6,0c-0.2,0-0.3,0.1-0.5,0.1c0,0-0.3,0.1-0.4,0.1
		c-0.1,0-0.2,0-0.3,0c-0.1,0-0.2,0-0.4,0c-0.1,0-0.1,0-0.2,0c-0.1,0-0.2,0-0.2,0c0,0-0.1,0-0.1,0.1c-0.1,0-0.1,0-0.2,0.1
		c0,0.1-0.1,0.2-0.1,0.2c-0.1,0.1,0,0.1-0.1,0.2c-0.1,0.2,0,0.3,0.1,0.4c0.1,0,0.1,0.1,0.2,0.1c0,0,0.1,0.1,0.1,0.1
		c0,0.1,0.3,0.1,0.4,0.1c0,0,0.4,0,0.4,0.1c0.1,0,0.1,0,0.2,0c0,0.1,0.3,0,0.3,0c0.2,0,0.3,0,0.4,0c0,0,0.2-0.1,0.3-0.1
		c0-0.1,0.2-0.1,0.3-0.2c0.1,0,0.1,0,0.2,0c0.1,0,0.1,0,0.2,0c0.1,0,0.1,0,0.2,0.1c0,0,0.1,0.1,0.1,0.1c0.1,0.1,0.3,0.4,0.3,0.4
		c0.1,0.1,0.3,0.4,0.3,0.6c0,0,0.1,0.3,0.1,0.4c0,0,0,0.2,0,0.2c0,0.1,0,0.2,0,0.3c0,0,0,0.3,0,0.4c0,0-0.1,0.3-0.1,0.4
		c-0.1,0,0,0.1-0.1,0.2c0,0.2-0.4,0.5-0.4,0.4c0.2,0-1.2,0.4-1.2,0.3c-0.1,0-0.2,0-0.3,0c-0.1,0-0.2,0-0.3,0c-0.1,0-0.3-0.1-0.4-0.1
		c0,0-0.3-0.1-0.3-0.1c-0.1,0-0.2-0.1-0.4-0.1c0,0-0.1,0-0.1-0.1c-0.1,0-0.2,0-0.3-0.1c0-0.1-0.4,0-0.4-0.1c0,0-0.3-0.1-0.3-0.1
		c-0.1,0-0.2-0.1-0.2-0.1c-0.1,0-0.1-0.1-0.2-0.1c0,0-0.1-0.1-0.2-0.1c0,0-0.1-0.1-0.2-0.1c-0.1-0.1-0.1-0.1-0.1-0.2
		c0,0,0-0.1-0.1-0.1c0,0-0.1-0.1-0.2-0.1c0,0-0.1-0.1-0.1-0.1c-0.1,0,0,0-0.1-0.1c0-0.1-0.1-0.1-0.1-0.2c0,0-0.1-0.1-0.1-0.1
		c0-0.1,0,0,0-0.1c0,0,0-0.1,0-0.1c-0.1,0-0.1-0.3-0.1-0.3c0-0.1-0.1-0.3-0.1-0.4c-0.1,0,0-0.6-0.1-0.6c0-0.1,0-0.1,0-0.2
		c0,0,0-0.3,0-0.4c0-0.1,0.1-0.4,0-0.4c0-0.1,0-0.2,0-0.3c0-0.1,0-0.1,0-0.2c0-0.3,0.1-0.5,0.2-0.8c0-0.2,0.1-0.3,0.1-0.4
		c0,0,0.1-0.1,0.1-0.1c0,0,0.1-0.1,0.1-0.1c0,0,0.1-0.1,0.1-0.1c0,0,0.1-0.2,0.1-0.2c0-0.2,0.1-0.3,0.2-0.4c0,0,0-0.4,0.1-0.4
		c0.1-0.2-0.1-0.4-0.2-0.5c0,0,0-0.1,0-0.1c0-0.1-0.1-0.1-0.1-0.1c0-0.1-0.1-0.1-0.1-0.2c0,0,0-0.1,0-0.1c-0.1-0.1-0.1-0.1-0.1-0.2
		c-0.1-0.1-0.1-0.4-0.1-0.6c0-0.2,0-0.3,0-0.5c0-0.1,0-0.2,0-0.3c0,0,0.1-0.2,0.1-0.2c0.1,0,0.1-0.2,0.2-0.2c0,0,0.1-0.1,0.1-0.1
		c0-0.1,0.1-0.1,0.1-0.1c0.1-0.1,0.2-0.2,0.3-0.2c0.1,0,0.3,0,0.4,0c0.2,0,0.3-0.2,0.5-0.2c0.2-0.1,0.3-0.1,0.5-0.2
		c0,0,0.2-0.1,0.2-0.1c0.1,0,0.2,0,0.3,0c0.1,0,0.1,0,0.2,0c0.1,0,1.1-0.3,1.2-0.3c0-0.1,0.4-0.1,0.5-0.1c0.1,0,0.1,0,0.2,0
		c0.1,0,0.1,0,0.2,0c0.1,0,0.4-0.1,0.4-0.1c0.1,0,0.1,0,0.2,0c0.1,0,0.2,0,0.3-0.1c0,0,0.2-0.1,0.2-0.1c0.2,0,0.3,0,0.5,0
		c0,0,0.5,0,0.6,0c0.1,0,0.5,0,0.5,0c0.1,0,0.1,0.1,0.2,0.1c0.1,0.1,0.1,0.2,0.2,0.2c0,0.1,0.1,0.2,0.2,0.2c0,0,0.1,0.1,0.1,0.1
		c0,0,0.1,0.1,0.1,0.1c0,0.1,0.1,0.3,0.1,0.3c0.1,0,0.1,0.3,0.2,0.3c0,0.1,0.1,0.2,0.1,0.3c0,0,0.1,0.2,0.1,0.2
		c0.1,0,0.1,0.1,0.1,0.2c0,0.1,0,0.1-0.1,0.2c0,0.1-0.1,0-0.1,0.1c0,0.1,0,0.2-0.1,0.2c-0.1,0.1-0.2,0.1-0.3,0.1
		c0,0-0.3,0.1-0.3,0.1c-0.1,0-0.2,0.1-0.3,0.1c-0.1,0-0.5,0.1-0.5,0.1c-0.1,0-0.2,0.1-0.3,0.1c-0.1,0-0.2,0-0.3,0
		c-0.1,0-0.3,0-0.4,0c-0.1,0-0.2,0-0.3,0c-0.1,0-0.2,0.1-0.3,0.1c-0.1,0-0.2,0.1-0.2,0.1c0,0.1-0.3,0.1-0.4,0.1
		c-0.1,0-0.3,0.1-0.3,0.1c-0.1,0-0.2,0.1-0.3,0.1c0,0.1-0.2,0-0.2,0.1c0,0-0.2,0-0.2,0c0,0-0.1,0-0.1,0c0,0.1-0.3,0.1-0.3,0.1
		C33.6,59.8,33.4,60,33.3,60"/>
	<path id="path26" class="st0" d="M40.9,64.3c0,0.1-0.1,0.1-0.2,0.2c0,0.1-0.1,0.2,0,0.4c0,0.1,0.1,0.2,0.2,0.3
		c0.1,0,0.3,0.1,0.3,0.1c0,0,0.3,0,0.3,0.1c0.1,0,0.2,0.1,0.3,0.1c0,0.1,1,0.1,1,0c0,0,0.1,0,0.2,0c0,0,0.1,0,0.1,0c0.1,0,0,0,0.1,0
		c0-0.1,0.3-0.1,0.4-0.1c0-0.1,0.3,0,0.3-0.1c0.1,0,0.1-0.1,0.2-0.1c0.1,0,0.1-0.1,0.2-0.1c0,0,0.1-0.1,0.2-0.1c0,0,0.1,0,0.2-0.1
		c0.2,0,0.2,0.1,0.4,0.2c0,0,0,0.1,0.1,0.1c0,0.1,0.1,0.1,0.2,0.2c0,0,0,0.1,0,0.1c0,0.1,0,0.1,0.1,0.1c0,0.1,0.1,0.1,0.1,0.2
		c0,0.1,0.1,0.2,0.1,0.3c0.1,0.1,0.1,0.5,0.1,0.6c0,0.1,0,0.2,0,0.3c0,0.1,0,0.2,0,0.3c0,0-0.1,0.1-0.1,0.2c0,0.1-0.1,0.3-0.2,0.4
		c-0.1,0.2-0.2,0.2-0.4,0.2c0,0-0.3,0.1-0.3,0.1c-0.1,0-0.2,0.1-0.3,0.1c-0.1,0-0.9,0.1-1,0.1c-0.1,0-0.6,0.1-0.7,0.1
		c-0.1,0,0,0-0.1,0c0,0-0.2,0-0.2,0c-0.1,0-0.1,0-0.2,0c-0.1,0-0.1,0-0.2,0c-0.1,0-0.3,0-0.4-0.1c-0.1,0-0.1,0-0.2,0
		c-0.1,0-0.2,0-0.2,0c0,0-0.2-0.1-0.2-0.1c-0.1,0-0.3,0-0.3,0c-0.1,0-0.4-0.1-0.4-0.1c-0.1,0-0.2,0-0.3-0.1c-0.1,0-0.1-0.1-0.2-0.2
		c0-0.1-0.1-0.1-0.1-0.2c0,0,0-0.1,0-0.1c0,0-0.1-0.1-0.1-0.2c0-0.1-0.1-0.1-0.1-0.2c-0.1,0-0.1-0.3-0.2-0.3c0-0.1-0.1-0.1-0.1-0.2
		c0,0-0.2-0.1-0.2-0.2c0,0-0.1,0-0.1-0.1c-0.1,0,0-0.1-0.1-0.1c0,0-0.1-0.1-0.1-0.1c0-0.1-0.1-0.4-0.1-0.4c0,0-0.1-0.5-0.1-0.5
		c0-0.1,0-0.3,0-0.4c0-0.2,0.1-0.3,0.1-0.5c0-0.3,0.1-0.5,0.2-0.8c0-0.1,0-0.4,0.1-0.4c0-0.1,0-0.4,0.1-0.4c0-0.1,0-0.2,0-0.3
		c0,0,0-0.1,0-0.2c0,0,0.1-0.4,0.1-0.4c0-0.1,0-0.5,0.1-0.5c0-0.1,0.1-0.4,0.1-0.4c0-0.1,0.1-0.3,0.2-0.4c0,0,0.1-0.2,0.1-0.2
		c0-0.1,0.1-0.1,0.1-0.2c0,0,0.1-0.2,0.1-0.2c0-0.1,0.1-0.1,0.1-0.2c0,0,0.1-0.3,0.1-0.4c0,0,0.1-0.2,0.1-0.2c0,0,0.1-0.4,0.1-0.4
		c0,0,0-0.5,0-0.6c0-0.1,0-0.2,0-0.3c0-0.1,0,0,0-0.1c0,0,0.1-0.1,0.1-0.1c0.1-0.1,0.1-0.1,0.2-0.1c0.1-0.1,0.1-0.1,0.2-0.1
		c0.1,0,0.6-0.2,0.6-0.3c0.1,0,0,0,0.1,0c0,0,0.1,0,0.1,0c0,0,0.2,0,0.2-0.1c0,0,0.2,0,0.2-0.1c0.2,0,0.4-0.1,0.5-0.1
		c0.1,0,0.1,0,0.3,0c0.1,0,0.2,0,0.3-0.1c0,0,0.4,0,0.4-0.1c0.1,0,0.5,0,0.5-0.1c0.2,0,0.4,0,0.5-0.1c0,0,0.1,0,0.1-0.1
		c0,0,0.2,0,0.2-0.1c0.1,0,0.5,0,0.5-0.1c0.1,0,0.1,0,0.2,0c0,0,0.2,0,0.2,0c0.1,0,0.1,0,0.2,0c0.1,0,0.2,0,0.3-0.1
		c0.1,0,0.7,0,0.7,0c0.1,0,0.2,0.1,0.4,0.1c0,0,0,0,0,0c0.1,0,0.1,0,0.2,0.1c0.1,0,0.3,0.3,0.3,0.3c0,0.2,0.1,0.4,0.3,0.5
		c0,0,0.1,0.1,0.1,0.1c0,0,0,0.1,0,0.1c0,0,0.1,0.1,0.1,0.1c0,0,0.1,0.3,0.2,0.3c0,0.2-0.1,0.8-0.2,0.9c-0.1,0-0.1,0.1-0.2,0.1
		c-0.2,0-0.4,0.1-0.6,0c-0.1,0-0.8,0.1-0.9,0.1c-0.1,0-0.2,0-0.2,0c0,0-0.1,0-0.1,0c0,0-0.2,0-0.2,0c0,0-0.2,0-0.2,0
		c-0.4,0-0.8,0.1-1.1,0.1c-0.2,0-1,0.1-1,0.1c0,0-0.2,0.1-0.2,0.1c-0.1,0-0.1,0-0.2,0.1c-0.1,0-0.1,0.1-0.2,0.1c0,0-0.1,0.1-0.2,0.1
		c0,0-0.1,0-0.1,0.1c0,0.1-0.1,0.1-0.1,0.1c-0.1,0-0.1,0.1-0.2,0.1c0,0.1,0,0.1-0.1,0.2c0,0.1-0.1,0.2-0.2,0.3c0,0-0.1,0.1-0.1,0.2
		c-0.1,0.1-0.1,0.2-0.1,0.3c0.1,0,0.1,0.1,0.2,0.1c0.1,0,0.2,0,0.3,0c0,0,0.5,0,0.5-0.1c0.1,0,0.8-0.1,0.8-0.2
		c0.1,0,0.3-0.1,0.4-0.1c0,0,0.3-0.1,0.3-0.1c0.1,0,0.2,0,0.3-0.1c0,0,0.1-0.1,0.2-0.1c0,0,0.3-0.1,0.3-0.1c0.1,0,0.1-0.1,0.2-0.1
		c0.1,0,0.1,0,0.2,0c0,0,0.1,0.1,0.1,0.1c0,0.1,0.1,0,0.1,0.1c0.1,0,0,0,0.1,0.1c0.1,0,0.1,0.1,0.1,0.1c0,0,0.1,0.1,0.1,0.1
		c0.1,0.1,0.2,0.3,0.2,0.4c0.1,0,0.1,0.3,0.2,0.3c0,0,0,0.1,0.1,0.1c0,0,0.1,0.1,0.1,0.1c0,0.1,0,0.2,0,0.2c0,0.1,0,0.2,0,0.3
		c-0.1,0,0,0.5,0,0.5c0,0.1-0.1,0.2-0.2,0.3c0,0.1-0.2,0.2-0.3,0.2c0,0-0.1,0-0.1,0.1c-0.1,0-0.2,0.1-0.3,0.1
		c-0.2,0-0.2,0.1-0.4,0.1c0,0-0.2,0-0.2,0c0,0-0.1,0-0.1,0.1c-0.1,0-0.5,0.1-0.5,0.1c0,0.1-1.3,0.2-1.4,0.2c0,0-0.1,0-0.2,0
		c0,0-0.5,0.1-0.5,0c0,0,0,0-0.1,0c-0.1,0-0.1,0-0.2,0c-0.1,0-0.3,0-0.4,0c0,0.1-0.4,0-0.4,0.1c-0.1,0-0.1,0-0.2,0
		c-0.1,0-0.1,0-0.2,0C41,64.2,41,64.3,40.9,64.3"/>
	<path id="path28" class="st0" d="M65.3,59.6c0,0-0.1,0.1-0.2,0.1c0,0.1-0.2,0.1-0.2,0.1c0,0-0.1,0.1-0.1,0.1c0,0-0.1,0.1-0.1,0.1
		c0,0-0.2,0.1-0.2,0.1c-0.1,0.1-0.2,0.1-0.3,0.2c-0.1,0-0.2,0.1-0.4,0.1c0,0.1-0.2,0-0.3,0.1c-0.1,0-0.2,0-0.3-0.1c0,0,0,0,0-0.1
		c-0.1,0,0-0.1-0.1-0.1c0-0.1,0-0.3-0.1-0.3c0-0.1-0.1-0.4-0.1-0.4c0,0,0-0.2,0-0.2c0-0.1,0-0.1,0-0.2c0-0.1,0-0.1,0-0.2
		c0-0.1,0-0.3,0.1-0.3c0.1,0,0.2,0,0.4,0c0.1,0,0.1,0,0.2,0c0,0,0.2,0,0.2,0.1c0.1,0,0.2,0,0.3,0c0.1,0,0.1,0,0.2,0
		c0.1,0,0.2,0,0.3,0c0,0,0.2,0.1,0.2,0.1c0.1,0,0.2,0.1,0.3,0.1c0,0.1,0.3,0.1,0.4,0.2c0,0,0.1,0.3,0,0.3
		C65.5,59.3,65.4,59.5,65.3,59.6 M78,57.1c0.1,0,0.2,0.8,0.1,0.8c0,0,0,0.3,0,0.4c0,0.1,0,0.2-0.1,0.3c0,0-0.2,0.1-0.2,0.1
		c0,0-0.3,0.1-0.3,0.1c-0.1,0-0.3,0.1-0.4,0.1c0,0-0.4,0-0.5,0.1c-0.3,0.1-0.5,0.1-0.8,0.1c0,0.1-0.4,0-0.4,0.1
		c-0.2,0-0.3,0.1-0.5,0.1c-0.1,0-0.4,0.1-0.4,0.1c-0.1,0-0.2,0-0.3,0c0,0-0.2,0.1-0.2,0.1c-0.2,0-0.3,0.1-0.5,0.1
		c0,0-0.3,0.1-0.4,0.1c0,0.1-0.5,0.1-0.6,0.1c-0.1,0-0.1,0.1-0.2,0.1c0,0-0.2,0-0.3,0c0,0-0.4,0.1-0.4,0.1c0,0-0.2,0-0.2,0
		c-0.1,0-0.1,0.1-0.2,0.1c0,0.1-0.1,0.1-0.1,0.2c-0.1,0-0.1,0.1-0.1,0.2c0,0-0.1,0.1-0.1,0.1c0,0.1,0,0.1-0.1,0.1
		c0,0-0.1,0.1-0.1,0.1c0,0-0.1,0.1-0.1,0.2c0,0-0.1,0.2-0.1,0.2c0,0.1,0,0.1,0,0.2c0,0,0.1,0,0.1,0c0.1,0.1,0.1,0.1,0.2,0.1
		c0,0.1,0.5,0,0.5,0c0.2,0,0.5,0,0.7-0.1c0.1,0,0.2,0,0.4,0c0,0,0.2,0,0.2,0c0,0,0.5,0,0.5-0.1c0.1,0,0.3,0,0.3-0.1
		c0.1,0,0.2-0.1,0.3-0.1c0,0,0.3-0.1,0.3-0.2c0.1,0,0.1,0,0.2-0.1c0,0,0.1,0,0.1-0.1c0,0,0.1-0.1,0.2-0.1c0,0,0.2-0.1,0.2-0.1
		c0.2,0,0.3,0.1,0.4,0.1c0.1,0,0.2,0.1,0.2,0.2c0.1,0,0.1,0.2,0.1,0.2c0.1,0.2,0.1,0.3,0.1,0.4c0,0,0.1,0.3,0.1,0.3
		c0,0,0.1,0.3,0.1,0.3c0,0.1,0.1,0.6,0,0.6c0,0-0.1,0.2-0.1,0.2c0,0-0.1,0.1-0.1,0.1c0,0.1,0,0.1-0.1,0.2c0,0-0.3,0.1-0.3,0.2
		c0,0-0.1,0.1-0.1,0.1c-0.1,0-0.1,0-0.2,0c0,0-0.2,0-0.2,0.1c-0.1,0-0.2,0-0.3,0c-0.3,0-1,0.2-1.2,0.2c-0.1,0-2.7,0.4-2.9,0.4
		c-0.2,0-0.3,0-0.6,0.1c-0.1,0-0.2,0.1-0.4,0.1c-0.1,0-0.1,0-0.1,0.1c-0.1,0,0,0-0.1,0c-0.1,0.1-0.1,0.1-0.2,0.2c0,0.1,0,0.2,0,0.3
		c0,0,0.1,0.2,0.2,0.2c0,0,0.1,0.1,0.1,0.2c0.1,0,0.2,0.1,0.2,0.1c0,0,0.1,0.1,0.2,0.1c0.1,0,0.1,0.1,0.2,0.1c0,0,0.4,0.1,0.5,0.1
		c0.2,0,0.5,0,0.7-0.1c0,0,0.3,0,0.3-0.1c0,0,0.2-0.1,0.2-0.1c0.1,0,0.1-0.1,0.2-0.1c0,0,0.1,0,0.1-0.1c0,0,0.1,0,0.1,0
		c0.1,0,0.2,0,0.2-0.1c0.1,0,0.2-0.1,0.3-0.1c0,0,0.3-0.1,0.3-0.1c0,0,0.4-0.1,0.4-0.1c0.1,0,0.2,0.1,0.3,0.2c0.1,0,0.1,0.1,0.1,0.2
		c0,0,0.1,0.2,0.1,0.2c0,0.2,0.1,0.2,0.1,0.4c0.1,0,0,0.6,0,0.7c0.1,0,0,0.5,0,0.5c0,0,0,0.3-0.1,0.4c0,0.1-0.1,0.2-0.2,0.3
		c0,0.1-0.2,0.2-0.3,0.3c0,0-0.1,0.1-0.2,0.1c0,0-0.1,0-0.1,0c0,0.1-0.2,0.1-0.2,0.1c0,0.1-0.3,0.1-0.3,0.1c0,0.1-0.3,0.1-0.4,0.2
		c-0.1,0-0.2,0.1-0.3,0.1c-0.1,0-0.3,0-0.4,0c0,0-0.1,0-0.1,0c-0.1,0-0.6,0-0.7,0c-0.1,0-0.3,0-0.4,0c-0.1,0-0.2,0-0.3,0
		c0,0-0.3,0-0.3,0c-0.1,0-0.3-0.1-0.4-0.1c-0.1,0-0.4-0.1-0.4-0.1c-0.1,0-0.1,0-0.2,0c0,0-0.1-0.1-0.1-0.1c0-0.1-0.2-0.1-0.2-0.1
		c0,0-0.2-0.1-0.2-0.1c-0.1,0-0.2-0.1-0.2-0.1c-0.1,0-0.1-0.1-0.2-0.1c-0.1-0.1-0.2-0.1-0.2-0.2c-0.2,0-0.2-0.3-0.3-0.3
		c-0.1-0.1-0.1-0.2-0.2-0.2c0,0,0-0.1,0-0.1c-0.1,0,0-0.1-0.1-0.1c0-0.1-0.1-0.1-0.1-0.2c0,0-0.1-0.1-0.1-0.1
		c-0.1,0-0.1-0.5-0.1-0.6c0-0.1-0.1-0.3-0.1-0.5c0-0.1,0-0.2,0-0.3c0-0.2,0-0.3,0-0.5c0-0.1,0-0.2,0-0.4c0,0,0-0.2,0-0.2
		c0,0,0.1-0.4,0.1-0.4c0-0.2,0.1-0.3,0.1-0.4c0,0,0.1-0.4,0.1-0.4c0.1,0,0.1-0.3,0.1-0.3c0,0,0-0.2,0-0.2c0-0.1,0-0.2,0.1-0.2
		c0-0.1,0-0.1,0-0.2c0,0,0.1-0.1,0.1-0.1c0.1,0,0.1-0.3,0.1-0.3c0-0.1,0.1-0.2,0.1-0.4c0-0.1,0.1-0.1,0.1-0.2c0,0,0.1-0.3,0.1-0.4
		c-0.1,0-0.1,0-0.1,0.1c-0.1,0-0.1,0.1-0.2,0.1c0,0-0.1,0.1-0.2,0.1c-0.1,0-1.4,1.1-1.5,1.1c-0.1,0.1-0.1,0.1-0.2,0.1
		c0,0-0.2,0.1-0.3,0.1c0,0-0.2,0-0.2,0.1c-0.1,0-0.1,0-0.2,0c0,0,0,0.1-0.1,0.1c0,0-0.1,0.1-0.1,0.1c0,0-0.2,0.1-0.2,0.1
		c-0.1,0-0.4,0.1-0.4,0.1c0,0-0.2,0-0.2,0.1c-0.1,0-0.1,0.1-0.2,0.1c0,0-0.2,0.1-0.2,0.1c-0.2,0.1-0.4,0.1-0.7,0.2
		c-0.1,0-0.1,0-0.1,0.1c0,0,0,0.1-0.1,0.1c0,0.1-0.1,0.2-0.1,0.3c0,0.2,0,0.4-0.1,0.6c-0.1,0-0.1,0.3-0.1,0.4c0,0,0,0.6-0.1,0.6
		c0,0.1,0,0.4-0.1,0.4c0,0.1,0,0.7,0,0.7c0,0.1-0.1,0.6,0,0.6c0,0.1,0,0.2,0,0.2c0,0.1,0,0.1,0,0.2c0,0-0.1,0.7-0.1,0.8
		c0,0.1,0,0.1,0,0.2c0,0-0.1,0.1-0.1,0.1c-0.1,0-0.1,0.1-0.2,0.1c-0.1,0-0.1,0.1-0.2,0.1c0,0-0.1,0-0.2,0c0,0-0.5,0.1-0.6,0.1
		c-0.1,0-0.1,0-0.2-0.1c0,0-0.1-0.1-0.1-0.1c0-0.1-0.1-0.1-0.1-0.1c0,0-0.1,0-0.2-0.1c-0.1,0-0.3-0.3-0.3-0.3
		c-0.1,0-0.1-0.4-0.1-0.4c0-0.1,0-0.2,0-0.2c-0.1,0,0-0.7,0-0.7c0-0.1,0-0.5,0-0.6c0-0.1,0-0.1,0-0.2c0-0.1,0-0.1,0-0.2
		c0-0.1,0-0.7,0-0.7c0-0.1,0-0.1,0-0.2c0,0,0.1-0.6,0-0.7c0,0-0.3-0.1-0.3-0.1C60,64.1,60,64,59.9,64c-0.1-0.1-0.1-0.1-0.2-0.2
		c0-0.1-0.2-0.1-0.2-0.2c0,0-0.1-0.1-0.1-0.2c-0.1,0-0.1-0.1-0.2-0.2c-0.1,0-0.1-0.2-0.1-0.3c0,0-0.1-0.3-0.1-0.3
		c0,0,0.2-1.2,0.2-1.3c0,0,0.1-0.3,0.1-0.3c0-0.1,0.2-0.3,0.3-0.3c0.1,0,0.2,0,0.3,0c0,0,0.2,0,0.2-0.1c0.1,0,0.2,0,0.3-0.1
		c0-0.1,0.1-0.1,0.1-0.1c0.1,0,0,0,0.1-0.1c0-0.1,0.1-0.2,0.1-0.3c0-0.1,0-0.3,0-0.4c0-0.3,0-0.6,0-0.8c0,0-0.1-0.2-0.1-0.2
		c0,0-0.2,0-0.2-0.1c-0.1,0-0.1,0-0.2,0c-0.1,0-0.2,0-0.3,0c0,0-0.3,0-0.3,0c-0.1,0-0.1,0-0.2,0c-0.1,0-0.2,0.1-0.3,0.1
		c0,0-0.1,0.1-0.2,0.1c-0.1,0.1-0.1,0.1-0.2,0.1c0,0.1-0.4,0.1-0.4,0.1c0,0-0.5,0-0.5,0c-0.1,0-0.2-0.1-0.3-0.1
		c-0.1-0.1-0.2-0.2-0.3-0.3c-0.1,0-0.2,0-0.3,0c-0.1,0.1-0.1,0.2-0.1,0.2c0,0.1,0,0.2-0.1,0.3c-0.1,0.2,0.2,0.3,0.1,0.4
		c0,0.2,0,0.3,0,0.5c0,0.1,0,0.1,0,0.2c0,0.1,0,0.2,0,0.4c0,0.2,0,0.5,0,0.7c0,0.1,0,0.1,0,0.2c0,0.1,0,0.3,0,0.4
		c0,0.1,0,0.2-0.1,0.3c0,0.1,0,0.2,0,0.4c0,0,0,0.3,0,0.3c0,0.1,0,0.2,0,0.3c0,0.2-0.1,0.3-0.1,0.4c0,0.2,0,0.4,0,0.7
		c0,0.2-0.1,0.4,0,0.6c0,0.1,0,0.4,0.1,0.4c0,0.2,0,0.5,0,0.7c0,0.1,0,0.1,0,0.2c0,0.1,0,0.2,0,0.4c0,0.1,0,0.6-0.1,0.6
		c0,0.1-0.1,0.4-0.1,0.4c0,0-0.1,0.3-0.1,0.3c0,0,0,0.1,0,0.1c0,0.1-0.1,0.1-0.1,0.2c0,0-0.2,0.1-0.2,0.1c-0.1,0-0.1,0.1-0.2,0.1
		c0,0-0.8,0-0.8,0c-0.2,0-0.3,0-0.4-0.1c-0.1-0.1-0.1-0.1-0.2-0.2c-0.1-0.1-0.1-0.2-0.2-0.2c0,0-0.1-0.1-0.1-0.1
		c-0.1,0,0-0.2-0.1-0.2c0,0-0.1-0.3-0.1-0.3c0,0,0-0.3-0.1-0.3c0-0.2,0-0.3,0-0.5c0,0-0.1-0.4-0.1-0.4c0,0-0.1-0.3-0.1-0.3
		c0,0-0.1-0.2-0.1-0.2c0-0.1-0.1-0.1-0.1-0.2c0,0-0.1-0.1-0.1-0.2c-0.1,0-0.1-0.3-0.1-0.3c0-0.1-0.1-0.1-0.1-0.2
		C53,65.2,53,65.1,52.9,65c0,0-0.1-0.2-0.1-0.2c0-0.1-0.1-0.1-0.1-0.2c0,0-0.1-0.2-0.1-0.2c0,0,0-0.1,0-0.1c0,0,0-0.1-0.1-0.2
		c-0.1-0.1-0.1-0.2-0.1-0.3c0-0.1-0.1-0.2-0.1-0.2c0,0,0-0.1-0.1-0.2c0-0.1-0.2-0.1-0.2-0.2c-0.1,0-0.2-0.2-0.2-0.2c0,0,0,0-0.1-0.1
		c-0.1,0-0.1,0-0.1,0c0,0-0.1,0-0.1,0c-0.1,0-0.1,0-0.1,0c0,0,0,0,0,0.1c-0.1,0,0,0.1,0,0.1c0,0,0,0.3,0,0.3c0,0.1-0.1,0.6-0.1,0.6
		c0,0.2-0.1,0.4-0.1,0.5c0,0-0.1,0.2-0.1,0.2c-0.1,0,0,0.4-0.1,0.4c0,0,0,0.4,0,0.4c0,0.3,0,0.4,0,0.6c0,0.1,0,0.3,0,0.4
		c0,0.1-0.1,0.2-0.1,0.4c0,0,0,0.3,0,0.3c0,0.1,0,0.1,0,0.2c0,0-0.1,0.2-0.1,0.3c-0.1,0.1-0.1,0.3-0.4,0.2c-0.1,0-0.6-0.1-0.6-0.1
		c-0.1,0-0.2,0-0.3,0c0,0-0.4,0-0.5-0.1c-0.1,0-0.1,0-0.2-0.1c0,0-0.1-0.1-0.1-0.1c-0.1-0.1-0.1-0.2-0.1-0.4c0-0.1-0.1-0.2-0.1-0.3
		c0-0.1,0-0.2,0-0.2c0-0.1,0-0.2,0-0.3c0-0.1,0-0.2,0-0.2c0-0.1,0-0.1,0-0.2c0-0.1,0.1-0.4,0-0.4c0,0,0-0.3,0-0.3c0,0,0-0.1,0-0.1
		c0.1-0.2,0.1-0.4,0.1-0.7c0-0.3,0.2-0.5,0.2-0.8c0.1,0,0-0.4,0.1-0.4c0-0.1,0.1-0.3,0.1-0.4c0,0,0.1-0.5,0.1-0.5
		c0-0.2,0-0.4,0.1-0.6c0-0.1,0.1-0.3,0.1-0.4c0-0.1,0-0.3,0-0.4c0-0.1,0-0.3,0-0.4c0-0.1,0-0.2,0-0.4c0-0.1,0-0.3,0-0.4
		c0-0.1,0-0.2,0-0.3c0-0.3-0.1-0.5-0.1-0.7c0,0-0.1-0.2-0.1-0.3c-0.1,0-0.1-0.5,0-0.5c0-0.1,0-0.1,0-0.2c0-0.1,0-0.1,0-0.2
		c0-0.2,0.1-0.4,0.1-0.6c0-0.1,0.1-0.3,0.1-0.4c0,0,0.2-0.3,0.2-0.4c0.1,0,0.1-0.1,0.1-0.1c0,0,0.2-0.1,0.2-0.1c0.1,0,0.1,0,0.2-0.1
		c0,0,0.2-0.1,0.2-0.1c0-0.1,0.5,0,0.6,0c0.1,0,0.2,0,0.3,0.1c0.1,0,0.2,0.1,0.3,0.2c0,0.1,0.3,0.1,0.3,0.1c0.1,0,0.1,0,0.2,0.1
		c0.1,0,0.1,0.2,0.1,0.2c0.1,0,0.1,0.5,0.1,0.6c0,0,0,0.2,0,0.2c0,0.2,0,0.3,0,0.5c0,0.1,0,0.5,0,0.5c-0.1,0.2,0,0.4,0,0.5
		c0,0,0.1,0.2,0.1,0.3c0,0,0,0.2,0,0.2c0,0.1,0.1,0.1,0.1,0.2c0.1,0,0.1,0.1,0.1,0.2c0,0,0.1,0.1,0.1,0.2c0.1,0,0.1,0.1,0.1,0.2
		c0,0.1,0.1,0.1,0.1,0.2c0.1,0.2,0.3,0.3,0.3,0.4c0,0,0.1,0.1,0.1,0.1c0.1,0,0.1,0.2,0.2,0.2c0,0,0.1,0.1,0.1,0.2
		c0.1,0.1,0.3,0.2,0.3,0.3c0.1,0,0.1,0.1,0.1,0.2c0.1,0,0.2,0.2,0.2,0.3c0.1,0.1,0.2,0.3,0.3,0.3c0.1,0,0.1,0,0.1,0c0,0,0,0,0,0
		c0-0.1,0.1-0.2,0.1-0.3c0,0,0.1-0.1,0-0.1c0-0.1,0-0.2,0-0.3c0,0,0.1-0.5,0.1-0.6c0.1,0,0-0.2,0-0.2c0-0.1,0-0.2,0-0.3
		c0,0,0-0.6,0-0.7c0-0.1,0-0.6,0-0.6c0-0.1,0-0.5,0.1-0.5c0-0.1,0-0.4,0.1-0.4c0-0.1,0.1-0.2,0-0.3c0,0,0-0.4,0-0.4
		c0-0.3,0-0.4,0-0.7c0.1,0,0-0.3,0-0.3c0-0.1,0.1-0.2,0.1-0.3c0.1-0.1,0.3-0.2,0.4-0.3c0,0,0.2,0,0.2,0c0.1,0,0.2,0,0.2,0.1
		c0.2,0,0.3,0.1,0.5,0.2c0,0,0.1,0.1,0.1,0.1c0,0,0,0,0.1,0.1c0,0.1,0.1,0.1,0.1,0.1c0,0,0,0.1,0.1,0.1c0,0,0,0.1,0,0.1
		c0,0.1,0,0.2,0,0.2c0,0.1,0.1,0.3,0.3,0.3c0.1,0,0.1-0.1,0.2-0.1c0,0,0.1-0.1,0.1-0.1c0-0.1,0.1-0.1,0.1-0.2
		c0.1-0.1,0.2-0.2,0.3-0.3c0.2-0.1,0.6-0.1,0.7-0.2c0-0.1,0.1-0.2,0.2-0.2c0-0.1,0.4-0.1,0.4-0.1c0.1,0,0.5-0.1,0.6-0.1
		c0.2-0.1,2.2-0.3,2.2-0.2c0.1,0,1,0,1.1,0c0.1,0,1.4,0.1,1.4,0.1c0,0,0.1,0,0.1,0c0.1,0,0.7,0.1,0.8,0.1c0.2,0,0.3,0.1,0.4,0.1
		c0.1,0,0.8,0.1,0.8,0.2c0.1,0,0.1,0.1,0.2,0.1c0,0,0.3,0.1,0.3,0.1c0,0,0.2,0.1,0.3,0.1c0,0,0.2,0.1,0.2,0.2c0.1,0,0.2,0.1,0.2,0.2
		c0.1,0.1,0.1,0.3,0.2,0.3c0,0.1,0,0,0,0.1c0,0,0,0,0,0.1c0,0.1,0.1,0.2,0.1,0.2c0,0.1,0,0.1,0.1,0.1c0,0,0,0.1,0,0.1
		c0,0.1,0.1,0.2,0.1,0.3c0.1,0,0.1,0.2,0.1,0.3c0,0.2,0.1,0.3,0.1,0.5c0,0.1,0,0.2,0,0.2c0,0.1,0,0.2,0,0.3c-0.1,0-0.1,0.4-0.1,0.5
		c0,0.1-0.1,0.5,0.1,0.4c0.1,0,0.1-0.1,0.1-0.1c0.1-0.1,0.2-0.1,0.2-0.2c0.1,0,0.1-0.1,0.1-0.2c0-0.1,0.1-0.1,0.1-0.2
		c0.1,0,0.1-0.2,0.1-0.2c0,0,0.1-0.2,0.1-0.2c0,0,0.1-0.3,0.1-0.3c0,0,0.1-0.3,0.1-0.3c0-0.2,0.1-0.2,0.1-0.4c0,0,0-0.1,0-0.1
		c0.1,0,0-0.1,0.1-0.1c0.1-0.1,0.1-0.1,0.1-0.2c0-0.1,0.1-0.2,0.1-0.2c0.1,0,0.1-0.1,0.1-0.1c0.1-0.1,0.1-0.1,0.1-0.2
		c0,0,0-0.1,0-0.1c0-0.1,0.2-0.2,0.3-0.3c0,0,0.4-0.1,0.4-0.1c0,0,0.4-0.1,0.4-0.1c0.1,0,0.5,0,0.5-0.1c0.1,0,0.8-0.2,0.8-0.2
		c0,0,2.3-0.6,2.3-0.6c0,0,1-0.3,1-0.3c0,0,0.3,0,0.3-0.1c0.1,0,0.1,0,0.2,0c0,0,0.5-0.1,0.5-0.1c0,0,0.2,0,0.2,0
		c0.1,0,0.1,0.1,0.2,0.1c0.1,0.1,0.1,0.2,0.2,0.2c0,0,0.1,0,0.1,0.1c0,0,0.2,0.5,0.3,0.7C77.9,56.7,78,57.1,78,57.1"/>
	<path id="path30" class="st0" d="M99.9,65c0.1,0,0.4,0,0.4,0c0,0,0.1-0.1,0.1,0c0.1,0,0.2,0.1,0.3,0.1c0.1,0,0.2,0,0.2,0
		c0.1,0,0.1,0,0.2,0c0.1,0,0.1,0.1,0.1,0.2c0,0.1,0,0.1,0,0.2c0,0-1.3,0.2-1.4,0.2c0,0.1-1.4,0.2-1.5,0.2c0,0-0.2,0-0.2,0
		c-0.1,0-0.3,0-0.3,0c0,0,0,0-0.1,0c0,0-0.1,0-0.1,0c0,0-0.2-0.1-0.2-0.1c-0.1,0-0.4-0.2-0.4-0.3c0-0.1,0.1-0.2,0.2-0.2
		c0.1-0.1,0.2-0.1,0.3,0c0,0,0.2,0,0.3,0c0,0,0.1,0,0.1,0c0.1,0,1-0.1,1.2-0.1C99.2,65,99.8,64.9,99.9,65 M82.1,59.5
		c0.1,0,0.1,0.2,0.1,0.3c0,0.1,0,0.6,0.1,0.6c0,0.1,0,0.6,0,0.6c0,0.2,0,0.3,0,0.4c-0.1,0,0,0.1-0.1,0.1c0,0-0.1,0.2-0.1,0.2
		c-0.1,0.1-0.2,0.1-0.3,0.1c-0.1,0-0.2,0.1-0.4,0.1c-0.1,0-0.3,0-0.3-0.1c-0.2-0.1-0.1-0.3,0-0.5c0,0,0-0.1,0-0.1
		c0,0,0.1-0.2,0.1-0.2c0,0,0.1-0.2,0.1-0.3c0-0.1,0.1-0.2,0.1-0.3c0.1,0,0.1-0.2,0.1-0.2c0-0.1,0.1-0.1,0.1-0.2
		c0-0.1,0.1-0.1,0.1-0.2c0,0,0.1-0.2,0.1-0.3c0,0,0-0.1,0-0.1C81.8,59.5,82,59.4,82.1,59.5 M83,56.4c0.1,0,0.1,0.1,0.2,0.2
		c0,0,0.4,0.5,0.4,0.6c0,0,0.1,0.1,0.1,0.2c0,0,0.1,0.2,0.1,0.2c0,0,0.1,0.1,0.1,0.2c0,0.1,0.1,0.1,0.1,0.2c0,0,0.1,0.1,0.1,0.2
		c0,0,0.1,0.1,0.1,0.1c0.1,0,0.1,0.6,0.1,0.7c0,0.2,0.1,0.3,0.1,0.4c0.1,0,0.1,0.4,0.1,0.4c0,0,0.1,0.4,0.1,0.4c0,0.1,0,0.4,0.1,0.4
		c0,0,0,0.2,0,0.2c0,0.1,0,0.1,0,0.2c0,0.1,0,0.4,0.2,0.4c0.1,0,0.2-0.2,0.2-0.2c0,0,0.1-0.1,0.1-0.1c0.1,0,0.1-0.2,0.2-0.2
		c0-0.1,0.1-0.2,0.1-0.2c0-0.1,0.1-0.1,0.1-0.2c0,0,0.1-0.1,0.1-0.1c0-0.1,0-0.1,0-0.1c0,0,0.1-0.1,0.1-0.1c0.1,0,0.1-0.2,0.2-0.2
		c0-0.1,0.2-0.2,0.2-0.3c0-0.1,0-0.1,0.1-0.1c0,0,0.1-0.1,0.1-0.1c0,0,0.1-0.1,0.2-0.1c0.1,0,0.2,0,0.2-0.1c0.1,0,0.3-0.2,0.4-0.3
		c0.1,0,0.1-0.1,0.2-0.1c0,0,0.2-0.1,0.2-0.1c0.1,0,0.1,0,0.2-0.1c0,0,0.2-0.1,0.2-0.1c0,0,0.1,0,0.1,0c0.1,0,0.2-0.1,0.2-0.1
		c0.1,0,0.3-0.2,0.4-0.2c0.1,0,0.2-0.1,0.3-0.1c0,0,0.2-0.1,0.2-0.1c0,0,0.3-0.1,0.3-0.1c0.1,0,0.1,0,0.2-0.1c0,0,0.1-0.1,0.1-0.1
		c0.2,0,0.8-0.2,0.8-0.2c0,0,0.2,0,0.2,0c0,0,0.1,0,0.2,0c0,0,0.3,0,0.3,0c0-0.1,0.8-0.1,0.8-0.1c0.1,0,0.1,0,0.2,0
		c0.1,0,0.1,0,0.2,0c0.1,0,0.2,0,0.3,0.1c0.1,0,0.1,0.1,0.2,0.1c0,0,0.1,0,0.1,0.1c0.1,0,0.2,0.1,0.2,0.2c0.1,0.1,0.1,0.1,0.2,0.2
		c0.1,0.1,0.1,0.1,0.2,0.2c0,0.1,0,0,0,0.1c0,0.1,0.1,0.1,0.1,0.2c0.1,0.1,0.1,0.3,0.2,0.3c0,0.1,0.1,0.2,0.1,0.3
		c0,0,0.1,0.2,0.1,0.3c0.1,0,0.1,0.4,0.1,0.4c0,0.2,0,0.3,0,0.5c0,0.1,0,0.5,0,0.5c0,0,0,0.2,0,0.2c0,0.1,0,0.1,0,0.2
		c0,0-0.1,0.4-0.2,0.4c0,0,0,0.1-0.1,0.1c0,0.1-0.1,0.2-0.2,0.3c0,0.1,0,0.1-0.1,0.1c0,0-0.1,0.1-0.1,0.1c0,0-0.1,0.1-0.1,0.1
		c-0.1,0-0.1,0.2-0.2,0.2c0,0-0.5,0-0.5,0c0,0.1-0.2,0-0.2,0c0-0.1-0.1,0-0.1,0c-0.1,0-0.4,0-0.4-0.1c-0.1,0-0.1-0.1-0.2-0.1
		c0,0-0.1-0.1-0.2-0.1c0,0-0.1-0.1-0.1-0.1c0,0-0.1,0-0.1-0.1c0,0,0,0,0-0.1c0,0-0.1,0-0.1-0.1c-0.1-0.1-0.1-0.3-0.1-0.4
		c0,0,0-0.3,0-0.4c0,0,0-0.2,0-0.2c0-0.1,0-0.4,0.1-0.5c0.1-0.1,0-0.2,0-0.3c0-0.1,0-0.2-0.1-0.3c0-0.1-0.1-0.1-0.2-0.1
		c-0.1,0-0.2,0-0.3,0c0,0-0.1,0.1-0.2,0.1c-0.1,0-0.2,0-0.2,0c0,0-0.1,0.1-0.1,0.1c0,0-0.2,0-0.2,0.1c-0.1,0-0.1,0.1-0.2,0.1
		c0,0.1-0.2,0-0.2,0.1c-0.1,0-0.1,0.1-0.2,0.1c-0.1,0.1-0.1,0.1-0.2,0.2c-0.1,0-0.2,0.1-0.3,0.2c0,0.1-0.1,0.1-0.2,0.2
		c-0.1,0.1-0.1,0.1-0.2,0.2c0,0-0.2,0.2-0.2,0.2c-0.1,0-0.1,0.1-0.2,0.2c0,0.1-0.1,0.1-0.1,0.2c-0.1,0.1-0.1,0.1-0.2,0.2
		c0,0-0.1,0.1-0.1,0.2c-0.1,0-0.1,0.1-0.1,0.2c-0.1,0.1-0.1,0.1-0.1,0.1c0,0.1,0,0.1,0,0.1c0,0-0.1,0.1-0.1,0.2c0,0-0.1,0.3-0.1,0.3
		c0,0.1-0.1,0.2-0.1,0.4c0,0.1,0,0.2,0,0.3c0,0,0,0.1,0,0.1c0,0.1,0.1,0.1,0.2,0.2c0.1,0,0.1,0.1,0.2,0.1c0,0,0.1,0,0.1,0.1
		c0,0,0.1,0,0.1,0.1c0.1,0,0.1,0.1,0.2,0.1c0,0.1,0.1,0.1,0.2,0.1c0.1,0.1,0.4,0.2,0.4,0.3c0.1,0,0.1,0.1,0.2,0.1
		c0.1,0,0,0.1,0.1,0.1c0,0,0.1,0,0.1,0c0,0,0.1,0.1,0.1,0.1c0.1,0,0.1,0.1,0.2,0.1c0,0.1,0.3,0.1,0.3,0.1c0.1,0,0.2,0.1,0.3,0.1
		c0,0.1,0.3,0.1,0.3,0.1c0.1,0,0.3,0,0.4,0.1c0.1,0,0.2,0.1,0.4,0.1c0.1,0,0.4,0,0.4,0c0.1,0,0.5,0,0.5,0c0.1,0,0.1,0,0.2,0
		c0,0,0.2,0,0.3,0c0,0,0.2-0.1,0.3-0.1c0,0,0.1,0,0.1-0.1c0.1,0,0.1-0.1,0.1-0.1c0.1,0,0.2-0.1,0.2-0.1c0.1-0.1,0.2-0.2,0.2-0.2
		c0,0,0.1-0.1,0.2-0.1c0,0,0.2,0,0.2,0c0,0,0,0,0,0c0.1,0,0.1,0.1,0.1,0.1c0.1,0,0.1,0,0.1,0.1c0,0,0,0,0,0c0,0,0.1,0.1,0.1,0.1
		c0.1,0.1,0.3-0.1,0.3-0.2c0.1,0,0-1,0.1-1c0-0.1,0.1-0.3,0.1-0.4c0.1,0,0-0.4,0.1-0.4c0-0.1,0.1-0.2,0.1-0.4c0,0,0-0.3,0.1-0.3
		c0-0.1,0.1-0.4,0.1-0.4c0,0,0.1-0.4,0.1-0.4c0,0,0-0.1,0-0.1c0,0,0.1-0.2,0.1-0.2c0-0.1,0.1-0.4,0.2-0.4c0-0.1,0.1-0.2,0.1-0.3
		c0-0.1,0.1-0.1,0.1-0.2c0,0,0.1-0.2,0.1-0.2c0,0,0,0,0-0.1c0,0,0-0.1,0-0.1c0-0.1,0-0.3,0-0.4c0-0.1,0-0.2,0-0.3c0-0.1,0-0.1,0-0.2
		c0,0,0.1-0.3,0.1-0.3c0-0.1,0.1-0.3,0.2-0.3c0-0.1,0-0.2,0.1-0.3c0.1,0,0.1-0.2,0.2-0.2c0-0.1,0.1-0.1,0.2-0.2
		c0.1-0.1,0.1-0.1,0.2-0.1c0,0,0.3-0.1,0.4-0.1c0.1,0,0.3-0.1,0.4-0.1c0.1,0,0.2,0,0.4,0c0.2,0,1.4-0.2,1.4-0.2
		c0.1,0,1.2-0.2,1.5-0.2c0.2,0,0.5-0.1,0.7-0.1c0.1,0,0.6,0,0.6-0.1c0.2,0,0.4,0,0.5,0c0,0,0.4-0.1,0.4-0.1c0.2,0,1-0.2,1.1-0.2
		c0.1,0,0.3,0,0.4-0.1c0.1,0,0.8-0.2,0.8-0.2c0-0.1,0.3-0.1,0.3-0.1c0.1,0,0.5,0,0.5-0.1c0.1,0,0.2,0,0.3,0c0.1,0,0.1,0,0.2,0.1
		c0,0,0.1,0.2,0.2,0.2c0,0,0.1,0.1,0.1,0.1c0.1,0.1,0.2,0.2,0.2,0.2c0,0.1,0.1,0.1,0.1,0.1c0,0,0.1,0.2,0.1,0.2
		c0,0.1,0.1,0.2,0.1,0.3c0,0,0.1,0.2,0.1,0.2c0,0,0.1,0.2,0.1,0.2c0,0.1,0.1,1.3,0,1.3c0,0.1,0,0.2-0.1,0.2
		c-0.1,0.1-0.2,0.1-0.3,0.1c-0.1,0-0.1,0-0.2,0c-0.1,0-0.3,0-0.4,0c-0.2,0-0.8-0.1-1-0.1c-0.1,0-0.2,0-0.3,0c-0.1,0-0.2,0-0.3,0
		c-0.1,0-0.2,0-0.3,0c-0.1,0-0.2,0-0.2,0c0,0-0.2,0-0.2,0c-0.1,0-0.3,0-0.4,0c-0.1,0-0.6,0-0.7,0c-0.1,0-0.2,0-0.2,0
		c-0.1,0-0.2,0-0.3,0c-0.1,0-0.2,0-0.3,0c-0.1,0-0.2,0-0.3,0c0,0-0.3,0-0.4,0c-0.1,0-0.6,0.1-0.6,0.1c-0.1,0-0.7,0-0.7,0
		c-0.2,0-0.3,0.1-0.5,0.1c-0.1,0-1.2,0.1-1.2,0.2c-0.1,0-0.1,0.1-0.2,0.1c-0.1,0.1-0.2,0.1-0.3,0.2c0,0.1-0.1,0.1-0.1,0.2
		c0,0,0,0.1-0.1,0.1c0,0.1-0.2,0.4-0.2,0.5c0,0.2,0,0.3,0.1,0.4c0.2,0,0.3,0,0.5,0c0,0,0.2,0,0.3,0c0.1,0,0.2,0,0.4,0
		c0.2,0,0.4,0,0.6,0c0.1,0,0.2,0,0.2,0c0,0,0.3,0,0.3,0c0,0,0.5-0.1,0.6-0.1c0,0,0.4-0.1,0.4-0.1c0.1-0.2,0.3-0.2,0.4-0.1
		c0,0,0.1,0.1,0.2,0.1c0,0,0.1,0.1,0.1,0.1c0,0,0.1,0,0.1,0.1c0.1,0,0.1,0.1,0.2,0.1c0,0,0.5,0.8,0.5,0.9c0.1,0,0.1,0.2,0.1,0.3
		c0,0.1,0,0.1,0,0.2c0,0.1,0,0.2,0,0.4c0,0.1,0,0.5-0.1,0.5c0,0.1,0,0.1-0.1,0.2c-0.1,0.1-0.2,0.2-0.2,0.3c0,0.1-0.3,0.3-0.3,0.3
		c-0.1,0-0.2,0-0.4,0.1c-0.1,0-0.2,0.1-0.2,0.1c0,0-0.1,0.1-0.2,0.1c-0.1,0.1,0.1,0.3,0.2,0.4c0.1,0.1,0.1,0.1,0.1,0.2
		c0.1,0,0.2,0.1,0.2,0.2c0,0.2,0,1.3-0.1,1.3c0,0.1-0.2,0.7-0.3,0.7c-0.1,0-0.7,0.3-0.8,0.3c0,0.1-2.5,0.4-2.8,0.4c0,0-0.5,0-0.5,0
		c-0.2,0-0.3,0-0.5-0.1c-0.1,0-0.8-0.2-0.9-0.3c0,0-0.1-0.1-0.2-0.1c0,0-0.2-0.1-0.2-0.1c0,0-0.1,0-0.1-0.1c0,0,0-0.1-0.1-0.1
		c0-0.1-0.2-0.1-0.2-0.2c0,0-0.1-0.1-0.1-0.1c-0.1,0,0-0.1-0.1-0.1c0-0.1-0.1-0.1-0.1-0.2c-0.1,0-0.2-0.1-0.2-0.2
		c0,0-0.1-0.1-0.1-0.2c-0.1-0.1-0.1-0.1-0.1-0.2c0,0-0.2-0.1-0.2-0.1c-0.1,0-0.2,0.3-0.2,0.3c0,0.1-0.1,0.1-0.1,0.2
		c0,0-0.1,0.2-0.1,0.2c0,0.1-0.1,0.2-0.1,0.3c0,0-0.2,0.3-0.2,0.3c0,0-0.1,0.1-0.1,0.2c-0.1,0.1-0.1,0.2-0.2,0.2
		c-0.1,0.1-0.2,0.1-0.2,0.2c-0.1,0.1-0.2,0.2-0.3,0.3c-0.1,0-0.2,0.1-0.3,0.1c-0.1,0-0.1,0-0.2,0c-0.1,0-0.3,0-0.4,0
		c-0.2,0-0.4,0-0.6,0c-0.1,0-0.2,0-0.3,0c-0.1,0-0.1,0-0.2,0c0,0-0.2,0-0.2,0c-0.1,0-0.1,0-0.2-0.1c-0.1,0-0.2-0.1-0.3-0.1
		c-0.1,0-0.1-0.1-0.2-0.1c0,0-0.2,0-0.2-0.1c0,0-0.2,0-0.2-0.1c-0.1,0-0.1-0.1-0.2-0.1c0,0-0.3-0.1-0.3-0.1c0,0-0.2,0-0.2-0.1
		c-0.1,0-0.1-0.1-0.2-0.1c0,0-0.2-0.1-0.2-0.1c0,0-0.1-0.1-0.1-0.1c0-0.1-0.2-0.1-0.2-0.1c0,0-0.1-0.1-0.1-0.1c0,0-0.1,0-0.1,0
		c0,0-0.1-0.1-0.2-0.1c-0.1-0.1-0.1-0.1-0.2-0.2c-0.1,0-0.2-0.1-0.2-0.1c-0.1-0.1-0.1-0.1-0.2-0.1c0-0.1-0.1-0.1-0.2-0.1
		c-0.1-0.1-0.2-0.1-0.2-0.2c-0.1-0.1-0.2-0.3-0.4-0.3c-0.1-0.1-0.3-0.2-0.4-0.3C86,66,85.9,66,85.9,65.9c0,0-0.1,0-0.1-0.1
		c0,0-0.1,0-0.1-0.1c0,0-0.3-0.3-0.3-0.4c-0.1-0.1-0.1-0.3-0.3-0.4c0-0.1,0,0,0-0.1c-0.1,0-0.1-0.1-0.1-0.1c0,0-0.1-0.1-0.1-0.1
		c0,0-0.1,0-0.1,0c0,0,0,0.1,0,0c0,0-0.1,0.4-0.1,0.4c0,0.3-0.1,0.5-0.1,0.8c0,0.2,0.1,0.5,0.1,0.7c0,0.3,0,0.5,0,0.8
		c-0.1,0,0,0.4,0,0.5c0,0.1,0,0.2-0.1,0.2c0,0-0.1,0.2-0.1,0.2c0,0.1-0.1,0.2-0.2,0.3c0,0.1-0.1,0.1-0.2,0.2c0,0-0.1,0.1-0.1,0.1
		c0,0-0.3,0-0.3,0c-0.1,0,0,0-0.1,0c0,0-0.1,0-0.1,0c-0.1,0-0.1,0-0.2,0c-0.1,0-0.3-0.1-0.3-0.1c-0.1,0-0.3-0.1-0.3-0.1
		c0-0.1-0.1-0.2-0.2-0.2c0-0.1-0.1-0.1-0.1-0.2c-0.2-0.1-0.1-0.4-0.1-0.5c-0.1-0.3-0.1-0.6-0.1-0.9c0-0.2,0-0.4,0-0.6
		c0-0.2,0-0.4,0-0.6c0-0.1-0.1-0.3-0.3-0.4c0-0.1-0.6-0.1-0.6,0c-0.2,0-0.5,0-0.7,0c0,0-0.3,0.1-0.3,0.1c-0.1,0-0.2,0.1-0.4,0.1
		c0,0-0.4,0.1-0.5,0.1c0,0-0.3,0-0.3,0.1c0,0-0.1,0-0.1,0.1c-0.1,0-0.1,0.1-0.2,0.1c-0.1,0.1-0.2,0.2-0.3,0.3c0,0-0.1,0.2-0.1,0.2
		c0,0-0.1,0.2-0.1,0.2c0,0.1-0.1,0.1-0.1,0.2c-0.1,0-0.1,0.1-0.1,0.1c0,0-0.1,0.2-0.1,0.2c0,0.1,0,0.1,0,0.2c0,0-0.2,0.5-0.3,0.5
		c0,0.1,0,0.1-0.1,0.1c-0.1,0,0,0.1-0.1,0.1c0,0.1-0.1,0.2-0.2,0.4c0,0,0,0,0,0c0,0.1-0.1,0.1-0.1,0.1c-0.1,0.1-0.2,0.1-0.3,0.2
		c-0.1,0-0.2,0.2-0.3,0.1c-0.1-0.1-0.9-0.5-1-0.5c0-0.1-0.1-0.1-0.1-0.2c-0.1,0-0.1-0.4-0.2-0.4c0-0.2-0.1-0.3-0.1-0.5
		c0,0,0-0.2,0-0.2c0-0.1,0-0.3,0-0.3c0-0.2,0.1-0.3,0.1-0.5c0-0.1,0.2-0.3,0.2-0.4c0,0,0.1-0.1,0.1-0.1c0.1,0,0.1-0.1,0.1-0.2
		c0,0,0-0.1,0.1-0.2c0,0,0.1-0.2,0.2-0.2c0-0.1,0.1-0.3,0.2-0.3c0-0.1,0.2-0.3,0.2-0.4c0.1,0,0.1-0.3,0.1-0.3c0-0.1,0.1-0.1,0.1-0.2
		c0,0,0.1-0.1,0.1-0.2c0.1,0,0.1-0.4,0.2-0.4c0-0.1,0-0.1,0-0.2c0-0.1,0-0.2,0-0.3c0-0.1,0-0.2,0-0.3c0-0.1,0.1-0.1,0.2-0.2
		c0.1-0.1,0.1-0.1,0.2-0.1c0-0.1,0.1,0,0.1-0.1c0.1,0,0.2-0.1,0.2-0.2c0.1-0.1,0.1-0.2,0.2-0.3c0-0.1,0.1-0.2,0.1-0.2
		c0-0.1,0.1-0.3,0.2-0.3c0-0.1,0.1-0.2,0.1-0.3c0-0.1,0.1-0.2,0.1-0.3c0,0,0.1-0.1,0.1-0.2c0,0,0.1-0.1,0.1-0.2
		c0-0.1,0.1-0.1,0.1-0.2c0,0,0.1-0.2,0.1-0.2c0-0.1,0.1-0.1,0.1-0.2c0.1,0,0-0.1,0.1-0.1c0-0.1,0.1-0.1,0.1-0.2c0,0,0.1-0.1,0.1-0.1
		c0-0.1,0.1-0.2,0.1-0.3c0,0,0-0.1,0.1-0.2c0-0.2,0.3-0.3,0.3-0.5c0,0,0.1-0.1,0.1-0.1c0.1,0,0.1-0.1,0.1-0.1c0.1,0,0.1-0.2,0.2-0.3
		c0,0,0.1-0.2,0.1-0.2c0-0.1,0.3-0.2,0.3-0.4c0,0,0.1-0.1,0.1-0.1c0.1-0.1,0.1-0.1,0.2-0.2c0.1-0.1,0.1-0.1,0.2-0.2
		c0.1-0.1,0.2-0.1,0.2-0.2c0.1-0.1,0.2-0.1,0.2-0.2c0.1,0,0.1-0.1,0.1-0.1c0.1-0.1,0.1-0.1,0.2-0.1c0.1-0.2,0.5-0.1,0.6-0.1
		c0,0,0.1,0,0.1,0c0.1,0,0.1,0,0.2,0C82.8,56.2,83,56.2,83,56.4"/>
	<path id="path32" d="M25.6,59.3c0,0.1,0,0.2,0,0.2c0,0-0.1,0.2-0.1,0.2c0,0-0.1,0.1-0.1,0.2c0,0-0.1,0.1-0.1,0.1
		c0,0.1-0.1,0.2-0.2,0.2c-0.1,0.1-0.1,0.2-0.2,0.2c0,0-0.1,0-0.1,0.1c-0.1,0-0.1,0.1-0.1,0.1c0,0-0.2,0.1-0.2,0.1
		c0,0-0.1,0.1-0.1,0.1c-0.1,0-0.2,0-0.3,0c-0.1,0-0.1-0.1-0.1-0.2c0,0,0-0.5,0-0.6c0-0.1,0.1-0.1,0.1-0.2c0.1,0,0-0.3,0-0.3
		c0-0.1,0-0.1,0-0.2c0,0,0-0.3,0-0.3c0-0.2,0-0.3,0-0.4c0-0.1,0-0.4,0.1-0.4c0-0.1,0.1-0.2,0.2-0.3c0.2,0,0.3,0.1,0.4,0.1
		c0,0,0.3,0.1,0.3,0.1c0.1,0.1,0.2,0.1,0.2,0.2c0.1,0,0.1,0.1,0.1,0.1c0,0,0.1,0.1,0.1,0.1c0,0.1,0.1,0.2,0.1,0.3
		C25.6,59,25.7,59.3,25.6,59.3L25.6,59.3z M29.2,65.8c0,0-0.1-0.2-0.1-0.2c0,0-0.1-0.1-0.1-0.1c-0.1,0-0.1-0.2-0.2-0.2
		c0,0-0.1-0.1-0.1-0.2c-0.2,0-0.2-0.3-0.4-0.3c-0.1,0-0.1-0.1-0.2-0.1c0,0-0.1-0.1-0.2-0.1c0-0.1-0.1-0.1-0.2-0.1
		c0,0-0.2-0.1-0.2-0.1c-0.1,0-0.1,0-0.2,0c-0.1-0.1-0.2-0.2-0.2-0.2c0,0-0.1-0.1-0.2-0.1c-0.1-0.1-0.1-0.1-0.2-0.2
		c-0.1-0.1-0.1-0.2-0.2-0.2c-0.1-0.1-0.2-0.1-0.2-0.2c-0.1,0,0-0.2,0-0.2c0-0.1,0.1-0.1,0.1-0.1c0.1,0,0.1-0.1,0.1-0.2
		c0,0,0.3-0.3,0.3-0.3c0-0.1,0.1-0.1,0.2-0.2c0,0,0-0.1,0.1-0.1c0,0,0-0.2,0.1-0.2c0-0.1,0.1-0.1,0.1-0.2c0-0.1,0.1-0.2,0.1-0.3
		c0,0,0.1-0.3,0.1-0.4c0.1,0,0-0.3,0-0.3c0,0,0-0.2,0-0.2c0-0.1,0.1-0.1,0.1-0.2c0-0.1,0-0.2,0.1-0.2c0,0,0-0.1,0-0.1
		c0,0,0-0.2,0-0.2c0-0.1,0-0.2,0-0.4c0-0.1,0-0.1,0-0.2c0,0,0-0.3,0-0.3c0-0.1-0.1-0.3-0.1-0.4c0,0-0.1-0.2-0.1-0.3
		c0,0-0.1-0.2-0.1-0.2c0,0-0.1-0.1-0.1-0.1c-0.1,0-0.1-0.4-0.2-0.4c0-0.1-0.1-0.1-0.1-0.2c0,0-0.3-0.4-0.3-0.5c0,0-0.1-0.1-0.1-0.2
		c0-0.1-0.2-0.2-0.2-0.3c-0.1,0-0.1-0.2-0.2-0.2c-0.1-0.1-0.1-0.1-0.3-0.2c-0.1,0-0.1-0.1-0.2-0.2c-0.1-0.1-0.1-0.1-0.2-0.1
		c0-0.1-0.4,0-0.4-0.1c-0.2,0-0.4-0.1-0.5-0.1c0,0-0.1-0.1-0.2-0.1c-0.1,0-0.1,0-0.2,0c0,0,0,0-0.1,0c0-0.1-0.3-0.1-0.4-0.1
		c0,0-0.4-0.1-0.5-0.1c-0.1,0-0.6,0-0.6,0.1c-0.1,0-0.1,0-0.2,0c0,0-0.2,0-0.2,0c0,0.1-0.3,0.1-0.3,0.1c-0.1,0-0.2,0.1-0.3,0.2
		c0,0-0.1,0.1-0.2,0.1c0,0.1-0.2,0.1-0.2,0.2c-0.2,0.1-0.2,0.4-0.3,0.6c-0.1,0.2-0.1,0.3-0.1,0.5c0,0.2,0,0.3,0,0.5
		c0,0.1,0,0.2,0,0.2c0,0,0.1,0.1,0.1,0.2c0,0,0.1,0.1,0.1,0.2c0,0,0.1,0.1,0.1,0.1c0,0,0.1,0.2,0.2,0.2c0,0,0.1,0.1,0.1,0.2
		c0,0,0.1,0.2,0,0.2c0,0.1,0,0.1,0,0.2c-0.1,0-0.1,0.3-0.1,0.4c0,0-0.1,0.3-0.1,0.3c0,0.2-0.2,0.4-0.2,0.6c0,0.1-0.1,0.2-0.1,0.2
		c0,0,0,0.1,0,0.1c0,0,0,0.1-0.1,0.1c0,0.1-0.1,0.1-0.1,0.2c0,0-0.1,0-0.1,0c0,0-0.1,0-0.1,0c0,0-0.2,0-0.2,0c0,0-0.1,0.1-0.2,0.1
		c0,0.1,0,0.2-0.1,0.2c-0.1,0.1-0.1,0.1-0.1,0.2c0,0.1,0,0.2,0,0.3c0,0.1,0,0.2,0,0.3c0,0.1,0,0.2,0,0.3c0,0.1,0,0.2,0.1,0.3
		c0,0.1,0,0.1,0,0.2c0.1,0,0.1,0.2,0.1,0.2c0.1,0.1,0.1,0.1,0.2,0.2c0,0,0.1,0.1,0.1,0.1c0,0.1,0,0.2,0,0.3c0,0,0,0.6,0,0.6
		c0,0.2-0.1,0.4-0.1,0.6c0,0-0.1,0.5-0.1,0.5c0,0.2,0,0.4,0,0.6c0,0-0.1,0.2,0,0.2c0,0.1,0,0.3,0,0.4c0,0,0.1,0.3,0.1,0.4
		c0,0,0,0.1,0,0.1c0,0,0.1,0.1,0.1,0.2c0.1,0.1,0.1,0.1,0.1,0.2c0,0.1,0.1,0.1,0.1,0.1c0.2,0.1,0.2,0.3,0.4,0.3c0.2,0,0.5,0,0.5,0.1
		c0.1,0,0.1,0,0.2,0c0.2,0,0.2,0,0.4-0.1c0,0,0.1-0.2,0.1-0.2c0-0.1,0.1-0.1,0.1-0.1c0.1,0,0-0.2,0.1-0.2c0-0.1,0.1-0.1,0.1-0.2
		c0,0,0-0.5,0-0.5c-0.1,0,0-0.4,0-0.5c0-0.1,0-0.2,0-0.3c0-0.1,0-0.2,0-0.3c0-0.1,0-0.2,0-0.3c0-0.1,0-0.2,0-0.3
		c0,0,0.1-0.4,0.1-0.4c0,0,0.2-0.3,0.2-0.4c0.1,0,0.1-0.1,0.2-0.2c0.1,0,0.1,0,0.2,0.1c0.1,0.1,0.1,0.2,0.2,0.2
		c0,0.1,0.2,0.1,0.2,0.2c0.1,0.1,0.1,0,0.2,0.1c0,0,0.1,0.1,0.2,0.1c0.1,0.1,0.3,0.2,0.3,0.3c0.1,0,0.2,0.1,0.2,0.2
		c0.1,0.1,0.1,0.1,0.2,0.1c0,0.1,0.1,0.1,0.2,0.1c0.1,0.1,0.1,0.1,0.2,0.2c0.1,0,0.1,0.2,0.2,0.2c0.1,0.1,0.1,0.2,0.2,0.2
		c0,0.1,0.1,0.1,0.1,0.1c0.1,0.1,0.1,0.1,0.2,0.2c0.1,0,0.1,0.2,0.2,0.2c0,0.1,0.1,0.1,0.2,0.2c0.1,0.1,0.2,0.2,0.2,0.2
		c0.1,0,0.2,0.1,0.2,0.2c0.1,0,0.1,0.2,0.2,0.2c0,0,0.1,0.1,0.2,0.1c0.1,0,0.2,0.1,0.4,0.1c0.1,0,0.4,0,0.4,0c0.1,0,0.3-0.1,0.4-0.2
		c0.1,0,0.1,0,0.1,0c0-0.1,0.1-0.1,0.1-0.2c0,0,0.1-0.1,0.1-0.1c0-0.1,0.1-0.1,0.1-0.2c0.1,0,0.2-0.1,0.2-0.2c0,0,0.1,0,0.1-0.1
		c0.1-0.1,0.1-0.2,0.1-0.4C29.2,66.3,29.2,66,29.2,65.8"/>
</g>
</svg>
