<?xml version="1.0" encoding="utf-8"?>
<!-- Generator: Adobe Illustrator 24.2.0, SVG Export Plug-In . SVG Version: 6.00 Build 0)  -->
<svg width="116" height="124" version="1.1" id="Layer_1" xmlns="http://www.w3.org/2000/svg" xmlns:xlink="http://www.w3.org/1999/xlink" x="0px" y="0px"
	 viewBox="0 0 116 124" style="enable-background:new 0 0 116 124;" xml:space="preserve">
<path d="M16.1,58.6c0-5,0-10,0-15c0-0.7,0.3-1.1,0.9-1.5c0.1-0.1,0.3-0.1,0.4-0.1c1.1,0,2.3,0,3.4,0c0.5,0,0.8,0.2,1,0.6
	c0.2,0.3,0.3,0.6,0.3,1c0,2.6,0,5.1,0,7.7c0,0.6,0.4,1.1,1,1.2c0.1,0,0.3,0,0.4-0.1c0.3-0.2,0.5-0.4,0.7-0.6
	c3.1-3.1,6.1-6.1,9.2-9.2c0.1-0.1,0.2-0.2,0.3-0.3c0.3-0.3,0.6-0.4,0.9-0.4c1.5,0,3.1,0,4.6,0c0.6,0,1,0.2,1.2,0.7
	c0.3,0.5,0.1,1.1-0.3,1.5c-1.5,1.5-2.9,2.9-4.4,4.4c-3,3-5.9,5.9-8.9,8.9c0,0-0.1,0.1-0.1,0.1c-0.6,0.6-0.6,1.1,0,1.8
	c3,3.1,6.1,6.1,9.1,9.1c1.4,1.4,2.8,2.8,4.1,4.1c0.3,0.3,0.4,0.6,0.5,0.9c0,0.2-0.1,0.4-0.1,0.5c-0.2,0.6-0.7,0.8-1.3,0.8
	c-1.5,0-3,0-4.5,0c-0.5,0-0.9-0.2-1.2-0.5c-1.4-1.4-2.8-2.8-4.2-4.2c-1.7-1.7-3.4-3.4-5-5c-0.2-0.2-0.4-0.4-0.7-0.5
	c-0.7-0.4-1.6,0.1-1.6,1c0,1.9,0,3.8,0,5.8c0,0.7,0,1.3,0,2c0,0.6-0.2,1.1-0.8,1.4c-0.2,0.1-0.4,0.1-0.6,0.2c-1.1,0-2.2-0.1-3.3,0
	c-0.8,0-1.4-0.7-1.4-1.4c0-0.2,0-0.3,0-0.5C16.1,68.4,16.1,63.5,16.1,58.6C16.1,58.6,16.1,58.6,16.1,58.6z"/>
<path d="M75.2,83.6c-0.6,0-1.3,0.1-1.9,0.1c-0.1,0-0.2,0-0.2,0c-1.8,0.1-3.6,0.1-5.4,0.1c-1,0-2.1-0.1-3.1-0.2c-0.5,0-0.9,0-1.4-0.1
	c-0.9-0.1-1.8-0.1-2.7-0.2c-0.9-0.1-1.9-0.2-2.8-0.3c-1.1-0.2-2.1-0.3-3.2-0.5c-0.7-0.1-1.3-0.2-2-0.3c-0.7-0.1-1.4-0.3-2.1-0.5
	c-0.4-0.1-0.6-0.5-0.6-0.9c0-0.2,0.1-0.4,0.1-0.6c0.2-0.6,0.3-1.2,0.5-1.9c0.1-0.5,0.2-1.1,0.4-1.6c0.2-0.6,0.5-0.8,1.1-0.6
	c0.6,0.1,1.1,0.3,1.7,0.4c0.6,0.1,1.2,0.3,1.8,0.4c0.9,0.1,1.8,0.3,2.7,0.4c0.9,0.1,1.9,0.3,2.8,0.4c0.4,0.1,0.8,0.1,1.3,0.1
	c0.8,0.1,1.6,0.2,2.4,0.2c0.9,0,1.8,0,2.6,0.1c0.5,0,0.9,0.1,1.4,0.1c1.2,0,2.3,0,3.5,0c0.9,0,1.8-0.1,2.8-0.2c0.6,0,1.2,0,1.8-0.1
	c1-0.1,2.1-0.3,3.1-0.4c0.2,0,0.4,0,0.6-0.1c0.2,0,0.3,0,0.5,0c1.6-0.3,3.1-0.6,4.7-0.9c0.3-0.1,0.6-0.2,0.9-0.2
	c0.5,0,0.8,0.2,0.9,0.7c0.3,1.1,0.5,2.1,0.8,3.2c0.1,0.3,0.1,0.6,0.2,0.9c0,0.4-0.2,0.7-0.5,0.8c-0.9,0.2-1.8,0.4-2.8,0.6
	c-0.7,0.1-1.4,0.3-2.2,0.4c-1,0.2-2,0.3-2.9,0.4c-1.2,0.1-2.4,0.3-3.6,0.4C76,83.5,75.6,83.6,75.2,83.6
	C75.2,83.6,75.2,83.6,75.2,83.6z"/>
<path d="M66.3,55.5c0-2.2,0-4.3,0-6.5c0-1,0.4-1.4,1.5-1.4c0.9,0,1.8,0,2.7,0c0.3,0,0.5,0.1,0.8,0.1c0.5,0.1,0.7,0.5,0.7,1
	c0,0.2,0,0.5,0,0.8c0,4.3,0,8.6,0,12.9c0,0.9,0.6,1.5,1.5,1.5c0.7,0,1.5,0,2.2,0c0.5,0,0.9,0.2,1.1,0.7c0.1,0.2,0.1,0.3,0.1,0.5
	c0,1.2,0,2.3,0,3.5c0,0.6-0.5,1.1-1.1,1.2c-0.1,0-0.2,0-0.3,0c-4.2,0-8.5,0-12.7,0c-1,0-1.5-0.5-1.5-1.6c0-1,0-2,0-3
	c0-0.8,0.5-1.3,1.3-1.3c0.7,0,1.4,0,2.2,0c0.9,0,1.6-0.6,1.6-1.5C66.3,60.1,66.3,57.8,66.3,55.5C66.3,55.5,66.3,55.5,66.3,55.5z"/>
<path d="M48.9,47.1c-6.3,0-11.5,5.1-11.5,11.5s5.1,11.5,11.5,11.5S60.4,65,60.4,58.6S55.2,47.1,48.9,47.1z M49.6,64.2
	C49.6,64.2,49.6,64.2,49.6,64.2C49.6,64.2,49.6,64.2,49.6,64.2c-0.2,0-0.4,0-0.6,0c0,0-0.1,0-0.1,0c-3.1,0-5.6-2.5-5.6-5.6
	c0-3.1,2.5-5.6,5.6-5.6c3.1,0,5.6,2.5,5.6,5.6C54.5,61.5,52.4,63.8,49.6,64.2z"/>
<path d="M89.4,47.1c-6.3,0-11.5,5.1-11.5,11.5s5.1,11.5,11.5,11.5s11.5-5.1,11.5-11.5S95.8,47.1,89.4,47.1z M90.2,64.2
	C90.2,64.2,90.2,64.2,90.2,64.2C90.2,64.2,90.1,64.2,90.2,64.2c-0.2,0-0.4,0-0.6,0c0,0-0.1,0-0.1,0c-3.1,0-5.6-2.5-5.6-5.6
	c0-3.1,2.5-5.6,5.6-5.6c3.1,0,5.6,2.5,5.6,5.6C95.1,61.5,92.9,63.8,90.2,64.2z"/>
</svg>
