<svg width="116" height="72" viewBox="0 0 116 72" fill="none" xmlns="http://www.w3.org/2000/svg">
<path d="M58.2663 33.12C58.2663 29.7907 58.2663 26.4613 58.2663 23.132C58.2663 22.6659 58.4661 22.3995 58.8656 22.1332C58.9322 22.0666 59.0654 22.0666 59.132 22.0666C59.8644 22.0666 60.6635 22.0666 61.3959 22.0666C61.7289 22.0666 61.9286 22.1998 62.0618 22.4661C62.195 22.6659 62.2616 22.8656 62.2616 23.132C62.2616 24.8632 62.2616 26.5279 62.2616 28.2592C62.2616 28.6587 62.5279 28.9916 62.9274 29.0582C62.994 29.0582 63.1272 29.0582 63.1938 28.9916C63.3936 28.8585 63.5267 28.7253 63.6599 28.5921C65.7241 26.5279 67.7217 24.5303 69.7859 22.4661C69.8525 22.3995 69.9191 22.3329 69.9857 22.2663C70.1854 22.0666 70.3852 22 70.585 22C71.5838 22 72.6492 22 73.648 22C74.0475 22 74.3138 22.1332 74.447 22.4661C74.6468 22.799 74.5136 23.1986 74.2473 23.4649C73.2484 24.4637 72.3162 25.3959 71.3174 26.3947C69.3198 28.3924 67.3888 30.3234 65.3912 32.321L65.3246 32.3876C64.9251 32.7871 64.9251 33.12 65.3246 33.5862C67.3222 35.6504 69.3864 37.648 71.384 39.6456C72.3162 40.5778 73.2484 41.51 74.1141 42.3757C74.3138 42.5754 74.3804 42.7752 74.447 42.9749C74.447 43.1081 74.3804 43.2413 74.3804 43.3079C74.2473 43.7074 73.9143 43.8406 73.5148 43.8406C72.516 43.8406 71.5172 43.8406 70.5184 43.8406C70.1854 43.8406 69.9191 43.7074 69.7193 43.5076C68.7871 42.5754 67.8549 41.6432 66.9227 40.711C65.7907 39.579 64.6587 38.447 63.5933 37.3816C63.4601 37.2484 63.327 37.1153 63.1272 37.0487C62.6611 36.7823 62.0618 37.1153 62.0618 37.7146C62.0618 38.9797 62.0618 40.2449 62.0618 41.5766C62.0618 42.0427 62.0618 42.4422 62.0618 42.9084C62.0618 43.3079 61.9286 43.6408 61.5291 43.8406C61.3959 43.9072 61.2628 43.9072 61.1296 43.9737C60.3971 43.9737 59.6647 43.9072 58.9322 43.9737C58.3995 43.9737 58 43.5076 58 43.0415C58 42.9084 58 42.8418 58 42.7086C58.2663 39.6456 58.2663 36.3828 58.2663 33.12Z" fill="black"/>
<path d="M97.6193 49.7668C97.2198 49.7668 96.7537 49.8334 96.3542 49.8334C96.2876 49.8334 96.221 49.8334 96.221 49.8334C95.0224 49.9 93.8239 49.9 92.6253 49.9C91.9594 49.9 91.227 49.8334 90.5611 49.7668C90.2282 49.7668 89.9618 49.7668 89.6289 49.7002C89.0296 49.6336 88.4303 49.6336 87.831 49.5671C87.2317 49.5005 86.5659 49.4339 85.9666 49.3673C85.2341 49.2341 84.5683 49.1675 83.8358 49.0344C83.3697 48.9678 82.9702 48.9012 82.5041 48.8346C82.038 48.768 81.5718 48.6348 81.1057 48.5017C80.8394 48.4351 80.7062 48.1687 80.7062 47.9024C80.7062 47.7692 80.7728 47.636 80.7728 47.5029C80.906 47.1033 80.9726 46.7038 81.1057 46.2377C81.1723 45.9048 81.2389 45.5052 81.3721 45.1723C81.5053 44.7728 81.705 44.6396 82.1045 44.7728C82.5041 44.8394 82.837 44.9725 83.2365 45.0391C83.636 45.1057 84.0356 45.2389 84.4351 45.3055C85.0344 45.3721 85.6337 45.5052 86.2329 45.5718C86.8322 45.6384 87.4981 45.7716 88.0974 45.8382C88.3637 45.9048 88.6301 45.9048 88.963 45.9048C89.4957 45.9714 90.0284 46.0379 90.5611 46.0379C91.1604 46.0379 91.7597 46.0379 92.2924 46.1045C92.6253 46.1045 92.8916 46.1711 93.2246 46.1711C94.0236 46.1711 94.7561 46.1711 95.5551 46.1711C96.1544 46.1711 96.7537 46.1045 97.4196 46.0379C97.8191 46.0379 98.2186 46.0379 98.6181 45.9714C99.284 45.9048 100.016 45.7716 100.682 45.705C100.816 45.705 100.949 45.705 101.082 45.6384C101.215 45.6384 101.282 45.6384 101.415 45.6384C102.48 45.4387 103.479 45.2389 104.544 45.0391C104.744 44.9725 104.944 44.906 105.144 44.906C105.477 44.906 105.676 45.0391 105.743 45.3721C105.943 46.1045 106.076 46.7704 106.276 47.5029C106.342 47.7026 106.342 47.9024 106.409 48.1021C106.409 48.3685 106.276 48.5682 106.076 48.6348C105.477 48.768 104.877 48.9012 104.211 49.0344C103.745 49.1009 103.279 49.2341 102.747 49.3007C102.081 49.4339 101.415 49.5005 100.816 49.5671C100.016 49.6336 99.2174 49.7668 98.4184 49.8334C98.152 49.7002 97.8857 49.7668 97.6193 49.7668Z" fill="black"/>
<path d="M91.6931 31.0559C91.6931 29.5909 91.6931 28.1926 91.6931 26.7277C91.6931 26.0618 91.9594 25.7955 92.6919 25.7955C93.2912 25.7955 93.8905 25.7955 94.4897 25.7955C94.6895 25.7955 94.8227 25.8621 95.0224 25.8621C95.3554 25.9286 95.4885 26.195 95.4885 26.5279C95.4885 26.6611 95.4885 26.8609 95.4885 27.0606C95.4885 29.9239 95.4885 32.7871 95.4885 35.6504C95.4885 36.2497 95.8881 36.6492 96.4874 36.6492C96.9535 36.6492 97.4862 36.6492 97.9523 36.6492C98.2852 36.6492 98.5516 36.7823 98.6847 37.1153C98.7513 37.2485 98.7513 37.315 98.7513 37.4482C98.7513 38.2473 98.7513 38.9797 98.7513 39.7788C98.7513 40.1783 98.4184 40.5112 98.0189 40.5778C97.9523 40.5778 97.8857 40.5778 97.8191 40.5778C95.0224 40.5778 92.1592 40.5778 89.3625 40.5778C88.6967 40.5778 88.3637 40.2449 88.3637 39.5124C88.3637 38.8465 88.3637 38.1807 88.3637 37.5148C88.3637 36.9821 88.6967 36.6492 89.2294 36.6492C89.6955 36.6492 90.1616 36.6492 90.6943 36.6492C91.2936 36.6492 91.7597 36.2497 91.7597 35.6504C91.6931 34.1189 91.6931 32.5874 91.6931 31.0559Z" fill="black"/>
<path d="M80.1069 25.4625C75.9119 25.4625 72.4494 28.8585 72.4494 33.12C72.4494 37.3816 75.8453 40.7776 80.1069 40.7776C84.3685 40.7776 87.7644 37.3816 87.7644 33.12C87.7644 28.8585 84.3019 25.4625 80.1069 25.4625ZM80.573 36.8489C80.4399 36.8489 80.3067 36.8489 80.1735 36.8489H80.1069C78.0427 36.8489 76.378 35.1842 76.378 33.12C76.378 31.0558 78.0427 29.3912 80.1069 29.3912C82.1711 29.3912 83.8358 31.0558 83.8358 33.12C83.8358 35.0511 82.4375 36.5826 80.573 36.8489Z" fill="black"/>
<path d="M107.075 25.4625C102.88 25.4625 99.4172 28.8585 99.4172 33.12C99.4172 37.3816 102.813 40.7776 107.075 40.7776C111.336 40.7776 114.732 37.3816 114.732 33.12C114.732 28.8585 111.336 25.4625 107.075 25.4625ZM107.607 36.8489C107.607 36.8489 107.541 36.8489 107.607 36.8489C107.474 36.8489 107.341 36.8489 107.208 36.8489H107.141C105.077 36.8489 103.412 35.1842 103.412 33.12C103.412 31.0558 105.077 29.3912 107.141 29.3912C109.205 29.3912 110.87 31.0558 110.87 33.12C110.87 35.0511 109.405 36.5826 107.607 36.8489Z" fill="black"/>
</svg>
