<svg width="116" height="72" viewBox="0 0 116 72" fill="none" xmlns="http://www.w3.org/2000/svg">
<path d="M101.452 41.4499V55.9831C100.958 56.0134 100.54 55.9428 100 55.9831V39.4913C100.181 39.4913 100.889 39.4913 100.988 39.4913C102.11 39.4913 101.646 39.4913 102.824 39.4913C103.22 40.7444 103.098 40.3178 103.605 41.8261C104.922 45.7232 106.07 49.6774 107.44 54.038C108.059 52.1433 108.539 50.6516 109.03 49.1667C109.886 46.5832 110.62 43.9561 111.604 41.4399C111.838 40.778 112.116 40.1326 112.434 39.5081H114.83V56H113.342V41.4499C112.197 44.8599 110.939 48.2697 109.794 51.6762C109.464 52.6337 109.152 53.5878 108.832 54.5419C108.687 54.9619 108.46 55.6002 108.322 55.9831C107.993 55.9831 107.822 55.9831 107.334 55.9831C106.847 55.9831 107.107 55.9831 106.347 55.9831C106.133 55.4489 105.965 55.0558 105.741 54.4344" fill="black"/>
<path d="M112.775 20.4194C112.259 20.5789 111.731 20.6912 111.195 20.7553C111.154 20.3641 111.067 19.9793 110.935 19.6097C110.026 17.2984 106.527 16.5223 104.638 18.1618C104.352 18.407 104.125 18.7163 103.976 19.0655C103.826 19.4149 103.757 19.7947 103.775 20.1754C103.793 20.5561 103.897 20.9274 104.078 21.2606C104.26 21.5936 104.514 21.8794 104.822 22.0958C105.576 22.64 106.488 22.9592 107.347 23.3422C108.664 23.9233 110.056 24.35 111.297 25.0689C113.239 26.2111 113.766 28.6232 112.68 30.6087C111.593 32.5942 108.729 33.6322 105.832 33.0545C103.347 32.5539 102.099 31.0388 101.596 28.3041C101.961 28.1899 102.985 27.9682 102.985 27.9682C102.985 27.9682 103.202 28.5729 103.472 29.2112C104.578 31.8114 108.364 32.7353 110.464 30.854C111.903 29.5605 111.781 27.35 110.089 26.3657C108.983 25.7206 107.699 25.415 106.534 24.864C105.424 24.3399 104.249 23.8562 103.311 23.0767C102.629 22.5088 102.177 21.7044 102.04 20.8175C101.904 19.9305 102.092 19.0232 102.57 18.2693C104.045 15.9109 106.389 15.8269 108.772 16.1192C110.882 16.3813 112.301 17.7989 112.723 19.8717C112.76 20.0517 112.778 20.2354 112.775 20.4194Z" fill="black"/>
</svg>
