<svg width="116" height="72" viewBox="0 0 116 72" fill="none" xmlns="http://www.w3.org/2000/svg">
<path d="M108.358 28.1854H106.742L100.174 43.6784H101.947L103.762 39.2413H111.307L113.112 43.6784H114.885L108.358 28.1854ZM104.371 37.7623L107.54 30.0001L110.698 37.7623H104.371Z" fill="black"/>
<path d="M64.5685 37.542C64.5685 40.7518 62.155 42.4616 59.7311 42.4616C57.3071 42.4616 54.8831 40.7518 54.8831 37.542V28.1854H53.3301V37.5315C53.3301 41.7588 56.5411 43.9721 59.7206 43.9721C62.9106 43.9721 66.111 41.7588 66.111 37.5315V28.1854H64.558V37.542H64.5685Z" fill="black"/>
<path d="M84.938 38.4127C84.3084 39.9127 83.9202 40.8882 83.9202 40.8882C83.9202 40.8882 83.5214 39.9127 82.8918 38.4127L78.6315 28.1854H76.1446V43.6784H77.6976V34.1329V29.8952L83.4165 43.6784H84.4134L90.1322 29.8952V34.1329V43.6784H91.6853V28.1854H89.1983L84.938 38.4127Z" fill="black"/>
<path d="M41.6926 34.9301H32.6683V28.1854H31.1153V43.6784H32.6683V36.3777H41.6926V43.6784H43.2456V28.1854H41.6926V34.9301Z" fill="black"/>
<path d="M9.96135 27C5.02946 27 1 31.0175 1 35.9581C1 40.8986 5.01897 44.9161 9.96135 44.9161C14.9038 44.9161 18.9227 40.8986 18.9227 35.9581C18.9227 31.0175 14.8933 27 9.96135 27ZM2.31168 35.9581C2.31168 35.2238 2.41661 34.521 2.60549 33.8497H9.28977C9.13237 36.9965 7.79971 39.9861 5.58561 42.2098C3.61285 40.8252 2.31168 38.549 2.31168 35.9581ZM9.96135 43.6049C8.81757 43.6049 7.72626 43.3427 6.73988 42.8917C8.21945 41.3287 9.31076 39.4511 9.96135 37.4266C10.6119 39.4511 11.7033 41.3287 13.1828 42.8917C12.1965 43.3427 11.1052 43.6049 9.96135 43.6049ZM17.611 35.9581C17.611 38.549 16.3099 40.8252 14.3371 42.2203C12.1125 39.9861 10.7903 36.9965 10.6329 33.8602H17.3172C17.5061 34.5315 17.611 35.2238 17.611 35.9581ZM10.6119 32.5385V30.063C10.3811 30.0315 10.1607 30.021 9.96135 30.021C9.75148 30.021 9.54161 30.042 9.31076 30.063V32.5385H3.11967C4.37887 30.0315 6.96024 28.3112 9.95085 28.3112C12.9415 28.3112 15.5334 30.0315 16.7821 32.5385H10.6119Z" fill="black"/>
</svg>
