<svg width="116" height="116" viewBox="0 0 116 116" fill="none" xmlns="http://www.w3.org/2000/svg">
<path fill-rule="evenodd" clip-rule="evenodd" d="M22.939 75.9645C29.3298 75.9645 30.9368 73.3661 30.9368 69.8067C30.9368 65.4284 27.0292 64.6099 23.7789 64.0758C21.2956 63.6488 20.1635 63.4353 20.1635 61.9047C20.1635 60.7659 21.1495 60.3385 22.7565 60.3385C24.7285 60.3385 25.2762 60.908 25.4589 62.5809L30.6447 61.7979C30.2062 58.2028 28.1977 56.3877 22.9024 56.3877C17.096 56.3877 15.0509 58.7369 15.0509 62.4741C15.0145 67.3151 19.5428 67.8134 22.9024 68.3828C24.9839 68.7745 25.7876 69.1303 25.7876 70.5186C25.7876 71.6576 25.0938 72.1559 23.012 72.1559C20.7114 72.1559 20.0175 71.7644 19.7254 69.8779L14.6858 70.6254C15.1605 74.434 17.3882 75.9645 22.939 75.9645" fill="black"/>
<path fill-rule="evenodd" clip-rule="evenodd" d="M40.5341 72.0483C38.0871 72.0483 37.2109 71.5144 37.2109 69.7346C37.2109 68.1329 38.0871 67.4922 40.7167 67.4922H43.346V69.3431C43.346 71.1228 42.4696 72.0483 40.5341 72.0483M38.27 75.9637C41.1185 75.9637 42.3968 75.0381 43.3098 73.6855V75.7145H48.4588V62.8292C48.4588 58.5224 46.8154 56.3511 41.1185 56.3511C35.6041 56.3511 33.6687 57.9171 32.9017 61.7615L38.0145 62.5445C38.343 60.9072 38.8179 60.4087 40.936 60.4087C42.9811 60.4087 43.3098 61.263 43.3098 62.687V64.0041H40.8994C34.3626 64.0041 32.1347 65.9972 32.1347 70.055C32.1347 74.0415 34.1434 75.9637 38.27 75.9637" fill="black"/>
<path fill-rule="evenodd" clip-rule="evenodd" d="M50.926 75.7154H56.1849V48.2529L50.926 53.5025V75.7154Z" fill="black"/>
<path fill-rule="evenodd" clip-rule="evenodd" d="M63.3987 64.11V63.149C63.3987 61.4762 64.1657 60.3369 66.4664 60.3369C68.694 60.3369 69.4246 61.2981 69.4246 63.149V64.11H63.3987ZM66.4664 75.9988C72.5287 75.9988 74.1355 73.1511 74.5006 70.3036L69.4976 69.5561C69.2785 71.2646 68.9498 72.1545 66.4664 72.1545C63.9468 72.1545 63.3987 70.9087 63.3987 69.2714V67.7053H74.5006V64.2882C74.5006 59.5185 72.6381 56.3506 66.4664 56.3506C60.3678 56.3506 58.2862 59.5542 58.2862 63.612V68.7375C58.2862 72.6885 60.4043 75.9988 66.4664 75.9988V75.9988Z" fill="black"/>
<path fill-rule="evenodd" clip-rule="evenodd" d="M84.6557 75.9994C90.6812 75.9994 93.1644 72.9027 93.1644 68.7381V63.6126C93.1644 59.3769 90.6812 56.3511 84.6557 56.3511C78.6298 56.3511 76.2197 59.3769 76.2197 63.6126V68.7381C76.2197 72.9027 78.5934 75.9994 84.6557 75.9994M84.6546 71.8703C82.5363 71.8703 81.4774 70.767 81.4774 68.9872V63.5057C81.4774 61.6905 82.5363 60.5871 84.6546 60.5871C86.7727 60.5871 87.9046 61.6905 87.9046 63.5057V68.9872C87.9046 70.767 86.7727 71.8703 84.6546 71.8703" fill="black"/>
<path fill-rule="evenodd" clip-rule="evenodd" d="M103.086 61.7835H100.267V75.6033H95.0082V61.7835H95.0081L100.146 56.5342H108.223L103.086 61.7835Z" fill="black"/>
<path opacity="0.5" fill-rule="evenodd" clip-rule="evenodd" d="M29.7169 40L22.6643 47.3784H40.0865L47.1391 40H29.7169Z" fill="black"/>
<path fill-rule="evenodd" clip-rule="evenodd" d="M14.6058 42.5172C14.7483 42.3746 14.9416 42.2944 15.1431 42.2944H38.0571C38.3641 42.2944 38.641 42.4793 38.7586 42.763C38.8762 43.0466 38.8114 43.3732 38.5944 43.5904L31.9872 50.2056C31.8448 50.3482 31.6515 50.4283 31.45 50.4283H8.53601C8.22895 50.4283 7.95212 50.2434 7.83453 49.9598C7.71693 49.6761 7.78173 49.3496 7.99872 49.1323L14.6058 42.5172ZM15.4579 43.8132L10.3677 48.9096H31.1351L36.2254 43.8132H15.4579Z" fill="black"/>
</svg>
