<?xml version="1.0" encoding="UTF-8"?><svg id="Layer_2" xmlns="http://www.w3.org/2000/svg" viewBox="0 0 75.49 37.99"><g id="Layer_1-2"><path d="M18.46,0C21.49,0,24.12,.54,26.42,1.61c4.54,2.1,7.67,5.42,11.57,10.89,1.71-2.69,3.37-4.88,5.08-6.64C46.44,2.3,50.93,0,56.99,0c10.3-.2,18.7,8.2,18.51,18.99,.15,11.18-8.11,19.14-18.51,18.99-9.28-.1-14.06-4.44-18.99-12.01-1.9,2.64-3.71,4.79-5.47,6.49-3.52,3.37-8.01,5.52-14.06,5.52C8.11,38.14-.14,30.18,0,19-.19,8.21,8.16-.19,18.46,0Zm.54,29.98c1.9,0,3.56-.49,5.08-1.42,3.08-1.9,5.13-4.83,7.91-9.57-1.42-2.39-2.69-4.35-3.86-5.86-2.34-3.12-5.37-5.18-9.13-5.18h-.54c-5.42,0-9.47,4.59-9.47,11.04,0,6.88,4,10.99,9.47,10.99h.54Zm37.5,0c6.05,0,9.96-4.1,9.96-10.99s-3.86-11.04-9.96-11.04h-.54c-5.37,.15-8.5,4.2-12.5,11.04,1.61,2.59,2.98,4.64,4.1,6.15,2.29,2.93,4.93,4.83,8.4,4.83h.54Z"/></g></svg>